<svg id="Layer_1" enable-background="new 0 0 496.018 496.018" height="512" viewBox="0 0 496.018 496.018" width="512" xmlns="http://www.w3.org/2000/svg"><path d="m104 251.509h-40c-13.255 0-24 10.745-24 24v78h88v-78c0-13.255-10.745-24-24-24z" fill="#b5f26d"/><path d="m416 231.179v-155.67c0-13.255-10.745-24-24-24h-40c-13.255 0-24 10.745-24 24v114.06c-20.7.67-39.91 7.24-56 18.1v-32.16c0-13.255-10.745-24-24-24h-40c-13.255 0-24 10.745-24 24v178h57.84c18.94 29.47 52.02 49 89.66 49 88.746 0 137.757-102.057 84.5-171.33z" fill="#b5f26d"/><g fill="#ccfca9"><path d="m392.508 71.501c-5.357.004-12.067.008-20.502.008-13.254 0-24.006 10.745-24.006 24v95.271c-6.656-1.039-13.482-1.435-20-1.21v-114.061c0-13.255 10.745-24 24-24 42.968 0 40.276-.019 41.277.033 12.79.672 12.04 19.95-.769 19.959z"/><path d="m248.508 171.501c-5.356.004-12.067.008-20.502.008-13.255 0-24.006 10.745-24.006 23.999v158.001h-20v-178c0-13.255 10.745-24 24-24 42.968 0 40.276-.019 41.277.033 12.79.672 12.04 19.95-.769 19.959z"/><path d="m104.508 271.501c-5.356.004-12.067.008-20.502.008-13.254 0-24.006 10.745-24.006 24v58.001h-20v-78c0-13.255 10.745-24 24-24 42.968 0 40.276-.019 41.277.033 12.79.671 12.04 19.949-.769 19.958z"/></g><path d="m421.16 353.509c-41.965 65.296-137.354 65.297-179.32 0-45.529-70.856 5.83-164 89.66-164 84.141 0 135.054 93.354 89.66 164z" fill="#75f6fc"/><path d="m320.025 190.003c9.743-1.093 13.198 12.585 4.024 16.046-59.577 22.48-91.1 97.632-51.903 157.935 5.287 8.134-5.252 17.247-12.418 10.707-21.333-19.469-34.728-47.502-34.728-78.682 0-57.287 43.917-100.27 95.025-106.006z" fill="#bafbfe"/><path d="m298.412 283.115c-2.046 5.266-2.811 11.032-2.213 16.677.932 8.787-5.436 16.666-14.224 17.598-8.805.931-16.667-5.45-17.598-14.224-1.134-10.697.32-21.638 4.206-31.64 3.2-8.237 12.473-12.32 20.708-9.119 8.238 3.199 12.321 12.471 9.121 20.708zm181.588 177.394c-4.095 0-8.189-1.562-11.313-4.686l-62.662-62.662c-53.705 41.294-131.162 31.242-172.463-23.652-8.551 0-208.325 0-217.562 0-8.836 0-16-7.164-16-16s7.164-16 16-16h8v-86c0-8.837 7.164-16 16-16h88c8.836 0 16 7.163 16 16v86h24v-186c0-8.836 7.164-16 16-16h88c8.836 0 16 7.164 16 16v29.988c7.664-2.921 15.693-5.095 24-6.429v-123.559c0-8.836 7.164-16 16-16h88c8.836 0 16 7.164 16 16v174.542c23.295 33.364 27.896 75.082 14.758 111.458h3.242c8.836 0 16 7.164 16 16s-7.164 16-16 16h-20.562c-.259.344-.524.683-.786 1.025l62.662 62.662c10.111 10.111 2.809 27.313-11.314 27.313zm-136-393v106.633c20.591 2.096 39.69 9.315 56 20.356v-126.989zm-232 270v-70h-56v70zm104.242 0c-17.621-48.79-2.658-104.612 39.758-137.904v-32.096h-56v170zm115.258 49c49.902 0 90.5-40.598 90.5-90.5s-40.598-90.5-90.5-90.5-90.5 40.598-90.5 90.5 40.598 90.5 90.5 90.5z" fill="#4c3546"/></svg>