<svg id="Layer_1" enable-background="new 0 0 496 496" height="512" viewBox="0 0 496 496" width="512" xmlns="http://www.w3.org/2000/svg"><path d="m310.4 325.822c-.075-.034-37.634-16.799-37.71-16.83-4.454 0-150.926 0-155.38 0-.076.03-69.985 31.247-70.06 31.28-19.01 8.49-31.25 27.36-31.25 48.18v54.56c0 8.837 7.163 16 16 16h326c8.837 0 16-7.163 16-16v-5.34c-57.771 0-92.693-63.128-63.6-111.85z" fill="#aaa"/><path d="m117.26 309.012c0 .1-.814-1.364 63.945 108.844 6.185 10.525 21.405 10.525 27.589 0 64.734-110.166 63.945-108.744 63.945-108.844-.1-.04-155.378-.04-155.479 0z" fill="#bbfbff"/><path d="m205.19 308.992 21.87 77.78-18.265 31.084c-6.185 10.525-21.405 10.525-27.589 0l-18.265-31.084 21.87-77.78z" fill="#fe4f60"/><path d="m195.5 26.332c57.71 0 104.5 46.78 104.5 104.5 0 57.71-46.79 104.5-104.5 104.5s-104.5-46.79-104.5-104.5c0-57.72 46.79-104.5 104.5-104.5z" fill="#ffebd2"/><path d="m374 289.672c66.13 0 98.517 80.143 52.33 126.33-46.18 46.18-126.33 13.812-126.33-52.33 0-40.935 33.195-74 74-74z" fill="#75f6fc"/><path d="m378.678 314.123c-29.398 10.823-50.147 39.382-48.599 73.012.641 13.916-18.6 18.515-24.07 5.703-21.095-49.413 15.409-103.166 67.99-103.166 15.085 0 17.677 19.665 4.679 24.451z" fill="#bafbfe"/><path d="m132.8 335.472-55.55 24.8c-19.01 8.49-31.25 27.36-31.25 48.18v36.56c0 7.732-6.268 14-14 14-8.832 0-16-7.159-16-16v-54.56c0-20.82 12.24-39.69 31.25-48.18l70.01-31.26c0 .101-.114-.184 15.54 26.46z" fill="#b2b2b2"/><path d="m202.14 318.992h-8.967c-1.989 0-3.736 1.323-4.274 3.238l-17.857 63.495c-1.059 3.767-6.121 4.421-8.103 1.047l21.87-77.78h20.38l1.225 4.359c.797 2.832-1.332 5.641-4.274 5.641z" fill="#ff6d7a"/><path d="m166.61 373.702-3.67 13.07-45.68-77.75c0-.101.942-.03 11.33-.03z" fill="#75f6fc"/><path d="m230.419 32.308c13.181 4.672 9.7 24.109-4.284 24.026-61.791-.368-105.149 50.294-105.21 104.899-.016 13.986-19.393 17.468-24.033 4.275-28.888-82.137 50.678-162.565 133.527-133.2z" fill="#fff3e4"/><path d="m491.314 458.358-43.4-43.4c41.337-59.392-1.387-141.286-73.914-141.286-27.658 0-52.438 12.544-68.961 32.238l-25.824-11.531c-4.448-1.986 6.813-1.39-161.907-1.39-4.725 0-.588-1.26-76.579 32.67-24.742 11.049-40.729 35.695-40.729 62.791v70.565c0 8.836 7.164 16 16 16s16-7.164 16-16v-70.565c0-14.487 8.547-27.664 21.776-33.571l56.934-25.422 70.495 119.976c6.175 10.51 21.412 10.515 27.59 0l70.495-119.976 9.8 4.376c-18.521 52.553 14.949 108.692 68.91 118.413v6.769c0 8.836 7.164 16 16 16s16-7.164 16-16v-6.769c12.926-2.329 24.899-7.432 35.286-14.661l43.4 43.4c6.248 6.248 16.378 6.248 22.627 0s6.249-16.379.001-22.627zm-259.022-112.081-5.987-21.288h18.495zm-87.093-21.288h18.495l-5.987 21.288zm49.801 84.756-14.811-25.207 14.811-52.668 14.811 52.668zm121-46.073c0-31.981 26.019-58 58-58s58 26.019 58 58-26.019 58-58 58-58-26.019-58-58zm-120.5-112.344c66.444 0 120.5-54.056 120.5-120.5s-54.056-120.5-120.5-120.5-120.5 54.056-120.5 120.5 54.056 120.5 120.5 120.5zm0-209c48.799 0 88.5 39.701 88.5 88.5s-39.701 88.5-88.5 88.5-88.5-39.701-88.5-88.5 39.701-88.5 88.5-88.5z" fill="#4c3546"/></svg>