<svg id="Layer_1" enable-background="new 0 0 496 496" height="512" viewBox="0 0 496 496" width="512" xmlns="http://www.w3.org/2000/svg"><ellipse cx="109" cy="182.158" fill="#ffebd2" rx="54.36" ry="54.355"/><path d="m202 335.86v16.34c0 8.837-7.163 16-16 16h-154c-8.837 0-16-7.163-16-16v-16.34c0-17.66 8.01-34.36 21.79-45.41 5.39-4.324 12.561-10.768 25.526-14.315 7.374-2.018 15.006 1.722 18.436 8.554 11.241 22.389 43.26 22.38 54.495-.002 3.429-6.832 11.061-10.571 18.434-8.554 12.833 3.509 19.932 9.828 25.528 14.317 13.781 11.05 21.791 27.75 21.791 45.41z" fill="#ffe773"/><g fill="#75f6fc"><path d="m442 0c-29.776 0-54 24.224-54 54s24.224 54 54 54 54-24.224 54-54-24.224-54-54-54z"/><path d="m442 388c-29.776 0-54 24.224-54 54s24.224 54 54 54 54-24.224 54-54-24.224-54-54-54z"/><path d="m442 194c-29.776 0-54 24.224-54 54s24.224 54 54 54 54-24.224 54-54-24.224-54-54-54z"/></g><path d="m132.891 133.32c7.294 3.575 4.528 14.525-3.594 14.481-31.901-.17-54.791 26.11-54.722 54.668.02 8.045-10.956 10.686-14.478 3.452-22.567-46.345 26.72-95.185 72.794-72.601z" fill="#fff3e4"/><path d="m79.759 291.745c-4.703 2.69-8.017 5.534-11.969 8.705-13.78 11.05-21.79 27.75-21.79 45.41 0 9.279-.095 13.965.04 16.865.138 2.988-2.259 5.475-5.25 5.475h-8.79c-8.837 0-16-7.163-16-16v-16.34c0-17.66 8.01-34.36 21.79-45.41 5.497-4.41 12.517-10.727 25.53-14.32 12.915-3.522 24.176 11.19 16.439 15.615z" fill="#ffec8f"/><path d="m138.241 291.745c4.703 2.69 8.017 5.534 11.969 8.705 13.78 11.05 21.79 27.75 21.79 45.41 0 9.279.095 13.965-.04 16.865-.138 2.988 2.259 5.475 5.25 5.475h8.79c8.837 0 16-7.163 16-16v-16.34c0-17.66-8.01-34.36-21.79-45.41-5.497-4.41-12.517-10.727-25.53-14.32-12.915-3.522-24.176 11.19-16.439 15.615z" fill="#fadf5a"/><path d="m448.514 35.389c-10.84 5.356-19.775 14.258-25.149 25.091-8.924 17.99-36.761 11.332-35.228-10.381 1.897-26.867 23.843-48.679 51.129-50.032 20.235-1.002 27.411 26.348 9.248 35.322z" fill="#bafbfe"/><path d="m448.476 423.367c-10.83 5.372-19.731 14.304-25.087 25.141-8.901 18.01-36.797 11.485-35.251-10.408 1.896-26.849 23.807-48.631 51.035-50.027 20.198-1.036 27.421 26.307 9.303 35.294z" fill="#bafbfe"/><path d="m448.476 229.367c-10.83 5.372-19.731 14.304-25.087 25.141-8.901 18.01-36.797 11.485-35.251-10.408 1.896-26.849 23.807-48.631 51.035-50.027 20.198-1.036 27.421 26.307 9.303 35.294z" fill="#bafbfe"/><path d="m109 252.512c38.794 0 70.356-31.562 70.356-70.356s-31.562-70.355-70.356-70.355-70.356 31.562-70.356 70.355c0 38.795 31.562 70.356 70.356 70.356zm0-108.711c21.149 0 38.356 17.206 38.356 38.355s-17.207 38.356-38.356 38.356-38.356-17.207-38.356-38.356 17.207-38.355 38.356-38.355zm109 192.061v32.336c0 8.836-7.164 16-16 16s-16-7.164-16-16v-32.336c0-12.874-5.759-24.877-15.8-32.933-5.103-4.095-10.06-8.645-19.495-11.291-16.918 34.428-66.472 34.472-83.411 0-9.409 2.639-14.362 7.173-19.495 11.291-10.041 8.056-15.8 20.06-15.8 32.933v32.336c0 8.836-7.164 16-16 16s-16-7.164-16-16v-32.336c0-22.63 10.124-43.731 27.774-57.893l4.454-3.573c13.125-10.53 29.62-16.33 46.447-16.33 8.226 0 15.111 6.237 15.922 14.422.735 7.418 6.927 13.013 14.403 13.013s13.667-5.594 14.403-13.013c.811-8.186 7.696-14.422 15.922-14.422 16.827 0 33.322 5.799 46.447 16.329l4.454 3.573c17.651 14.163 27.775 35.264 27.775 57.894zm64-214.862v111h51c8.836 0 16 7.164 16 16s-7.164 16-16 16h-51v111c0 28.122 22.878 51 51 51 8.836 0 16 7.164 16 16s-7.164 16-16 16c-45.767 0-83-37.233-83-83v-111h-19c-8.836 0-16-7.164-16-16s7.164-16 16-16h19v-111c0-45.767 37.233-83 83-83 8.836 0 16 7.164 16 16s-7.164 16-16 16c-28.122 0-51 22.878-51 51zm160-13c29.776 0 54-24.224 54-54s-24.224-54-54-54-54 24.224-54 54 24.224 54 54 54zm0-76c12.131 0 22 9.869 22 22s-9.869 22-22 22-22-9.869-22-22 9.869-22 22-22zm0 356c-29.776 0-54 24.224-54 54s24.224 54 54 54 54-24.224 54-54-24.224-54-54-54zm0 76c-12.131 0-22-9.869-22-22s9.869-22 22-22 22 9.869 22 22-9.869 22-22 22zm0-270c-29.776 0-54 24.224-54 54s24.224 54 54 54 54-24.224 54-54-24.224-54-54-54zm0 76c-12.131 0-22-9.869-22-22s9.869-22 22-22 22 9.869 22 22-9.869 22-22 22z" fill="#4c3546"/></svg>