<svg id="Layer_1" enable-background="new 0 0 496 496" height="512" viewBox="0 0 496 496" width="512" xmlns="http://www.w3.org/2000/svg"><path d="m480 130.978v162c0 17.673-14.327 32-32 32-211.675 0-197.564-.6-200.923 1.328l-101.837 58.476c-7.768 4.461-17.032-2.758-14.606-11.381l10.05-35.714c1.795-6.379-2.999-12.709-9.626-12.709h-83.058c-17.673 0-32-14.327-32-32v-162c0-17.673 14.327-32 32-32h400c17.673 0 32 14.327 32 32z" fill="#e8f8fc"/><path d="m448.852 129.001c-93.934-.046-368.531-.023-370.852-.023-17.67 0-32 14.33-32 32 0 69.596-.005 109.509-.005 132.445 0 19.358-29.126 20.306-29.965.966-.047-1.099-.03-164.412-.03-163.411 0-17.673 14.327-32 32-32h400c21.716 0 20.363 30.033.852 30.023z" fill="#f1fafc"/><path d="m448 82.978h-400c-26.467 0-48 21.533-48 48v162c0 26.467 21.533 48 48 48h75.137l-14.539 51.666c-3.871 13.757 10.961 25.336 23.369 18.209l121.689-69.875h194.344c26.468 0 48-21.533 48-48v-162c0-26.467-21.532-48-48-48zm16 210c0 8.822-7.178 16-16 16-215.961 0-201.293-.911-206.578 2.125l-91.405 52.486 9.645-34.277c2.872-10.207-4.816-20.334-15.402-20.334h-96.26c-8.822 0-16-7.178-16-16v-162c0-8.822 7.178-16 16-16h400c8.822 0 16 7.178 16 16zm-167.845-77.055-14.545 10.567 5.556 17.098c4.775 14.698-12.122 26.971-24.621 17.889l-14.545-10.568c-15.477 11.245-17.406 13.623-23.949 13.623-10.813 0-18.586-10.576-15.217-20.944l5.556-17.098-14.545-10.567c-12.503-9.085-6.045-28.944 9.405-28.944h17.978l5.556-17.098c4.776-14.699 25.66-14.693 30.434 0l5.556 17.098h17.979c15.451-.001 21.902 19.863 9.402 28.944zm130 0-14.545 10.567 5.556 17.098c4.775 14.698-12.122 26.97-24.621 17.889l-14.545-10.568-14.545 10.567c-12.504 9.085-29.394-3.195-24.621-17.889l5.556-17.098-14.545-10.567c-12.504-9.083-6.046-28.944 9.404-28.944h17.979l5.556-17.098c4.775-14.699 25.66-14.693 30.434 0l5.556 17.098h17.979c15.451 0 21.902 19.864 9.402 28.945zm-260 0-14.545 10.567 5.556 17.098c4.777 14.702-12.124 26.968-24.622 17.889l-14.544-10.568-14.544 10.567c-12.504 9.083-29.396-3.195-24.622-17.889l5.556-17.098-14.545-10.567c-12.503-9.085-6.045-28.944 9.405-28.944h17.978l5.556-17.098c4.776-14.699 25.659-14.693 30.434 0l5.556 17.098h17.978c15.454 0 21.902 19.863 9.403 28.945z" fill="#4c3546"/></svg>