<svg id="Layer_1" enable-background="new 0 0 496 496" height="512" viewBox="0 0 496 496" width="512" xmlns="http://www.w3.org/2000/svg"><path d="m448 38h-400c-17.67 0-32 14.33-32 32v272c0 17.67 14.33 32 32 32h153l-16.19 68h-53.81c-8.837 0-16 7.164-16 16s7.163 16 16 16h234c8.837 0 16-7.164 16-16s-7.163-16-16-16h-53.81l-16.19-68h153c17.67 0 32-14.33 32-32 0-10.416 0-259.309 0-272 0-17.67-14.33-32-32-32z" fill="#ededed"/><path d="m448 38h-400c-17.67 0-32 14.33-32 32v272c0 17.67 14.33 32 32 32h400c17.67 0 32-14.33 32-32 0-10.416 0-259.309 0-272 0-17.67-14.33-32-32-32z" fill="#75f6fc"/><path d="m341 317.5h-185.67c0-19.457 0-13.349 0-26.9 0-10.79 6.34-20.58 16.2-24.99l33.554-14.977c6.799-3.035 14.605-.367 18.376 6.165 10.975 19.01 38.421 19.017 49.408-.006 2.608-4.516 7.321-7.403 12.536-7.403 4.076 0 2.905-.067 39.386 16.22 9.86 4.41 16.21 14.2 16.21 24.99z" fill="#fe4f60"/><path d="m248.42 92.81c29.93 0 54.2 24.26 54.2 54.2 0 29.93-24.27 54.2-54.2 54.2s-54.2-24.27-54.2-54.2c0-29.94 24.27-54.2 54.2-54.2z" fill="#ffebd2"/><path d="m214.364 265.414c-9.836 4.386-22.466 10.032-22.834 10.196-9.86 4.41-16.2 14.2-16.2 24.99v8.527c0 4.624-3.749 8.373-8.373 8.373h-11.627v-26.9c0-10.79 6.34-20.58 16.2-24.99 36.342-16.226 35.256-16.22 39.39-16.22 9.252 0 11.58 12.396 3.444 16.024z" fill="#ff6d7a"/><path d="m341 290.6v26.9h-5.933c-3.351 0-6.067-2.716-6.067-6.067v-12.833c0-10.79-6.35-20.58-16.21-24.99-13.115-5.858-21.399-9.637-26.852-12.06-7.054-3.135-2.981-14.616 5.312-10.92l33.54 14.98c9.86 4.41 16.21 14.2 16.21 24.99z" fill="#e84857"/><path d="m272.186 98.284c7.356 3.594 4.716 14.571-3.471 14.527-31.757-.169-54.628 25.967-54.559 54.502.02 8.106-10.986 10.62-14.525 3.327-17.326-35.704 8.636-77.829 48.79-77.829 8.523-.001 16.588 1.966 23.765 5.473z" fill="#fff3e4"/><path d="m480 70v8h-392c-17.67 0-32 14.33-32 32v264h-8c-17.67 0-32-14.33-32-32v-272c0-17.67 14.33-32 32-32h400c17.67 0 32 14.33 32 32z" fill="#bbfbff"/><path d="m480 317.5v24.5c0 17.67-14.33 32-32 32-5.258 0-392.17 0-400 0-17.67 0-32-14.33-32-32v-24.5z" fill="#f7f7f7"/><path d="m56 317.5v56.5h-8c-17.67 0-32-14.33-32-32v-24.5z" fill="#f9f9f9"/><path d="m448 22h-400c-26.468 0-48 21.533-48 48v272c0 26.467 21.532 48 48 48h132.744l-12.381 52h-37.363c-8.837 0-16 7.164-16 16s7.163 16 16 16h234c8.837 0 16-7.164 16-16s-7.163-16-16-16h-37.363l-12.381-52h132.744c26.468 0 48-21.533 48-48v-272c0-26.467-21.532-48-48-48zm-400 32h400c8.822 0 16 7.178 16 16v231.5h-107v-10.896c0-17.088-10.082-32.631-25.686-39.599-45.427-20.283-35.322-17.613-55.468-17.613-7.364 0-13.777 5.026-15.536 12.177-3.107 12.624-21.188 12.63-24.296 0-1.759-7.151-8.172-12.177-15.536-12.177-13.459 0-15.213-.361-19.134 1.39l-36.334 16.223c-15.604 6.967-25.686 22.511-25.686 39.599v10.896h-107.324v-231.5c0-8.822 7.178-16 16-16zm277 247.5h-153.675v-10.896c0-4.479 2.643-8.553 6.732-10.379l32.156-14.358c17.315 28.276 58.612 28.228 75.897 0l32.156 14.358c4.09 1.826 6.732 5.9 6.732 10.379v10.896zm-30.256 140.5h-93.487l12.381-52h68.725zm153.256-84c-7.785 0-394.741 0-400 0-8.822 0-16-7.178-16-16v-8.5h432v8.5c0 8.822-7.178 16-16 16zm-199.578-140.795c38.707 0 70.198-31.491 70.198-70.198s-31.491-70.199-70.198-70.199-70.198 31.491-70.198 70.199 31.491 70.198 70.198 70.198zm0-108.397c21.063 0 38.198 17.136 38.198 38.199s-17.136 38.198-38.198 38.198-38.198-17.136-38.198-38.198c0-21.063 17.135-38.199 38.198-38.199z" fill="#4c3546"/></svg>