<svg id="Layer_1" enable-background="new 0 0 496 496" height="512" viewBox="0 0 496 496" width="512" xmlns="http://www.w3.org/2000/svg"><path d="m419.5 16h-304c-17.67 0-32 14.33-32 32v59h-15c-13.25 0-24 10.75-24 24v14c0 13.25 10.75 24 24 24h15v158h-15c-13.25 0-24 10.75-24 24v14c0 13.25 10.75 24 24 24h15v59c0 17.67 14.33 32 32 32h304c17.67 0 32-14.33 32-32v-400c0-17.67-14.33-32-32-32z" fill="#fe4f60"/><path d="m420.102 41.006c-77.019-.013-272.715-.006-274.602-.006-17.67 0-32 14.33-32 32 0 265.172-.142 356.027.019 387.991.057 11.402-14 16.983-21.679 8.554-5.18-5.687-8.34-13.247-8.34-21.545v-59h-15c-13.255 0-24-10.745-24-24v-14c0-13.255 10.745-24 24-24h15v-158h-15c-13.255 0-24-10.745-24-24v-14c0-13.255 10.745-24 24-24h15v-59c0-17.673 14.327-32 32-32h304c18.124 0 16.721 25.009.602 25.006z" fill="#ff6d7a"/><path d="m122.5 131v14c0 13.25-10.75 24-24 24-10.856 0-19.144 0-30 0-13.25 0-24-10.75-24-24v-14c0-13.25 10.75-24 24-24h30c13.25 0 24 10.75 24 24z" fill="#aaa"/><path d="m122.5 351v14c0 13.25-10.75 24-24 24-10.856 0-19.144 0-30 0-13.25 0-24-10.75-24-24v-14c0-13.25 10.75-24 24-24h30c13.25 0 24 10.75 24 24z" fill="#aaa"/><path d="m376 326.34v15.46c0 8.837-7.163 16-16 16h-154c-8.837 0-16-7.163-16-16v-15.46c0-10.82 6.36-20.63 16.24-25.04 36.349-16.227 35.263-16.25 39.809-16.25h73.901c4.546 0 3.397-.005 39.809 16.25 9.881 4.41 16.241 14.22 16.241 25.04z" fill="#f7f7f7"/><path d="m283.26 128.2c29.99 0 54.29 24.3 54.29 54.29 0 29.98-24.3 54.29-54.29 54.29s-54.29-24.31-54.29-54.29c0-29.99 24.3-54.29 54.29-54.29z" fill="#ffebd2"/><path d="m307.051 133.675c7.225 3.527 4.586 14.495-3.455 14.47-28.508-.087-54.796 22.695-54.626 54.641.043 8.118-10.896 10.882-14.474 3.595-22.61-46.059 26.344-95.265 72.555-72.706z" fill="#fff3e4"/><path d="m325.072 292.997c-66.997-.164-63.743-.262-67.542 1.443l-33.29 14.86c-9.88 4.41-16.24 14.22-16.24 25.04 0 3.085-.023 5.675-.04 7.882-.089 11.424-17.279 12.109-17.928.703-.052-.908-.032-.478-.032-16.584 0-10.82 6.36-20.63 16.24-25.04l33.29-14.86c4.275-1.918.231-1.39 80.42-1.39 2.25 0 4.47.47 6.52 1.39 3.382 1.508 2.305 6.565-1.398 6.556z" fill="#fff"/><path d="m105.109 126.992c-4.232.003-9.645.008-16.603.008-12.574 0-24.004 9.841-24.006 24.623-.001 9.6-12.974 12.864-17.362 4.324-1.686-3.282-2.638-7.004-2.638-10.947v-14c0-13.255 10.745-24 24-24 32.1 0 34.312-.765 40.934 2.631 8.539 4.38 5.273 17.354-4.325 17.361z" fill="#b2b2b2"/><path d="m105.109 346.992c-4.232.003-9.645.008-16.603.008-12.574 0-24.004 9.841-24.006 24.623-.001 9.6-12.974 12.864-17.362 4.324-1.686-3.282-2.638-7.004-2.638-10.947v-14c0-13.255 10.745-24 24-24 32.1 0 34.312-.765 40.934 2.631 8.539 4.38 5.273 17.354-4.325 17.361z" fill="#b2b2b2"/><path d="m419.5 0h-304c-26.468 0-48 21.533-48 48v43.025c-21.594.534-39 18.254-39 39.975v14c0 21.721 17.406 39.44 39 39.975v126.051c-21.594.534-39 18.254-39 39.975v14c0 21.721 17.406 39.44 39 39.975v43.024c0 26.467 21.532 48 48 48h304c26.468 0 48-21.533 48-48v-400c0-26.467-21.532-48-48-48zm-359 145v-14c0-4.411 3.589-8 8-8h30c4.411 0 8 3.589 8 8v14c0 4.411-3.589 8-8 8h-30c-4.411 0-8-3.589-8-8zm0 220v-14c0-4.411 3.589-8 8-8h30c4.411 0 8 3.589 8 8v14c0 4.411-3.589 8-8 8h-30c-4.411 0-8-3.589-8-8zm375 83c0 8.822-7.178 16-16 16h-304c-8.822 0-16-7.178-16-16v-43.025c21.594-.534 39-18.254 39-39.975v-14c0-21.721-17.406-39.44-39-39.975v-126.05c21.594-.534 39-18.254 39-39.975v-14c0-21.721-17.406-39.44-39-39.975v-43.025c0-8.822 7.178-16 16-16h304c8.822 0 16 7.178 16 16zm-152.24-195.218c38.76 0 70.293-31.533 70.293-70.293s-31.533-70.293-70.293-70.293-70.293 31.534-70.293 70.293 31.533 70.293 70.293 70.293zm0-108.586c21.115 0 38.293 17.178 38.293 38.293s-17.178 38.293-38.293 38.293-38.293-17.178-38.293-38.293 17.178-38.293 38.293-38.293zm108.74 182.141v31.467c0 8.836-7.163 16-16 16s-16-7.164-16-16v-31.467c0-4.498-2.653-8.589-6.761-10.423l-33.284-14.861h-73.91l-33.284 14.861c-4.107 1.833-6.761 5.925-6.761 10.423v31.467c0 8.836-7.163 16-16 16s-16-7.164-16-16v-31.467c0-17.107 10.094-32.668 25.714-39.643 39.519-17.645 38.368-17.642 42.921-17.642 87.437 0 82.904-.552 87.254 1.39l36.397 16.251c15.62 6.976 25.714 22.537 25.714 39.644z" fill="#4c3546"/></svg>