<svg id="Layer_1" enable-background="new 0 0 496 496" height="512" viewBox="0 0 496 496" width="512" xmlns="http://www.w3.org/2000/svg"><path d="m363.26 102v58.71c0 63.49-51.58 114.94-115.12 114.72-63.4-.22-114.3-52.56-114.3-115.96v-57.47c0-47.5 38.5-86 86-86h57.42c47.5 0 86 38.5 86 86z" fill="#ffebd2"/><path d="m410.19 360.63c-.093-.042-76.809-34.294-76.9-34.34-8.171 0-164.864 0-170.58 0-.091.046-76.807 34.298-76.9 34.34-20.87 9.31-34.31 30.03-34.31 52.89v34.48c0 17.673 14.327 32 32 32h329c17.673 0 32-14.327 32-32v-34.48c0-22.86-13.44-43.58-34.31-52.89z" fill="#aaa"/><path d="m333.29 326.29c-175.565 0-170.539-.02-170.64.03.023.023 71.571 121.79 71.555 121.762 6.185 10.526 21.405 10.526 27.59 0 75.103-127.819 71.595-121.742 71.495-121.792z" fill="#bbfbff"/><path d="m259.18 326.29 24.01 85.38-21.395 36.412c-6.185 10.526-21.405 10.526-27.59 0l-21.395-36.412 24.01-85.38z" fill="#fe4f60"/><path d="m338.83 41.97c-9.78-3.85-20.43-5.97-31.57-5.97h-57.42c-47.496 0-86 38.504-86 86v57.47c0 22.448 6.381 43.509 17.438 61.358 3.04 4.907-3.3 10.173-7.645 6.372-24.401-21.347-39.793-52.867-39.793-87.73v-57.47c0-47.496 38.504-86 86-86h57.42c24.14 0 45.96 9.95 61.57 25.97z" fill="#fff3e4"/><path d="m178.072 121.457c-11.342 10.293-26.511 16.543-44.232 16.543v-36c0-47.496 38.504-86 86-86h57.42c47.496 0 86 38.504 86 86v25c-3.397 0-71.039 22.163-151.569-11.556-11.395-4.771-24.471-2.289-33.619 6.013z" fill="#c79a83"/><path d="m281.174 35.899c-8.614.039-18.878.101-31.318.101-47.5 0-86.016 38.5-86.016 86v9.18c-8.78 4.36-18.89 6.82-30 6.82v-36c0-47.496 38.504-86 86-86 62.441 0 58.787-.046 61.918.116 12.74.656 12.172 19.727-.584 19.783z" fill="#e0b7a3"/><path d="m173.145 344.168c2.697 4.589.803 10.501-4.058 12.672l-53.277 23.79c-20.87 9.31-34.31 30.03-34.31 52.89v34.607c.026 6.735-6.986 11.299-12.946 8.163-10.353-5.446-17.054-16.27-17.054-28.29v-34.48c0-22.86 13.44-43.58 34.31-52.89l76.84-34.31c.01.01 5.959 10.13 10.495 17.848z" fill="#b2b2b2"/><path d="m323.135 344.168c-2.697 4.589-.803 10.501 4.058 12.672l53.277 23.79c20.87 9.31 34.31 30.03 34.31 52.89v34.607c-.026 6.735 6.986 11.299 12.946 8.163 10.353-5.446 17.054-16.27 17.054-28.29v-34.48c0-22.86-13.44-43.58-34.31-52.89l-76.84-34.31c-.009.01-5.959 10.13-10.495 17.848z" fill="#999"/><path d="m219.28 388.65-6.47 23.02c-.011-.018-50.145-85.335-50.16-85.35.1-.05-1.389-.03 20.06-.03-.1.05-1.76-2.871 36.57 62.36z" fill="#75f6fc"/><path d="m244.789 442.42c3.913 6.555-5.71 12.903-9.995 6.585-.494-.728.715 1.285-21.984-37.335l24.01-85.38h6.092c3.97 0 6.842 3.791 5.768 7.613-22.955 81.629-22.401 76.859-20.576 79.969 8.23 14.027 13.285 22.852 16.685 28.548z" fill="#ff6d7a"/><path d="m248.554 291.427c72.212 0 130.708-58.433 130.708-130.713v-58.714c0-56.243-45.757-102-102-102h-57.427c-56.243 0-102 45.757-102 102v57.468c0 72.627 58.633 131.959 130.719 131.959zm-28.719-259.427h57.427c38.598 0 70 31.402 70 70v12.068c-45.128 8.662-92.493 3.586-135.825-15.937 2.176-8.109-2.298-16.61-10.367-19.306-8.383-2.801-17.446 1.724-20.246 10.105-4.791 14.34-16.048 25.95-30.989 30.727v-17.657c0-38.598 31.402-70 70-70zm-70 120.58c18.461-3.477 34.363-12.928 45.938-26.422 46.504 21.551 99.223 29.196 151.489 20.433 0 18.482 2.379 52.741-29.035 84.046-62.187 61.972-168.393 17.347-168.393-71.168v-6.889zm266.876 193.436c-83.279-37.184-78.645-35.728-83.426-35.728-183.936 0-172.632-.602-177.094 1.39l-76.903 34.337c-26.598 11.876-43.784 38.371-43.784 67.5v66.485c0 8.836 7.164 16 16 16s16-7.164 16-16v-66.485c0-16.519 9.747-31.545 24.831-38.28l63.776-28.476 78.094 132.907c6.176 10.51 21.411 10.515 27.59 0l78.094-132.907 63.776 28.476c15.084 6.735 24.831 21.761 24.831 38.28v66.485c0 8.836 7.164 16 16 16s16-7.164 16-16v-66.485c-.001-29.128-17.187-55.623-43.785-67.499zm-128.285 25.162-8.124-28.89h25.099zm-97.827-28.89h25.099l-8.124 28.89zm57.401 97.69-17.944-30.539 17.944-63.811 17.944 63.81zm-36.8-237.578c5.302-7.069 15.33-8.503 22.4-3.2 8.66 6.494 20.42 6.285 28.8 0 7.068-5.302 17.098-3.869 22.4 3.2s3.869 17.098-3.2 22.4c-19.545 14.658-46.984 15.163-67.2 0-7.069-5.302-8.502-15.331-3.2-22.4z" fill="#4c3546"/></svg>