<svg id="Layer_1" enable-background="new 0 0 496 496" height="512" viewBox="0 0 496 496" width="512" xmlns="http://www.w3.org/2000/svg"><path d="m480 89.492v272c0 17.67-14.33 32-32 32h-163v18.16c0 12.12-12.95 19.84-23.61 14.08l-5.78-3.13c-8.668-4.671-15.244.013-21 3.13-10.66 5.76-23.61-1.96-23.61-14.08v-18.16h-163c-17.67 0-32-14.33-32-32v-272c0-17.67 14.33-32 32-32h400c17.67 0 32 14.33 32 32z" fill="#e8f8fc"/><path d="m248 259.492c-52.96 0-77.062 66.124-37 100.36v51.804c0 12.118 12.948 19.838 23.608 14.075l5.783-3.126c8.625-4.662 15.148-.037 21 3.126 10.66 5.762 23.608-1.957 23.608-14.075 0-10.121 0-42.161 0-51.804 40.088-34.258 15.915-100.36-36.999-100.36z" fill="#fe4f60"/><path d="m305 316.492c0 31.433-25.476 57-57 57-31.495 0-57-25.538-57-57 0-31.48 25.52-57 57-57s57 25.52 57 57z" fill="#ffe773"/><path d="m448.324 97.492h-360.324c-17.673 0-32 14.327-32 32v232.351c0 25.92-38.995 27.042-39.972 1.14-.044-1.153-.028-274.491-.028-273.491 0-17.673 14.327-32 32-32h400c27.746 0 26.421 40 .324 40z" fill="#f1fafc"/><path d="m271.674 264.626c7.677 3.51 5.086 14.912-3.355 14.866-33.525-.183-57.409 27.388-57.384 57.244.007 8.404-11.396 10.932-14.868 3.278-21.578-47.559 27.765-97.264 75.607-75.388z" fill="#ffec8f"/><path d="m213.91 420.886c-3.868-5.448-2.91-4.795-2.91-61.035 8.351 7.155 12 6.327 12 10.923v46.877c0 5.236-6.297 7.17-9.09 3.235z" fill="#ff6d7a"/><path d="m448 41.492h-400c-26.467 0-48 21.533-48 48v272c0 26.467 21.533 48 48 48h147v29c0 12.112 12.969 19.825 23.608 14.075l29.392-15.887c31.694 17.132 31.619 17.812 37 17.812 8.816 0 16-7.152 16-16v-29h147c26.467 0 48-21.533 48-48v-272c0-26.467-21.533-48-48-48zm-200 316c-22.607 0-41-18.393-41-41s18.393-41 41-41 41 18.393 41 41-18.393 41-41 41zm21 54.163c-23.05-12.46-19.205-12.322-42 0v-25.256c13.701 4.124 28.291 4.126 42 0zm195-50.163c0 8.822-7.178 16-16 16h-147v-10.879c43.789-46.28 10.999-123.121-53-123.121-63.982 0-96.804 76.825-53 123.121v10.879h-147c-8.822 0-16-7.178-16-16v-272c0-8.822 7.178-16 16-16h400c8.822 0 16 7.178 16 16zm-328-224c0-8.836 7.164-16 16-16h192c8.836 0 16 7.164 16 16s-7.164 16-16 16h-192c-8.836 0-16-7.164-16-16zm268 72c0 8.836-7.164 16-16 16h-280c-8.836 0-16-7.164-16-16s7.164-16 16-16h280c8.836 0 16 7.163 16 16zm0 72c0 8.836-7.164 16-16 16h-35.667c-8.836 0-16-7.164-16-16s7.164-16 16-16h35.667c8.836 0 16 7.163 16 16zm-244.333 0c0 8.836-7.164 16-16 16h-35.667c-8.836 0-16-7.164-16-16s7.164-16 16-16h35.667c8.836 0 16 7.163 16 16z" fill="#4c3546"/></svg>