<svg id="Layer_1" enable-background="new 0 0 496 496" height="512" viewBox="0 0 496 496" width="512" xmlns="http://www.w3.org/2000/svg"><path d="m370 72h-120v-40c0-8.837-7.163-16-16-16h-79c-8.837 0-16 7.163-16 16v40h-13c-8.837 0-16 7.163-16 16v392h276v-392c0-8.837-7.163-16-16-16z" fill="#f7f7f7"/><path d="m386 88v2c0 8.837-7.163 16-16 16h-209c-8.837 0-16 7.163-16 16v334c0 13.255-10.745 24-24 24h-11v-392c0-8.837 7.163-16 16-16h244c8.837 0 16 7.163 16 16z" fill="#fafafa"/><path d="m200 380h96v100h-96z" fill="#75f6fc"/><path d="m234.238 36h-59.238c-8.837 0-16 7.163-16 16v9.997c0 5.524-4.479 10.003-10.003 10.003h-9.997v-40c0-8.837 7.163-16 16-16 84.499 0 79.249-.017 80.088.03 12.761.715 11.931 19.97-.85 19.97z" fill="#fafafa"/><path d="m200 380h96v37h-96z" fill="#57f2f9"/><path d="m434 464h-32v-392c0-8.836-7.163-16-16-16h-120v-40c0-8.836-7.163-16-16-16h-111c-8.836 0-16 7.164-16 16v40h-13c-8.836 0-16 7.164-16 16v392h-32c-8.836 0-16 7.164-16 16s7.164 16 16 16h372c8.837 0 16-7.164 16-16s-7.163-16-16-16zm-279-432h79v24h-79zm61 432v-68h64v68zm96 0v-68h7c8.837 0 16-7.164 16-16s-7.163-16-16-16c-55.654 0-90.452 0-142 0-8.836 0-16 7.164-16 16s7.164 16 16 16h7v68h-58v-376h244v376zm-87-329c0 8.836-7.164 16-16 16h-18c-8.836 0-16-7.164-16-16s7.164-16 16-16h18c8.836 0 16 7.164 16 16zm95 0c0 8.836-7.163 16-16 16h-18c-8.837 0-16-7.164-16-16s7.163-16 16-16h18c8.837 0 16 7.164 16 16zm-95 60c0 8.836-7.164 16-16 16h-18c-8.836 0-16-7.164-16-16s7.164-16 16-16h18c8.836 0 16 7.164 16 16zm95 0c0 8.836-7.163 16-16 16h-18c-8.837 0-16-7.164-16-16s7.163-16 16-16h18c8.837 0 16 7.164 16 16zm-95 60c0 8.836-7.164 16-16 16h-18c-8.836 0-16-7.164-16-16s7.164-16 16-16h18c8.836 0 16 7.164 16 16zm95 0c0 8.836-7.163 16-16 16h-18c-8.837 0-16-7.164-16-16s7.163-16 16-16h18c8.837 0 16 7.164 16 16zm-95 60c0 8.836-7.164 16-16 16h-18c-8.836 0-16-7.164-16-16s7.164-16 16-16h18c8.836 0 16 7.164 16 16zm95 0c0 8.836-7.163 16-16 16h-18c-8.837 0-16-7.164-16-16s7.163-16 16-16h18c8.837 0 16 7.164 16 16z" fill="#4c3546"/></svg>