<svg id="Layer_1" enable-background="new 0 0 496.494 496.494" height="512" viewBox="0 0 496.494 496.494" width="512" xmlns="http://www.w3.org/2000/svg"><path d="m480.497 75.087v85.81c0 13.255-10.745 24-24 24h-59.97l-62.182 33.045c-5.806 3.086-12.649-1.762-11.664-8.263l3.756-24.781h-26.94c-13.26 0-24-10.75-24-24v-85.81c0-13.25 10.74-24 24-24h157c13.255-.001 24 10.744 24 23.999z" fill="#e8f8fc"/><path d="m165.857 127.407h-38.12c-31.53 0-57.09 25.55-57.09 57.08v38.15c0 42.08 33.8 76.83 75.88 76.97 42.18.15 76.41-34 76.41-76.14 0-45.932 0 6.215 0-38.98 0-31.53-25.55-57.08-57.08-57.08z" fill="#ffebd2"/><path d="m254.087 366.167c-.062-.028-50.979-22.769-51.04-22.8h-113.23c-.061.03-50.978 22.772-51.04 22.8-13.86 6.18-22.78 19.93-22.78 35.1v28.14c0 8.837 7.163 16 16 16h228.87c8.837 0 16-7.163 16-16v-28.14c0-15.17-8.92-28.92-22.78-35.1z" fill="#aaa"/><path d="m203.087 343.387c-.015.015-42.875 72.952-42.864 72.934-6.185 10.525-21.405 10.525-27.59-.001-44.88-76.385-42.916-72.903-42.816-72.953 116.293 0 113.17-.03 113.27.02z" fill="#bbfbff"/><path d="m95.722 353.496c3.022 5.142.901 11.769-4.545 14.201l-32.399 14.47c-13.86 6.18-22.78 19.93-22.78 35.1v12.396c0 12.77-19.239 13.617-19.968.868-.052-.908-.032.706-.032-29.264 0-15.17 8.92-28.92 22.78-35.1l51-22.78c.099.098 6.003 10.21 5.944 10.109z" fill="#b2b2b2"/><path d="m197.333 353.496c-3.022 5.142-.901 11.769 4.545 14.201l32.399 14.47c13.86 6.18 22.78 19.93 22.78 35.1v12.396c0 12.77 19.238 13.617 19.968.868.052-.908.032.706.032-29.264 0-15.17-8.92-28.92-22.78-35.1l-51-22.78c-.1.098-6.004 10.21-5.944 10.109z" fill="#999"/><path d="m154.034 417.461c4.64 7.024-14.073 11.338-21.397-1.144-43.308-73.699-42.76-72.832-42.86-72.93.1-.05 15.102-.02 15.002-.02 3.118 0 5.996 1.649 7.566 4.343 8.122 13.939 33.505 57.362 41.689 69.751z" fill="#75f6fc"/><path d="m214.967 155.377c-16.479-9.786-26.808-7.97-67.23-7.97-31.529 0-57.09 25.546-57.09 57.08 0 40.952-.426 43.614 1.467 53.196 1.281 6.482-7.446 9.867-10.797 4.173-6.781-11.521-10.67-24.948-10.67-39.219v-38.15c0-31.524 25.556-57.08 57.08-57.08h38.13c20.89 0 39.16 11.22 49.11 27.97z" fill="#fff3e4"/><path d="m113.752 190.356c-3.269-1.362-7.041-.429-9.27 2.324-7.668 9.47-19.373 15.707-33.835 15.707v-23.9c0-31.524 25.556-57.08 57.08-57.08h38.13c31.524 0 57.08 25.556 57.08 57.08v16.6c-5.119 0-44.761 16.11-109.185-10.731z" fill="#c79a83"/><path d="m198.014 137.319c5.144 3.514 1.923 11.486-4.248 10.631-5.104-.707-3.864-.543-46.029-.543-31.31 0-56.73 25.19-57.08 56.41-6.469 3.253-13.043 4.57-20.01 4.57v-23.9c0-31.524 25.556-57.08 57.08-57.08h38.13c11.926 0 22.999 3.657 32.157 9.912z" fill="#e0b7a3"/><path d="m456.987 71.068c-20.507-.01-60.145.019-137.49.019-13.26 0-24 10.75-24 24 0 32.96-.016 53.47-.017 66.332-.002 12.806-19.267 13.563-19.948.775-.053-1-.034 4.659-.034-87.108 0-13.25 10.74-24 24-24h157c14.528.001 13.336 19.988.489 19.982z" fill="#f1fafc"/><path d="m456.494 35.091h-157c-22.056 0-40 17.944-40 40v85.802c0 22.056 17.944 40 40 40h8.337l-3.351 22.112c-1.969 12.993 11.746 22.682 23.328 16.526l72.703-38.638h55.982c22.056 0 40-17.944 40-40v-85.802c.001-22.056-17.943-40-39.999-40zm8 125.803c0 4.411-3.589 8-8 8h-59.97c-5.318 0-3.1-.472-55.639 27.45 1.327-8.761 3.425-15.204-2.316-21.882-3.04-3.535-7.47-5.568-12.132-5.568h-26.943c-4.411 0-8-3.589-8-8v-85.803c0-4.411 3.589-8 8-8h157c4.411 0 8 3.589 8 8zm-131.739-59.162c-8.966 0-16.261 7.294-16.261 16.261 0 8.966 7.295 16.26 16.261 16.26s16.261-7.294 16.261-16.26c0-8.967-7.295-16.261-16.261-16.261zm45.239-.149c-9.049 0-16.41 7.362-16.41 16.41s7.361 16.41 16.41 16.41 16.411-7.362 16.411-16.41-7.362-16.41-16.411-16.41zm45.24.149c-8.966 0-16.261 7.294-16.261 16.261 0 8.966 7.295 16.26 16.261 16.26s16.26-7.294 16.26-16.26c0-8.967-7.294-16.261-16.26-16.261zm-276.434 213.877c50.906 0 92.143-41.192 92.143-92.146v-38.974c0-40.3-32.787-73.086-73.087-73.086h-38.119c-40.3 0-73.087 32.786-73.087 73.086v38.147c-.001 51.175 41.338 92.973 92.15 92.973zm42.452-49.543c-37.745 37.613-102.603 10.98-102.603-43.714 9.894-2.659 18.954-7.756 26.434-15.337 28.985 12.668 61.29 17.568 93.859 13.299 0 17.347-4.349 32.458-17.69 45.752zm-61.516-122.663h38.119c22.655 0 41.087 18.431 41.087 41.086v3.504c-26.545 4.263-53.919 1.092-79.055-9.449-.258-6.452-4.417-12.374-10.905-14.541-8.384-2.801-17.445 1.727-20.244 10.107-1.063 3.184-3.787 9.126-10.089 13.51v-3.131c0-22.655 18.432-41.086 41.087-41.086zm132.878 208.15c-56.013-25.01-52.993-24.183-57.571-24.183-123.316 0-115.355-.571-119.746 1.39l-51.048 22.793c-19.591 8.747-32.249 28.262-32.249 49.718v44.132c0 8.836 7.163 16 16 16s16-7.164 16-16v-44.132c0-8.846 5.219-16.892 13.296-20.498l37.94-16.94 49.401 84.074c6.176 10.51 21.411 10.515 27.59 0l49.401-84.074 37.94 16.94c8.077 3.606 13.296 11.652 13.296 20.498v44.132c0 8.836 7.163 16 16 16s16-7.164 16-16v-44.132c-.001-21.456-12.659-40.971-32.25-49.718zm-114.182 56.665-28.703-48.849h57.405z" fill="#4c3546"/></svg>