<svg id="Layer_1" enable-background="new 0 0 496.004 496.004" height="512" viewBox="0 0 496.004 496.004" width="512" xmlns="http://www.w3.org/2000/svg"><path d="m48.002 376c-17.67 0-32-14.33-32-32v-296c0-17.67 14.33-32 32-32h400c17.67 0 32 14.33 32 32v296c0 17.67-14.33 32-32 32-7.425 0-389.184 0-400 0z" fill="#e8f8fc"/><g fill="#b5f26d"><path d="m279.002 179v115c0 8.837-7.163 16-16 16h-30c-8.837 0-16-7.163-16-16v-115c0-8.837 7.163-16 16-16h30c8.837 0 16 7.163 16 16z"/><path d="m392.002 128v166c0 8.837-7.163 16-16 16h-30c-8.837 0-16-7.163-16-16v-166c0-8.837 7.163-16 16-16h30c8.837 0 16 7.163 16 16z"/><path d="m166.002 230v64c0 8.837-7.163 16-16 16h-30c-8.837 0-16-7.163-16-16v-64c0-8.837 7.163-16 16-16h30c8.837 0 16 7.163 16 16z"/></g><path d="m269.616 183h-16.614c-8.837 0-16 7.163-16 16v111h-4c-8.837 0-16-7.163-16-16v-115c0-8.837 7.163-16 16-16h30c5.994 0 11.27 2.685 14.009 8.938 2.286 5.221-1.695 11.062-7.395 11.062z" fill="#ccfca9"/><path d="m382.616 132h-16.614c-8.837 0-16 7.163-16 16v162h-4c-8.837 0-16-7.163-16-16v-166c0-8.837 7.163-16 16-16h30c5.994 0 11.27 2.685 14.009 8.938 2.286 5.221-1.695 11.062-7.395 11.062z" fill="#ccfca9"/><path d="m156.616 234h-16.614c-8.837 0-16 7.163-16 16v60h-4c-8.837 0-16-7.163-16-16v-64c0-8.837 7.163-16 16-16h30c5.994 0 11.27 2.685 14.009 8.938 2.286 5.221-1.695 11.062-7.395 11.062z" fill="#ccfca9"/><path d="m448.509 46.023c-94.259-.046-368.189-.023-370.507-.023-17.67 0-32 14.33-32 32 0 1.568-.021 190.133.018 266.436.01 19.378-29.147 20.335-29.987.975-.048-1.096-.031-298.411-.031-297.411 0-17.673 14.327-32 32-32h400c21.28 0 20.011 30.032.507 30.023z" fill="#f1fafc"/><path d="m448.002 0h-400c-26.467 0-48 21.533-48 48v296c0 26.467 21.533 48 48 48h45.417l-32.307 82.144c-3.234 8.223.81 17.512 9.034 20.746 8.223 3.234 17.512-.811 20.746-9.033l12.922-32.857h288.376l12.922 32.856c2.478 6.301 8.509 10.148 14.894 10.148 11.242 0 19.016-11.357 14.885-21.86l-32.306-82.144h45.417c26.467 0 48-21.533 48-48v-296c0-26.467-21.533-48-48-48zm-68.397 421h-263.205l11.406-29h240.394zm84.397-77c0 8.823-7.178 16-16 16-4.417 0-392.83 0-400 0-8.822 0-16-7.177-16-16v-296c0-8.823 7.178-16 16-16h400c8.822 0 16 7.177 16 16zm-40-50h-16v-182c0-8.837-7.164-16-16-16h-62c-8.836 0-16 7.163-16 16v182h-19v-131c0-8.836-7.164-16-16-16h-62c-8.836 0-16 7.164-16 16v131h-19v-80c0-8.837-7.164-16-16-16h-62c-8.836 0-16 7.163-16 16v80h-16c-8.836 0-16 7.163-16 16s7.164 16 16 16h352c8.836 0 16-7.163 16-16s-7.163-16-16-16zm-304 0v-64h30v64zm113 0v-115h30v115zm113 0v-166h30v166z" fill="#4c3546"/></svg>