<svg id="Layer_1" enable-background="new 0 0 496 496" height="512" viewBox="0 0 496 496" width="512" xmlns="http://www.w3.org/2000/svg"><path d="m333.47 133.43c0-.016-8.282-102.701-8.283-102.716-.671-8.311-7.611-14.714-15.948-14.714h-112.478c-8.338 0-15.278 6.403-15.948 14.714l-8.283 102.706c-79.416 55.878-79.279 173.379 0 229.16l8.283 102.706c.67 8.311 7.61 14.714 15.948 14.714h112.477c8.338 0 15.278-6.403 15.948-14.714.001-.016 8.283-102.7 8.283-102.716 79.418-55.856 79.279-173.381.001-229.14z" fill="#ffe773"/><path d="m333.47 133.43c79.416 55.856 79.278 173.381 0 229.14v.01c-48.171 33.891-112.705 33.936-160.94 0-79.417-55.878-79.278-173.379 0-229.16 48.171-33.891 112.705-33.936 160.94 0z" fill="#e8f8fc"/><path d="m309.594 36h-92.834c-8.34 0-15.28 6.4-15.95 14.71l-5.158 64.018c-.283 3.511-2.407 6.584-5.553 8.168-6.126 3.085-11.995 6.607-17.569 10.525l8.28-102.71c.67-8.309 7.608-14.71 15.944-14.71h112.486c14.296-.001 13.266 19.999.354 19.999z" fill="#ffec8f"/><path d="m196.406 460h92.834c8.34 0 15.28-6.4 15.95-14.71l5.158-64.018c.283-3.511 2.407-6.584 5.553-8.168 6.126-3.085 11.996-6.607 17.569-10.525l-8.28 102.71c-.67 8.309-7.608 14.71-15.944 14.71h-112.486c-14.296.001-13.266-19.999-.354-19.999z" fill="#fadf5a"/><path d="m295.483 114.563c12.879 4.094 9.961 23.111-3.552 23.236-90.235.837-159.53 87.641-133.582 178.66 3.73 13.085-13.654 21.305-21.288 10.043-62.504-92.211 3.28-218.502 115.939-218.502 14.698 0 28.988 2.273 42.483 6.563z" fill="#f1fafc"/><path d="m311.498 375.23c-18.144 8.35-32.065-17.516-15.069-28.006 33.891-20.916 58.061-55.207 64.762-96.743 3.135-19.43 32.773-18.205 31.606 4.719-2.701 53.039-34.53 98.507-81.299 120.03z" fill="#d6f4fc"/><path d="m408.185 264h4.815c8.837 0 16-7.164 16-16s-7.163-16-16-16h-4.815c-4.438-43.362-26.713-81.519-59.343-107.001l-8.894-110.285c-.67-8.311-7.61-14.714-15.948-14.714h-142c-8.338 0-15.278 6.403-15.948 14.714l-8.894 110.285c-80.184 62.619-80.211 183.361 0 246.001l8.894 110.285c.67 8.312 7.61 14.715 15.948 14.715h142c8.338 0 15.278-6.403 15.948-14.714l8.894-110.285c32.63-25.482 54.905-63.639 59.343-107.001zm-211.423-232h112.477l5.88 72.916c-39.494-17.212-84.664-17.247-124.237 0zm-67.762 216c0-68.374 55.626-124 124-124s124 55.626 124 124-55.626 124-124 124-124-55.626-124-124zm180.238 216h-112.476l-5.88-72.916c39.495 17.213 84.664 17.247 124.237 0zm-105.81-178.897 33.572-42.645v-67.458c0-8.836 7.163-16 16-16s16 7.164 16 16v73c0 3.59-1.207 7.076-3.428 9.897l-37 47c-5.465 6.941-15.525 8.142-22.469 2.675-6.943-5.466-8.141-15.526-2.675-22.469zm-150.428-199.103c-8.837 0-16-7.164-16-16v-6h-6c-8.837 0-16-7.164-16-16s7.163-16 16-16h6v-6c0-8.836 7.163-16 16-16s16 7.164 16 16v6h6c8.837 0 16 7.164 16 16s-7.163 16-16 16h-6v6c0 8.836-7.163 16-16 16zm328-25c0-8.836 7.163-16 16-16h6v-6c0-8.836 7.163-16 16-16s16 7.164 16 16v6h6c8.837 0 16 7.164 16 16s-7.163 16-16 16h-6v6c0 8.836-7.163 16-16 16s-16-7.164-16-16v-6h-6c-8.837 0-16-7.164-16-16zm-250 397c0 8.836-7.163 16-16 16h-6v6c0 8.836-7.163 16-16 16s-16-7.164-16-16v-6h-6c-8.837 0-16-7.164-16-16s7.163-16 16-16h6v-6c0-8.836 7.163-16 16-16s16 7.164 16 16v6h6c8.837 0 16 7.164 16 16zm350-40c0 8.836-7.163 16-16 16h-6v6c0 8.836-7.163 16-16 16s-16-7.164-16-16v-6h-6c-8.837 0-16-7.164-16-16s7.163-16 16-16h6v-6c0-8.836 7.163-16 16-16s16 7.164 16 16v6h6c8.837 0 16 7.164 16 16z" fill="#4c3546"/></svg>