<svg id="Layer_1" enable-background="new 0 0 496 496" height="512" viewBox="0 0 496 496" width="512" xmlns="http://www.w3.org/2000/svg"><path d="m330 61c-8.837 0-16 7.163-16 16 0 1.968 0 83.899 0 83 0 8.837 7.163 16 16 16h134c8.837 0 16-7.163 16-16 0-1.956 0-84.982 0-83 0-8.837-7.163-16-16-16-4.199 0-136.77 0-134 0z" fill="#c79a83"/><path d="m479.15 71.85c-1.61-.55-3.35-.85-5.15-.85h-133.999c-8.837 0-16.001 7.165-16.001 16.002 0 41.067-.071 62.293-.036 73.557.019 6.279-9.964 7.277-9.964-.559v-83c0-8.837 7.163-16 16-16h134c7.04 0 13.01 4.54 15.15 10.85z" fill="#cca48f"/><g fill="#75f6fc"><path d="m438.82 255v225h-83.73v-225c0-8.837 7.163-16 16-16h51.73c8.837 0 16 7.163 16 16z"/><path d="m289.86 322.23v157.77h-83.72v-157.77c0-8.837 7.163-16 16-16h51.72c8.837 0 16 7.163 16 16z"/><path d="m140.91 389.45v90.55h-83.73v-90.55c0-8.837 7.163-16 16-16h51.73c8.837 0 16 7.163 16 16z"/></g><path d="m480 77v35c0 8.837-7.163 16-16 16h-134c-8.837 0-16-7.163-16-16v-35c0-8.837 7.163-16 16-16h134c8.837 0 16 7.163 16 16z" fill="#e0b7a3"/><path d="m464.663 70.979c-15.337-.079-48.933.021-124.65.021-8.84 0-16.013 7.169-16.013 16.01 0 15.227-.045 24.165-.028 29.619.018 5.668-9.973 7.907-9.973-4.629v-35c0-8.837 7.163-16 16-16 142.179 0 134.261-.023 135.166.042 6.327.455 5.841 9.97-.502 9.937z" fill="#e6cbbf"/><path d="m391.09 259h31.977c12.898 0 13.923-20-.247-20h-51.73c-8.837 0-16 7.163-16 16v225h20v-205c0-8.837 7.163-16 16-16z" fill="#bbfbff"/><path d="m242.14 326.23h31.967c12.898 0 13.923-20-.247-20h-51.72c-8.837 0-16 7.163-16 16v157.77h20v-137.77c0-8.837 7.163-16 16-16z" fill="#bbfbff"/><path d="m93.18 393.45h31.979c12.912 0 13.904-20-.249-20h-51.73c-8.837 0-16 7.163-16 16v90.55h20v-70.55c0-8.837 7.163-16 16-16z" fill="#bbfbff"/><path d="m480 464h-25.182v-225c0-8.836-7.164-16-16-16h-83.728c-8.836 0-16 7.164-16 16v225h-33.227v-157.773c0-8.836-7.164-16-16-16h-83.728c-8.836 0-16 7.164-16 16v157.773h-33.227v-90.545c0-8.836-7.164-16-16-16h-83.726c-8.836 0-16 7.164-16 16v90.545h-25.182c-8.836 0-16 7.164-16 16s7.164 16 16 16h464c8.836 0 16-7.164 16-16s-7.164-16-16-16zm-406.818 0v-74.545h51.728v74.545zm148.954 0v-141.773h51.728v141.773zm148.955 0v-209h51.728v209zm108.909-419h-29v-29c0-8.836-7.164-16-16-16h-76c-8.836 0-16 7.164-16 16v29h-29c-8.836 0-16 7.164-16 16v115c0 8.836 7.164 16 16 16h166c8.836 0 16-7.164 16-16v-115c0-8.836-7.164-16-16-16zm-105-13h44v13h-44zm89 45v35h-134v-35zm-134 83v-16h134v16zm-307.995 98.396c-.219-8.833 6.766-16.172 15.6-16.391 51.707-1.279 103.215-18.408 145.864-52.669-16.464-4.877-14.649-28.889 2.389-31.192l37-5c9.946-1.346 18.675 6.715 18.118 16.744l-2 36c-.96 17.268-24.936 20.828-30.962 4.703-50.451 42.343-115.5 63.409-170.021 63.409-8.654 0-15.773-6.905-15.988-15.604z" fill="#4c3546"/></svg>