<svg id="Layer_1" enable-background="new 0 0 496.19 496.19" height="512" viewBox="0 0 496.19 496.19" width="512" xmlns="http://www.w3.org/2000/svg"><g fill="#ffe773"><path d="m126.355 359.388v16.31c0 13.26-10.75 24-24 24h-62.26c-13.25 0-24-10.74-24-24v-16.31c0-13.26 10.75-24 24-24h62.26c13.25 0 24 10.74 24 24z"/><path d="m126.355 423.698v16.32c0 13.26-10.75 24-24 24h-62.26c-13.25 0-24-10.74-24-24v-16.32c0-13.25 10.75-24 24-24h62.26c13.25 0 24 10.75 24 24z"/><path d="m303.225 423.698v16.32c0 13.26-10.75 24-24 24h-62.26c-13.25 0-24-10.74-24-24v-16.32c0-13.25 10.75-24 24-24h62.26c13.25 0 24 10.75 24 24z"/><path d="m303.225 359.388v16.31c0 13.26-10.75 24-24 24h-62.26c-13.25 0-24-10.74-24-24v-16.31c0-13.26 10.75-24 24-24h62.26c13.25 0 24 10.74 24 24z"/><path d="m303.225 295.068v16.32c0 13.25-10.75 24-24 24h-62.26c-13.25 0-24-10.75-24-24v-16.32c0-13.25 10.75-24 24-24h62.26c13.25 0 24 10.75 24 24z"/><path d="m425.095 161.098c30.38 0 55 24.62 55 55 0 28.514-22.113 54.97-56.7 54.97-29.59-.89-53.3-25.16-53.3-54.97 0-30.38 24.62-55 55-55z"/><path d="m480.095 295.068v16.32c0 13.25-10.75 24-24 24h-62.26c-13.25 0-24-10.75-24-24v-16.32c0-13.25 10.75-24 24-24h62.26c13.25 0 24 10.75 24 24z"/><path d="m480.095 359.388v16.31c0 13.26-10.75 24-24 24h-62.26c-13.25 0-24-10.74-24-24v-16.31c0-13.26 10.75-24 24-24h62.26c13.25 0 24 10.74 24 24z"/><path d="m480.095 423.698v16.32c0 13.26-10.75 24-24 24h-62.26c-13.25 0-24-10.74-24-24v-16.32c0-13.25 10.75-24 24-24h62.26c13.25 0 24 10.75 24 24z"/></g><path d="m126.355 375.698c0 13.255-10.745 24-24 24-66.436 0-62.509.015-63.404-.027-6.382-.3-6.011-9.918.378-9.881 9.969.059 26.005-.092 53.019-.093 13.259 0 24.006-10.758 24.007-24.017 0-3.007.022-5.605.04-7.881.049-6.343 9.393-6.628 9.887-.304.12 1.541.073 19.205.073 18.203z" fill="#fadf5a"/><path d="m103.131 345.294c-9.969-.059-26.005.093-53.036.093-13.25 0-24 10.74-24 24 0 3.02-.023 5.626-.04 7.907-.049 6.342-9.391 6.627-9.886.303-.101-1.293-.074-.332-.074-18.21 0-13.26 10.75-24 24-24h62.26c8.136.001 7.011 9.944.776 9.907z" fill="#ffec8f"/><path d="m126.355 440.013c0 13.255-10.745 24-24 24h-62.26c-8.14 0-7.004-9.944-.765-9.908 9.969.059 26.005-.092 53.019-.093 13.259 0 24.006-10.758 24.007-24.017 0-3.007.022-5.605.04-7.881.049-6.343 9.393-6.628 9.887-.304.119 1.541.072 19.205.072 18.203z" fill="#fadf5a"/><path d="m103.131 409.609c-9.969-.059-26.005.093-53.036.093-13.25 0-24 10.74-24 24 0 3.019-.023 5.626-.04 7.907-.049 6.342-9.391 6.627-9.886.303-.101-1.293-.074-.332-.074-18.21 0-13.26 10.75-24 24-24h62.26c8.136.001 7.011 9.944.776 9.907z" fill="#ffec8f"/><path d="m303.225 440.013c0 13.255-10.745 24-24 24h-62.26c-8.14 0-7.004-9.944-.765-9.908 9.969.059 26.005-.092 53.019-.093 13.259 0 24.006-10.758 24.007-24.017 0-3.007.022-5.605.04-7.881.049-6.343 9.393-6.628 9.887-.304.119 1.541.072 19.205.072 18.203z" fill="#fadf5a"/><path d="m280.001 409.609c-9.969-.059-26.005.093-53.036.093-13.25 0-24 10.74-24 24 0 3.019-.023 5.626-.04 7.907-.049 6.342-9.391 6.627-9.886.303-.101-1.293-.074-.332-.074-18.21 0-13.26 10.75-24 24-24h62.26c8.136.001 7.011 9.944.776 9.907z" fill="#ffec8f"/><path d="m303.225 375.698c0 13.255-10.745 24-24 24h-62.26c-8.14 0-7.004-9.944-.765-9.908 9.969.059 26.005-.092 53.019-.093 13.259 0 24.006-10.758 24.007-24.017 0-3.007.022-5.605.04-7.881.049-6.343 9.393-6.628 9.887-.304.119 1.541.072 19.205.072 18.203z" fill="#fadf5a"/><path d="m280.001 345.294c-9.969-.059-26.005.093-53.036.093-13.25 0-24 10.74-24 24 0 3.02-.023 5.626-.04 7.907-.049 6.342-9.391 6.627-9.886.303-.101-1.293-.074-.332-.074-18.21 0-13.26 10.75-24 24-24h62.26c8.136.001 7.011 9.944.776 9.907z" fill="#ffec8f"/><path d="m303.225 311.383c0 13.255-10.745 24-24 24h-62.26c-8.14 0-7.004-9.944-.765-9.907 9.969.059 26.005-.092 53.019-.093 13.259 0 24.006-10.758 24.007-24.017 0-3.007.022-5.605.04-7.881.049-6.343 9.393-6.628 9.887-.304.119 1.54.072 19.204.072 18.202z" fill="#fadf5a"/><path d="m280.001 280.979c-9.969-.059-26.005.093-53.036.093-13.25 0-24 10.74-24 24 0 3.02-.023 5.626-.04 7.907-.049 6.342-9.391 6.627-9.886.303-.101-1.293-.074-.332-.074-18.21 0-13.26 10.75-24 24-24h62.26c8.136.001 7.011 9.944.776 9.907z" fill="#ffec8f"/><path d="m480.225 440.013c0 13.255-10.745 24-24 24h-62.26c-8.139 0-7.004-9.944-.765-9.908 9.969.059 26.005-.092 53.019-.093 13.259 0 24.006-10.758 24.007-24.017 0-3.007.022-5.605.04-7.881.049-6.343 9.393-6.628 9.887-.304.119 1.541.072 19.205.072 18.203z" fill="#fadf5a"/><path d="m457.001 409.609c-9.969-.059-26.005.093-53.036.093-13.25 0-24 10.74-24 24 0 3.019-.023 5.626-.04 7.907-.049 6.342-9.391 6.627-9.886.303-.101-1.293-.074-.332-.074-18.21 0-13.26 10.75-24 24-24h62.26c8.136.001 7.011 9.944.776 9.907z" fill="#ffec8f"/><path d="m480.225 375.698c0 13.255-10.745 24-24 24h-62.26c-8.139 0-7.004-9.944-.765-9.908 9.969.059 26.005-.092 53.019-.093 13.259 0 24.006-10.758 24.007-24.017 0-3.007.022-5.605.04-7.881.049-6.343 9.393-6.628 9.887-.304.119 1.541.072 19.205.072 18.203z" fill="#fadf5a"/><path d="m457.001 345.294c-9.969-.059-26.005.093-53.036.093-13.25 0-24 10.74-24 24 0 3.02-.023 5.626-.04 7.907-.049 6.342-9.391 6.627-9.886.303-.101-1.293-.074-.332-.074-18.21 0-13.26 10.75-24 24-24h62.26c8.136.001 7.011 9.944.776 9.907z" fill="#ffec8f"/><path d="m480.225 311.383c0 13.255-10.745 24-24 24h-62.26c-8.139 0-7.004-9.944-.765-9.907 9.969.059 26.005-.092 53.019-.093 13.259 0 24.006-10.758 24.007-24.017 0-3.007.022-5.605.04-7.881.049-6.343 9.393-6.628 9.887-.304.119 1.54.072 19.204.072 18.202z" fill="#fadf5a"/><path d="m457.001 280.979c-9.969-.059-26.005.093-53.036.093-13.25 0-24 10.74-24 24 0 3.02-.023 5.626-.04 7.907-.049 6.342-9.391 6.627-9.886.303-.101-1.293-.074-.332-.074-18.21 0-13.26 10.75-24 24-24h62.26c8.136.001 7.011 9.944.776 9.907z" fill="#ffec8f"/><path d="m450.848 167.487c6.819 3.62 3.842 13.901-3.874 13.643-33.573-1.127-57.847 26.738-56.895 56.879.242 7.652-10.058 10.531-13.637 3.763-19.115-36.148 6.932-79.728 47.356-80.658 9.787-.227 19.011 2.105 27.05 6.373z" fill="#ffec8f"/><path d="m413.565 269.933c-5.227-1.06-4.437-8.85.896-8.826 28.529.13 55.634-22.181 55.634-55.009 0-6.114 7.742-6.5 8.814-1.422 8.596 40.735-27.807 72.868-65.344 65.257z" fill="#fadf5a"/><path d="m102.352 319.385h-62.257c-22.056 0-40 17.944-40 40 0 16.283-1.567 27.573 8.022 40.317-9.584 12.738-8.022 24.002-8.022 40.317 0 22.056 17.944 40 40 40h62.257c22.056 0 40-17.944 40-40 0-16.283 1.567-27.573-8.022-40.317 9.584-12.738 8.022-24.002 8.022-40.317 0-22.056-17.943-40-40-40zm-70.257 40c0-4.411 3.589-8 8-8h62.257c4.411 0 8 3.589 8 8v16.317c0 4.411-3.589 8-8 8h-62.257c-4.411 0-8-3.589-8-8zm78.257 80.633c0 4.411-3.589 8-8 8h-62.257c-4.411 0-8-3.589-8-8v-16.317c0-4.411 3.589-8 8-8h62.257c4.411 0 8 3.589 8 8zm168.872-184.95h-62.258c-22.056 0-40 17.944-40 40 0 16.283-1.567 27.573 8.022 40.317-9.584 12.738-8.022 24.002-8.022 40.317 0 8.998 2.988 17.31 8.022 24-9.584 12.738-8.022 24.002-8.022 40.317 0 22.056 17.944 40 40 40h62.258c22.056 0 40-17.944 40-40 0-16.283 1.567-27.573-8.022-40.317 9.584-12.738 8.022-24.002 8.022-40.317 0-8.998-2.988-17.31-8.022-24 9.584-12.738 8.022-24.002 8.022-40.317 0-22.056-17.944-40-40-40zm-70.258 40c0-4.411 3.589-8 8-8h62.258c4.411 0 8 3.589 8 8v16.317c0 4.411-3.589 8-8 8h-62.258c-4.411 0-8-3.589-8-8zm78.258 64.317v16.317c0 4.411-3.589 8-8 8h-62.258c-4.411 0-8-3.589-8-8v-16.317c0-4.411 3.589-8 8-8h62.258c4.411 0 8 3.589 8 8zm0 80.633c0 4.411-3.589 8-8 8h-62.258c-4.411 0-8-3.589-8-8v-16.317c0-4.411 3.589-8 8-8h62.258c4.411 0 8 3.589 8 8zm191.736-177.743c39.454-45.956 6.576-117.178-53.865-117.178-60.423 0-93.231 71.131-53.963 117.064-10.439 7.225-17.295 19.277-17.295 32.906 0 16.283-1.567 27.573 8.022 40.317-9.584 12.738-8.022 24.002-8.022 40.317 0 8.998 2.988 17.31 8.022 24-9.584 12.738-8.022 24.002-8.022 40.317 0 22.056 17.944 40 40 40h62.257c22.056 0 40-17.944 40-40 0-16.283 1.567-27.573-8.022-40.317 5.034-6.69 8.022-15.002 8.022-24 0-16.283 1.567-27.573-8.022-40.317 9.584-12.738 8.022-24.002 8.022-40.317.001-13.558-6.786-25.554-17.134-32.792zm-14.865 97.11v16.317c0 4.411-3.589 8-8 8h-62.257c-4.411 0-8-3.589-8-8v-16.317c0-4.411 3.589-8 8-8h62.257c4.411 0 8 3.589 8 8zm-70.257-40c-4.411 0-8-3.589-8-8v-16.317c0-4.411 3.589-8 8-8h62.257c4.411 0 8 3.589 8 8v16.317c0 4.411-3.589 8-8 8zm31.257-142.287c21.505 0 39 17.495 39 39 0 20.356-15.906 38.97-40.174 38.97-20.963-.625-37.826-17.859-37.826-38.97 0-21.505 17.495-39 39-39zm39 262.92c0 4.411-3.589 8-8 8h-62.257c-4.411 0-8-3.589-8-8v-16.317c0-4.411 3.589-8 8-8h62.257c4.411 0 8 3.589 8 8zm-463.952-209.056c-.686-8.81 5.901-16.507 14.71-17.192 144.689-11.256 280.822-67.186 390.951-159.203l-25.592 3.776c-8.743 1.288-16.875-4.751-18.164-13.493-1.29-8.742 4.751-16.874 13.493-18.164l70.06-10.337c10.561-1.565 19.687 7.504 18.175 18.091l-9.188 64.317c-1.14 7.98-7.986 13.739-15.819 13.739-9.778 0-17.233-8.647-15.859-18.265l1.989-13.921c-114.129 94.868-255.766 153.554-407.563 165.363-8.823.684-16.508-5.911-17.193-14.711z" fill="#4c3546"/></svg>