<svg id="Layer_1" enable-background="new 0 0 495.984 495.984" height="512" viewBox="0 0 495.984 495.984" width="512" xmlns="http://www.w3.org/2000/svg"><path d="m474.182 146.644-65-65c-6.57-6.57-16.87-7.8-24.68-2.77-17.11 11.03-38.45 14.73-59.04 9.34-24.24-6.34-51.12-.02-70.13 18.99l-7.04 7.04-55.91 5.72c-29.38 3-49.1-9.45-62.18-21.07-7.89-7.02-19.84-6.77-27.31.7l-81.07 81.07c-7.22 7.22-7.75 18.69-1.35 26.64 36.115 44.951 24.385 70.49 59.14 105.27l92.03 92.03c15 15 37.5 19.63 57.2 11.76l105.65-42.17c19.89-7.94 31.77-26.06 33.25-45.29l49.5-49.5c17.01-17.01 27.77-38.4 31.79-60.91 3.51-19.66 12.84-31.29 25.23-43.8 7.71-7.77 7.65-20.32-.08-28.05z" fill="#e0b7a3"/><path d="m290.779 209.5c-5.951-7.474-17.08-8.1-23.833-1.343l-3.994 3.996c-25.368 25.368-63.687 30.068-93.852 13.914-10.571-5.661-12.781-19.852-4.302-28.331l90.533-90.533c19.01-19.01 45.89-25.33 70.13-18.99 20.59 5.39 41.93 1.69 59.04-9.34 7.81-5.03 18.11-3.8 24.68 2.77l65 65c7.73 7.73 7.79 20.28.08 28.05-12.39 12.51-21.72 24.14-25.23 43.8-4.02 22.51-14.78 43.9-31.79 60.91l-49.5 49.5c.99-12.85-2.65-26.2-11.64-37.33-37.013-46.462-55.723-70.016-65.322-82.073z" fill="#ffebd2"/><path d="m203.732 158.804c-17.422 1.781-43.59 6.688-73.53-19.91-7.89-7.02-19.84-6.77-27.31.7l-61.265 61.266c-12.887 12.885-32.957-5.84-20.666-19.296.646-.708-3.98 3.94 81.931-81.971 7.47-7.47 19.42-7.72 27.31-.7 13.08 11.62 32.8 24.07 62.18 21.07l55.816-5.626c-1.346 1.346-39.29 39.29-44.466 44.467z" fill="#e6cbbf"/><path d="m334.492 374.194-105.65 42.17c-19.7 7.87-42.2 3.24-57.2-11.76l-2.527-2.527c-2.716-2.716-.075-7.22 3.64-6.243 11.069 2.913 23.013 2.334 34.098-2.09l108.55-43.33c23.727-9.472 36.375-33.037 34.06-56.157-.37-3.7 4.323-5.592 6.64-2.683 22.412 27.749 11.617 69.355-21.611 82.62z" fill="#d9a68d"/><path d="m406.191 95.734c-13.435 5.242-28.995 19.049-61.729 10.479-24.24-6.34-51.12-.02-70.13 18.99-62.585 62.585-81.511 80.283-90.237 90.602-11.533 13.64-33.084-4.282-19.293-18.072 4.259-4.259 87.11-87.11 90.53-90.53 19.01-19.01 45.89-25.33 70.13-18.99 20.59 5.39 41.93 1.69 59.04-9.34 7.81-5.03 18.11-3.8 24.68 2.77 4.397 4.398 2.802 11.831-2.991 14.091z" fill="#fff3e4"/><path d="m474.262 174.694c-12.39 12.51-21.72 24.14-25.23 43.8-4.02 22.51-14.78 43.9-31.79 60.91l-37.239 37.239c-4.443 4.443-12.049 2.289-13.475-3.831-.736-3.158-1.771-6.277-3.118-9.317-1.33-3.003-.755-6.505 1.567-8.827l35.264-35.264c17.01-17.01 27.77-38.4 31.79-60.91 5.373-30.092 24.842-40.168 29.131-49.397 2.38-5.122 9.025-6.447 13.019-2.453 7.731 7.73 7.791 20.28.081 28.05z" fill="#ffdfba"/><path d="m485.493 135.328-65-65c-11.868-11.87-30.65-13.93-44.661-4.898-13.62 8.781-30.501 11.444-46.321 7.304-30.48-7.975-63.24.897-85.496 23.154l-3.045 3.045-50.213 5.117c-18.77 1.911-34.634-3.525-49.926-17.117-14.222-12.642-35.858-12.05-49.253 1.346l-81.075 81.074c-12.982 12.984-14.06 33.611-2.505 47.982 34.311 42.674 22.147 68.399 60.302 106.552l92.032 92.031c13.215 13.216 30.848 20.243 48.821 20.242 17.458-.001 16.14-1.15 131.266-47.102 23.122-9.229 38.515-29.21 42.522-52.726l45.614-45.614c18.977-18.976 31.505-42.979 36.229-69.414 2.639-14.764 9.09-23.486 20.846-35.346 13.858-13.981 13.799-36.693-.137-50.63zm-156.937 224.01-105.646 42.168c-13.779 5.499-29.46 2.275-39.951-8.216l-92.032-92.032c-31.576-31.573-19.553-56.17-57.99-103.975-1.298-1.615-1.214-3.895.194-5.304l81.074-81.074c1.455-1.457 3.764-1.481 5.367-.055 35.025 31.131 66.513 25.841 85.582 23.897l-66.09 66.089c-6.244 6.244-6.249 16.38 0 22.627 37.361 37.361 97.833 37.367 135.198 0l3.968-3.968 65.36 82.049c15.993 19.993 7.811 48.675-15.034 57.794zm134.346-195.907c-12.521 12.631-25.121 27.07-29.619 52.244-3.568 19.963-13.027 38.088-27.355 52.416l-28.206 28.206c-4.601-10.022-4.883-9.394-50.039-66.08 18.364-1.173 35.47-8.866 48.599-21.996 6.249-6.249 6.249-16.379 0-22.628-6.248-6.248-16.379-6.248-22.627 0-15.859 15.859-43.069 18.725-62.977-1.174-6.248-6.245-16.377-6.245-22.625.002l-16.417 16.417c-21.191 21.19-53.17 24.062-77.203 9.887l92.209-92.209c14.254-14.253 35.24-19.934 54.769-14.823 24.473 6.402 50.627 2.26 71.761-11.367 1.432-.923 3.405-.659 4.694.631l65 64.999c1.513 1.513 1.529 3.969.036 5.475z" fill="#4c3546"/></svg>