<svg id="Layer_1" enable-background="new 0 0 496.332 496.332" height="512" viewBox="0 0 496.332 496.332" width="512" xmlns="http://www.w3.org/2000/svg"><path d="m480.129 201.166v247c0 17.679-14.319 32-32 32h-400c-17.679 0-32-14.319-32-32v-247l80-80v-73c0-17.67 14.33-32 32-32h240c17.67 0 32 14.33 32 32v73z" fill="#ededed"/><path d="m96.129 259.446c0-3.309 0-209.138 0-211.28 0-17.67 14.33-32 32-32h240c17.67 0 32 14.33 32 32v211.28c-97.185 70.803-67.669 49.303-133.16 97-11.23 8.17-26.45 8.17-37.68 0-65.487-47.695-35.978-26.2-133.16-97z" fill="#e8f8fc"/><path d="m368.878 38.154c-29.745-.009-90.196.012-213.737.012-17.677 0-32.011 14.33-32.011 32.008v187.34c0 8.986-10.198 14.174-17.461 8.882l-9.539-6.95v-211.28c0-17.673 14.327-32 32-32 1.592 0 240.338-.02 241.518.035 14.135.661 13.381 21.957-.77 21.953z" fill="#f1fafc"/><circle cx="248.129" cy="168.166" fill="#b5f26d" r="87"/><path d="m266.969 356.446c-11.23 8.17-26.45 8.17-37.68 0-83.002-60.452-12.66-9.216-213.16-155.28v247c0 17.679 14.319 32 32 32h400c17.679 0 32-14.319 32-32v-247c-193.092 140.668-127.891 93.178-213.16 155.28z" fill="#ffe773"/><path d="m96.129 121.166v50l-51.073 51.073-28.927-21.073z" fill="#f7f7f7"/><path d="m78.129 480.166h-30c-17.679 0-32-14.319-32-32v-247l30 21.86v225.14c0 17.679 14.319 32 32 32z" fill="#ffec8f"/><path d="m418.129 480.166h30c17.679 0 32-14.319 32-32v-247l-30 21.86v225.14c0 17.679-14.319 32-32 32z" fill="#fadf5a"/><path d="m318.719 318.756 152.04 152.04c-5.79 5.79-13.79 9.37-22.63 9.37h-400c-8.84 0-16.84-3.58-22.63-9.37l152.04-152.04 51.75 37.69c11.23 8.17 26.45 8.17 37.68 0z" fill="#ffec8f"/><path d="m189.072 347.223-128.867 128.868c-2.673 2.673-6.307 4.151-10.087 4.114-7.524-.073-16.358-1.148-24.618-9.409l152.04-152.04 9.874 7.194c6.967 5.077 7.755 15.176 1.658 21.273z" fill="#fff1ab"/><path d="m183.596 191.234c1.155 11.154-14.788 14.447-18.245 3.78-16.737-51.638 16.685-105.584 71.617-113.078 11.147-1.521 15.171 14.338 4.56 18.076-37.385 13.169-62.218 49.822-57.932 91.222z" fill="#ccfca9"/><path d="m420.129 141.166v103.71l-20 14.57v-138.28z" fill="#e3e3e3"/><path d="m492.522 191.046c-.795-.974 3.516 3.401-76.393-76.507v-66.373c0-26.467-21.532-48-48-48h-240c-26.468 0-48 21.533-48 48v66.373c-81.168 81.168-76.428 76.025-78.028 78.947-2.856 5.208-1.972-11.912-1.972 254.68 0 26.481 21.504 48 48 48h400c26.449 0 48-21.556 48-48 0-265.215 1.489-250.911-3.607-257.12zm-460.393 41.57 120.873 88.05-120.873 120.873zm147.055 107.122 40.683 29.635c16.904 12.314 39.621 12.314 56.525 0l40.683-29.635 124.427 124.428h-386.745zm164.073-19.072 120.873-88.05v208.923zm112.329-121.417-39.457 28.742v-68.198zm-327.457-167.083h240c8.822 0 16 7.178 16 16v203.136l-126.579 92.206c-5.635 4.105-13.207 4.105-18.842 0l-126.579-92.207c0-1.934 0-193.579 0-203.136 0-8.821 7.178-15.999 16-15.999zm-48 195.825-39.457-28.742 39.457-39.457zm168 43.175c56.794 0 103-46.206 103-103s-46.206-103-103-103-103 46.206-103 103 46.206 103 103 103zm0-174c39.149 0 71 31.851 71 71s-31.851 71-71 71-71-31.851-71-71 31.851-71 71-71zm-36.313 86.314c-6.249-6.249-6.249-16.379 0-22.628 6.248-6.248 16.379-6.248 22.627 0l3.687 3.687 28.687-28.687c6.248-6.248 16.379-6.248 22.627 0 6.249 6.249 6.249 16.379 0 22.628l-40 40c-6.248 6.248-16.379 6.248-22.627 0z" fill="#4c3546"/></svg>