<svg id="Layer_1" enable-background="new 0 0 496.002 496.002" height="512" viewBox="0 0 496.002 496.002" width="512" xmlns="http://www.w3.org/2000/svg"><path d="m171.045 405.46h-46.06c-17.673 0-32-14.327-32-32v-62.9h-29.671c-10.436 0-18.079-9.83-15.506-19.944l20.947-82.356c0-106.21 86.12-192.31 192.35-192.26 106.44.05 192.17 87.65 192.17 194.1 0 51.79-16.94 99.62-45.6 138.26l10.692 114.148c.879 9.385-6.504 17.492-15.93 17.492h-224.85c-9.878 0-17.397-8.863-15.786-18.609z" fill="#ffebd2"/><path d="m248.005 131c-33.14 0-60 26.86-60 60 0 24.09 14.19 44.86 34.67 54.4v31.27c0 13.973 11.33 25.33 25.33 25.33 13.99 0 25.33-11.34 25.33-25.33 0-3.994 0-27.655 0-31.27 20.48-9.54 34.67-30.31 34.67-54.4 0-33.14-26.86-60-60-60z" fill="#ffe773"/><path d="m273.335 276.67c0 22.643-27.43 33.72-43.24 17.91-4.59-4.58-7.42-10.92-7.42-17.91 0-3.915 0-27.355 0-31.27 16.014 7.466 34.628 7.475 50.66 0z" fill="#aaa"/><path d="m233.829 284.255c1.726 5.509-6.271 8.452-8.741 3.234-3.104-6.556-2.413-8.379-2.413-42.089 3.19 1.49 6.53 2.71 10 3.61 0 30.204-.341 30.472 1.154 35.245z" fill="#b2b2b2"/><path d="m252.024 156.651c-19.588 9.621-32.858 29.92-34.055 51.689-.795 14.457-20.587 17.993-25.862 4.509-14.865-37.998 11.189-79.817 53.731-81.772 14.597-.671 19.302 19.132 6.186 25.574z" fill="#ffec8f"/><path d="m295.089 19.049c16.346 2.961 13.98 27.08-2.631 26.957-106.251-.789-192.808 84.665-193.696 190.608-.009 1.092-.143 2.18-.412 3.238l-15.38 60.464c-1.533 6.026-6.958 10.244-13.176 10.244h-6.48c-10.44 0-18.08-9.83-15.51-19.94 22.181-87.2 20.937-81.615 20.957-84.006 1.001-119.38 109.501-208.725 226.328-187.565z" fill="#fff3e4"/><path d="m418.365 462.51-1.77-18.88c-.007-.003-32.183-14.079-60.564-26.494-20.481-8.959-28.334-33.945-16.641-52.998 3.937-6.415 8.477-13.967 14.224-23.268 4.65-7.51 2.32-17.37-5.2-22.02-7.51-4.65-17.37-2.32-22.02 5.2l-20.5 33.17c-18.67 30.21-51.01 48.24-86.52 48.24h-48.33c-6.412 38.786-4.375 26.455-9.24 55.93-1.62 9.75 5.9 18.61 15.78 18.61h224.85c9.431 0 16.811-8.11 15.931-17.49z" fill="#ffdfba"/><path d="m435.933 478.509c.824 8.798-5.641 16.598-14.438 17.422-8.807.817-16.599-5.642-17.422-14.439l-12.325-131.643c-.368-3.928.729-7.854 3.079-11.022 27.773-37.448 42.453-81.961 42.453-128.726 0-98.175-79.067-178.101-176.271-178.101-97.387 0-176.257 78.806-176.257 176.264 0 2.862 1.387-3.447-21.442 86.294h29.67c8.836 0 16 7.163 16 16v62.899c0 8.822 7.178 16 16 16 76.454 0 8.812-.457 94.394-.457 35.51 0 67.854-18.034 86.521-48.241l20.499-33.17c4.646-7.517 14.506-9.846 22.022-5.199 7.517 4.646 9.845 14.505 5.2 22.021-21.447 34.705-33.369 59.725-69.127 79.663-35.082 19.561-62.333 16.926-99.795 16.926l-10.186 61.61c-1.436 8.686-9.639 14.618-18.396 13.176-8.718-1.442-14.617-9.678-13.176-18.396l9.248-55.933h-27.204c-26.467 0-48-21.533-48-48v-46.899h-34.25c-10.422 0-18.079-9.831-15.506-19.944l25.538-100.392c1.088-113.75 93.363-206.222 208.347-206.222 114.786.054 208.17 94.305 208.17 210.101 0 51.6-15.577 100.82-45.11 142.753zm-171.928-388.509v-10c0-8.837-7.164-16-16-16s-16 7.163-16 16v10c0 8.837 7.164 16 16 16s16-7.163 16-16zm-127 85c-8.836 0-16 7.163-16 16s7.164 16 16 16h10c8.836 0 16-7.163 16-16s-7.164-16-16-16zm222 0h-10c-8.836 0-16 7.163-16 16s7.164 16 16 16h10c8.836 0 16-7.163 16-16s-7.164-16-16-16zm-19.127-53.245c6.249-6.248 6.25-16.379.001-22.627-6.248-6.249-16.378-6.251-22.627-.002l-7.071 7.07c-10.113 10.112-2.809 27.314 11.313 27.314 8.071.001 11.498-4.87 18.384-11.755zm-154.048 7.068c6.248-6.248 6.247-16.379-.001-22.627l-7.071-7.07c-6.249-6.248-16.379-6.248-22.627.002-6.248 6.248-6.247 16.379.001 22.627l7.071 7.07c6.249 6.248 16.38 6.248 22.627-.002zm20.841 147.844v-21.939c-20.845-13.567-34.667-37.057-34.667-63.728 0-41.906 34.093-76 76-76s76 34.094 76 76c0 26.671-13.822 50.161-34.667 63.728v21.939c0 22.791-18.542 41.333-41.333 41.333s-41.333-18.542-41.333-41.333zm50.667-10.261c-6.189.762-12.015.819-18.667 0v10.261c0 5.146 4.187 9.333 9.333 9.333s9.333-4.187 9.333-9.333v-10.261zm-53.333-75.406c0 24.262 19.738 44 44 44s44-19.738 44-44-19.738-44-44-44-44 19.738-44 44z" fill="#4c3546"/></svg>