<svg id="Layer_1" enable-background="new 0 0 496 496" height="512" viewBox="0 0 496 496" width="512" xmlns="http://www.w3.org/2000/svg"><path d="m48 272v192c0 8.836 7.163 16 16 16h136c8.837 0 16-7.164 16-16 0-12.381 0-183.929 0-192-6.671 0-158.88 0-168 0z" fill="#c79a83"/><path d="m357 16h-218c-17.67 0-32 14.33-32 32v128c0 17.67 14.33 32 32 32h77l-25 64h114l-25-64h77c17.67 0 32-14.33 32-32v-128c0-17.67-14.33-32-32-32z" fill="#e3e3e3"/><path d="m389 48v128c0 17.67-14.33 32-32 32-9.794 0-209.506 0-218 0-17.67 0-32-14.33-32-32v-128c0-17.67 14.33-32 32-32h218c17.67 0 32 14.33 32 32z" fill="#75f6fc"/><path d="m305 272h-114l17.19-44h79.62z" fill="#ededed"/><path d="m357.443 45.996c-28.533-.002-83.259.004-188.437.004-17.673 0-32.006 14.334-32.006 32.007 0 49.142-.004 79.564-.004 98.439-.001 19.465-29.996 20.738-29.996-.446v-128c0-17.673 14.327-32 32-32 1.454 0 218.314-.017 219.411.031 19.341.839 18.391 29.966-.968 29.965z" fill="#bbfbff"/><path d="m480 256h-164.073l-12.5-32h53.573c26.467 0 48-21.532 48-48v-128c0-26.468-21.533-48-48-48h-218c-26.467 0-48 21.532-48 48v128c0 26.468 21.533 48 48 48h53.573l-12.5 32c-3.196 0-160.595 0-164.073 0-8.836 0-16 7.163-16 16s7.164 16 16 16h16v192c0 8.837 7.164 16 16 16h168c8.836 0 16-7.163 16-16v-192h200v192c0 8.837 7.164 16 16 16s16-7.163 16-16v-192h16c8.836 0 16-7.163 16-16s-7.164-16-16-16zm-357-80v-128c0-8.822 7.178-16 16-16h218c8.822 0 16 7.178 16 16v128c0 8.822-7.178 16-16 16h-218c-8.822 0-16-7.178-16-16zm103.927 48h42.146l12.5 32c-22.575 0-44.663 0-67.146 0zm-162.927 240v-72h136v72zm136-104h-136v-72h136zm-40 68c0 8.837-7.164 16-16 16h-24c-8.836 0-16-7.163-16-16s7.164-16 16-16h24c8.836 0 16 7.163 16 16zm0-104c0 8.837-7.164 16-16 16h-24c-8.836 0-16-7.163-16-16s7.164-16 16-16h24c8.836 0 16 7.163 16 16zm42.313-220.687-14 14c-6.249 6.249-16.379 6.248-22.627 0-6.249-6.248-6.249-16.379 0-22.627l14-14c6.248-6.248 16.379-6.248 22.627 0 6.249 6.249 6.249 16.379 0 22.627zm120 27.374c6.249 6.248 6.249 16.379 0 22.627l-14 14c-6.249 6.249-16.379 6.248-22.627 0-6.249-6.248-6.249-16.379 0-22.627l14-14c6.249-6.249 16.379-6.249 22.627 0zm-21-42.374-76 76c-6.249 6.249-16.379 6.248-22.627 0-6.249-6.248-6.249-16.379 0-22.627l76-76c6.248-6.248 16.379-6.248 22.627 0 6.249 6.249 6.249 16.379 0 22.627z" fill="#4c3546"/></svg>