<svg id="Layer_1" enable-background="new 0 0 496.238 496.238" height="512" viewBox="0 0 496.238 496.238" width="512" xmlns="http://www.w3.org/2000/svg"><circle cx="248.238" cy="248.031" fill="#ffe773" r="232"/><path d="m248.238 248.031v232c-128.13 0-232-103.87-232-232z" fill="#fe4f60"/><path d="m412.288 83.981c-5.74 5.74-155.072 155.072-164.05 164.05h-232c0-128.13 103.87-232 232-232 64.06 0 122.06 25.97 164.05 67.95z" fill="#75f6fc"/><path d="m66.084 391.726c-31.215-39.515-49.846-89.429-49.846-143.694h63.44c-7.325 42.104-3.073 86.544 13.643 127.541 6.998 17.159-15.749 30.695-27.237 16.153z" fill="#ff6d7a"/><path d="m255.402 62.128c-86.35 20.455-159.013 89.726-175.723 185.903h-63.44c0-128.699 104.819-232.982 233.815-231.993 27.534.211 32.142 39.743 5.348 46.09z" fill="#bbfbff"/><g fill="#b5f26d"><path d="m120.238 153.031h-16c-8.836 0-16-7.163-16-16v-81c0-8.837 7.164-16 16-16h16c8.836 0 16 7.163 16 16v81c0 8.837-7.163 16-16 16z"/><path d="m185.238 153.031h-16c-8.836 0-16-7.163-16-16v-121c0-8.837 7.164-16 16-16h16c8.836 0 16 7.163 16 16v121c0 8.837-7.163 16-16 16z"/><path d="m56.238 153.031h-16c-8.836 0-16-7.163-16-16v-41c0-8.837 7.164-16 16-16h16c8.836 0 16 7.163 16 16v41c0 8.837-7.163 16-16 16z"/></g><path d="m248.238.031c-8.836 0-16 7.163-16 16s7.164 16 16 16c53.805 0 103.075 19.779 140.931 52.442l-147.558 147.558h-208.763c.883-12.039 2.737-23.964 5.591-35.608 2.104-8.582-3.149-17.245-11.731-19.349-8.583-2.103-17.245 3.149-19.349 11.731-44.145 180.112 117.358 342.136 296.648 300.927 8.612-1.979 13.989-10.566 12.01-19.178-1.98-8.613-10.57-13.985-19.178-12.01-10.678 2.455-21.593 4.073-32.601 4.88v-208.766l147.558-147.558c32.664 37.855 52.442 87.125 52.442 140.931 0 8.837 7.163 16 16 16s16-7.163 16-16c0-137.068-110.918-248-248-248zm-149.31 403.938 133.311-133.311v68.746l-94.281 94.281c-14.127-8.422-27.22-18.403-39.03-29.716zm-48.583-69.418 70.52-70.52h72.746l-116.125 116.126c-10.817-13.947-19.962-29.25-27.141-45.606zm-17.513-70.52h42.78l-36.828 36.828c-3.007-11.917-5.025-24.223-5.952-36.828zm199.406 120.627v78.78c-22.455-1.652-43.965-6.754-64.005-14.774zm-232-245.627c0-8.837 7.164-16 16-16h8v-27c0-8.837 7.164-16 16-16h16c8.836 0 16 7.163 16 16v27h16v-67c0-8.837 7.164-16 16-16h16c8.836 0 16 7.163 16 16v67h17v-107c0-8.837 7.164-16 16-16h16c8.836 0 16 7.163 16 16v107h7c8.836 0 16 7.163 16 16s-7.164 16-16 16h-192c-8.836 0-16-7.163-16-16zm375.003 183.789c0 8.01 5.088 15.145 12.659 17.756l25.107 8.658c20.472 7.059 34.228 26.352 34.228 48.008 0 22.859-15.186 42.233-35.997 48.58v18.209c0 8.837-7.163 16-16 16s-16-7.163-16-16v-18.209c-20.812-6.347-35.997-25.721-35.997-48.58 0-8.837 7.163-16 16-16s16 7.163 16 16c0 10.356 8.426 18.782 18.783 18.782h2.428c10.357 0 18.783-8.426 18.783-18.782 0-8.01-5.088-15.145-12.659-17.756l-25.107-8.658c-20.472-7.059-34.228-26.352-34.228-48.008 0-22.859 15.186-42.233 35.997-48.58v-18.209c0-8.837 7.163-16 16-16s16 7.163 16 16v18.209c20.812 6.347 35.997 25.721 35.997 48.58 0 8.837-7.163 16-16 16s-16-7.163-16-16c0-10.356-8.426-18.782-18.783-18.782h-2.428c-10.357 0-18.783 8.426-18.783 18.782z" fill="#4c3546"/></svg>