<svg id="Layer_1" enable-background="new 0 0 496.01 496.01" height="512" viewBox="0 0 496.01 496.01" width="512" xmlns="http://www.w3.org/2000/svg"><path d="m386.195 360.63c-75.749-33.823-76.788-34.284-76.9-34.34-8.17 0-164.864 0-170.58 0-.091.046-76.807 34.298-76.9 34.34-20.87 9.31-34.31 30.03-34.31 52.89v34.48c0 17.673 14.327 32 32 32h329c17.673 0 32-14.327 32-32v-34.48c0-22.86-13.44-43.58-34.31-52.89z" fill="#f7f7f7"/><path d="m149.149 344.168c2.697 4.589.803 10.501-4.058 12.672l-53.277 23.79c-20.87 9.31-34.31 30.03-34.31 52.89v34.607c.026 6.735-6.986 11.299-12.946 8.163-10.353-5.446-17.054-16.27-17.054-28.29v-34.48c0-22.86 13.44-43.58 34.31-52.89l76.84-34.31c.01.01 5.959 10.13 10.495 17.848z" fill="#f9f9f9"/><path d="m299.14 344.168c-2.697 4.589-.803 10.501 4.058 12.672l53.276 23.79c20.87 9.31 34.31 30.03 34.31 52.89v34.607c-.026 6.735 6.986 11.299 12.946 8.163 10.353-5.446 17.054-16.27 17.054-28.29v-34.48c0-22.86-13.44-43.58-34.31-52.89l-76.84-34.31c-.009.01-5.958 10.13-10.494 17.848z" fill="#ededed"/><path d="m252.705 16h-57.43c-47.525 0-86 38.536-86 86v58.71c0 63.486 51.586 114.939 115.12 114.72 63.4-.22 114.31-52.56 114.31-115.96 0-5.347 0-50.979 0-57.47 0-47.5-38.51-86-86-86z" fill="#ffebd2"/><path d="m337.405 375.633c-28.07-49.746-27.908-49.213-27.81-49.313-.108-.054-170.59-.05-170.69 0 .098.1.386-.656-27.802 49.314-3.237 5.739-1.242 13.015 4.47 16.299l24.143 13.882c3.463 1.991 5.708 5.575 5.989 9.56l3.418 48.538c.564 8.018 8.699 13.225 16.217 10.38l58.915-22.293 58.916 22.292c7.518 2.845 15.652-2.362 16.217-10.38l3.418-48.538c.281-3.985 2.526-7.569 5.989-9.56l24.141-13.881c5.712-3.285 7.707-10.561 4.469-16.3z" fill="#d6f4fc"/><path d="m309.535 326.29c.1.05 4.097-5.899-85.28 125.27-89.392-131.177-85.39-125.22-85.29-125.27z" fill="#bbfbff"/><path d="m314.285 41.98c-19.08-7.53-27.921-5.98-89.01-5.98-47.525 0-86 38.536-86 86 0 61.455-1.224 70.276 4.279 89.844 3.12 11.094-12.074 17.681-18.002 7.799-10.336-17.227-16.276-37.388-16.276-58.933 0-62.594-1.528-71.085 5.89-90.04 12.52-32 43.66-54.67 80.11-54.67h57.43c24.139 0 45.969 9.95 61.579 25.98z" fill="#fff3e4"/><path d="m252.705 16h-57.43c-36.45 0-67.59 22.67-80.11 54.67h-5.63c-44.73 0-81 36.26-81 81v108.33c44.812 0 81-36.325 81-81 0-.513-.26-21.602-.26-46 26.655 0 53.382-11.192 72.31-32.51 19.24 6.95 40.95 13.15 64.95 17.51 49.456 8.989 86.436 6 92.17 6v-22c0-47.5-38.51-86-86-86z" fill="#ffe773"/><path d="m257.203 16.116c12.739.657 12.162 19.724-.593 19.781-8.632.039-18.901.103-31.335.103-36.45 0-67.59 22.67-80.11 54.67-6.447 16.473-5.89 29.376-5.89 37.5-10.05 3.268-20.543 4.83-30 4.83v-31c0-47.447 38.459-86 86-86 62.152 0 58.723-.05 61.928.116z" fill="#ffec8f"/><path d="m115.165 70.67c-2.77 7.07-4.63 14.6-5.44 22.44-35.16 8.84-61.19 40.66-61.19 78.56v77.598c0 4.955-3.606 9.228-8.512 9.924-3.754.533-7.589.808-11.488.808v-108.33c0-44.74 36.27-81 81-81z" fill="#ffec8f"/><path d="m233.118 438.555-8.863 13.005c-.012-.018-85.335-125.225-85.35-125.24.1-.05 21.696-.03 21.596-.03 5.295 0 10.244 2.615 13.223 6.992 12.386 18.195 45.612 67.007 59.402 87.264 3.7 5.436 3.694 12.576-.008 18.009z" fill="#75f6fc"/><path d="m454.754 467.162v12.838c0 8.837-7.163 16-16 16s-16-7.163-16-16v-12.838c-17.177-6.171-29.498-22.619-29.498-41.894 0-8.837 7.163-16 16-16s16 7.163 16 16c0 6.895 5.608 12.504 12.503 12.504h1.99c14.07 0 17.305-19.761 4.076-24.323l-20.574-7.095c-39.437-13.597-40.149-69.72-.497-83.966v-12.839c0-8.837 7.163-16 16-16s16 7.163 16 16v12.839c17.177 6.171 29.498 22.618 29.498 41.894 0 8.837-7.163 16-16 16s-16-7.163-16-16c0-6.895-5.608-12.503-12.503-12.503h-1.99c-14.069 0-17.309 19.759-4.076 24.323l20.574 7.095c39.435 13.598 40.149 69.719.497 83.965zm-83.486-113.31c-3.603 8.069-13.063 11.69-21.133 8.086l-2.791-1.246 9.843 17.447c4.316 7.651 1.656 17.353-5.96 21.731l-32.613 18.753-4.401 62.501c-.753 10.685-11.611 17.628-21.623 13.841l-68.338-25.857c-74.117 28.044-69.913 26.892-73.999 26.892-8.397 0-15.372-6.5-15.962-14.876l-4.401-62.501-32.614-18.753c-7.616-4.379-10.276-14.08-5.96-21.731l9.843-17.448-32.572 14.543c-15.084 6.735-24.83 21.762-24.83 38.28v66.486c0 8.837-7.163 16-16 16s-16-7.163-16-16v-66.485c0-29.128 17.186-55.623 43.783-67.499 82.539-36.854 78.558-35.728 83.426-35.728 182.369 0 172.485-.545 176.783 1.271.1 0 8.497 3.775 47.433 21.16 8.069 3.602 11.69 13.063 8.086 21.133zm-91.915-11.564h-110.201l55.1 80.86zm-79.524 101.846-59.633-87.512-13.211 23.418 26.242 15.09c4.617 2.654 7.61 7.434 7.985 12.746l3.489 49.55zm121.69-64.094-13.212-23.418-59.633 87.512 35.127 13.292 3.489-49.55c.375-5.313 3.368-10.092 7.985-12.746zm-82.579-180.841c-8.664 6.495-20.422 6.285-28.801.001-7.071-5.303-17.099-3.87-22.4 3.199s-3.869 17.099 3.199 22.4c19.545 14.659 46.981 15.161 67.199.001 7.069-5.301 8.504-15.329 3.202-22.399-5.299-7.07-15.328-8.505-22.399-3.202zm-226.401 60.801v-108.332c0-51.927 41.014-94.45 92.347-96.886 17.064-32.534 51.175-54.782 90.39-54.782h57.427c56.243 0 102 45.757 102 102v57.469c0 72.636-58.643 131.959-130.718 131.959-47.764 0-89.077-25.422-111.939-63.131-16.906 28.53-48.007 47.703-83.507 47.703-8.837 0-16-7.163-16-16zm310.164-100.531v-19.01c-45.262.434-91.236-6.349-136.785-21.544-16.321 15.147-37.09 25.448-60.379 28.863v20.199c1.711 23.693 11.774 45.72 28.771 62.66 62.179 61.963 168.393 17.365 168.393-71.168zm-197.427-57.469v13.345c30.596-6.176 43.154-25.643 48.12-28.599 4.261-2.544 9.305-2.871 13.629-1.304 42.677 15.418 88.329 23.495 135.678 23.014v-6.456c0-38.598-31.402-70-70-70h-57.427c-38.597 0-70 31.402-70 70zm-80.737 140.008c28.13-7.146 49-32.686 49-63.008 0-10.326-1.135-77.173.629-90.48-28.445 6.925-49.629 32.602-49.629 63.148z" fill="#4c3546"/></svg>