<svg id="Layer_1" enable-background="new 0 0 496 496" height="512" viewBox="0 0 496 496" width="512" xmlns="http://www.w3.org/2000/svg"><path d="m288.86 341.98v137.77h-81.72v-137.77c0-8.837 7.163-16 16-16h49.72c8.837 0 16 7.163 16 16z" fill="#fe4f60"/><path d="m437.82 204.75v275h-81.73v-275c0-8.837 7.163-16 16-16h49.73c8.837 0 16 7.163 16 16z" fill="#b5f26d"/><path d="m139.91 269.2v210.55h-81.73v-210.55c0-8.837 7.163-16 16-16h49.73c8.837 0 16 7.163 16 16z" fill="#ffe773"/><path d="m243.14 345.98h29.969c12.912 0 13.904-20-.249-20h-49.72c-8.837 0-16 7.163-16 16v137.77h20v-117.77c0-8.837 7.164-16 16-16z" fill="#ff6d7a"/><path d="m392.09 208.75h29.977c12.898 0 13.923-20-.247-20h-49.73c-8.837 0-16 7.163-16 16v275h20v-255c0-8.837 7.164-16 16-16z" fill="#ccfca9"/><path d="m94.18 273.2h29.978c12.914 0 13.902-20-.248-20h-49.73c-8.837 0-16 7.163-16 16v210.55h20v-190.55c0-8.836 7.163-16 16-16z" fill="#ffec8f"/><g fill="#bbfbff"><path d="m99 161.25c-26.468 0-48-21.532-48-48s21.532-48 48-48c35.499 0 58.7 37.404 43.099 69.141-8.134 16.564-24.65 26.859-43.099 26.859z"/><path d="m248 234.25c-26.468 0-48-21.532-48-48 0-41.112 50.004-65.836 83.228-32.613 28.22 30.519 6.682 80.613-35.228 80.613z"/><path d="m361.796 80.888c-28.394-30.704-6.537-80.638 35.204-80.638 26.468 0 48 21.532 48 48 0 43.5-53.617 64.497-83.204 32.638z"/></g><path d="m480 463.75h-26.182v-275c0-8.837-7.163-16-16-16h-81.728c-8.837 0-16 7.163-16 16v275h-35.228v-137.772c0-8.837-7.163-16-16-16h-81.727c-8.837 0-16 7.163-16 16v137.772h-35.228v-210.546c0-8.837-7.163-16-16-16h-81.725c-8.837 0-16 7.163-16 16v210.546h-26.182c-8.837 0-16 7.163-16 16s7.163 16 16 16h464c8.837 0 16-7.163 16-16s-7.163-16-16-16zm-405.818 0v-194.546h49.728v194.546zm148.955 0v-121.772h49.727v121.772zm148.954 0v-259h49.728v259zm-239.521-316.236 67.759 33.197c-3.317 28.735 19.238 53.539 47.67 53.539 34.397 0 57.763-35.373 44.068-67.007l82.615-76.516c31.822 16.787 70.318-6.424 70.318-42.477 0-26.468-21.532-48-48-48-34.404 0-57.761 35.379-44.068 67.007l-82.615 76.516c-18.074-9.534-40.687-6.682-55.886 8.213l-67.76-33.198c3.317-28.734-19.239-53.538-47.671-53.538-26.468 0-48 21.532-48 48 0 42.482 51.353 63.874 81.57 34.264z" fill="#4c3546"/></svg>