<svg id="Layer_1" enable-background="new 0 0 496 496" height="512" viewBox="0 0 496 496" width="512" xmlns="http://www.w3.org/2000/svg"><path d="m463.974 348h-14.655v-248c0-17.67-14.33-32-32-32h-336c-17.67 0-32 14.33-32 32v248h-14.662c-9.886 0-17.49 8.892-15.786 18.629 7.241 41.376 38.684 61.371 70.448 61.371h320c31.722 0 63.18-20.065 70.44-61.365 1.711-9.739-5.897-18.635-15.785-18.635z" fill="#75f6fc"/><path d="m462.655 348c9.888 0 17.496 8.896 15.785 18.635-7.26 41.3-38.718 61.365-70.44 61.365h-320c-31.764 0-63.206-19.995-70.447-61.37-1.704-9.738 5.9-18.63 15.786-18.63 8.55 0 432.835 0 429.316 0z" fill="#ededed"/><path d="m416.326 108h-296.326c-17.673 0-32 14.327-32 32v208h-40v-248c0-17.673 14.327-32 32-32 2.369 0 336.327-.015 337.439.026 25.92.954 24.825 39.974-1.113 39.974z" fill="#bbfbff"/><path d="m462.727 368h-393.387c-9.89 0-17.49 8.89-15.79 18.63.815 4.651 1.935 9.031 3.326 13.144 3.27 9.666-8.432 17.52-16.052 10.733-11.37-10.128-19.92-24.707-23.274-43.877-1.7-9.74 5.9-18.63 15.79-18.63h429.32c13.892 0 12.999 20 .067 20z" fill="#f7f7f7"/><path d="m480 332h-16v-232c0-26.467-21.533-48-48-48h-336c-26.467 0-48 21.533-48 48v232h-16c-8.836 0-16 7.163-16 16v8c0 48.523 39.477 88 88 88h320c48.523 0 88-39.477 88-88v-8c0-8.837-7.164-16-16-16zm-416-232c0-8.822 7.178-16 16-16h336c8.822 0 16 7.178 16 16v232h-368zm344 312h-320c-28.163 0-51.537-20.897-55.43-48h430.86c-3.893 27.103-27.267 48-55.43 48zm-232-208c-14.125 0-21.423-17.205-11.313-27.313l11.5-11.5c6.248-6.248 16.379-6.248 22.627 0 6.249 6.248 6.249 16.379 0 22.627-11.674 11.673-14.522 16.186-22.814 16.186zm133.313-25.687-98 98c-3.124 3.125-7.218 4.687-11.313 4.687-14.125 0-21.423-17.205-11.313-27.313l98-98c6.248-6.248 16.379-6.248 22.627 0s6.248 16.378-.001 22.626zm46.501 32.874c6.248 6.248 6.248 16.379 0 22.627l-26.5 26.5c-6.25 6.249-16.379 6.248-22.628 0-6.248-6.248-6.248-16.379 0-22.627l26.5-26.5c6.249-6.249 16.379-6.249 22.628 0z" fill="#4c3546"/></svg>