<svg id="Layer_1" enable-background="new 0 0 496 496" height="512" viewBox="0 0 496 496" width="512" xmlns="http://www.w3.org/2000/svg"><path d="m471.44 203.81c-117.02-98.36-61.79-51.93-213.14-179.15-5.95-5-14.64-5.01-20.6-.01l-213.14 179.16c-5.43 4.56-8.56 11.28-8.56 18.37v17.3c0 20.39 23.83 31.49 39.44 18.37l25.93-21.79c2.329 2.771 1.63-23.141 1.63 227.94 0 8.84 7.16 16 16 16h298c8.84 0 16-7.16 16-16 0-243.447-.806-225.04 1.63-227.94 10.09 8.48 18.94 15.91 25.93 21.79 15.61 13.12 39.44 2.02 39.44-18.37v-17.3c0-7.09-3.13-13.81-8.56-18.37z" fill="#f7f7f7"/><path d="m265.89 111.04c-6.73.893 5.115-7.558-182.89 150.46v-23.5l-1.63-1.94 156.334-131.406c5.952-5.003 14.639-5.003 20.591.001z" fill="#ededed"/><path d="m480 222.18v17.3c0 20.39-23.83 31.49-39.44 18.37-38.229-32.126-131.751-110.737-182.271-153.201-5.952-5.003-14.633-4.998-20.584.005-40.242 33.824-142.018 119.375-182.265 153.196-15.61 13.12-39.44 2.02-39.44-18.37v-17.3c0-7.09 3.13-13.81 8.56-18.37l213.145-179.157c5.952-5.003 14.645-4.997 20.596.005 151.353 127.222 96.123 80.796 213.139 179.152 5.43 4.56 8.56 11.28 8.56 18.37z" fill="#fe4f60"/><path d="m432 32c0 147.539.405 136.52-.82 137.97l-79.88-67.14c1-1.186.7 6.932.7-70.83z" fill="#ededed"/><path d="m261.47 27.325c7.102 5.97 6.988 16.943-.247 22.751-19.867 15.945-70.051 58.902-206.663 173.734-5.43 4.56-8.56 11.28-8.56 18.37 0 17.421-22.893 20.879-28.502 5.792-1.924-5.174-1.498-7.577-1.498-25.792 0-7.09 3.13-13.81 8.56-18.37l213.14-179.16c5.96-5 14.65-4.99 20.6.01 1.067.897 2.123 1.786 3.17 2.665z" fill="#ff6d7a"/><path d="m481.737 191.559-33.737-28.357v-131.202c8.836 0 16-7.163 16-16s-7.164-16-16-16c-12.991 0-99.024 0-112 0-8.836 0-16 7.163-16 16s7.164 16 16 16v37.064l-77.705-65.312c-5.952-5.002-14.638-5.002-20.59 0l-223.443 187.807c-9.064 7.619-14.262 18.78-14.262 30.621v17.296c0 32.636 38.134 53.826 67 29.56v210.964c0 8.837 7.164 16 16 16h330c8.836 0 16-7.163 16-16 0-234.791-.565-211.44 1.263-209.903v.001c26.02 21.867 65.737 3.352 65.737-30.622v-17.296c0-11.841-5.198-23.002-14.263-30.621zm-113.737-159.559h48v104.306l-48-40.345zm29 432h-298v-221.861l149-125.237 149 125.237zm67-224.524c0 6.804-7.923 10.514-13.147 6.125l-192.558-161.849c-5.952-5.002-14.638-5.002-20.59 0l-192.557 161.848c-5.218 4.385-13.148.688-13.148-6.124 0-18.246-.8-20.35 2.853-23.421l213.147-179.154 213.147 179.153c3.667 3.082 2.853 5.379 2.853 23.422zm-287.314 132.211 120-120c6.249-6.248 16.379-6.248 22.628 0 6.248 6.248 6.248 16.379 0 22.627l-120 120c-6.25 6.249-16.379 6.248-22.628 0-6.248-6.249-6.248-16.379 0-22.627zm121.314-12.687c-13.233 0-24 10.767-24 24s10.767 24 24 24 24-10.767 24-24-10.767-24-24-24zm-100-72c13.233 0 24-10.767 24-24s-10.767-24-24-24-24 10.767-24 24 10.767 24 24 24z" fill="#4c3546"/></svg>