<svg id="Layer_1" enable-background="new 0 0 495.977 495.977" height="512" viewBox="0 0 495.977 495.977" width="512" xmlns="http://www.w3.org/2000/svg"><circle cx="270.977" cy="155.275" fill="#ffe773" r="148"/><path d="m274.89 7.326c19.953.518 22.959 29.08 3.509 33.563-68.194 15.715-119.857 77.697-115.132 153.714 1.242 19.978-27.093 25.062-33.218 6.006-31.279-97.322 43.608-195.91 144.841-193.283z" fill="#ffec8f"/><path d="m249.061 301.664c-11.247-1.669-10.099-18.279 1.271-18.309 76.767-.201 149.269-60.522 148.641-149.152-.081-11.472 16.573-12.774 18.304-1.433 15.068 98.765-69.54 183.541-168.216 168.894z" fill="#fadf5a"/><path d="m469.557 269.005-119.51 119.51c-3 3-7.07 4.69-11.32 4.69-169.576 0-161.691-.044-161.8.08 14.482 14.484 12.918 35.121.7 47.33l-29.41 29.42c-12.88 12.87-33.76 12.87-46.64 0l-75.94-75.95c-12.88-12.87-12.88-33.75 0-46.63l29.41-29.41c12.4-12.4 32.2-12.86 45.15-1.39l86.18-86.18c3-3 7.07-4.69 11.32-4.69h107.51c10.59 0 18.35 10.12 15.43 20.29-8.28 28.8-33.74 50.32-64.57 52.79l82.91-.59 80.24-79.6c13.89-13.89 36.442-13.897 50.34 0 13.89 13.9 13.89 36.43 0 50.33z" fill="#ffebd2"/><path d="m101.687 318.045 75.94 75.94c12.88 12.88 12.88 33.76 0 46.63l-29.41 29.42c-12.88 12.87-33.76 12.87-46.64 0l-75.94-75.95c-12.88-12.87-12.88-33.75 0-46.63l29.41-29.41c12.949-12.949 33.832-12.808 46.64 0z" fill="#75f6fc"/><path d="m71.46 388.125-2.19-2.18c-6.263-6.233-6.287-16.364-.053-22.627 6.234-6.262 16.364-6.286 22.627-.053l2.19 2.18c6.263 6.233 6.287 16.364.053 22.627-6.233 6.262-16.362 6.289-22.627.053z" fill="#fff"/><path d="m117.103 455.665c9.626 9.613-4.334 24.604-14.396 15.448-.911-.829 4.107 4.16-77.071-77.028-12.88-12.87-12.88-33.75 0-46.63l29.41-29.41c11.73-11.731 25.507 4.394 15.978 13.973-4.081 4.103-9.113 9.162-15.389 15.437-12.88 12.88-12.88 33.76 0 46.63 31.14 31.143 49.871 49.999 61.468 61.58z" fill="#bbfbff"/><path d="m305.295 245.785h-87.594c-4.247 0-8.32 1.687-11.323 4.69-19.932 19.932-69.081 69.081-86.131 86.131-20.134-20.134-19.035-19.074-20.05-19.95 17.078-17.078 66.345-66.345 86.182-86.181 3.003-3.003 7.075-4.689 11.322-4.689 114.054 0 107.725-.016 108.481.029 12.739.754 11.874 19.97-.887 19.97z" fill="#fff3e4"/><path d="m435.415 209.352c13.396-3.435 19.457 16.316 6.5 21.151-9.72 3.627-5.343.877-92.938 87.773l-84.546.375c-8.82.039-13.759-10.901-5.998-17.695 1.807-1.582 4.107-2.483 6.508-2.49l74.036-.19 80.24-79.6c4.786-4.787 10.379-7.832 16.198-9.324z" fill="#fff3e4"/><path d="m350.045 388.517c-3.002 3.002-7.073 4.688-11.318 4.688h-161.88l-12-12h165.88c4.245 0 8.317-1.686 11.318-4.688l119.512-119.512c6.921-6.928 16.135 2.074 10.795 8.853-2.037 2.587-123.315 123.668-122.307 122.659z" fill="#ffdfba"/><path d="m407.95 207.314-75.609 75.008-13.165.093c12.678-15.423 20.298-35.153 20.298-56.63 0-8.837-7.163-16-16-16h-11.168c12.814-24.496.839-54.894-25.48-63.97l-21.264-7.332c-5.426-1.871-9.07-6.983-9.07-12.723 0-17.988 28.973-17.981 28.973 0 0 8.837 7.163 16 16 16s16-7.163 16-16c0-19.821-12.756-36.708-30.486-42.913v-13.652c0-8.837-7.163-16-16-16s-16 7.163-16 16v13.652c-40.66 14.229-40.452 71.886.152 85.888l21.264 7.332c5.426 1.871 9.07 6.983 9.07 12.723 0 7.421-6.037 13.458-13.458 13.458h-2.057c-7.421 0-13.458-6.037-13.458-13.458 0-8.837-7.163-16-16-16-8.836 0-16 7.163-16 16 0 7.571 1.871 14.71 5.159 20.995h-38.578c-4.244 0-8.313 1.686-11.314 4.687l-12.534 12.534c-55.651-82.722 3.887-194.73 103.754-194.73 68.925 0 125 56.075 125 125 0 8.837 7.163 16 16 16s16-7.163 16-16c0-86.57-70.43-157-157-157-128.645 0-202.092 146.754-126.717 249.693l-46.433 46.431c-17.653-7.647-39.27-4.5-54.095 10.327l-29.412 29.411c-19.096 19.097-19.096 50.168 0 69.265l75.942 75.941c19.14 19.141 50.123 19.144 69.265 0l29.412-29.411c11.611-11.612 16.148-27.649 13.639-42.731h142.778c4.243 0 8.313-1.686 11.313-4.687l124.194-124.194c9.745-9.744 15.111-22.7 15.111-36.48.001-45.804-55.683-68.87-88.026-36.527zm-241.637 221.993-29.412 29.411c-6.634 6.635-17.373 6.637-24.01 0l-75.941-75.942c-6.62-6.62-6.62-17.391 0-24.011l29.412-29.411c7.247-7.248 18.011-5.576 22.364-1.223 0 0-4.35-4.774 77.588 77.164 6.619 6.621 6.619 17.391-.001 24.012zm291.926-171.613-119.509 119.508h-155.256l-60.596-60.595 74.821-74.822h107.502c-6.478 22.247-26.11 38.949-49.874 41.083l-32.636.23c-8.814.063-15.918 7.242-15.887 16.057s7.186 15.943 16 15.943c4.403 0 116.28-.823 116.286-.823 4.182-.03 8.187-1.696 11.155-4.642l80.286-79.647c7.639-7.639 20.068-7.639 27.707 0 7.639 7.64 7.639 20.069.001 27.708zm-364.182 107.782c6.249 6.248 6.249 16.379 0 22.627-6.249 6.249-16.379 6.248-22.627 0l-2.188-2.188c-6.249-6.248-6.249-16.379 0-22.627 6.248-6.248 16.379-6.248 22.627 0z" fill="#4c3546"/></svg>