<svg id="Layer_1" enable-background="new 0 0 496 496" height="512" viewBox="0 0 496 496" width="512" xmlns="http://www.w3.org/2000/svg"><path d="m368 64c-6.351 0-233.514 0-240 0-17.67 0-32 14.33-32 32v352c0 17.67 14.33 32 32 32h240c17.67 0 32-14.33 32-32 0-3.047 0-346.806 0-352 0-17.67-14.33-32-32-32z" fill="#e8f8fc"/><path d="m368.441 93.996c-30.441-.003-90.731.004-210.441.004-17.67 0-32 14.33-32 32 0 1.974-.022 236.792.021 322.82.01 19.363-28.899 20.312-29.971.979-.078-1.395-.05-354.802-.05-353.799 0-17.673 14.327-32 32-32h240c21.212 0 19.891 29.997.441 29.996z" fill="#f1fafc"/><path d="m400 96v32h-304v-32c0-17.67 14.33-32 32-32h240c17.67 0 32 14.33 32 32z" fill="#c79a83"/><path d="m368.438 93.996c-30.441-.003-90.73.004-210.433.004-16.155 0-32.005 12.133-32.005 34h-30v-32c0-17.673 14.327-32 32-32 1.628 0 240.314-.017 241.411.031 19.341.839 18.386 29.966-.973 29.965z" fill="#e0b7a3"/><path d="m368 48h-72c0-26.468-21.532-48-48-48s-48 21.532-48 48h-72c-26.467 0-48 21.533-48 48v352c0 26.467 21.533 48 48 48h240c26.467 0 48-21.533 48-48v-352c0-26.467-21.533-48-48-48zm-120-16c8.822 0 16 7.178 16 16h-32c0-8.822 7.178-16 16-16zm-120 48h240c8.822 0 16 7.178 16 16v16h-272v-16c0-8.822 7.178-16 16-16zm240 384h-240c-8.822 0-16-7.178-16-16v-304h272v304c0 8.822-7.178 16-16 16zm-12.687-242.687-12.686 12.687 12.687 12.687c10.111 10.11 2.809 27.313-11.314 27.313-4.095 0-8.189-1.563-11.313-4.687l-12.687-12.686-12.687 12.687c-6.249 6.249-16.379 6.248-22.627 0-6.249-6.248-6.249-16.379 0-22.627l12.687-12.687-12.687-12.687c-6.249-6.248-6.249-16.379 0-22.627 6.248-6.248 16.379-6.248 22.627 0l12.687 12.687 12.687-12.687c6.248-6.248 16.379-6.248 22.627 0 6.249 6.249 6.249 16.379-.001 22.627zm-179.313 9.314-12.687 12.687c-3.124 3.124-7.218 4.686-11.313 4.686-14.124 0-21.424-17.205-11.313-27.313l12.686-12.687-12.687-12.687c-6.249-6.248-6.249-16.379 0-22.627 6.248-6.248 16.379-6.248 22.627 0l12.687 12.687 12.687-12.687c6.248-6.248 16.379-6.248 22.627 0 6.249 6.248 6.249 16.379 0 22.627l-12.687 12.687 12.687 12.687c6.249 6.248 6.249 16.379 0 22.627-6.249 6.249-16.379 6.248-22.627 0zm155.313 62.06c-6.248-6.248-16.379-6.248-22.627 0l-24 24c-6.249 6.248-6.249 16.379 0 22.627 5.237 5.237 13.194 6.066 19.313 2.525v34.161h-30.752c-6.605-18.623-24.389-32-45.248-32-26.468 0-48 21.532-48 48s21.532 48 48 48c20.859 0 38.643-13.377 45.248-32h46.753c8.837 0 16-7.163 16-16v-50.161c6.351 3.675 14.235 2.553 19.313-2.525 6.249-6.248 6.249-16.379 0-22.627zm-103.313 115.313c-8.822 0-16-7.178-16-16s7.178-16 16-16 16 7.178 16 16-7.178 16-16 16z" fill="#4c3546"/></svg>