<svg id="Layer_1" enable-background="new 0 0 496.034 496.034" height="512" viewBox="0 0 496.034 496.034" width="512" xmlns="http://www.w3.org/2000/svg"><path d="m281.017 164.034h-7c7.73 0 14.73-3.14 19.8-8.2 17.552-17.586 5.111-47.8-19.8-47.8 1.433 0-2.142 6.423 29.235-57.725 6.234-12.745-5.973-26.696-19.432-22.209l-4.379 1.459c-8.908 2.969-14.284-2.099-22.074-7.292-5.61-3.74-12.963-3.562-18.385.446-11.368 8.402-12.777 10.734-26.291 6.044-13.492-4.681-25.892 9.317-19.617 22.146l27.944 57.13c4.861 0-8.894-1.686-18.8 8.2-17.552 17.586-5.111 47.8 19.8 47.8h-7c-55.23 0-100 44.77-100 100v152c0 35.35 28.65 64 64 64h138c35.35 0 64-28.65 64-64v-152c-.001-55.229-44.771-99.999-100.001-99.999z" fill="#ffe773"/><path d="m274.017 108.034c15.46 0 28 12.54 28 28 0 15.458-12.54 28-28 28h-52c-15.46 0-28-12.54-28-28 0-15.458 12.54-28 28-28z" fill="#4d4e59"/><g fill="#ffec8f"><path d="m252.325 20.082c3.014.835 3.722 4.802 1.207 6.661-2.984 2.205-7.111 5.73-14.932 3.915-3.118-.724-3.988-4.787-1.413-6.687 4.011-2.961 8.841-5.634 15.138-3.889z"/><path d="m241.017 108.034h-20l-27.94-57.13c-6.28-12.83 6.12-26.83 19.61-22.15 2.638.914 3.219 3.792 1.819 5.705-3.265 4.46-4.304 10.575-1.429 16.445z"/><path d="m285.493 183.854c-10.918.054-24.105.18-40.468.18-55.228 0-100.008 44.772-100.008 100 0 165.225-.405 155.558 1.022 163.462 1.848 10.232-11.074 16.113-17.477 7.921-8.488-10.859-13.545-24.531-13.545-39.383v-152c0-55.228 44.772-100 100-100 71.712 0 67.519-.05 71.034.124 12.698.629 12.155 19.633-.558 19.696z"/></g><path d="m381.017 416.034c0 35.346-28.654 64-64 64l-137.157.049c-12.686-.72-12.013-19.688.693-19.614 23.316.135 58.912-.434 116.449-.434 35.35 0 64.015-28.655 64.015-64.005l.759-129.765c-.165-12.529 18.523-13.316 19.35-.814 0-.002-.109 150.59-.109 150.583z" fill="#fadf5a"/><path d="m300.801 270.25c6.249 6.248 6.249 16.379 0 22.627l-82.941 82.941c-3.124 3.124-7.219 4.687-11.313 4.687-14.124 0-21.424-17.205-11.313-27.313l82.941-82.941c6.247-6.249 16.378-6.249 22.626-.001zm3.304 94.255c0 11.871-9.658 21.529-21.529 21.529s-21.529-9.658-21.529-21.529 9.658-21.529 21.529-21.529 21.529 9.657 21.529 21.529zm-112.176-82.942c0-11.871 9.658-21.529 21.529-21.529s21.529 9.658 21.529 21.529-9.658 21.529-21.529 21.529-21.529-9.658-21.529-21.529zm205.088-17.529v152c0 44.112-35.888 80-80 80h-138c-44.112 0-80-35.888-80-80v-152c0-52.285 34.774-96.594 82.406-111.034-8.193-19.532-1.294-42.579 17.248-54.236l-37.027-75.7c-6.264-12.808 6.162-26.812 19.617-22.146l41.03 14.235 16.216-11.986c5.421-4.007 12.772-4.187 18.385-.445l17.489 11.659 40.576-13.525c13.422-4.478 25.654 9.49 19.433 22.209l-37.027 75.7c18.546 11.659 25.44 34.707 17.248 54.236 47.632 14.439 82.406 58.748 82.406 111.033zm-187-128c0 6.617 5.383 12 12 12h52c6.617 0 12-5.383 12-12s-5.383-12-12-12h-52c-6.617 0-12 5.383-12 12zm-2.571-92.16 23.557 48.16h34.029l23.848-48.755c-21.733 7.243-17.598 7.493-40.388-7.699-22.566 16.677-18.618 16.074-41.046 8.294zm157.571 220.16c0-46.317-37.683-84-84-84-7.778 0-58.2 0-66 0-46.317 0-84 37.683-84 84v152c0 26.468 21.532 48 48 48h138c26.468 0 48-21.532 48-48z" fill="#4c3546"/></svg>