<svg id="Layer_1" enable-background="new 0 0 496 496" height="512" viewBox="0 0 496 496" width="512" xmlns="http://www.w3.org/2000/svg"><path d="m470 448v16c0 8.837-7.163 16-16 16h-412c-8.837 0-16-7.163-16-16v-16c0-8.837 7.163-16 16-16 9.948 0 422.749 0 412 0 8.837 0 16 7.164 16 16z" fill="#f2f2f2"/><path d="m442 400v32h-388v-32c0-8.837 7.163-16 16-16h356c8.837 0 16 7.164 16 16z" fill="#f2f2f2"/><g fill="#ededed"><path d="m350 168h56v216h-56z"/><path d="m220 168h56v216h-56z"/><path d="m90 168h56v216h-56z"/></g><path d="m146 168v105.661l-56-105.661z" fill="#e3e3e3"/><path d="m276 168v105.661l-56-105.661z" fill="#e3e3e3"/><path d="m406 168v105.661l-56-105.661z" fill="#e3e3e3"/><path d="m458.75 125-7.72 30.88c-1.78 7.12-8.18 12.12-15.52 12.12h-375.02c-7.34 0-13.74-5-15.52-12.12l-7.72-30.88c-1.885-7.555 1.939-15.324 8.97-18.48l195.23-87.58c4.17-1.87 8.93-1.87 13.1 0 210.45 94.408 198.209 87.834 201.82 93.06 2.56 3.69 3.53 8.391 2.38 13z" fill="#f7f7f7"/><path d="m458.75 125-7.72 30.88c-1.78 7.12-8.18 12.12-15.52 12.12h-375.02c-7.34 0-13.74-5-15.52-12.12l-7.72-30.88c-1.15-4.61-.18-9.31 2.38-13h416.74c2.56 3.69 3.53 8.391 2.38 13z" fill="#f2f2f2"/><path d="m426.238 404h-336.238c-8.837 0-16 7.163-16 16v12h-20v-32c0-8.837 7.163-16 16-16 2.62 0 356.254-.017 357.088.03 12.762.716 11.932 19.97-.85 19.97z" fill="#f7f7f7"/><path d="m454.498 447.017c-74.722-.029-394.764-.017-397.498-.017-7.839 0-15.999 5.727-16 17.329-.001 9.525-14.347 10.231-14.966.726-.057-.89-.034-17.804-.034-17.055 0-8.837 7.163-16 16-16h412c11.083 0 10.138 15.02.498 15.017z" fill="#f7f7f7"/><path d="m254.557 55.436c-23.673 10.626-61.454 27.622-122.059 54.812-5.426 2.434-1.438 1.752-92.868 1.752 3.612-5.228-8.659 1.361 201.82-93.06 7.541-3.382 14.186.487 13.1 0 15.751 7.066 15.756 29.426.007 36.496z" fill="#f9f9f9"/><path d="m111.511 168h-51.018c-7.342 0-13.742-4.997-15.523-12.12l-7.72-30.88c-1.15-4.61-.18-9.31 2.38-13h64.218c7.092 0 12.674 5.832 12.634 12.924-.042 7.407 1.906 16.306 6.135 24.41 4.432 8.495-1.525 18.666-11.106 18.666z" fill="#f7f7f7"/><path d="m470 416h-12v-32c0-8.837-7.164-16-16-16h-20v-184h26c7.342 0 13.742-4.997 15.522-12.119 15.13-60.519 14.714-57.469 14.413-61.175-.483-5.976-4.207-10.98-9.387-13.305l-214-96c-4.166-1.869-8.932-1.869-13.098 0-230.711 103.498-216.334 96.154-219.885 100.553-1.284 1.589-2.201 3.332-2.776 5.107-1.945 5.976-1.371 4.578 13.689 64.82 1.781 7.122 8.18 12.119 15.522 12.119h26v184h-20c-8.836 0-16 7.163-16 16v32h-12c-8.836 0-16 7.163-16 16v48c0 8.837 7.164 16 16 16h444c8.836 0 16-7.163 16-16v-48c0-8.836-7.163-16-16-16zm-80-48h-24v-184h24zm-98 0v-184h42v184zm-56 0v-184h24v184zm-74 0v-184h42v184zm86-334.463 139.242 62.463h-278.484zm-193.508 94.463h387.016l-6 24h-375.016zm51.508 56h24v184h-24zm-36 216h356v16h-356zm384 64h-412v-16h412z" fill="#4c3546"/></svg>