<svg id="Layer_1" enable-background="new 0 0 496 496" height="512" viewBox="0 0 496 496" width="512" xmlns="http://www.w3.org/2000/svg"><path d="m448 96c-7.483 0-383.318 0-400 0-17.67 0-32 14.33-32 32v240c0 17.67 14.33 32 32 32h400c17.67 0 32-14.33 32-32 0-10.262 0-228.899 0-240 0-17.67-14.33-32-32-32z" fill="#cdfdaa"/><path d="m479.94 126.06c-1.492-.093-399.145-.06-401.94-.06-17.67 0-32 14.33-32 32 0 253.968-.031 240.489.06 241.94-16.77-1-30.06-14.92-30.06-31.94v-240c0-17.67 14.33-32 32-32h400c17.02 0 30.94 13.29 31.94 30.06z" fill="#ddfdc5"/><g fill="#b5f26d"><path d="m48 96h64c0 53.02-42.98 96-96 96v-64c0-17.67 14.33-32 32-32z"/><path d="m480 128v64c-53.02 0-96-42.98-96-96h64c17.67 0 32 14.33 32 32z"/><path d="m480 304v64c0 17.67-14.33 32-32 32h-64c0-53.02 42.98-96 96-96z"/><path d="m112 400h-64c-17.67 0-32-14.33-32-32v-64c53.02 0 96 42.98 96 96z"/><circle cx="248" cy="248" r="72"/></g><path d="m112 96c0 10.48-1.68 20.56-4.78 30h-29.22c-17.67 0-32 14.33-32 32v29.22c-9.44 3.1-19.52 4.78-30 4.78v-64c0-17.67 14.33-32 32-32z" fill="#c4f788"/><path d="m448.448 125.996c-13.294.002-32.338.004-59.668.004-3.1-9.44-4.78-19.52-4.78-30 68.853 0 64.366-.015 65.414.031 19.339.841 18.391 29.964-.966 29.965z" fill="#c4f788"/><path d="m45.996 368.444c-.002 19.465-29.996 20.739-29.996-.444v-64c10.48 0 20.56 1.68 30 4.78 0 27.332-.002 46.374-.004 59.664z" fill="#c4f788"/><path d="m448 80h-400c-26.467 0-48 21.532-48 48v240c0 26.468 21.533 48 48 48h400c26.467 0 48-21.532 48-48v-240c0-26.468-21.533-48-48-48zm-78.852 304h-242.296c-7.037-48.977-45.876-87.815-94.852-94.852v-82.296c48.977-7.037 87.815-45.875 94.852-94.852h242.296c7.037 48.977 45.876 87.815 94.852 94.852v82.296c-48.977 7.037-87.815 45.875-94.852 94.852zm94.852-256v46.39c-31.3-6.379-56.011-31.09-62.39-62.39h46.39c8.822 0 16 7.178 16 16zm-416-16h46.39c-6.379 31.3-31.09 56.011-62.39 62.39v-46.39c0-8.822 7.178-16 16-16zm-16 256v-46.39c31.3 6.379 56.011 31.09 62.39 62.39h-46.39c-8.822 0-16-7.178-16-16zm416 16h-46.39c6.379-31.3 31.09-56.011 62.39-62.39v46.39c0 8.822-7.178 16-16 16zm-200-224c-48.523 0-88 39.477-88 88s39.477 88 88 88 88-39.477 88-88-39.477-88-88-88zm0 144c-30.878 0-56-25.121-56-56s25.122-56 56-56 56 25.121 56 56-25.122 56-56 56zm-112-56c0 8.837-7.164 16-16 16h-8c-8.836 0-16-7.163-16-16s7.164-16 16-16h8c8.836 0 16 7.163 16 16zm264 0c0 8.837-7.164 16-16 16h-8c-8.836 0-16-7.163-16-16s7.164-16 16-16h8c8.836 0 16 7.163 16 16z" fill="#4c3546"/></svg>