<svg id="Layer_1" enable-background="new 0 0 496 496" height="512" viewBox="0 0 496 496" width="512" xmlns="http://www.w3.org/2000/svg"><path d="m432 80h-368c-26.51 0-48 21.49-48 48v240c0 26.51 21.49 48 48 48h368c26.51 0 48-21.49 48-48 0-11.157 0-235.313 0-240 0-26.51-21.49-48-48-48z" fill="#e8f8fc"/><path d="m432.688 119.964c-45.674-.029-138.415.036-328.682.036-26.51 0-48.006 21.497-48.006 48.007 0 106.928-.043 166.835-.036 200.691.006 25.99-39.964 27.622-39.964-.698v-240c0-26.51 21.49-48 48-48 2.574 0 368.399-.018 369.791.033 25.909.95 24.824 39.947-1.103 39.931z" fill="#f1fafc"/><path d="m16 144h464v72h-464z" fill="#aaa"/><path d="m152 304v16c0 13.25-10.75 24-24 24h-16c-13.25 0-24-10.75-24-24v-16c0-13.25 10.75-24 24-24h16c13.25 0 24 10.75 24 24z" fill="#ffe773"/><path d="m62.42 144c-4.09 7.06-6.42 15.26-6.42 24v48h-40v-72z" fill="#b2b2b2"/><path d="m129.007 297c-12.49 0-24.001 9.741-24.007 24.692-.004 10.607-15.666 11.555-16.849 1.015-.246-2.188-.151-19.709-.151-18.707 0-13.255 10.745-24 24-24 17.392 0 16.901-.052 18.707.151 10.273 1.153 10.16 16.849-1.7 16.849z" fill="#ffec8f"/><path d="m432 64h-368c-35.29 0-64 28.71-64 64v240c0 35.29 28.71 64 64 64h368c35.29 0 64-28.71 64-64 0-11.157 0-235.313 0-240 0-35.29-28.71-64-64-64zm-368 32h368c17.645 0 32 14.355 32 32h-432c0-17.645 14.355-32 32-32zm-32 64h432v40h-432zm400 240h-368c-17.645 0-32-14.355-32-32v-136h432v136c0 17.645-14.355 32-32 32zm-304-136h-16c-22.056 0-40 17.944-40 40v16c0 22.056 17.944 40 40 40h16c22.056 0 40-17.944 40-40v-16c0-22.056-17.944-40-40-40zm8 56c0 4.411-3.589 8-8 8h-16c-4.411 0-8-3.589-8-8v-16c0-4.411 3.589-8 8-8h16c4.411 0 8 3.589 8 8zm288-40c0 8.837-7.163 16-16 16h-144c-8.837 0-16-7.163-16-16s7.163-16 16-16h144c8.837 0 16 7.163 16 16zm-72 64c0 8.837-7.163 16-16 16h-72c-8.837 0-16-7.163-16-16s7.163-16 16-16h72c8.837 0 16 7.163 16 16z" fill="#4c3546"/></svg>