<svg id="Layer_1" enable-background="new 0 0 496 496" height="512" viewBox="0 0 496 496" width="512" xmlns="http://www.w3.org/2000/svg"><path d="m480 71.92v271.92c0 17.67-14.33 32-32 32-10.447 0-389.075 0-400 0-17.67 0-32-14.33-32-32v-271.92c0-17.67 14.33-32 32-32h400c17.67 0 32 14.33 32 32z" fill="#75f6fc"/><path d="m290.65 375.84 22.52 80.24h-130.34l22.52-80.24z" fill="#ededed"/><path d="m346.132 152.616-88-72c-5.895-4.822-14.369-4.822-20.264 0l-88 72c-11.59 9.484-4.884 28.384 10.132 28.384h176c14.984 0 21.749-18.878 10.132-28.384z" fill="#fff"/><path d="m448.436 69.92h-360.436c-17.67 0-32 14.33-32 32 0 1.386-.021 170.47.016 242.265.014 26.112-40.016 27.455-40.016-.345v-271.92c0-17.673 14.327-32 32-32h400c21.204 0 19.893 30 .436 30z" fill="#bbfbff"/><path d="m448 23.922h-400c-26.468 0-48 21.533-48 48v271.915c0 26.468 21.532 48 48 48h136.239l-13.54 48.241h-13.699c-8.837 0-16 7.163-16 16s7.163 16 16 16h182c8.837 0 16-7.163 16-16s-7.163-16-16-16h-13.699l-13.54-48.241h136.239c26.468 0 48-21.532 48-48v-271.915c0-26.467-21.532-48-48-48zm-155.936 416.156h-88.128l13.54-48.241h61.049zm171.936-96.241c0 8.822-7.178 16-16 16h-400c-8.822 0-16-7.178-16-16v-271.915c0-8.822 7.178-16 16-16h400c8.822 0 16 7.178 16 16zm-304-90.837c-8.837 0-16 7.163-16 16s7.163 16 16 16h176c8.837 0 16-7.163 16-16s-7.163-16-16-16h-19v-72h19c14.981 0 21.75-18.876 10.132-28.384l-88-72c-5.895-4.822-14.369-4.822-20.264 0l-88 72c-11.59 9.484-4.884 28.384 10.132 28.384h19v72zm125 0h-21v-72h21zm-37-139.327 43.178 35.327h-86.355zm-37 67.327h21v72h-21zm166 136c0 8.837-7.163 16-16 16h-226c-8.837 0-16-7.163-16-16s7.163-16 16-16h226c8.837 0 16 7.163 16 16z" fill="#4c3546"/></svg>