<svg id="Layer_1" enable-background="new 0 0 496 496" height="512" viewBox="0 0 496 496" width="512" xmlns="http://www.w3.org/2000/svg"><path d="m409.5 16h-284c-17.67 0-32 14.33-32 32v59h-15c-13.25 0-24 10.75-24 24v14c0 13.25 10.75 24 24 24h15v158h-15c-13.25 0-24 10.75-24 24v14c0 13.25 10.75 24 24 24h15v59c0 17.67 14.33 32 32 32h284c17.67 0 32-14.33 32-32v-400c0-17.67-14.33-32-32-32z" fill="#e8f8fc"/><path d="m409.849 54.93h-245.349c-17.673 0-32 14.327-32 32v362.548c0 25.196-39 27.325-39-1.478v-59h-15c-13.255 0-24-10.745-24-24v-14c0-13.255 10.745-24 24-24h15v-158h-15c-13.255 0-24-10.745-24-24v-14c0-13.255 10.745-24 24-24h15v-59c0-17.673 14.327-32 32-32 1.928 0 284.358-.018 285.585.033 25.123 1.056 23.91 38.897-1.236 38.897z" fill="#f1fafc"/><path d="m132.5 351v14c0 13.25-10.75 24-24 24-10.856 0-19.144 0-30 0-13.25 0-24-10.75-24-24v-14c0-13.25 10.75-24 24-24h30c13.25 0 24 10.75 24 24z" fill="#aaa"/><path d="m132.5 131v14c0 13.25-10.75 24-24 24-10.856 0-19.144 0-30 0-13.25 0-24-10.75-24-24v-14c0-13.25 10.75-24 24-24h30c13.25 0 24 10.75 24 24z" fill="#aaa"/><path d="m109.275 337.953c-4.718.014-10.798.047-18.774.047-13.248 0-24.001 10.741-24.001 23.989 0 3.582-.043 6.539-.054 9.061-.026 6.17-8.654 7.567-10.655 1.73-.837-2.44-1.291-5.057-1.291-7.78v-14c0-13.255 10.745-24 24-24 32.001 0 30.212-.017 31.146.027 7.023.331 6.66 10.905-.371 10.926z" fill="#b2b2b2"/><path d="m109.275 117.953c-4.718.014-10.798.047-18.774.047-13.248 0-24.001 10.741-24.001 23.989 0 3.582-.043 6.539-.054 9.061-.026 6.17-8.654 7.567-10.655 1.73-.837-2.44-1.291-5.057-1.291-7.78v-14c0-13.255 10.745-24 24-24 32.001 0 30.212-.017 31.146.027 7.023.331 6.66 10.905-.371 10.926z" fill="#b2b2b2"/><path d="m409.5 0h-284c-26.468 0-48 21.533-48 48v43.025c-21.594.534-39 18.254-39 39.975v14c0 21.721 17.406 39.44 39 39.975v126.051c-21.594.534-39 18.254-39 39.975v14c0 21.721 17.406 39.44 39 39.975v43.024c0 26.467 21.532 48 48 48h284c26.468 0 48-21.533 48-48v-400c0-26.467-21.532-48-48-48zm-339 145v-14c0-4.411 3.589-8 8-8h30c4.411 0 8 3.589 8 8v14c0 4.411-3.589 8-8 8h-30c-4.411 0-8-3.589-8-8zm0 220v-14c0-4.411 3.589-8 8-8h30c4.411 0 8 3.589 8 8v14c0 4.411-3.589 8-8 8h-30c-4.411 0-8-3.589-8-8zm355 83c0 8.823-7.178 16-16 16h-284c-8.822 0-16-7.177-16-16v-43.025c21.594-.534 39-18.254 39-39.975v-14c0-21.721-17.406-39.44-39-39.975v-126.05c21.594-.534 39-18.254 39-39.975v-14c0-21.721-17.406-39.44-39-39.975v-43.025c0-8.823 7.178-16 16-16h284c8.822 0 16 7.177 16 16zm-225-373c-12.683 0-23 10.318-23 23s10.317 23 23 23 23-10.318 23-23-10.317-23-23-23zm177 23c0 8.837-7.163 16-16 16h-90c-8.837 0-16-7.163-16-16s7.163-16 16-16h90c8.837 0 16 7.163 16 16zm-177 77c-12.683 0-23 10.318-23 23s10.317 23 23 23 23-10.318 23-23-10.317-23-23-23zm177 23c0 8.837-7.163 16-16 16h-90c-8.837 0-16-7.163-16-16s7.163-16 16-16h90c8.837 0 16 7.163 16 16zm-177 77c-12.683 0-23 10.318-23 23s10.317 23 23 23 23-10.318 23-23-10.317-23-23-23zm177 23c0 8.837-7.163 16-16 16h-90c-8.837 0-16-7.163-16-16s7.163-16 16-16h90c8.837 0 16 7.163 16 16zm-177 77c-12.683 0-23 10.318-23 23s10.317 23 23 23 23-10.318 23-23-10.317-23-23-23zm177 23c0 8.837-7.163 16-16 16h-90c-8.837 0-16-7.163-16-16s7.163-16 16-16h90c8.837 0 16 7.163 16 16z" fill="#4c3546"/></svg>