<svg id="Layer_1" enable-background="new 0 0 492.474 492.474" height="512" viewBox="0 0 492.474 492.474" width="512" xmlns="http://www.w3.org/2000/svg"><path d="m246.131 476.478c-112.89-57.52-183.96-173.51-183.96-300.2v-54.69c0-12.27 7.01-23.46 18.06-28.8l151.96-73.56c8.8-4.26 19.08-4.26 27.88 0l151.96 73.56c11.05 5.34 18.06 16.53 18.06 28.8v54.69c0 126.69-71.07 242.68-183.96 300.2z" fill="#b5f26d"/><path d="m92.171 131.587v54.69c0 115.225 58.783 221.597 154.355 283.181 2.564 1.652 2.515 5.536-.395 7.019-112.89-57.52-183.96-173.51-183.96-300.2v-54.69c0-12.27 7.01-23.46 18.06-28.8 161.687-78.268 152.294-73.737 153.322-74.186 13.047-5.697 21.784 13.884 8.95 20.045-21.496 10.319-60.222 29.264-132.271 64.142-11.051 5.339-18.061 16.529-18.061 28.799z" fill="#cdfdaa"/><path d="m430.091 176.277c0 63.345-17.767 124.015-49.646 176.039-7.84 12.793-27.132 1.639-20.119-11.626 24.471-46.285 43.135-103.725 43.135-171.263 0-20.947.774-36.876.521-49.314-.342-16.755 24.749-18.219 26-1.507.155 2.061.109-1.897.109 57.671z" fill="#ace667"/><path d="m224.636 194.001c0 8.627 5.479 16.313 13.636 19.125l26.15 9.018c21.057 7.26 35.204 27.103 35.204 49.377 0 23.683-15.85 43.722-37.495 50.099v19.47c0 8.837-7.163 16-16 16s-16-7.163-16-16v-19.47c-21.645-6.377-37.495-26.416-37.495-50.099 0-8.837 7.163-16 16-16s16 7.163 16 16c0 11.154 9.075 20.229 20.23 20.229h2.529c11.155 0 20.23-9.075 20.23-20.229 0-8.627-5.479-16.313-13.635-19.125l-26.151-9.018c-21.057-7.261-35.204-27.104-35.204-49.377 0-23.683 15.85-43.722 37.495-50.1v-19.469c0-8.837 7.163-16 16-16s16 7.163 16 16v19.469c21.645 6.378 37.495 26.417 37.495 50.1 0 8.837-7.163 16-16 16s-16-7.163-16-16c0-11.155-9.075-20.23-20.23-20.23h-2.529c-11.154 0-20.23 9.075-20.23 20.23zm221.455-72.411c0 61.882 6.454 143.687-52.006 239.087-35.799 58.421-81.767 98.335-140.367 129.889-5.184 2.651-10.635 2.445-15.231-.03-118.088-60.353-192.315-181.76-192.315-314.26v-54.686c0-18.28 10.632-35.239 27.086-43.204l151.96-73.561c13.291-6.434 28.537-6.434 41.828 0l151.96 73.561c16.454 7.965 27.085 24.924 27.085 43.204zm-32 0c0-6.094-3.544-11.746-9.029-14.401l-142.931-69.19v26.034c0 8.837-7.163 16-16 16s-16-7.163-16-16v-26.034l-142.93 69.189c-5.485 2.655-9.029 8.308-9.029 14.401v54.686c0 112.345 57.593 214.614 151.96 272.859v-37.101c0-8.837 7.163-16 16-16s16 7.163 16 16v37.101c94.367-58.245 151.96-160.514 151.96-272.859v-54.685z" fill="#4c3546"/></svg>