<svg id="Layer_1" enable-background="new 0 0 496 496" height="512" viewBox="0 0 496 496" width="512" xmlns="http://www.w3.org/2000/svg"><g fill="#b5f26d"><path d="m385.09 192.726v156h-53.86v-156c0-8.837 7.163-16 16-16h21.86c8.837 0 16 7.163 16 16z"/><path d="m286.93 237.026v111.7h-53.86v-111.7c0-8.837 7.163-16 16-16h21.86c8.837 0 16 7.163 16 16z"/><path d="m188.77 281.336v67.39h-53.86v-67.39c0-8.837 7.163-16 16-16h21.86c8.837 0 16 7.163 16 16z"/></g><path d="m369.427 191.725c-2.092 0-4.476.001-7.194.001-8.837 0-16.003 7.163-16.003 16v141h-15v-156c0-8.837 7.163-16 16-16 23.164 0 22.056-.022 22.915.034 9.505.618 8.806 14.963-.718 14.965z" fill="#cdfdaa"/><path d="m271.267 236.025c-2.092 0-4.476.001-7.194.001-8.837 0-16.003 7.163-16.003 16v96.7h-15v-111.7c0-8.837 7.163-16 16-16 23.164 0 22.056-.022 22.915.034 9.504.618 8.806 14.963-.718 14.965z" fill="#cdfdaa"/><path d="m173.107 280.335c-2.092 0-4.476.001-7.194.001-8.837 0-16.003 7.163-16.003 16v52.39h-15v-67.39c0-8.837 7.163-16 16-16 23.164 0 22.056-.022 22.915.034 9.504.618 8.806 14.963-.718 14.965z" fill="#cdfdaa"/><path d="m496 253.726c0 130.436-105.551 236-236 236-127.405 0-228.688-99.938-235.602-222.397-6.169 3.814-14.361 3.062-19.712-2.29-6.248-6.248-6.248-16.379 0-22.627l24-24c6.249-6.248 16.379-6.248 22.628 0l24.5 24.5c10.113 10.113 2.808 27.313-11.314 27.313-2.765 0-5.522-.73-7.988-2.154 7.387 105.818 95.826 189.655 203.488 189.655 112.486 0 204-91.514 204-204s-91.514-204-204-204c-8.836 0-16-7.163-16-16s7.164-16 16-16c130.435 0 236 105.551 236 236zm-361.091-4.394h53.858c8.836 0 16 7.163 16 16v67.394h12.303v-111.698c0-8.837 7.164-16 16-16h53.858c8.836 0 16 7.163 16 16v111.697h12.303v-156c0-8.837 7.164-16 16-16h53.858c8.836 0 16 7.163 16 16v156h9.183c8.836 0 16 7.163 16 16s-7.164 16-16 16c-18.78 0-292.125 0-300.548 0-8.836 0-16-7.163-16-16s7.164-16 16-16h9.183v-67.394c.002-8.836 7.166-15.999 16.002-15.999zm212.323 83.394h21.858v-140h-21.858zm-98.161 0h21.858v-95.697h-21.858zm-98.162 0h21.858v-51.394h-21.858zm-11.165-182.229h-1.99c-6.894 0-12.503-5.609-12.503-12.504 0-8.837-7.164-16-16-16s-16 7.163-16 16c0 19.275 12.321 35.723 29.498 41.894v12.838c0 8.837 7.164 16 16 16s16-7.163 16-16v-12.838c39.588-14.223 39.027-70.337-.497-83.965l-20.574-7.095c-13.257-4.572-9.975-24.323 4.076-24.323h1.99c6.895 0 12.503 5.608 12.503 12.503 0 8.837 7.164 16 16 16s16-7.163 16-16c0-19.275-12.321-35.722-29.499-41.894v-12.839c0-8.837-7.164-16-16-16s-16 7.163-16 16v12.839c-39.591 14.224-39.022 70.339.498 83.966l20.574 7.095c13.257 4.572 9.976 24.323-4.076 24.323z" fill="#4c3546"/></svg>