<svg id="Layer_1" enable-background="new 0 0 496 496" height="512" viewBox="0 0 496 496" width="512" xmlns="http://www.w3.org/2000/svg"><path d="m248.005 125c-69.52-.52-126.97 56.48-126.97 126 0 48.02 26.87 89.76 66.38 111.03 10.27 5.52 16.59 16.32 16.62 27.97v55c0 17.67 14.33 32 32 32h22c17.67 0 32-14.33 32-32v-54.92c0-11.677 6.419-22.533 16.93-28.22 39.35-21.32 66.07-62.97 66.07-110.86 0-69.27-55.89-125.48-125.03-126z" fill="#ffe773"/><path d="m151.706 286.089c1.519 14.723-19.428 19.359-24.171 5.338-27.904-82.499 35.419-167.756 121.493-166.415 14.81.231 16.846 21.519 2.368 24.645-60.76 13.12-106.586 69.608-99.69 136.432z" fill="#ffec8f"/><path d="m306.965 361.86c-10.37 5.61-16.9 16.36-16.93 28.14v55c0 17.673-14.327 32-32 32h-22c-11.95 0-22.38-6.56-27.88-16.27 3.67 1.46 7.68 2.27 11.88 2.27h22c17.673 0 32-14.327 32-32v-55c.03-11.78 6.56-22.53 16.93-28.14 40.806-22.109 63.429-62.132 65.844-103.561.585-10.03 15.507-10.029 16.024.005 2.364 45.934-20.064 92.739-65.868 117.556z" fill="#fadf5a"/><path d="m290.035 390v55c0 17.67-14.33 32-32 32h-22c-17.67 0-32-14.33-32-32 0-10.209 0-44.66 0-55z" fill="#aaa"/><path d="m290.035 390v55c0 17.673-14.327 32-32 32-23.972 0-22.447.014-23.486-.034-8.962-.41-8.535-13.901.437-13.947 2.124-.011 4.459-.019 7.039-.019 17.674 0 32.01-14.324 32.01-31.997 0-12.719 0-26.134 0-34.026 0-3.856 3.126-6.976 6.982-6.976h9.018z" fill="#999"/><path d="m347.8 150.948c-54.759-55.148-144.22-56.55-200.633-.558-68.128 67.62-51.062 180.673 32.671 225.728 5.056 2.721 8.197 8.071 8.197 13.964v54.918c0 26.468 21.533 48 48 48h22c26.467 0 48-21.532 48-48v-54.918c0-5.874 3.276-11.298 8.55-14.155 83.305-45.124 99.986-157.734 33.215-224.979zm-89.765 310.052h-22c-8.822 0-16-7.178-16-16v-39h54v39c0 8.822-7.178 16-16 16zm41.307-113.21c-10.678 5.786-18.587 15.198-22.52 26.21h-59.539c-3.888-11.012-11.713-20.375-22.283-26.062-64.646-34.785-78.297-122.227-25.291-174.836 69.305-68.787 187.326-19.732 187.326 77.898 0 40.426-22.106 77.514-57.693 96.79zm-229.342-96.824c0 8.837-7.164 16-16 16h-38c-8.836 0-16-7.163-16-16s7.164-16 16-16h38c8.836 0 16 7.163 16 16zm52.11 125.875c6.249 6.248 6.249 16.379 0 22.627l-26.87 26.87c-3.124 3.124-7.219 4.687-11.313 4.687-14.125 0-21.423-17.205-11.313-27.313l26.87-26.87c6.247-6.249 16.378-6.249 22.626-.001zm109.925-319.841v-38c0-8.837 7.164-16 16-16s16 7.163 16 16v38c0 8.837-7.164 16-16 16s-16-7.163-16-16zm-159.373 41.24c-6.249-6.248-6.249-16.379 0-22.627 6.248-6.248 16.379-6.248 22.627 0l26.87 26.87c10.112 10.111 2.809 27.313-11.313 27.313-4.095 0-8.189-1.563-11.313-4.687zm301.228 4.292 26.87-26.87c6.248-6.248 16.379-6.248 22.627 0 6.249 6.248 6.249 16.379 0 22.627l-26.87 26.87c-3.124 3.124-7.219 4.687-11.313 4.687-14.126 0-21.424-17.205-11.314-27.314zm122.11 148.502c0 8.837-7.164 16-16 16h-38c-8.836 0-16-7.163-16-16s7.164-16 16-16h38c8.836 0 16 7.163 16 16zm-72.662 152.726c6.249 6.248 6.249 16.379 0 22.627-6.249 6.249-16.379 6.248-22.627 0l-26.87-26.87c-6.249-6.248-6.249-16.379 0-22.627 6.248-6.248 16.379-6.248 22.627 0zm-113.303-168.76h-6.262c-1.222-4.25-2.91-8.301-5.018-12.093l4.435-4.435c6.249-6.248 6.249-16.379 0-22.627-6.248-6.248-16.379-6.248-22.627 0l-4.435 4.435c-3.791-2.108-7.843-3.796-12.093-5.018v-6.262c0-8.837-7.164-16-16-16s-16 7.163-16 16v6.262c-4.249 1.222-8.301 2.91-12.093 5.018l-4.435-4.435c-6.248-6.248-16.379-6.248-22.627 0-6.249 6.248-6.249 16.379 0 22.627l4.435 4.435c-2.108 3.792-3.796 7.843-5.018 12.093h-6.262c-8.836 0-16 7.163-16 16s7.164 16 16 16h6.262c1.222 4.25 2.91 8.301 5.018 12.093l-4.435 4.435c-10.112 10.111-2.809 27.313 11.313 27.313 7.634 0 11.117-4.49 15.748-9.121 3.791 2.108 7.843 3.796 12.093 5.018v6.262c0 8.837 7.164 16 16 16s16-7.163 16-16v-6.262c4.249-1.222 8.301-2.91 12.093-5.018 4.471 4.471 7.996 9.121 15.748 9.121 14.125 0 21.423-17.205 11.313-27.313l-4.435-4.435c2.108-3.792 3.796-7.843 5.018-12.093h6.262c8.836 0 16-7.163 16-16s-7.162-16-15.998-16zm-88 16c0-14.337 11.664-26 26-26s26 11.663 26 26-11.664 26-26 26-26-11.663-26-26z" fill="#4c3546"/></svg>