<svg id="Layer_1" enable-background="new 0 0 495.978 495.978" height="512" viewBox="0 0 495.978 495.978" width="512" xmlns="http://www.w3.org/2000/svg"><path d="m475.586 34.099c-1.27-6.973-6.727-12.43-13.7-13.7-91.568-16.655-188.901 13.701-256.15 91.35-7.11 8.29-13.85 16.56-20.23 24.77l-29.46-10.12c-24.89-8.54-52.46-2.85-71.93 14.85l-59.22 53.84c-17.99 16.35-6.95 46.29 17.35 47.04.016.001 74.814 2.33 74.83 2.33-1.37 2.69-2.69 5.36-3.98 7.98-6.79 13.83-3.99 30.44 6.9 41.33l82.22 82.22c10.89 10.89 27.5 13.69 41.33 6.9 8.514-4.192 7.98-4.07 7.98-3.97l2.33 74.82c.75 24.3 30.69 35.34 47.04 17.35l53.84-59.22c17.7-19.47 23.39-47.04 14.85-71.93l-10.12-29.46c9.306-7.232 18.644-14.916 26.33-21.57 72.97-62.99 107.04-159.97 89.79-254.81z" fill="#fe4f60"/><path d="m156.046 126.399 29.46 10.12c-25.291 32.514-48.407 68.447-68.43 107.94-.016 0-74.814-2.329-74.83-2.33-24.3-.75-35.34-30.69-17.35-47.04l59.22-53.84c19.47-17.7 47.04-23.39 71.93-14.85z" fill="#75f6fc"/><path d="m369.586 339.939c8.54 24.89 2.85 52.46-14.85 71.93l-53.84 59.22c-16.35 17.99-46.29 6.95-47.04-17.35-.001-.016-2.33-74.814-2.33-74.83 37.18-18.835 73.602-41.708 107.94-68.43z" fill="#75f6fc"/><path d="m369.086 126.899c20.69 20.68 20.69 54.22 0 74.9-20.68 20.69-54.22 20.69-74.9 0-20.69-20.68-20.69-54.22 0-74.9 20.68-20.69 54.22-20.69 74.9 0z" fill="#d6f4fc"/><path d="m332.833 28.064c14.584-4.491 23.163 15.997 9.667 23.118-29.506 15.569-56.921 37.038-80.764 64.567-33.014 38.493-62.734 82.035-87.44 130.32l-37.58-37.58c20.812-35.491 45.029-69.059 70.36-98.3 33.937-39.315 77.739-67.337 125.757-82.125z" fill="#ff6d7a"/><path d="m287.386 359.329c-15.324 8.983-29.259 16.381-43.84 23.56-13.83 6.79-30.44 3.99-41.33-6.9l-82.22-82.22c-10.89-10.89-13.69-27.5-6.9-41.33 7.173-14.569 14.637-28.619 23.62-43.95 157.595 157.585 150.297 150.187 150.67 150.84z" fill="#ededed"/><path d="m229.254 351.027c16.587 16.587-7.127 42.457-24.811 27.044-1.637-1.427 4.62 4.766-84.447-84.302-10.89-10.89-13.69-27.5-6.9-41.33 7.177-14.577 14.64-28.625 23.62-43.95l37.58 37.58c-1.942 3.788-3.061 6.026-5.2 10.37-6.79 13.83-3.99 30.44 6.9 41.33z" fill="#f7f7f7"/><path d="m344.058 112.87c10.492 2.517 9.871 17.476-.785 19.171-22.295 3.546-40.315 21.104-43.946 43.952-1.694 10.659-16.655 11.275-19.172.78-9.243-38.544 25.358-73.151 63.903-63.903z" fill="#e8f8fc"/><path d="m97.773 131.208c10.697-6.114 21.009 8.408 11.818 16.613-.389.347-59.31 53.918-59.695 54.268-7.065 6.422-9.651 14.941-8.713 22.965 1.066 9.122-9.653 15.04-16.653 9.094-12.689-10.778-10.258-29.403.367-39.059 61.805-56.192 63.099-58.293 72.876-63.881z" fill="#bbfbff"/><path d="m366.996 332.389c-45.129 34.781-96.758 63.377-114.71 71.08 0-.016-.76-24.544-.76-24.56 37.182-18.836 73.602-41.708 107.94-68.43z" fill="#57f2f9"/><path d="m491.331 31.235-2.107-11.593c-1.192-6.558-6.324-11.688-12.881-12.881l-11.593-2.107c-49.288-8.959-100.303-4.91-147.524 11.716-61.44 21.631-101.736 57.226-137.237 101.336l-18.75-6.435c-30.416-10.444-64.093-3.489-87.888 18.144l-59.216 53.833c-28.583 25.983-11.008 73.674 27.616 74.877l52.379 1.633c-2.698 16.264 2.457 33.228 14.554 45.324l82.22 82.221c11.688 11.688 28.468 17.355 45.326 14.558l1.632 52.376c1.206 38.734 48.979 56.105 74.877 27.615l53.833-59.216c21.633-23.795 28.585-57.472 18.145-87.888l-6.436-18.751c42.955-34.573 79.163-74.255 101.336-137.236 16.625-47.224 20.676-98.238 11.714-147.526zm-455.672 175.69 59.216-53.833c15.154-13.775 36.603-18.204 55.974-11.555l8.647 2.968c-18.676 25.71-36.245 53.705-51.997 83.653l-64.753-2.018c-9.955-.31-14.461-12.511-7.087-19.215zm318.79 138.211c6.649 19.372 2.222 40.819-11.556 55.974l-53.834 59.216c-6.698 7.371-18.904 2.875-19.214-7.086l-2.018-64.752c29.115-15.314 57.084-32.697 83.653-51.999zm19.365-67.028c-41.687 35.758-87.884 66.179-137.309 90.419-7.673 3.763-16.907 2.215-22.974-3.853.101 0 .746.747-82.221-82.221-6.067-6.067-7.615-15.3-3.852-22.974 4.099-8.359 8.39-16.617 12.839-24.785l86.793 86.793c6.249 6.249 16.378 6.248 22.627 0 6.248-6.248 6.248-16.379 0-22.627l-92.852-92.851c18.679-30.501 39.251-58.567 62.326-85.368 57.901-67.08 148.951-100.993 240.529-84.378 16.164 89.087-14.954 180.816-85.906 241.845zm-90.943-162.527c-43.363 43.361-12.384 117.701 48.767 117.701 61.095 0 92.18-74.29 48.767-117.701-26.892-26.891-70.643-26.891-97.534 0zm74.906 74.906c-14.414 14.412-37.865 14.412-52.279 0-14.413-14.413-14.413-37.866 0-52.279 14.415-14.413 37.865-14.413 52.279 0 14.413 14.413 14.413 37.866 0 52.279zm-333.206 183.708c-6.249-6.248-6.249-16.379 0-22.627l20.719-20.718c6.248-6.248 16.379-6.248 22.627 0 6.249 6.248 6.249 16.379 0 22.627l-20.719 20.719c-6.249 6.248-16.379 6.248-22.627-.001zm141.361 54.67c6.249 6.248 6.249 16.379 0 22.627l-20.718 20.719c-3.125 3.124-7.219 4.687-11.314 4.687-14.125 0-21.423-17.205-11.314-27.313l20.718-20.719c6.25-6.249 16.38-6.251 22.628-.001zm-34.949-41.236-70.351 70.351c-6.25 6.249-16.379 6.249-22.627 0-6.249-6.248-6.249-16.379 0-22.627l70.351-70.352c6.249-6.248 16.379-6.248 22.627 0 6.249 6.249 6.249 16.38 0 22.628z" fill="#4c3546"/></svg>