<svg id="Layer_1" enable-background="new 0 0 496 496" height="512" viewBox="0 0 496 496" width="512" xmlns="http://www.w3.org/2000/svg"><path d="m448 31h-400c-17.67 0-32 14.33-32 32v320c0 17.67 14.33 32 32 32h12v34c0 8.836 7.164 16 16 16h48c8.836 0 16-7.164 16-16v-34h216v34c0 8.836 7.164 16 16 16h48c8.836 0 16-7.164 16-16v-34h12c17.67 0 32-14.33 32-32v-320c0-17.67-14.33-32-32-32z" fill="#ededed"/><path d="m112 135c0-17.673 14.327-32 32-32h232c17.673 0 32 14.327 32 32v176c0 17.673-14.327 32-32 32h-232c-17.673 0-32-14.327-32-32 0-1.077 0-180.676 0-176z" fill="#e3e3e3"/><circle cx="298" cy="223" fill="#4d4e59" r="42"/><path d="m140 415v34c0 8.837-7.163 16-16 16h-48c-8.837 0-16-7.163-16-16v-34z" fill="#aaa"/><path d="m436 415v34c0 8.837-7.163 16-16 16h-48c-8.837 0-16-7.163-16-16v-34z" fill="#aaa"/><path d="m448.324 71h-360.324c-17.673 0-32 14.327-32 32v280.351c0 26.093-40 27.428-40-.351v-320c0-17.673 14.327-32 32-32 2.905 0 400.327-.014 401.429.026 25.925.948 24.837 39.974-1.105 39.974z" fill="#f7f7f7"/><path d="m376.444 132.995c-29.747-.002-88.014.005-202.436.005-17.673 0-32.008 14.334-32.008 32.007 0 78.292-.005 121.991-.005 146.432 0 19.464-29.995 20.746-29.995-.439v-176c0-17.673 14.327-32 32-32 1.566 0 232.314-.017 233.411.031 19.341.839 18.392 29.966-.967 29.964z" fill="#f7f7f7"/><path d="m448 15h-400c-26.468 0-48 21.532-48 48v320c0 25.12 19.398 45.779 44 47.82v34.18c0 8.837 7.163 16 16 16h80c8.837 0 16-7.163 16-16v-34h184v34c0 8.837 7.163 16 16 16h80c8.837 0 16-7.163 16-16v-34.18c24.602-2.041 44-22.701 44-47.82v-320c0-26.468-21.532-48-48-48zm-324 434h-48v-18h48zm296 0h-48v-18h48zm44-66c0 8.822-7.178 16-16 16-5.672 0-389.741 0-400 0-8.822 0-16-7.178-16-16v-320c0-8.822 7.178-16 16-16h400c8.822 0 16 7.178 16 16zm-56-296h-296c-8.837 0-16 7.163-16 16v40h-8c-8.837 0-16 7.163-16 16s7.163 16 16 16h8v96h-8c-8.837 0-16 7.163-16 16s7.163 16 16 16h8v40c0 8.837 7.163 16 16 16h296c8.837 0 16-7.163 16-16v-240c0-8.837-7.163-16-16-16zm-16 240h-264v-24h8c8.837 0 16-7.163 16-16s-7.163-16-16-16h-8v-96h8c8.837 0 16-7.163 16-16s-7.163-16-16-16h-8v-24h264zm-94-46c31.981 0 58-26.019 58-58s-26.019-58-58-58-58 26.019-58 58 26.019 58 58 58zm0-84c14.337 0 26 11.663 26 26s-11.663 26-26 26-26-11.663-26-26 11.663-26 26-26z" fill="#4c3546"/></svg>