<svg id="Layer_1" enable-background="new 0 0 496 496" height="512" viewBox="0 0 496 496" width="512" xmlns="http://www.w3.org/2000/svg"><path d="m107.18 376.102 20.574 7.095c39.435 13.599 40.149 69.719.497 83.965v12.838c0 8.837-7.163 16-16 16s-16-7.163-16-16v-12.838c-17.177-6.171-29.498-22.619-29.498-41.894 0-8.837 7.163-16 16-16s16 7.163 16 16c0 6.895 5.608 12.504 12.503 12.504h1.99c14.07 0 17.305-19.761 4.076-24.323l-20.574-7.095c-39.437-13.597-40.149-69.72-.497-83.966v-12.839c0-8.837 7.163-16 16-16s16 7.163 16 16v12.839c17.177 6.171 29.498 22.618 29.498 41.894 0 8.837-7.163 16-16 16s-16-7.163-16-16c0-6.895-5.608-12.503-12.503-12.503h-1.99c-14.069-.001-17.309 19.759-4.076 24.323zm185.322-255.102c0 8.837 7.163 16 16 16h23.637c14.533 37.967 51.348 65 94.363 65 8.837 0 16-7.163 16-16s-7.163-16-16-16c-24.863 0-46.691-13.222-58.837-33h30.837c8.837 0 16-7.163 16-16s-7.163-16-16-16h-40.875c-.348-6.078.066-12.011 1.306-18h59.57c8.837 0 16-7.163 16-16s-7.163-16-16-16h-43.374c12.643-14.105 30.986-23 51.374-23 8.837 0 16-7.163 16-16s-7.163-16-16-16c-39.134 0-73.141 22.373-89.903 55h-28.097c-8.837 0-16 7.163-16 16s7.163 16 16 16h17.975c-.882 6.33-1.117 12.2-.889 18h-17.086c-8.838 0-16.001 7.163-16.001 16zm-216.843 141.235c-7.227-4.283-17.124-2.485-22.1 5.907-11.866-113.97 77.705-212.142 190.943-212.142 8.837 0 16-7.163 16-16s-7.163-16-16-16c-134.055 0-238.608 116.95-222.345 251.227-7.403-1.252-14.899 2.86-17.636 10.155-3.103 8.274 1.09 17.497 9.363 20.6l32 12c7.257 2.722 15.428-.151 19.383-6.824l16-27c4.505-7.603 1.994-17.418-5.608-21.923zm412.385-16.315-24-25c-5.89-6.135-15.548-6.591-21.989-1.038l-29 25c-15.246 13.144 3.392 39.324 22.432 22.911-11.637 113.118-120.336 193.37-233.978 167.378-8.612-1.968-17.194 3.417-19.165 12.03-1.97 8.614 3.416 17.194 12.03 19.165 132.064 30.203 260.006-62.604 273.05-196.188 6.125 4.229 14.579 3.719 20.158-1.637 6.375-6.118 6.582-16.247.462-22.621z" fill="#4c3546"/></svg>