<svg id="Layer_1" enable-background="new 0 0 496 496" height="512" viewBox="0 0 496 496" width="512" xmlns="http://www.w3.org/2000/svg"><g fill="#75f6fc"><path d="m480 419.902v28c0 17.67-14.33 32-32 32h-28c-17.67 0-32-14.33-32-32v-28c0-17.67 14.33-32 32-32h28c17.67 0 32 14.33 32 32z"/><path d="m294 419.902v28c0 17.67-14.33 32-32 32h-28c-17.67 0-32-14.33-32-32v-28c0-17.67 14.33-32 32-32h28c17.67 0 32 14.33 32 32z"/><path d="m108 419.902v28c0 17.67-14.33 32-32 32h-28c-17.67 0-32-14.33-32-32v-28c0-17.67 14.33-32 32-32h28c17.67 0 32 14.33 32 32z"/></g><path d="m248.365 16.102c29.926 0 54.185 24.259 54.185 54.185 0 29.912-24.259 54.171-54.185 54.171-29.912 0-54.171-24.259-54.171-54.171 0-29.926 24.259-54.185 54.171-54.185z" fill="#ffebd2"/><path d="m264.995 18.701c6.583 2.12 4.936 11.756-1.979 11.714-32.301-.198-54.836 26.501-54.554 54.97.068 6.844-9.576 8.515-11.681 2.003-13.08-40.47 24.131-82.884 68.214-68.687z" fill="#fff3e4"/><path d="m341 210.231v10.708c0 11.467-9.296 20.763-20.763 20.763h-144.474c-11.467 0-20.763-9.296-20.763-20.763v-10.708c0-10.815 6.354-20.612 16.238-25.03 35.398-15.809 35.044-16.252 40.817-16.252h71.879c5.807 0 5.591.521 40.829 16.252 9.883 4.418 16.237 14.215 16.237 25.03z" fill="#fe4f60"/><path d="m283.113 169.034c3.635.208 3.466 5.632-.175 5.633-61.705.006-59.656-.562-65.01 1.827l-32.346 14.445c-9.883 4.418-16.237 14.215-16.237 25.03 0 1.997-.045 3.896-.065 5.714-.102 9.017-13.625 9.672-14.231.675-.067-1-.047-.563-.047-12.127 0-10.816 6.354-20.612 16.237-25.03 35.389-15.803 35.047-16.252 40.823-16.252 43.618 0 61.684-.45 71.051.085z" fill="#ff6d7a"/><path d="m248.26 140.685c38.76 0 70.293-31.533 70.293-70.293s-31.533-70.294-70.293-70.294-70.293 31.534-70.293 70.294 31.533 70.293 70.293 70.293zm0-108.587c21.115 0 38.293 17.179 38.293 38.294s-17.178 38.293-38.293 38.293-38.293-17.178-38.293-38.293 17.178-38.294 38.293-38.294zm-93.26 225.609h186c8.836 0 16-7.163 16-16v-31.468c0-17.106-10.093-32.667-25.714-39.642l-36.398-16.252c-4.377-1.955.041-1.391-87.253-1.391-4.571 0-3.448.018-42.921 17.643-15.621 6.975-25.714 22.536-25.714 39.642v31.468c0 8.837 7.164 16 16 16zm16-47.468c0-4.498 2.654-8.589 6.761-10.423l33.284-14.861h73.91l33.284 14.861c4.107 1.834 6.761 5.925 6.761 10.423v15.468h-154zm279 161.714v-20.051c0-26.467-21.533-48-48-48h-138v-17c0-8.837-7.164-16-16-16s-16 7.163-16 16v17h-138c-26.467 0-48 21.533-48 48v20.051c-25.542 1.053-46 22.152-46 47.949v28c0 26.468 21.533 48 48 48h28c26.467 0 48-21.532 48-48v-28c0-25.797-20.458-46.896-46-47.949v-20.051c0-8.822 7.178-16 16-16h138v36.051c-25.542 1.053-46 22.152-46 47.949v28c0 26.468 21.533 48 48 48h28c26.467 0 48-21.532 48-48v-28c0-25.797-20.458-46.896-46-47.949v-36.051h138c8.822 0 16 7.178 16 16v20.051c-25.542 1.053-46 22.152-46 47.949v28c0 26.468 21.533 48 48 48h28c26.467 0 48-21.532 48-48v-28c0-25.797-20.458-46.896-46-47.949zm-358 47.949v28c0 8.822-7.178 16-16 16h-28c-8.822 0-16-7.178-16-16v-28c0-8.822 7.178-16 16-16h28c8.822 0 16 7.178 16 16zm186 0v28c0 8.822-7.178 16-16 16h-28c-8.822 0-16-7.178-16-16v-28c0-8.822 7.178-16 16-16h28c8.822 0 16 7.178 16 16zm186 28c0 8.822-7.178 16-16 16h-28c-8.822 0-16-7.178-16-16v-28c0-8.822 7.178-16 16-16h28c8.822 0 16 7.178 16 16z" fill="#4c3546"/></svg>