<svg id="Layer_1" enable-background="new 0 0 496 496" height="512" viewBox="0 0 496 496" width="512" xmlns="http://www.w3.org/2000/svg"><path d="m282 40v35h-68v-35c0-13.25 10.75-24 24-24h20c13.25 0 24 10.75 24 24z" fill="#ffe773"/><path d="m404 448v8c0 13.25-10.75 24-24 24h-264c-13.25 0-24-10.75-24-24v-8c0-13.25 10.75-24 24-24h264c13.25 0 24 10.75 24 24z" fill="#aaa"/><path d="m337 104.5v10c0 16.29-13.21 29.5-29.5 29.5h-119c-16.29 0-29.5-13.21-29.5-29.5v-10c0-16.29 13.21-29.5 29.5-29.5h119c16.29 0 29.5 13.21 29.5 29.5z" fill="#aaa"/><path d="m380.491 443.988c-28.621-.028-93.974.012-244.491.012-10.467 0-20.336 6.363-23.39 19.149-2.552 10.683-20.61 12.274-20.61-7.149v-8c0-13.255 10.745-24 24-24h264c14.53 0 13.349 20 .491 19.988z" fill="#b2b2b2"/><path d="m308.238 92.954c-17.329-.016-47.228.046-99.729.046-15.269 0-29.464 11.803-29.51 30.48-.023 9.496-12.884 12.45-17.04 3.911-1.895-3.894-2.959-8.268-2.959-12.891v-10c0-16.292 13.208-29.5 29.5-29.5 127.329 0 119.34-.015 120.341.03 11.562.517 10.97 17.935-.603 17.924z" fill="#b2b2b2"/><path d="m258.004 36c-13.255 0-24.004 10.746-24.004 24v15h-20v-35c0-13.255 10.745-24 24-24 21.706 0 20.488-.021 21.609.053 12.473.826 12.68 19.947-1.605 19.947z" fill="#ffec8f"/><path d="m380 408h-14.124l-36.252-253.762c13.931-7.786 23.376-22.676 23.376-39.738v-10c0-25.089-20.411-45.5-45.5-45.5h-9.5v-19c0-22.056-17.944-40-40-40h-20c-22.056 0-40 17.944-40 40v19h-9.5c-25.089 0-45.5 20.411-45.5 45.5v10c0 17.062 9.444 31.951 23.375 39.738l-36.252 253.762h-14.123c-22.056 0-40 17.944-40 40v8c0 22.056 17.944 40 40 40h264c22.056 0 40-17.944 40-40v-8c0-22.056-17.944-40-40-40zm-54.079-53.419 6.061 42.429-46.934-22.733zm-77.635 1.889-54.237-26.271 54.206-29.389 54.542 29.394zm33.593-73.891 31.329-16.985 5.242 36.694zm-33.67-18.145-46.565-25.095 46.356-31.891 46.417 31.933zm28.02-76.406 23.58-16.222 5.14 35.979zm-28.229-19.42-12.513-8.608h25.026zm-28.229 19.42-28.721 19.759 5.14-35.98zm-36.971 77.507 31.784 17.129-37.105 20.117zm-12.662 88.638 41.35 20.028-47.479 22.879zm78.112 37.835 33.015 15.992h-66.203zm-18.25-352.008c0-4.411 3.589-8 8-8h20c4.411 0 8 3.589 8 8v19h-36zm-55 64.5c0-7.444 6.056-13.5 13.5-13.5h119c7.444 0 13.5 6.056 13.5 13.5v10c0 7.444-6.056 13.5-13.5 13.5h-119c-7.444 0-13.5-6.056-13.5-13.5zm213 351.5c0 4.411-3.589 8-8 8h-264c-4.411 0-8-3.589-8-8v-8c0-4.411 3.589-8 8-8h264c4.411 0 8 3.589 8 8z" fill="#4c3546"/></svg>