<svg id="Layer_1" enable-background="new 0 0 496 496" height="512" viewBox="0 0 496 496" width="512" xmlns="http://www.w3.org/2000/svg"><path d="m320.63 199.687v64.195c0 8.837-7.163 16-16 16h-113.26c-8.837 0-16-7.163-16-16v-64.195c0-6.708 7.759-10.437 12.998-6.247l21.761 17.409c3.183 2.547 7.772 2.292 10.654-.59l21.56-21.56c3.124-3.124 8.19-3.124 11.314 0l21.56 21.56c2.882 2.882 7.471 3.137 10.654.59l21.761-17.409c5.239-4.19 12.998-.461 12.998 6.247z" fill="#ffe773"/><g fill="#b5f26d"><path d="m84.59 253.512c8.837 0 16-7.163 16-16v-17.46c0-37.016-30.11-67.13-67.12-67.13h-17.47c-8.837 0-16 7.163-16 16v17.47c0 37.01 30.11 67.12 67.12 67.12z"/><path d="m137.668 17.825c-6.453-6.032-16.578-5.695-22.615.76l-11.934 12.764c-25.271 27.043-23.834 69.604 3.204 94.872 13.156 12.3 15.774 16.242 23.686 16.242 4.461 0 8.685-1.858 11.693-5.078 12.858-13.764 31.03-29.44 29.974-60.853-1.057-31.434-20.323-45.911-34.008-58.707z"/><path d="m133.098 333.905c-27.032-25.274-69.591-23.838-94.88 3.205l-11.92 12.76c-6.03 6.456-5.688 16.577.766 22.61 13.76 12.866 28.575 29.985 58.567 29.985 17.953 0 35.867-7.14 49.071-21.261l11.92-12.761c6.03-6.455 5.688-16.576-.766-22.609z"/><path d="m480 152.922h-17.47c-37.01 0-67.12 30.114-67.12 67.13v17.46c0 8.837 7.163 16 16 16h17.46c37.016 0 67.13-30.11 67.13-67.12v-17.47c0-8.837-7.163-16-16-16z"/><path d="m365.991 142.462c8.078 0 11.093-4.469 23.684-16.24 27.04-25.271 28.478-67.831 3.203-94.878l-11.931-12.76c-6.037-6.455-16.162-6.793-22.615-.76l-12.757 11.929c-27.1 25.326-28.546 67.774-3.197 94.872l11.92 12.759c3.008 3.22 7.232 5.078 11.693 5.078z"/><path d="m457.776 337.105c-25.282-27.038-67.843-28.475-94.873-3.2l-12.76 11.93c-6.453 6.033-6.796 16.154-.766 22.609l11.926 12.767c13.201 14.118 31.111 21.256 49.063 21.256 29.947 0 44.73-17.047 58.569-29.986 6.453-6.033 6.796-16.154.766-22.61z"/></g><path d="m68.891 174.708c-10.646-2.368-21.051-1.785-32.888-1.785-8.841 0-16.003 7.153-16.003 15.994 0 11.994-.575 22.376 1.792 32.972 1.164 5.212-5.732 8.347-8.885 4.036-8.114-11.097-12.907-24.765-12.907-39.533v-17.47c0-8.837 7.163-16 16-16 19.529 0 36.971-1.771 57.054 12.945 4.361 3.196 1.115 10.014-4.163 8.841z" fill="#cdfdaa"/><path d="m144.468 24.157c3.402 3.165 1.969 8.691-2.469 10.069-5.242 1.628-6.434 3.805-18.879 17.127-14.733 15.767-20.386 36.811-17.18 56.625 1.06 6.552-7.636 9.847-11.086 4.177-15.333-25.199-12.696-58.372 8.266-80.802l11.93-12.77c6.04-6.45 16.16-6.79 22.62-.76 2.658 2.484 4.892 4.56 6.798 6.334z" fill="#cdfdaa"/><path d="m99.624 336.287c-27.773 3.164-40.181 19.516-53.324 33.585-.767.822-1.43 1.702-1.991 2.627-3.201 5.272-10.277 6.506-14.781 2.292-.771-.721-1.592-1.489-2.468-2.308-6.45-6.04-6.79-16.16-.76-22.61l11.92-12.76c16.246-17.377 39.618-24.181 61.423-20.127 12.177 2.264 10.76 18.074-.019 19.301z" fill="#cdfdaa"/><path d="m427.109 174.708c10.646-2.368 21.051-1.785 32.888-1.785 8.841 0 16.003 7.153 16.003 15.994 0 11.994.575 22.376-1.792 32.972-1.164 5.212 5.732 8.347 8.885 4.036 8.114-11.097 12.907-24.765 12.907-39.533v-17.47c0-8.837-7.163-16-16-16-19.529 0-36.971-1.771-57.054 12.945-4.361 3.196-1.115 10.014 4.163 8.841z" fill="#cdfdaa"/><path d="m351.532 24.157c-3.402 3.165-1.969 8.691 2.469 10.069 5.242 1.628 6.434 3.805 18.879 17.127 14.733 15.767 20.387 36.811 17.18 56.625-1.06 6.552 7.636 9.847 11.086 4.177 15.333-25.199 12.696-58.372-8.266-80.802l-11.93-12.77c-6.04-6.45-16.16-6.79-22.62-.76-2.658 2.484-4.892 4.56-6.798 6.334z" fill="#cdfdaa"/><path d="m396.376 336.287c27.773 3.164 40.181 19.516 53.324 33.585.767.822 1.43 1.702 1.991 2.627 3.201 5.272 10.277 6.506 14.781 2.292.771-.721 1.592-1.489 2.468-2.308 6.45-6.04 6.79-16.16.76-22.61l-11.92-12.76c-16.246-17.377-39.618-24.181-61.423-20.127-12.177 2.264-10.76 18.074.019 19.301z" fill="#cdfdaa"/><path d="m185.37 206.682v64.2c0 3.93-4.674 5.459-6.844 2.545-1.983-2.663-3.156-5.965-3.156-9.545v-64.2c0-6.699 7.76-10.43 13-6.239l.679.544c1.993 1.597 1.894 4.674-.217 6.111-2.039 1.389-3.462 3.713-3.462 6.584z" fill="#ffec8f"/><path d="m253.214 194.944c-.754.565.564-.679-22.434 22.318-2.88 2.88-7.47 3.13-10.65.59-2.804-2.243-2.195-5.383-.271-6.798.798-.587 23.181-23.051 22.481-22.351 3.126-3.126 8.194-3.126 11.32 0 1.784 1.784 1.573 4.729-.446 6.241z" fill="#ffec8f"/><path d="m318.28 194.013c1.835 1.804 1.571 4.84-.504 6.362-2.404 1.763-7.676 6.092-21.906 17.477-3.18 2.54-7.77 2.29-10.65-.59-1.854-1.854-1.594-4.936.562-6.427 3.168-2.192 8.862-7.002 21.848-17.392 3.432-2.744 7.944-2.09 10.65.57z" fill="#ffec8f"/><path d="m480 152.922c-18.565 0-43.028-2.616-65.364 20.161-6.392-16.095-15.203-31.441-26.428-45.482 30.388-28.402 28.656-70.59 4.667-96.252l-11.929-12.759c-6.034-6.455-16.158-6.795-22.613-.762l-12.761 11.928c-27.038 25.277-28.472 67.838-3.195 94.875 9.756 10.437 9.857 10.666 9.857 10.666 57.474 57.475 57.474 150.993 0 208.468-57.609 57.609-150.854 57.615-208.469 0-57.474-57.475-57.474-150.993 0-208.468 0 0 .099-.226 9.857-10.665 25.276-27.038 23.843-69.599-3.196-94.876l-12.76-11.928c-6.454-6.032-16.58-5.692-22.613.762l-11.929 12.759c-23.892 25.56-25.847 67.72 4.668 96.252-11.226 14.041-20.037 29.387-26.429 45.482-22.3-22.74-46.677-20.161-65.364-20.161-8.837 0-16 7.163-16 16v17.467c0 35.071 27.416 67.125 69.227 67.125 1.658 21.395 7.125 42.544 16.405 62.337-31.652.882-45.813 19.55-59.333 34.012-6.032 6.45-5.694 16.58.762 22.615 13.918 13.012 28.633 30.019 58.543 30.019 20.185 0 36.842-8.185 50.458-22.749 14.173 11.359 29.82 20.399 46.479 26.919-16.654 14.592-27.201 35.991-27.201 59.821 0 8.837 7.163 16 16 16s16-7.163 16-16c0-26.218 21.33-47.548 47.548-47.548h26.227c26.218 0 47.548 21.33 47.548 47.548 0 8.837 7.163 16 16 16s16-7.163 16-16c0-23.83-10.547-45.229-27.201-59.821 16.658-6.52 32.306-15.56 46.478-26.919 14.6 15.622 31.688 22.749 50.459 22.749 29.895 0 44.647-17.029 58.543-30.019 6.451-6.03 6.797-16.161.762-22.615-12.252-13.106-27.262-33.266-59.333-34.012 9.28-19.794 14.747-40.942 16.404-62.337 41.752 0 69.227-32.04 69.227-67.125v-17.467c-.001-8.837-7.164-16-16.001-16zm-111.503-100.791c14.557 15.579 13.966 37.041-1.742 51.719-14.558-15.58-13.966-37.041 1.742-51.719zm-240.994 0c15.573 14.565 16.427 36.017 1.742 51.719-15.573-14.565-16.427-36.018-1.742-51.719zm-58.912 169.383c-21.318 0-36.591-15.093-36.591-36.592 21.318 0 36.591 15.094 36.591 36.592zm-7.99 138.514c13.826-14.77 35.258-17.135 51.718-1.741-15.356 16.418-36.837 15.658-51.718 1.741zm374.798 0c-16.094 15.037-37.427 13.555-51.718-1.741 15.587-14.564 36.956-14.045 51.718 1.741zm-7.99-138.514c0-21.319 15.092-36.592 36.591-36.592 0 22.308-16.151 36.592-36.591 36.592zm-268.035-38.47v96.835c0 8.837 7.163 16 16 16h145.252c8.837 0 16-7.163 16-16v-96.835c0-13.384-15.531-20.864-25.995-12.494l-29.165 23.332-22.152-22.151c-6.248-6.248-16.379-6.248-22.627 0l-22.152 22.151-29.165-23.332c-10.45-8.362-25.996-.906-25.996 12.494zm32 33.29 14.353 11.482c6.366 5.093 15.544 4.585 21.309-1.181l20.964-20.964 20.965 20.965c5.766 5.766 14.944 6.273 21.309 1.181l14.353-11.482v47.545h-113.253z" fill="#4c3546"/></svg>