<svg id="Layer_1" enable-background="new 0 0 496 496" height="512" viewBox="0 0 496 496" width="512" xmlns="http://www.w3.org/2000/svg"><path d="m480 102.838v264c0 17.67-14.33 32-32 32h-233.67v12.04c0 7.89-6.39 14.28-14.28 14.28h-169.77c-7.89 0-14.28-6.39-14.28-14.28v-19.27c0-11.53 6.78-21.99 17.31-26.69 40.305-17.999 37.522-17.33 42.66-17.33 9.146 0 12.545 7.696 14.03 9.85v-67.2c-43.201-21.151-43.209-82.865 0-104.02v-83.38c0-17.67 14.33-32 32-32h326c17.67 0 32 14.33 32 32z" fill="#e8f8fc"/><g fill="#b5f26d"><path d="m272 358.838h-16c-8.837 0-16-7.164-16-16v-46c0-8.836 7.163-16 16-16h16c8.837 0 16 7.164 16 16v46c0 8.837-7.163 16-16 16z"/><path d="m336 358.838h-16c-8.837 0-16-7.163-16-16v-86c0-8.837 7.163-16 16-16h16c8.837 0 16 7.163 16 16v86c0 8.837-7.163 16-16 16z"/><path d="m400 358.838h-16c-8.837 0-16-7.163-16-16v-126c0-8.837 7.163-16 16-16h16c8.837 0 16 7.163 16 16v126c0 8.837-7.163 16-16 16z"/></g><path d="m448.437 100.858c-81.79-.041-294.671-.019-296.437-.019-17.67 0-32 14.33-32 32v219.067c0 12.866-15.162 19.809-24.851 11.345-3.493-3.052-5.149-7.044-5.149-11.309v-53.064c0-5.08-2.614-9.749-6.83-12.583-34.178-22.98-34.112-73.196 0-96.132 4.216-2.835 6.83-7.503 6.83-12.583v-74.741c0-17.673 14.327-32 32-32h326c21.232-.001 19.906 30.028.437 30.019z" fill="#f1fafc"/><path d="m214.33 410.878c0 7.887-6.393 14.28-14.28 14.28h-169.77c-7.886 0-14.28-6.393-14.28-14.28v-19.27c0-11.53 6.78-21.99 17.31-26.69 39.211-17.509 37.763-17.33 41.853-17.33 9.498 0 11.944 5.646 14.837 9.85 12.756 18.749 40.869 17.449 51.841-2.458 2.512-4.557 7.296-7.392 12.499-7.392 5.09 0 1.647-.988 42.669 17.33 10.53 4.7 17.32 15.16 17.32 26.69.001.315.001 19.796.001 19.27z" fill="#fe4f60"/><path d="m173.33 238.228c0 43.015-45.237 70.709-83.33 52.01-43.201-21.151-43.209-82.865 0-104.02 38.112-18.708 83.33 9.013 83.33 52.01z" fill="#ffebd2"/><path d="m272.86 290.826c-1.938.006-4.198.012-6.851.012-8.837 0-16.009 7.164-16.009 16.001 0 18.153-.041 29.423-.038 36.573.002 6.271-9.962 7.252-9.962-.574v-46c0-8.837 7.163-16 16-16 17.082 0 16.32-.028 17.32.054 6.29.513 5.852 9.915-.46 9.934z" fill="#ccfca9"/><path d="m336.86 250.826c-1.938.006-4.199.012-6.853.012-8.836 0-16.007 7.167-16.007 16.003 0 43.084-.069 65.093-.03 76.63.021 6.266-9.97 7.332-9.97-.633v-86c0-8.837 7.163-16 16-16 17.083 0 16.32-.028 17.32.054 6.291.513 5.852 9.915-.46 9.934z" fill="#ccfca9"/><path d="m400.86 210.826c-1.938.006-4.199.012-6.852.012-8.836 0-16.008 7.167-16.008 16.003 0 70.238-.097 101.953-.024 116.696.031 6.278-9.976 7.356-9.976-.699v-126c0-8.837 7.163-16 16-16 17.083 0 16.32-.028 17.32.054 6.291.513 5.852 9.915-.46 9.934z" fill="#ccfca9"/><path d="m81.456 358.323c-6.17 1.781-16.159 6.777-38.146 16.596-10.53 4.7-17.31 15.16-17.31 26.69 0 3.963-.006 7.162-.011 9.762-.013 6.319-9.529 6.791-9.956.487-.054-.798-.033.134-.033-20.25 0-11.53 6.78-21.99 17.31-26.69 40.305-17.999 37.522-17.33 42.66-17.33 11.494 0 10.803 9.2 5.486 10.735z" fill="#ff6d7a"/><path d="m214.33 391.608v19.27c0 5.955-2.703 10.765-9.426 12.972-2.763.907-5.36-2.002-4.064-4.606 1.926-3.869 1.49-4.883 1.49-25.636 0-11.53-6.79-21.99-17.32-26.69-13.236-5.911-21.728-9.716-27.237-12.178-3.815-1.705-1.802-8.157 3.207-5.912l36.03 16.09c10.53 4.7 17.32 15.16 17.32 26.69z" fill="#e84857"/><path d="m126.413 181.378c11.037 2.119 10.826 17.911-.268 19.708-24.402 3.953-43.84 23.014-47.858 47.986-1.775 11.034-17.58 11.131-19.692.157-7.751-40.267 27.601-75.572 67.818-67.851z" fill="#fff3e4"/><path d="m352 256.838v70h16v-110c0-8.837 7.163-16 16-16h16c8.837 0 16 7.163 16 16v110h8c8.837 0 16 7.163 16 16s-7.163 16-16 16c-9.191 0-180.253 0-192 0-8.837 0-16-7.163-16-16s7.163-16 16-16h8v-30c0-8.836 7.163-16 16-16h16c8.837 0 16 7.164 16 16v30h16v-70c0-8.837 7.163-16 16-16h16c8.837 0 16 7.164 16 16zm-80-130c0-8.837-7.163-16-16-16h-72c-8.837 0-16 7.163-16 16s7.163 16 16 16h72c8.837 0 16-7.163 16-16zm-56 75h100c8.837 0 16-7.163 16-16s-7.163-16-16-16h-100c-8.837 0-16 7.163-16 16s7.163 16 16 16zm280-99v264c0 26.467-21.533 48-48 48h-217.675v10.323c0 8.837-7.163 16-16 16s-16-7.163-16-16v-33.551c0-5.214-3.076-9.956-7.837-12.081l-35.23-15.73c-17.872 30.586-62.331 30.56-80.19 0l-35.23 15.731c-4.762 2.124-7.838 6.866-7.838 12.08v33.552c0 8.837-7.163 16-16 16s-16-7.163-16-16v-33.552c0-17.823 10.516-34.034 26.79-41.301l38.81-17.329c4.027-1.798 5.935-1.39 19.993-1.39 7.364 0 13.777 5.027 15.537 12.178 3.587 14.585 24.474 14.593 28.067-.001 1.759-7.151 8.172-12.177 15.536-12.177 14.111 0 15.982-.4 19.992 1.39l38.81 17.329c13.552 6.051 23.105 18.307 25.923 32.53h218.542c8.822 0 16-7.177 16-16v-264c0-8.823-7.178-16-16-16h-326c-8.822 0-16 7.177-16 16v62.124c44.525-5.707 83.331 29.122 83.331 73.267 0 40.744-33.147 73.891-73.892 73.891-40.743 0-73.891-33.147-73.891-73.891 0-25.397 12.882-47.838 32.451-61.144v-74.247c0-26.467 21.533-48 48-48h326c26.468-.001 48.001 21.532 48.001 47.999zm-380.561 93.5c-23.099 0-41.891 18.792-41.891 41.891s18.792 41.891 41.891 41.891 41.892-18.792 41.892-41.891-18.793-41.891-41.892-41.891z" fill="#4c3546"/></svg>