<svg id="Layer_1" enable-background="new 0 0 496.035 496.035" height="512" viewBox="0 0 496.035 496.035" width="512" xmlns="http://www.w3.org/2000/svg"><g fill="#ffe773"><path d="m478.318 344.028c7.3 22.96-9.83 46.39-33.93 46.39h-160.74c-20.28 0-35.63-16.6-35.63-35.54 0-7.338-.43-4.151 24.34-82.05 4.7-14.77 18.42-24.81 33.93-24.81h115.46c15.51 0 29.23 10.04 33.93 24.81z"/><path d="m362.318 201.628c7.3 22.96-9.83 46.39-33.93 46.39-5.248 0-155.61 0-160.74 0-24.1 0-41.23-23.43-33.93-46.39l22.64-71.2c4.7-14.78 18.42-24.81 33.93-24.81h115.46c15.51 0 29.23 10.03 33.93 24.81z"/><path d="m248.018 354.878c0 18.94-15.35 35.54-35.63 35.54h-160.74c-24.1 0-41.23-23.43-33.93-46.39l22.64-71.2c4.7-14.77 18.42-24.81 33.93-24.81h115.46c15.51 0 29.23 10.04 33.93 24.81 24.662 77.561 24.34 74.604 24.34 82.05z"/></g><path d="m190.654 267.905c-17.618-.033-46.753.113-96.366.113-15.51 0-29.23 10.04-33.93 24.81-24.429 76.826-22.826 71.702-23.196 73.133-2.448 9.479-15.586 10.264-18.967 1.076-2.6-7.066-3-15.065-.477-23.01l22.64-71.2c4.7-14.77 18.42-24.81 33.93-24.81h115.46c15.118.001 13.632 19.911.906 19.888z" fill="#ffec8f"/><path d="m422.651 267.905c-17.618-.033-46.753.113-96.366.113-15.51 0-29.23 10.04-33.93 24.81-24.429 76.826-22.826 71.702-23.196 73.133-2.448 9.479-15.586 10.264-18.967 1.076-2.6-7.066-3-15.065-.477-23.01l22.64-71.2c4.7-14.77 18.42-24.81 33.93-24.81h115.46c15.119.001 13.632 19.911.906 19.888z" fill="#ffec8f"/><path d="m306.652 125.505c-17.618-.033-46.753.113-96.366.113-15.51 0-29.23 10.04-33.93 24.81-24.429 76.826-22.826 71.702-23.196 73.133-2.448 9.479-15.586 10.264-18.967 1.076-2.6-7.066-3-15.065-.477-23.01l22.64-71.2c4.7-14.77 18.42-24.81 33.93-24.81h115.46c15.118.001 13.632 19.912.906 19.888z" fill="#ffec8f"/><path d="m328.379 248.018-110.166-.551c-9.974-.512-9.584-15.379.403-15.391 22.556-.026 51.782-.059 89.764-.059 24.094 0 41.234-23.44 33.933-46.401-3.148-9.902-5.87-18.476-8.227-25.912-2.779-8.765 10.174-13.246 13.379-4.627l14.852 46.553c7.302 22.958-9.848 46.388-33.938 46.388z" fill="#fadf5a"/><path d="m444.38 390.418-110.166-.551c-9.974-.512-9.584-15.379.403-15.391 22.556-.026 51.782-.059 89.764-.059 24.094 0 41.234-23.44 33.933-46.401-3.148-9.902-5.87-18.476-8.227-25.912-2.779-8.765 10.174-13.246 13.379-4.627l14.852 46.553c7.301 22.958-9.849 46.388-33.938 46.388z" fill="#fadf5a"/><path d="m212.38 390.418-110.166-.551c-9.974-.512-9.584-15.379.403-15.391 22.556-.026 51.782-.059 89.764-.059 24.094 0 41.234-23.44 33.933-46.401-3.148-9.902-5.87-18.476-8.227-25.912-2.779-8.765 10.174-13.246 13.379-4.627l14.852 46.553c7.301 22.958-9.848 46.388-33.938 46.388z" fill="#fadf5a"/><path d="m105.166 312.871-6.393 20.103c-2.681 8.43-11.687 13.074-20.097 10.399-8.421-2.679-13.077-11.676-10.399-20.097l6.393-20.103c2.678-8.421 11.679-13.077 20.097-10.399 8.42 2.679 13.077 11.676 10.399 20.097zm339.226 93.548h-160.748c-13.544 0-26.117-5.104-35.626-14.242-9.509 9.139-22.082 14.242-35.626 14.242h-160.748c-34.957 0-59.766-33.925-49.175-67.237l22.641-71.2c6.842-21.512 26.604-35.964 49.175-35.964h45.594c-4.596-11.08-5.167-23.419-1.409-35.237l22.641-71.2c6.842-21.512 26.604-35.964 49.175-35.964h115.467c22.571 0 42.333 14.452 49.174 35.964l22.642 71.2c3.758 11.818 3.187 24.157-1.409 35.237h45.594c22.571 0 42.333 14.452 49.174 35.964l22.642 71.2c10.588 33.313-14.223 67.237-49.178 67.237zm-276.748-174.401h160.748c13.278 0 22.703-12.887 18.679-25.54l-22.641-71.2c-2.599-8.171-10.104-13.661-18.679-13.661h-115.467c-8.574 0-16.08 5.49-18.68 13.661l-22.64 71.2c-4.023 12.653 5.402 25.54 18.68 25.54zm90.904 32h-21.061c1.081 2.643.603 1.337 10.531 32.557 9.925-31.217 9.448-29.913 10.53-32.557zm-27.478 84.861-22.641-71.2c-2.599-8.171-10.104-13.661-18.679-13.661-9.632 0-103.485 0-115.467 0-8.574 0-16.08 5.49-18.68 13.661l-22.64 71.2c-4.024 12.653 5.401 25.54 18.679 25.54h160.748c13.296 0 22.699-12.907 18.68-25.54zm232 0-22.641-71.2c-2.599-8.171-10.104-13.661-18.679-13.661-12.017 0-104.343 0-115.467 0-8.574 0-16.08 5.49-18.68 13.661-24.615 77.413-23.497 72.844-23.574 76.826.107 11.774 9.161 19.914 19.613 19.914h160.748c13.279 0 22.705-12.887 18.68-25.54zm-136.303-56.105c-8.417-2.678-17.419 1.979-20.097 10.399l-6.393 20.103c-2.678 8.421 1.979 17.418 10.399 20.097 8.403 2.672 17.414-1.963 20.097-10.399l6.393-20.103c2.678-8.421-1.978-17.418-10.399-20.097zm-111.994-102.202 6.393-20.103c2.678-8.421-1.979-17.418-10.399-20.097-8.42-2.675-17.418 1.979-20.097 10.399l-6.393 20.103c-2.678 8.421 1.979 17.418 10.399 20.097 8.404 2.673 17.415-1.962 20.097-10.399z" fill="#4c3546"/></svg>