<svg id="Layer_1" enable-background="new 0 0 496 496" height="512" viewBox="0 0 496 496" width="512" xmlns="http://www.w3.org/2000/svg"><path d="m248.005 125c-69.52-.52-126.97 56.48-126.97 126 0 48.02 26.87 89.76 66.38 111.03 10.27 5.52 16.59 16.32 16.62 27.97v55c0 17.67 14.33 32 32 32h22c17.67 0 32-14.33 32-32v-54.92c0-11.677 6.419-22.533 16.93-28.22 39.35-21.32 66.07-62.97 66.07-110.86 0-69.27-55.89-125.48-125.03-126z" fill="#ffe773"/><path d="m151.706 286.089c1.519 14.723-19.428 19.359-24.171 5.338-27.904-82.499 35.419-167.756 121.493-166.415 14.81.231 16.846 21.519 2.368 24.645-60.76 13.12-106.586 69.608-99.69 136.432z" fill="#ffec8f"/><path d="m306.965 361.86c-10.37 5.61-16.9 16.36-16.93 28.14v55c0 17.673-14.327 32-32 32h-22c-11.95 0-22.38-6.56-27.88-16.27 3.67 1.46 7.68 2.27 11.88 2.27h22c17.673 0 32-14.327 32-32v-55c.03-11.78 6.56-22.53 16.93-28.14 40.806-22.109 63.429-62.132 65.844-103.561.585-10.03 15.507-10.029 16.024.005 2.364 45.934-20.064 92.739-65.868 117.556z" fill="#fadf5a"/><path d="m290.035 390v55c0 17.67-14.33 32-32 32h-22c-17.67 0-32-14.33-32-32 0-10.209 0-44.66 0-55z" fill="#aaa"/><path d="m290.035 390v55c0 17.673-14.327 32-32 32-23.972 0-22.447.014-23.486-.034-8.962-.41-8.535-13.901.437-13.947 2.124-.011 4.459-.019 7.039-.019 17.674 0 32.01-14.324 32.01-31.997 0-12.719 0-26.134 0-34.026 0-3.856 3.126-6.976 6.982-6.976h9.018z" fill="#999"/><path d="m247.04 109c-77.87 0-142.006 63.76-142.005 142.001 0 52.349 28.664 100.291 74.803 125.116 5.056 2.721 8.197 8.071 8.197 13.964v54.919c0 26.467 21.533 48 48 48h22c26.467 0 48-21.533 48-48v-54.918c0-5.874 3.276-11.298 8.55-14.155 45.922-24.876 74.45-72.746 74.45-124.927 0-78.487-63.527-142-141.995-142zm10.995 352h-22c-8.822 0-16-7.178-16-16v-39h54v39c0 8.822-7.178 16-16 16zm41.308-113.209c-10.679 5.785-18.588 15.197-22.521 26.209h-59.539c-3.888-11.012-11.713-20.375-22.283-26.062-35.754-19.237-57.965-56.381-57.965-96.937 0-60.472 49.876-110.428 110.845-109.999 60.188.452 109.155 49.796 109.155 109.997 0 40.426-22.107 77.514-57.692 96.792zm-60.841-161.179c3.375 8.167-.51 17.523-8.677 20.897-11.982 4.951-21.531 14.715-26.198 26.787-2.453 6.346-8.509 10.235-14.927 10.235-11.199 0-18.977-11.28-14.92-21.773 7.811-20.205 23.784-36.542 43.825-44.823 8.168-3.377 17.522.51 20.897 8.677zm-168.502 64.353c0 8.836-7.164 16-16 16h-38c-8.836 0-16-7.164-16-16s7.164-16 16-16h38c8.836 0 16 7.164 16 16zm52.11 125.876c6.249 6.248 6.249 16.379 0 22.627l-26.87 26.87c-3.124 3.125-7.219 4.687-11.313 4.687-14.125 0-21.423-17.205-11.313-27.313l26.87-26.87c6.247-6.25 16.378-6.25 22.626-.001zm109.925-319.841v-38c0-8.836 7.164-16 16-16s16 7.164 16 16v38c0 8.836-7.164 16-16 16s-16-7.164-16-16zm-159.373 41.24c-6.249-6.248-6.249-16.379 0-22.627 6.248-6.249 16.379-6.249 22.627 0l26.87 26.87c10.112 10.111 2.809 27.313-11.313 27.313-4.095 0-8.189-1.562-11.313-4.687zm301.228 4.292 26.87-26.87c6.248-6.249 16.379-6.249 22.627 0 6.249 6.248 6.249 16.379 0 22.627l-26.87 26.87c-3.124 3.125-7.219 4.687-11.313 4.687-14.126 0-21.424-17.205-11.314-27.314zm122.11 148.503c0 8.836-7.164 16-16 16h-38c-8.836 0-16-7.164-16-16s7.164-16 16-16h38c8.836 0 16 7.163 16 16zm-72.662 152.725c6.249 6.248 6.249 16.379 0 22.627-6.247 6.248-16.379 6.249-22.627 0l-26.87-26.87c-6.249-6.248-6.249-16.379 0-22.627 6.248-6.249 16.379-6.249 22.627 0z" fill="#4c3546"/></svg>