<svg id="Layer_1" enable-background="new 0 0 496 496" height="512" viewBox="0 0 496 496" width="512" xmlns="http://www.w3.org/2000/svg"><path d="m342 366v14c0 35.346-28.654 64-64 64h-14c-8.837 0-16-7.163-16-16v-14c0-35.346 28.654-64 64-64h14c8.837 0 16 7.163 16 16z" fill="#b5f26d"/><path d="m342 380c0 35.346-28.654 64-64 64h-14c-7.829 0-6.876-9.974-.588-9.993 1.362-.004 2.881-.007 4.58-.007 35.347 0 64.008-28.662 64.008-64.009 0-1.699.003-3.217.007-4.579.019-6.332 9.551-6.779 9.959-.46.057.884.034 15.794.034 15.048z" fill="#ace667"/><path d="m248 414v14c0 8.837-7.163 16-16 16h-14c-35.346 0-64-28.654-64-64v-14c0-8.837 7.163-16 16-16h14c35.346 0 64 28.654 64 64z" fill="#b5f26d"/><circle cx="248" cy="164" fill="#ffe773" r="148"/><path d="m251.913 16.051c19.953.518 22.959 29.08 3.509 33.563-68.194 15.715-119.857 77.697-115.132 153.714 1.242 19.978-27.093 25.062-33.218 6.006-31.323-97.461 43.751-195.906 144.841-193.283z" fill="#ffec8f"/><path d="m174 376c0 15.575-1.636 32.858 12.478 51.98 2.254 3.054-1.541 6.961-4.669 4.813-16.795-11.532-27.809-30.872-27.809-52.793v-14c0-8.837 7.163-16 16-16 15.004 0 24.744-.848 38.499 4.852 2.822 1.169 1.845 5.411-1.206 5.259-4.81-.24-10.125-.111-17.289-.111-8.836 0-16.004 7.164-16.004 16z" fill="#ccfca9"/><path d="m226.084 310.389c-11.247-1.669-10.099-18.279 1.271-18.309 76.767-.201 149.269-60.522 148.641-149.152-.081-11.472 16.573-12.774 18.304-1.433 15.068 98.764-69.54 183.541-168.216 168.894z" fill="#fadf5a"/><path d="m412 164c0-90.43-73.57-164-164-164s-164 73.57-164 164c0 85.032 65.051 155.149 148 163.218v22.826c-13.38-10.068-30.004-16.044-48-16.044h-30c-8.836 0-16 7.164-16 16v30c0 44.112 35.888 80 80 80h14v20c0 8.836 7.164 16 16 16 8.837 0 16-7.164 16-16v-20h14c44.112 0 80-35.888 80-80v-30c0-8.836-7.163-16-16-16h-30c-17.996 0-34.62 5.976-48 16.044v-22.826c82.949-8.069 148-78.186 148-163.218zm-296 0c0-72.785 59.215-132 132-132s132 59.215 132 132-59.215 132-132 132-132-59.215-132-132zm54 216v-14h14c26.467 0 48 21.533 48 48v14h-14c-26.467 0-48-21.533-48-48zm142-14h14v14c0 26.467-21.532 48-48 48h-14v-14c0-26.467 21.532-48 48-48zm-64-93.547c-8.836 0-16-7.164-16-16v-14.899c-18.577-6.249-32-23.818-32-44.474 0-8.836 7.164-16 16-16s16 7.164 16 16c0 8.227 6.693 14.92 14.92 14.92h2.159c8.228 0 14.921-6.693 14.921-14.92 0-6.363-4.041-12.031-10.057-14.105l-22.318-7.696c-42.146-14.533-42.065-74.555.375-88.832v-14.9c0-8.836 7.164-16 16-16 8.837 0 16 7.164 16 16v14.9c18.577 6.249 32 23.818 32 44.474 0 8.836-7.163 16-16 16s-16-7.164-16-16c0-8.227-6.693-14.92-14.921-14.92h-2.159c-8.227 0-14.92 6.693-14.92 14.92 0 6.363 4.042 12.031 10.057 14.105l22.318 7.696c42.147 14.533 42.065 74.554-.375 88.831v14.9c0 8.837-7.163 16-16 16z" fill="#4c3546"/></svg>