<svg id="Layer_1" enable-background="new 0 0 512.247 512.247" height="512" viewBox="0 0 512.247 512.247" width="512" xmlns="http://www.w3.org/2000/svg"><g><path d="m495.993 256.766c-.108 136.699-111.607 239.36-239.85 239.36-133.193 0-240-108.057-240-240 0-154.424 140.679-261.394 281.32-236.64 113.04 19.883 198.614 117.371 198.53 237.28z" fill="#aaef68"/></g><g><path d="m495.993 256.766c-.108 136.699-111.607 239.36-239.85 239.36-88.34 0-165.55-47.73-207.22-118.84 25.392-47.729 73.509-69.139 113.57-61.56 15.03 2.84 29.03 9.5 43.47 14.56 34.48 12.07 76.43 13.62 104.03-10.32 20.62-17.88 32.92-49.03 59.88-53.27 24.36-3.82 46.65 17.64 71.28 16.43 20.855-1.027 37.583-17.861 54.84-26.36z" fill="#99d856"/></g><g><path d="m91.564 149.301c4.706-17.091 12.815-34.289 30.096-38.264 12.519-2.88 17.504 1.657 28.817-11.108 12.859-14.508 20.819-30.127 42.54-41.44 46.263-24.095 67.901 29.262 25.392 41.512-14.195 4.09-28.133 2.632-47.432 14.582-12.227 7.571-13.562 13.051-18.114 25.294-12.093 32.523-43.263 65.602-60.489 52.046-10.91-8.587-3.804-31.746-.81-42.622z" fill="#fff"/></g><g><path d="m478.844 182.659c-6.375 0-12.401-3.836-14.886-10.125-.213-.539-.429-1.071-.652-1.605-3.41-8.152.436-17.525 8.588-20.935 8.153-3.409 17.525.437 20.934 8.588.306.731.602 1.457.893 2.193 4.169 10.555-3.68 21.884-14.877 21.884z" fill="#4d0033"/></g><g><path d="m255.759 512.202c-99.785 0-196.018-59.464-236.755-159.62-47.023-115.605-3.256-242.242 92.438-307.674 118.323-80.906 276.112-48.271 354.782 64.876 5.045 7.255 3.252 17.226-4.003 22.271-7.252 5.044-17.226 3.253-22.271-4.003-24.141-34.719-57.603-61.802-96.769-78.319-115.412-48.673-246.136 7.188-293.439 119.353-47.995 113.808 5.547 245.444 119.355 293.44 161.53 68.119 336.616-68.101 308.185-242.268-1.424-8.721 4.492-16.945 13.213-18.369 8.725-1.428 16.945 4.492 18.369 13.213 25.337 155.209-94.814 297.086-253.105 297.1z" fill="#4d0033"/></g><path d="m344.16 240.016c-8.834 0-16.005 7.162-16 16.009.023 47.009-44.246 81.233-89.439 69.965-38.521-9.604-62.048-48.758-52.443-87.28 6.631-26.591 27.343-46.031 52.206-52.366l-4.714 4.573c-6.343 6.153-6.496 16.282-.344 22.625 6.15 6.34 16.281 6.499 22.625.344 35.226-34.172 34.716-32.866 36.414-37.672 2.366-6.644.178-13.72-4.981-17.9l-30.117-31.046c-6.151-6.342-16.282-6.498-22.625-.344-6.343 6.153-6.496 16.282-.344 22.625l3.993 4.116c-39.306 6.868-72.903 36.161-83.161 77.304-13.874 55.642 20.108 112.197 75.75 126.071 65.46 16.319 129.221-33.324 129.182-101.033-.007-8.834-7.169-15.991-16.002-15.991z" fill="#4d0033"/></svg>