<svg id="Layer_1" enable-background="new 0 0 512.256 512.256" height="512" viewBox="0 0 512.256 512.256" width="512" xmlns="http://www.w3.org/2000/svg"><g><path d="m470.32 364.536c-81.026 159.795-302.603 177.535-408.01 33.15-28.295-38.195-46.17-87.862-46.17-141.55 0-132.52 107.41-240 240-240 179.378 0 294.499 189.711 214.18 348.4z" fill="#c0b3ff"/></g><g><path d="m495.15 280.316c-2.879 28.85-11.241 57.374-24.83 84.22-81.026 159.795-302.603 177.535-408.01 33.15 5.481-13.363 16.413-31.951 30.01-37.21 13.63-5.28 28.67 1.17 42.17 6.78 64.294 26.751 74.639-4.287 98.03-18.93 23.95-14.99 56.97-10.68 79.36-27.91 28.25-21.76 25.85-66.01 47.58-94.27 18.21-23.67 53.82-31.9 80.56-18.62 27.106 13.462 42.455 44.506 55.13 72.79z" fill="#b49ef2"/></g><g><path d="m91.591 149.421c4.706-17.091 12.815-34.289 30.096-38.264 12.519-2.88 17.504 1.657 28.817-11.108 12.859-14.508 20.819-30.127 42.54-41.44 46.263-24.095 67.901 29.262 25.392 41.512-14.195 4.09-28.133 2.632-47.432 14.582-12.227 7.571-13.562 13.051-18.114 25.294-12.093 32.523-43.263 65.602-60.489 52.046-10.911-8.587-3.805-31.746-.81-42.622z" fill="#fff"/></g><g><path d="m479.581 184.525c-6.422 0-12.479-3.893-14.931-10.243-.208-.54-.419-1.072-.638-1.607-3.348-8.178.569-17.521 8.748-20.868s17.521.571 20.867 8.748c.301.734.59 1.464.876 2.205 4.068 10.536-3.775 21.765-14.922 21.765z" fill="#4d0033"/></g><g><path d="m255.764 512.206c-99.756.001-197.072-59.638-237.556-161.596-46.058-115.997-1.235-242.262 94.999-306.894 118.977-79.908 276.497-45.98 354.229 67.831 4.984 7.297 3.109 17.252-4.188 22.236s-17.254 3.109-22.236-4.188c-23.851-34.92-57.086-62.28-96.112-79.123-114.998-49.63-246.185 5.129-294.424 116.904-48.943 113.404 3.501 245.482 116.904 294.424 161.115 69.536 337.14-65.513 310.193-239.691-1.352-8.733 4.633-16.907 13.365-18.258 8.732-1.35 16.906 4.633 18.258 13.366 24.046 155.403-96.759 294.989-253.432 294.989z" fill="#4d0033"/></g><g fill="#4d0033"><path d="m292.953 174.62c1.482-5.905-.58-12.338-5.473-16.301l-30.115-31.043c-6.151-6.341-16.28-6.497-22.625-.343-6.343 6.153-6.496 16.282-.344 22.625l3.993 4.115c-79.094 13.822-113.1 107.775-62.174 169.017 5.651 6.795 15.74 7.722 22.532 2.072 6.795-5.65 7.723-15.738 2.073-22.532-33.682-40.504-13.987-102.715 37.662-115.878l-4.714 4.573c-10.346 10.037-3.105 27.484 11.143 27.484 4.013 0 8.031-1.501 11.139-4.516 35.546-34.482 35.397-33.203 36.903-39.273z"/><path d="m336.365 189.946c-5.62-6.82-15.705-7.793-22.522-2.174-6.82 5.619-7.794 15.703-2.175 22.523 33.76 40.975 13.143 102.621-37.869 115.623l4.712-4.571c6.343-6.153 6.496-16.283.344-22.625-6.151-6.342-16.282-6.497-22.625-.344-34.859 33.816-35.733 33.327-37.036 39.946-1.23 6.009 1.091 11.973 5.605 15.628l30.115 31.043c6.152 6.341 16.281 6.498 22.625.343 6.343-6.153 6.496-16.282.344-22.625l-3.994-4.117c78.844-13.777 113.026-107.296 62.476-168.65z"/></g></svg>