<svg id="Layer_1" enable-background="new 0 0 512.063 512.063" height="512" viewBox="0 0 512.063 512.063" width="512" xmlns="http://www.w3.org/2000/svg"><g><path d="m496.061 256.02c0 66.87-27.459 129.085-74.72 174.02-103.118 98.085-269.713 85.533-356.64-29.16-79.305-104.49-59.976-254.963 45.87-335.75 41.251-31.489 91.886-49.11 145.49-49.11 132.555 0 240 107.456 240 240z" fill="#80aaff"/></g><g><path d="m486.431 323.54c-29.301 100.127-121.715 172.48-230.37 172.48-76.685 0-146.631-36.123-191.36-95.14 31.704-29.745 76.862-27.549 119.24-20 24.254 4.311 64.473 14.123 89.18-10.34 12.84-12.71 16.98-31.67 26.83-46.81 9.46-14.56 23.83-25.08 37.88-35.28 6.43-4.66 13.07-9.43 20.8-11.29 24.914-6.004 46.436 18.267 62.95 29.37 18.9 12.71 42.16 18.65 64.85 17.01z" fill="#6994ff"/></g><g><path d="m91.512 149.305c4.706-17.091 12.815-34.289 30.096-38.264 12.519-2.88 17.504 1.657 28.817-11.108 12.859-14.508 20.819-30.127 42.54-41.44 46.263-24.095 67.901 29.262 25.392 41.512-14.195 4.09-28.133 2.632-47.432 14.582-12.227 7.571-13.562 13.051-18.114 25.294-12.093 32.523-43.263 65.602-60.489 52.046-10.91-8.587-3.804-31.746-.81-42.622z" fill="#fff"/></g><g><path d="m272.061 328.021v-72.001c0-8.837 7.164-16 16-16s16 7.163 16 16v38.237l46.733-38.236-72.865-59.617c-6.839-5.595-7.847-15.676-2.251-22.515 5.596-6.84 15.677-7.848 22.515-2.251l88 72c7.794 6.375 7.848 18.347 0 24.766l-88 72c-10.356 8.476-26.132 1.148-26.132-12.383z" fill="#4d0033"/></g><g><path d="m224.052 344.021c-3.564 0-7.149-1.184-10.123-3.617l-88-72c-7.794-6.375-7.848-18.347 0-24.766l88-72c10.426-8.534 26.132-1.091 26.132 12.383v71.999c0 8.837-7.164 16-16 16s-16-7.163-16-16v-38.235l-46.733 38.236 72.865 59.617c11.552 9.45 4.9 28.383-10.141 28.383z" fill="#4d0033"/></g><g><path d="m496.061 273.046c-8.945 0-16.097-7.305-16.002-16.171.006-.572.006-1.138 0-1.709-.094-8.836 6.992-16.075 15.828-16.17 8.829-.095 16.076 6.991 16.17 15.828.009.8.009 1.592 0 2.393-.094 8.778-7.239 15.829-15.996 15.829z" fill="#4d0033"/></g><g><path d="m75.039 437.04c-100.045-100.044-100.06-261.979 0-362.038 57.477-57.479 136.37-82.594 213.02-72.982 110.897 13.896 194.632 96.384 217.557 196.787 1.967 8.615-3.422 17.193-12.037 19.16-8.616 1.966-17.193-3.422-19.16-12.037-20.095-88.01-93.538-160.029-190.34-172.158-134.314-16.838-252.021 87.72-252.021 222.249 0 156.286 155.097 262.071 298.904 211.162 70.981-25.102 126.494-85.653 143.618-161.778 1.939-8.621 10.501-14.033 19.121-12.099 8.621 1.939 14.038 10.5 12.099 19.122-43.901 195.167-287.752 267.622-430.761 124.612z" fill="#4d0033"/></g></svg>