<svg id="Layer_1" enable-background="new 0 0 512.234 512.234" height="512" viewBox="0 0 512.234 512.234" width="512" xmlns="http://www.w3.org/2000/svg"><g><circle cx="256.089" cy="256.129" fill="#aaef68" r="240"/></g><g><path d="m256.089 496.129c-63.401 0-121.793-24.613-165.41-66.11 9.994-32.551 26.992-56.965 55.69-74 4.72 11.78 16.25 20.11 29.72 20.11h176c17.67 0 32-14.33 32-32 0-76.972-1.407-92.851 3.554-101.747 14.086-25.279 48.792-28.766 77.696-29.013 9.31-.07 18.9.1 27.54 3.43 24.278 146.466-88.837 279.33-236.79 279.33z" fill="#99d856"/></g><g><path d="m91.539 149.412c4.706-17.091 12.815-34.289 30.096-38.264 12.519-2.88 17.504 1.657 28.817-11.108 12.859-14.508 20.819-30.127 42.54-41.44 46.263-24.095 67.901 29.262 25.392 41.512-14.195 4.09-28.133 2.632-47.432 14.582-12.227 7.571-13.562 13.051-18.114 25.294-12.093 32.523-43.263 65.602-60.489 52.046-10.91-8.587-3.805-31.746-.81-42.622z" fill="#fff"/></g><g><path d="m259.43 512.108c-8.773 0-15.921-7.073-15.997-15.863-.075-8.836 7.026-16.061 15.863-16.136.579-.005 1.152-.015 1.732-.031 8.836-.289 16.197 6.705 16.448 15.538.252 8.833-6.705 16.197-15.538 16.448-1.066.03-2.222.044-2.508.044z" fill="#4d0033"/></g><g><path d="m204.237 506.856c-134.923-27.779-227.093-159.936-199.271-300.617 22.494-113.745 121.707-203.798 246.463-206.068 113.277-2.082 210.344 69.517 246.02 170.469 50.929 144.112-34.754 298.099-179.611 333.965-8.573 2.12-17.252-3.107-19.376-11.686-2.123-8.578 3.108-17.253 11.687-19.377 168.65-41.754 229.284-255.372 101.423-378.662-88.914-85.732-230.999-83.145-316.732 5.767-59.612 61.823-78.655 153.758-48.515 234.218 26.393 70.514 87.941 124.912 164.365 140.648 8.655 1.781 14.227 10.242 12.445 18.897-1.789 8.688-10.28 14.224-18.898 12.446z" fill="#4d0033"/></g><path d="m299.403 244.814c-6.248-6.248-16.379-6.248-22.627 0l-4.687 4.687v-105.372c0-8.837-7.163-16-16-16-8.836 0-16 7.163-16 16v105.371l-4.687-4.687c-6.248-6.248-16.379-6.248-22.627 0-6.249 6.248-6.249 16.379 0 22.627l31.994 31.994c3.33 3.336 8.32 5.27 13.61 4.51 7.044-1.013 6.568-2.05 41.022-36.504 6.251-6.248 6.251-16.378.002-22.626z" fill="#4d0033"/><g><path d="m344.089 400.129h-176c-26.467 0-48-21.532-48-48v-128.002c0-26.468 21.533-48 48-48h32c8.836 0 16 7.163 16 16s-7.164 16-16 16h-32c-8.822 0-16 7.178-16 16v128.002c0 8.822 7.178 16 16 16h176c8.822 0 16-7.178 16-16v-128.002c0-8.822-7.178-16-16-16h-32c-8.837 0-16-7.163-16-16s7.163-16 16-16h32c26.468 0 48 21.532 48 48v128.002c0 26.468-21.532 48-48 48z" fill="#4d0033"/></g></svg>