<svg id="Layer_1" enable-background="new 0 0 512.415 512.415" height="512" viewBox="0 0 512.415 512.415" width="512" xmlns="http://www.w3.org/2000/svg"><g><circle cx="256.144" cy="256.196" fill="#ffbd7b" r="240"/></g><g><path d="m256.147 496.197c-63.401 0-121.793-24.613-165.41-66.11 9.994-32.551 26.992-56.965 55.69-74 4.72 11.78 16.25 20.11 29.72 20.11h176c17.67 0 32-14.33 32-32 0-76.972-1.407-92.851 3.554-101.747 14.086-25.279 48.792-28.766 77.696-29.013 9.31-.07 18.9.1 27.54 3.43 24.277 146.466-88.837 279.33-236.79 279.33z" fill="#ffaa64"/></g><g><path d="m91.597 149.48c4.706-17.091 12.815-34.289 30.096-38.264 12.519-2.88 17.504 1.657 28.817-11.108 12.859-14.508 20.819-30.127 42.54-41.44 46.263-24.095 67.901 29.262 25.392 41.512-14.195 4.09-28.133 2.632-47.432 14.582-12.227 7.571-13.562 13.051-18.114 25.294-12.093 32.523-43.263 65.602-60.489 52.046-10.911-8.587-3.805-31.746-.81-42.622z" fill="#fff"/></g><g><path d="m250.742 32.255c-8.626 0-15.737-6.866-15.984-15.544-.252-8.833 6.704-16.198 15.537-16.449 1.067-.03 2.223-.044 2.509-.044 8.772 0 15.921 7.073 15.996 15.863.076 8.836-7.026 16.061-15.862 16.136-.742.006-2.141.038-2.196.038z" fill="#4d0033"/></g><g><path d="m256.02 512.197c-110.974.005-205.983-70.759-241.235-170.512-50.926-144.113 34.751-298.097 179.61-333.965 8.57-2.12 17.253 3.108 19.377 11.686 2.123 8.578-3.108 17.253-11.686 19.377-168.662 41.757-229.28 255.377-101.424 378.662 88.914 85.732 230.998 83.146 316.732-5.767 59.611-61.823 78.655-153.759 48.515-234.219-26.393-70.512-87.939-124.912-164.366-140.648-8.655-1.781-14.227-10.242-12.444-18.897 1.782-8.654 10.24-14.227 18.897-12.444 87.395 17.993 157.704 80.144 187.88 160.77 62.948 168.03-61.718 345.957-239.856 345.957z" fill="#4d0033"/></g><path d="m299.458 244.885c-34.348-34.348-33.235-33.834-37.196-35.47-3.91-1.617-8.32-1.619-12.234 0-3.85 1.59-2.304.578-37.196 35.47-6.249 6.248-6.249 16.379 0 22.627 6.248 6.248 16.379 6.248 22.627 0l4.687-4.687v105.371c0 8.837 7.163 16 16 16s16-7.163 16-16v-105.371l4.687 4.687c6.249 6.249 16.379 6.248 22.627 0 6.247-6.249 6.247-16.379-.002-22.627z" fill="#4d0033"/><g><path d="m344.144 336.198h-32c-8.837 0-16-7.163-16-16s7.163-16 16-16h32c8.822 0 16-7.178 16-16v-128.002c0-8.822-7.178-16-16-16h-176c-8.822 0-16 7.178-16 16v128.002c0 8.822 7.178 16 16 16h32c8.837 0 16 7.163 16 16s-7.163 16-16 16h-32c-26.468 0-48-21.532-48-48v-128.002c0-26.468 21.532-48 48-48h176c26.468 0 48 21.532 48 48v128.002c0 26.468-21.532 48-48 48z" fill="#4d0033"/></g></svg>