<svg id="Layer_1" enable-background="new 0 0 512.062 512.062" height="512" viewBox="0 0 512.062 512.062" width="512" xmlns="http://www.w3.org/2000/svg"><g><path d="m496.061 256.019c0 66.87-27.459 129.085-74.72 174.02-103.118 98.085-269.713 85.533-356.64-29.16-79.305-104.489-59.977-254.963 45.87-335.75 41.251-31.489 91.886-49.11 145.49-49.11 132.555 0 240 107.455 240 240z" fill="#80aaff"/></g><g><path d="m486.431 323.539c-29.301 100.127-121.715 172.48-230.37 172.48-76.685 0-146.631-36.123-191.36-95.14 31.704-29.745 76.862-27.549 119.24-20 24.254 4.311 64.473 14.123 89.18-10.34 12.84-12.71 16.98-31.67 26.83-46.81 9.46-14.56 23.83-25.08 37.88-35.28 6.43-4.66 13.07-9.43 20.8-11.29 24.914-6.004 46.436 18.267 62.95 29.37 18.9 12.709 42.16 18.65 64.85 17.01z" fill="#6994ff"/></g><g><path d="m91.512 149.304c4.706-17.091 12.815-34.289 30.096-38.264 12.519-2.88 17.504 1.657 28.817-11.108 12.859-14.508 20.819-30.127 42.54-41.44 46.263-24.095 67.901 29.262 25.392 41.512-14.195 4.09-28.133 2.632-47.432 14.582-12.227 7.571-13.562 13.051-18.114 25.294-12.093 32.523-43.263 65.602-60.489 52.046-10.91-8.587-3.804-31.746-.81-42.622z" fill="#fff"/></g><path d="m344.061 272.02c8.837 0 16-7.163 16-16v-72c0-13.478-15.708-20.915-26.132-12.383l-77.868 63.71-77.868-63.71c-6.84-5.598-16.921-4.589-22.515 2.251-5.596 6.839-4.588 16.92 2.251 22.515l72.865 59.617-46.733 38.236v-38.235c0-8.837-7.163-16-16-16s-16 7.163-16 16v71.999c0 13.558 15.796 20.842 26.132 12.383l77.868-63.71 77.868 63.71c2.974 2.434 6.559 3.618 10.122 3.617 15.034 0 21.7-18.927 10.142-28.383l-72.865-59.617 46.733-38.236v38.236c0 8.837 7.164 16 16 16z" fill="#4d0033"/><g><path d="m496.061 273.045c-8.899 0-16.091-7.258-16.002-16.159.006-.58.006-1.153 0-1.732-.088-8.836 7.003-16.07 15.84-16.158 8.523-.155 16.068 6.771 16.158 15.84.008.792.008 1.576 0 2.369-.087 8.781-7.234 15.84-15.996 15.84z" fill="#4d0033"/></g><g><path d="m75.04 437.038c-100.046-100.045-100.061-261.979 0-362.038 57.669-57.671 136.643-82.558 213.02-72.982 110.82 13.887 194.614 96.31 217.557 196.787 1.967 8.615-3.422 17.193-12.037 19.16-8.609 1.968-17.193-3.421-19.16-12.037-20.096-88.009-93.54-160.031-190.341-172.158-135.298-16.971-252.021 88.764-252.021 222.25 0 156.27 155.079 262.075 298.904 211.162 70.983-25.103 126.495-85.655 143.617-161.778 1.94-8.62 10.51-14.031 19.121-12.099 8.622 1.939 14.038 10.5 12.1 19.122-43.902 195.171-287.754 267.621-430.76 124.611z" fill="#4d0033"/></g></svg>