<svg id="Layer_1" enable-background="new 0 0 512.027 512.027" height="512" viewBox="0 0 512.027 512.027" width="512" xmlns="http://www.w3.org/2000/svg"><g><path d="m496.017 256.027c0 187.944-205.497 300.885-363.58 205.79-69.79-42.033-116.42-118.447-116.42-205.79 0-132.517 107.414-240 240-240 132.526 0 240 107.426 240 240z" fill="#80aaff"/></g><g><path d="m482.707 335.027c-50.293 144.349-220.864 204.634-350.27 126.79 6.193-47.182 20.777-68.613-24.96-122.89-6.94-8.24-14.39-16.6-17.34-26.96-5.97-21.01 8.11-41.97 21.41-59.29l10.04-2.76c38.62 5.25 80.31 9.97 114.5-8.73 25.63-14.03 42.89-39.08 62.69-60.55 19.8-21.48 46.32-41.05 75.38-38.01 17.729 1.845 25.482 10.23 31.9 25.31 22.937 53.84 2.334 83.737 13.1 111.84 8.804 22.982 41.032 41.624 63.55 55.25z" fill="#6994ff"/></g><g><path d="m104.017 256.027 272-120-120 272-48-104z" fill="#f9f9f9"/></g><g><path d="m91.468 149.312c4.706-17.091 12.815-34.289 30.096-38.264 12.519-2.88 17.504 1.657 28.817-11.108 12.859-14.508 20.819-30.127 42.54-41.44 46.263-24.095 67.901 29.262 25.392 41.512-14.195 4.09-28.133 2.632-47.432 14.582-12.227 7.571-13.562 13.051-18.114 25.294-12.093 32.523-43.263 65.602-60.489 52.046-10.911-8.586-3.805-31.745-.81-42.622z" fill="#fff"/></g><g><path d="m426.448 103.047c-6.032 0-9.382-2.82-12.645-6.017-6.314-6.182-6.421-16.312-.239-22.626 6.183-6.314 16.313-6.421 22.626-.239.57.558 1.128 1.116 1.687 1.686 9.926 10.133 2.637 27.196-11.429 27.196z" fill="#4d0033"/></g><path d="m369.559 121.389-272 120c-12.572 5.546-12.741 23.4-.247 29.166l98.648 45.53 45.53 98.648c5.757 12.475 23.612 12.343 29.166-.247l120-272c5.884-13.337-7.764-26.981-21.097-21.097zm-113.871 247.745-28.468-61.681 24.111-24.111c6.248-6.248 6.248-16.379 0-22.627-6.249-6.249-16.379-6.249-22.628 0l-24.111 24.111-61.682-28.468 201.813-89.035z" fill="#4d0033"/><g><path d="m256.017 512.027c-141.485 0-256-114.495-256-256 0-81.288 38.025-154.832 99.022-202.234 88.239-68.589 205.778-69.473 292.984-14.688 7.482 4.701 9.738 14.577 5.037 22.06-4.7 7.482-14.578 9.737-22.06 5.037-149.17-93.712-342.983 14.275-342.983 189.825 0 123.514 100.486 224 224 224 121.566 0 224-98.552 224-224 0-42.507-11.951-83.862-34.562-119.597-4.725-7.467-2.502-17.351 4.965-22.076s17.352-2.501 22.076 4.966c73.656 116.406 42.497 274.49-78.083 352.111-41.259 26.558-89.115 40.596-138.396 40.596z" fill="#4d0033"/></g></svg>