<svg id="Layer_1" enable-background="new 0 0 512.24 512.24" height="512" viewBox="0 0 512.24 512.24" width="512" xmlns="http://www.w3.org/2000/svg"><g><circle cx="256.097" cy="256.118" fill="#aaef68" r="240"/></g><g><path d="m256.097 496.118c-51.87 0-99.9-16.46-139.14-44.42 2.94-19.6 9.03-38.72 18.16-56.32 10.02-19.317 18.18-22.692 37.7-23.27 78.47-2.243 108.003 8.485 146.05-1.19 25.6-6.52 50.19-24.86 55.34-50.76 2.89-14.51 0-31.29 9.46-42.65 8.31-10 22.97-11.63 33.75-18.89 19.35-13.02 21.88-39.9 23.53-63.16 1.53-21.55 6.36-46.57 24.01-57.65 89.783 158.139-23.816 358.31-208.86 358.31z" fill="#99d856"/></g><g><path d="m91.548 149.403c4.706-17.091 12.815-34.289 30.096-38.264 12.519-2.88 17.504 1.657 28.817-11.108 12.859-14.508 20.819-30.127 42.54-41.44 46.263-24.095 67.901 29.262 25.392 41.512-14.195 4.09-28.133 2.632-47.432 14.582-12.227 7.571-13.562 13.051-18.114 25.294-12.093 32.523-43.263 65.602-60.489 52.046-10.91-8.586-3.804-31.746-.81-42.622z" fill="#fff"/></g><g><path d="m352.097 384.118h-192c-8.836 0-16-7.163-16-16s7.164-16 16-16h192c8.837 0 16 7.163 16 16s-7.163 16-16 16z" fill="#4d0033"/></g><g><path d="m256.097 248.118c-8.836 0-16-7.163-16-16v-88c0-8.837 7.164-16 16-16 8.837 0 16 7.163 16 16v88c0 8.837-7.163 16-16 16z" fill="#4d0033"/></g><g><path d="m244.784 323.432-72-72c-6.249-6.249-6.249-16.379 0-22.627 6.248-6.249 16.379-6.249 22.627 0l60.687 60.686 60.687-60.686c6.248-6.249 16.379-6.249 22.627 0 6.249 6.249 6.249 16.379 0 22.627l-72 72c-6.249 6.248-16.38 6.249-22.628 0z" fill="#4d0033"/></g><g><path d="m239.073 495.952c.091-8.836 7.362-15.931 16.164-15.834.576.006 1.145.006 1.721 0 8.886-.087 16.073 6.998 16.164 15.834.223 21.518-34.272 21.603-34.049 0z" fill="#4d0033"/></g><g><path d="m199.69 505.859c-134.393-30.23-224.144-164.043-193.766-304.194 24.562-113.322 125.402-201.548 250.173-201.548 113.685 0 209.157 73.675 242.876 174.919 48.292 145.012-40.173 297.421-185.661 330.64-8.608 1.967-17.193-3.421-19.16-12.037-1.967-8.615 3.422-17.193 12.037-19.16 169.392-38.679 233.891-251.162 108.301-376.753-87.338-87.337-229.447-87.337-316.784 0-60.728 60.727-81.441 152.301-52.771 233.295 25.105 70.984 85.654 126.494 161.778 143.618 8.621 1.939 14.038 10.5 12.099 19.121-1.938 8.611-10.493 14.041-19.122 12.099z" fill="#4d0033"/></g></svg>