<svg id="Layer_1" enable-background="new 0 0 512.062 512.062" height="512" viewBox="0 0 512.062 512.062" width="512" xmlns="http://www.w3.org/2000/svg"><g><circle cx="256.058" cy="256.02" fill="#c0b3ff" r="240"/></g><g><path d="m477.958 347.59c-65.984 160.215-276 199.839-395.92 73.71-18.775-19.738-34.102-42.612-45.19-67.43 19.36-27.71 57.942-30.716 90.72-36.66 39.72-7.2 80.42-23.98 102.74-57.62 14.801-22.302 14.588-33.14 49.01-45.86 20.09-7.43 40.96-12.75 62.16-15.84 15.51-2.26 34.07-2.12 43.47 10.43 10.27 13.72 2.7 34.06-9.52 46.08-10.04 9.88-24.23 20.11-21.79 33.98 2.26 12.9 17.43 18.39 26.22 28.1 10.45 11.52 13.1 30.67 27.41 36.77 20.768 8.865 37.839-16.895 70.69-5.66z" fill="#b49ef2"/></g><g><path d="m91.509 149.305c4.706-17.091 12.815-34.289 30.096-38.264 12.519-2.88 17.504 1.657 28.817-11.108 12.859-14.508 20.819-30.127 42.54-41.44 46.263-24.095 67.901 29.262 25.392 41.512-14.195 4.09-28.133 2.632-47.432 14.582-12.227 7.571-13.562 13.051-18.114 25.294-12.093 32.523-43.263 65.602-60.489 52.046-10.91-8.587-3.804-31.746-.81-42.622z" fill="#fff"/></g><g><path d="m496.06 273.045c-8.9 0-16.09-7.259-16.002-16.159.006-.579.006-1.153 0-1.732-.088-8.836 7.004-16.071 15.84-16.159 8.851-.1 16.07 7.004 16.158 15.84.008.793.008 1.577 0 2.37-.087 8.781-7.234 15.84-15.996 15.84z" fill="#4d0033"/></g><g><path d="m75.039 437.039c-100.045-100.045-100.059-261.98 0-362.039 57.673-57.672 136.646-82.558 213.02-72.981 110.895 13.894 194.631 96.383 217.557 196.785 1.967 8.615-3.422 17.193-12.037 19.16-8.609 1.965-17.193-3.422-19.16-12.037-39.194-171.658-252.573-232.479-376.753-108.299-87.337 87.338-87.337 229.446 0 316.784 86.027 86.025 228.104 88.682 316.785 0 30.057-30.057 50.849-67.751 60.128-109.007 1.94-8.621 10.499-14.039 19.122-12.099 8.621 1.939 14.037 10.5 12.099 19.121-43.901 195.169-287.751 267.62-430.761 124.612z" fill="#4d0033"/></g><g><path d="m136.058 328.02c-8.837 0-16-7.163-16-16s7.163-16 16-16c13.807 0 27.357-4.736 38.156-13.335 6.912-5.506 16.978-4.362 22.483 2.549 5.504 6.913 4.363 16.979-2.55 22.483-16.439 13.092-37.07 20.303-58.089 20.303z" fill="#4d0033"/></g><g fill="#4d0033"><path d="m388.434 210.159c4.721-5.744 4.777-13.919.41-19.73-1.086-1.445 2.217 1.966-33.472-33.723-6.248-6.249-16.379-6.249-22.627 0-6.249 6.249-6.249 16.379 0 22.627l4.686 4.686h-25.373c-20.565 0-40.845 6.935-57.104 19.527-12.055 9.338-5.373 28.65 9.81 28.65 3.422 0 6.871-1.094 9.786-3.351 19.785-15.324 37.568-12.826 62.881-12.826l-4.686 4.686c-10.109 10.108-2.813 27.314 11.313 27.314 4.095 0 8.189-1.562 11.313-4.686 35.025-35.024 32.324-32.274 33.063-33.174z"/><path d="m388.434 322.159c4.721-5.744 4.777-13.919.41-19.73-1.086-1.445 2.217 1.966-33.472-33.723-6.248-6.249-16.379-6.249-22.627 0-6.249 6.249-6.249 16.379 0 22.627l4.686 4.686h-25.373c-16.362 0-31.744-6.372-43.313-17.941l-66.745-66.744c-17.613-17.614-41.031-27.314-65.941-27.314-8.837 0-16 7.163-16 16s7.163 16 16 16c16.362 0 31.744 6.372 43.313 17.941l66.745 66.745c17.613 17.614 41.031 27.314 65.941 27.314h25.373l-4.686 4.686c-6.249 6.249-6.249 16.379 0 22.627 6.248 6.248 16.379 6.249 22.627 0 35.024-35.024 32.323-32.274 33.062-33.174z"/></g></svg>