<svg id="Layer_1" enable-background="new 0 0 512.24 512.24" height="512" viewBox="0 0 512.24 512.24" width="512" xmlns="http://www.w3.org/2000/svg"><g><circle cx="256.097" cy="256.118" fill="#ffbd7b" r="240"/></g><g><path d="m256.097 496.118c-51.87 0-99.9-16.46-139.14-44.42 2.94-19.6 9.03-38.72 18.16-56.32 10.02-19.317 18.18-22.692 37.7-23.27 78.47-2.243 108.003 8.485 146.05-1.19 25.6-6.52 50.19-24.86 55.34-50.76 2.89-14.51 0-31.29 9.46-42.65 8.31-10 22.97-11.63 33.75-18.89 19.35-13.02 21.88-39.9 23.53-63.16 1.53-21.55 6.36-46.57 24.01-57.65 89.783 158.139-23.816 358.31-208.86 358.31z" fill="#ffaa64"/></g><g><path d="m91.548 149.403c4.706-17.091 12.815-34.289 30.096-38.264 12.519-2.88 17.504 1.657 28.817-11.108 12.859-14.508 20.819-30.127 42.54-41.44 46.263-24.095 67.901 29.262 25.392 41.512-14.195 4.09-28.133 2.632-47.432 14.582-12.227 7.571-13.562 13.051-18.114 25.294-12.093 32.523-43.263 65.602-60.489 52.046-10.91-8.586-3.805-31.746-.81-42.622z" fill="#fff"/></g><g><path d="m368.097 328.118-16 40h-192l-16-40z" fill="#f9f9f9"/></g><g><path d="m352.097 384.118h-192c-6.542 0-12.426-3.983-14.855-10.058l-16-40c-3.282-8.205.709-17.516 8.913-20.798 8.203-3.282 17.517.709 20.798 8.913l11.977 29.942h170.336l11.977-29.942c3.281-8.205 12.593-12.195 20.798-8.913 8.204 3.282 12.195 12.594 8.913 20.798l-16 40c-2.431 6.075-8.315 10.058-14.857 10.058z" fill="#4d0033"/></g><g><path d="m256.097 296.118c-8.837 0-16-7.164-16-16v-56c0-8.836 7.163-16 16-16s16 7.164 16 16v56c0 8.837-7.163 16-16 16z" fill="#4d0033"/></g><g><path d="m328.097 232.118c-4.095 0-8.189-1.562-11.313-4.686l-60.687-60.686-60.687 60.686c-6.248 6.249-16.379 6.249-22.627 0-6.249-6.249-6.249-16.379 0-22.627l72-72c6.248-6.249 16.379-6.249 22.627 0l72 72c10.11 10.108 2.813 27.313-11.313 27.313z" fill="#4d0033"/></g><g><path d="m239.073 495.952c.092-8.836 7.28-15.931 16.164-15.834.576.006 1.145.006 1.721 0 8.895-.078 16.073 7.042 16.164 15.834.223 21.561-34.273 21.56-34.049 0z" fill="#4d0033"/></g><g><path d="m199.689 505.859c-134.413-30.235-224.138-164.067-193.766-304.194 24.564-113.318 125.395-201.548 250.174-201.548 113.685 0 209.157 73.675 242.876 174.919 48.292 145.012-40.173 297.421-185.661 330.64-8.609 1.967-17.192-3.421-19.16-12.037-1.967-8.615 3.422-17.193 12.037-19.16 169.391-38.679 233.891-251.162 108.301-376.753-87.339-87.338-229.446-87.337-316.785 0-60.727 60.728-81.44 152.301-52.771 233.295 25.106 70.984 85.653 126.494 161.778 143.618 8.621 1.939 14.037 10.5 12.099 19.121-1.934 8.596-10.478 14.044-19.122 12.099z" fill="#4d0033"/></g></svg>