<svg id="Layer_1" enable-background="new 0 0 512.123 512.123" height="512" viewBox="0 0 512.123 512.123" width="512" xmlns="http://www.w3.org/2000/svg"><g><path d="m470.267 364.485c-81.297 160.336-304.736 178.063-409.79 30.7-27.749-38.756-44.39-87.142-44.39-139.1 0-132.517 107.414-240 240-240 179.672 0 294.384 190.013 214.18 348.4z" fill="#c0b3ff"/></g><g><path d="m479.557 343.765c-57.147 145.672-236.202 197.971-362.61 107.9-24.18-17.241-44.992-39.019-60.01-61.61 35.756-71.65 55.742-79.266 114.48-78.33 114.951 1.866 120.932 2.816 136.78-1.31 12.61-3.28 24.76-10.53 31.05-21.94 4.61-8.37 5.79-18.34 10.72-26.53 13.008-21.635 54.804-30.433 75.07-10.25 12.62 12.57 13.86 32.15 16.78 49.73 2.93 17.57 11.03 37.48 28.37 41.58 3.08.72 6.21.88 9.37.76z" fill="#b49ef2"/></g><g><path d="m91.538 149.371c4.706-17.091 12.815-34.289 30.096-38.264 12.519-2.88 17.504 1.657 28.817-11.108 12.859-14.508 20.819-30.127 42.54-41.44 46.263-24.095 67.901 29.262 25.392 41.512-14.195 4.09-28.133 2.632-47.432 14.582-12.227 7.571-13.562 13.051-18.114 25.294-12.093 32.523-43.263 65.602-60.489 52.046-10.911-8.587-3.805-31.746-.81-42.622z" fill="#fff"/></g><g><path d="m489.479 216.216c-7.273 0-13.853-4.992-15.57-12.381-.129-.557-.264-1.107-.405-1.662-2.183-8.563 2.988-17.274 11.551-19.457 8.56-2.186 17.273 2.988 19.457 11.551.198.775.385 1.544.566 2.323 2.329 10.018-5.28 19.626-15.599 19.626z" fill="#4d0033"/></g><g><path d="m255.868 512.123c-113.103 0-219.419-76.179-248.491-195.376-26.939-110.448 22.016-220.659 112.386-277.407 129.439-81.282 298.47-31.445 365.217 102.026 3.952 7.903.75 17.514-7.154 21.467-7.902 3.951-17.514.75-21.466-7.154-77.505-154.979-299.232-168.043-391.686-15.943-64.155 105.546-30.481 243.608 75.064 307.763 73.388 44.608 167.261 43.033 239.156-4.013 63.014-41.212 102.596-113.188 101.193-191.202-.159-8.835 6.875-16.126 15.71-16.285 8.842-.147 16.126 6.875 16.285 15.71 2.55 141.897-111.855 260.381-256.214 260.414z" fill="#4d0033"/></g><g fill="#4d0033"><path d="m356.461 210.225c4.083-4.969 4.791-11.972 1.736-17.68-1.612-3.013-.248-1.225-34.797-35.773-6.248-6.249-16.379-6.249-22.627 0-6.249 6.248-6.249 16.379 0 22.627l4.686 4.687h-105.372c-26.467 0-48 21.533-48 48 0 8.836 7.164 16 16 16s16-7.164 16-16c0-8.822 7.178-16 16-16h105.373l-4.686 4.687c-10.109 10.109-2.811 27.313 11.313 27.313 4.095 0 8.189-1.562 11.313-4.687 35.095-35.095 32.325-32.275 33.061-33.174z"/><path d="m344.087 264.085c-8.836 0-16 7.164-16 16 0 8.822-7.178 16-16 16h-105.373l4.686-4.687c6.249-6.248 6.249-16.379 0-22.627-6.248-6.249-16.379-6.249-22.627 0-34.371 34.371-33.826 33.231-35.468 37.193-1.584 3.829-1.66 8.23 0 12.242 1.661 4.006 1.194 2.918 35.468 37.193 6.247 6.248 16.379 6.249 22.627 0 6.249-6.248 6.249-16.379 0-22.627l-4.686-4.687h105.373c26.467 0 48-21.533 48-48 0-8.836-7.164-16-16-16z"/></g></svg>