<svg id="Layer_1" enable-background="new 0 0 512.123 512.123" height="512" viewBox="0 0 512.123 512.123" width="512" xmlns="http://www.w3.org/2000/svg"><g><path d="m470.267 364.485c-81.297 160.336-304.736 178.063-409.79 30.7-27.749-38.756-44.39-87.142-44.39-139.1 0-132.517 107.414-240 240-240 179.672 0 294.384 190.013 214.18 348.4z" fill="#ffec8f"/></g><g><path d="m479.557 343.765c-57.147 145.672-236.202 197.971-362.61 107.9-24.18-17.241-44.992-39.019-60.01-61.61 35.756-71.65 55.742-79.266 114.48-78.33 114.951 1.866 120.932 2.815 136.78-1.31 12.61-3.28 24.76-10.53 31.05-21.94 4.61-8.37 5.79-18.34 10.72-26.53 13.008-21.635 54.804-30.433 75.07-10.25 12.62 12.57 13.86 32.15 16.78 49.73 2.93 17.57 11.03 37.48 28.37 41.58 3.08.72 6.21.88 9.37.76z" fill="#fae26e"/></g><g><path d="m91.538 149.37c4.706-17.091 12.815-34.289 30.096-38.264 12.519-2.88 17.504 1.657 28.817-11.108 12.859-14.508 20.819-30.127 42.54-41.44 46.263-24.095 67.901 29.262 25.392 41.512-14.195 4.09-28.133 2.632-47.432 14.582-12.227 7.571-13.562 13.051-18.114 25.294-12.093 32.523-43.263 65.602-60.489 52.046-10.911-8.586-3.805-31.745-.81-42.622z" fill="#fff"/></g><g><path d="m489.48 216.216c-7.266 0-13.84-4.98-15.565-12.359-.132-.561-.266-1.115-.408-1.673-2.189-8.561 2.977-17.275 11.537-19.465 8.568-2.188 17.276 2.977 19.465 11.538.197.771.384 1.536.564 2.311 2.353 10.056-5.293 19.648-15.593 19.648z" fill="#4d0033"/></g><g><path d="m255.868 512.123c-113.103 0-219.419-76.179-248.491-195.376-26.939-110.448 22.016-220.659 112.386-277.407 129.438-81.281 298.466-31.449 365.217 102.025 3.952 7.904.749 17.515-7.154 21.467-7.903 3.954-17.515.749-21.467-7.153-77.716-155.403-299.429-167.717-391.685-15.943-64.155 105.546-30.481 243.608 75.064 307.763 73.388 44.608 167.261 43.033 239.156-4.013 63.012-41.211 102.593-113.186 101.193-191.202-.159-8.835 6.875-16.126 15.71-16.285 8.8-.122 16.126 6.875 16.284 15.71 2.551 141.899-111.858 260.381-256.213 260.414z" fill="#4d0033"/></g><g fill="#4d0033"><path d="m356.462 210.224c3.063-3.728 4.425-8.862 3.125-14.042-1.444-5.753-1.315-4.538-36.187-39.41-6.248-6.249-16.379-6.249-22.627 0-6.249 6.248-6.249 16.379 0 22.627l4.687 4.687h-105.373c-8.836 0-16 7.164-16 16s7.164 16 16 16h105.373l-4.687 4.687c-6.249 6.248-6.249 16.379 0 22.627 6.247 6.248 16.379 6.249 22.627 0 35.095-35.096 32.325-32.277 33.062-33.176z"/><path d="m312.087 296.085h-105.373l4.687-4.687c6.249-6.248 6.249-16.379 0-22.627-6.248-6.249-16.379-6.249-22.627 0-35.066 35.066-33.886 33.372-35.468 37.193-1.618 3.913-1.625 8.314 0 12.242 1.721 4.156 1.637 3.361 35.468 37.193 6.247 6.248 16.379 6.249 22.627 0 6.249-6.248 6.249-16.379 0-22.627l-4.687-4.687h105.373c8.837 0 16-7.164 16-16s-7.163-16-16-16z"/></g></svg>