<svg id="Layer_1" enable-background="new 0 0 512.407 512.407" height="512" viewBox="0 0 512.407 512.407" width="512" xmlns="http://www.w3.org/2000/svg"><g><path d="m470.216 364.612c-69.65 137.36-243.62 170.05-358.1 83.94-58.092-43.652-96.08-113.707-96.08-192.34 0-132.52 107.41-240 240-240 179.179 0 294.575 189.566 214.18 348.4z" fill="#ffa4b8"/></g><g><path d="m492.676 297.532c-3.97 22.57-11.35 45.13-22.46 67.08-69.65 137.36-243.62 170.05-358.1 83.94-19.965-71.594 32.553-131.161 86.91-134.59 24.919-1.571 54.401 7.753 86.99 3.3 17.49-2.39 34.88-9.17 47.14-21.86 6.95-7.18 12.07-16.03 19.38-22.86 19.53-18.22 54.11-16.54 71.78 3.48 9.37 10.62 15.31 25.97 28.84 30.16 13.14 4.06 26.18-4.61 39.52-8.65z" fill="#fe929f"/></g><g><path d="m91.487 149.497c4.706-17.091 12.815-34.289 30.096-38.264 12.519-2.88 17.504 1.657 28.817-11.108 12.859-14.508 20.819-30.127 42.54-41.44 46.263-24.095 67.901 29.262 25.392 41.512-14.195 4.09-28.133 2.632-47.432 14.582-12.227 7.571-13.562 13.051-18.114 25.294-12.093 32.523-43.263 65.602-60.489 52.046-10.911-8.587-3.805-31.746-.81-42.622z" fill="#fff"/></g><g><path d="m22.642 216.342c-10.287 0-17.948-9.581-15.593-19.648.181-.775.367-1.54.564-2.311 2.188-8.562 10.903-13.726 19.465-11.538 8.561 2.189 13.727 10.904 11.537 19.465-.143.558-.276 1.112-.408 1.673-1.725 7.379-8.3 12.359-15.565 12.359z" fill="#4d0033"/></g><g><path d="m256.255 512.249c-144.207 0-258.766-118.4-256.213-260.413.158-8.835 7.46-15.862 16.284-15.71 8.835.159 15.869 7.45 15.71 16.285-1.4 78.02 38.182 149.992 101.19 191.2 71.735 46.942 165.606 48.723 239.159 4.015 105.545-64.155 139.218-202.217 75.063-307.762-91.145-149.951-312.849-141.7-391.684 15.941-3.952 7.903-13.564 11.107-21.467 7.153-7.903-3.952-11.106-13.563-7.154-21.467 46.079-92.139 146.995-152.402 257.993-139.629 76.608 8.808 147.367 51.804 189.658 121.379 104.239 171.494-20.973 389.002-218.539 389.008z" fill="#4d0033"/></g><path d="m288.036 184.212h-81.373l4.687-4.687c6.249-6.248 6.249-16.379 0-22.627-6.248-6.249-16.379-6.249-22.627 0-34.208 34.208-33.805 33.181-35.467 37.19-1.12 2.7-1.445 5.514-1.042 8.38 1.011 7.097 2.046 6.594 36.509 41.057 3.124 3.125 7.219 4.687 11.313 4.687 14.125 0 21.424-17.205 11.313-27.313l-4.687-4.687h81.373c22.056 0 40 17.944 40 40s-17.944 40-40 40h-88c-8.837 0-16 7.164-16 16s7.163 16 16 16h88c39.701 0 72-32.299 72-72s-32.298-72-71.999-72z" fill="#4d0033"/></svg>