<svg id="Layer_1" enable-background="new 0 0 512.148 512.148" height="512" viewBox="0 0 512.148 512.148" width="512" xmlns="http://www.w3.org/2000/svg"><g><path d="m496.099 256.084c0 197.297-222.818 306.965-379.14 195.58-61.79-44.059-100.86-115.72-100.86-195.58 0-132.517 107.414-240 240-240 132.526 0 240 107.425 240 240z" fill="#80aaff"/></g><g><path d="m491.829 301.364c-32.883 172.262-233.76 250.846-374.87 150.3-20.703-14.762-39.047-32.805-54.09-53.21 38.54-5.55 74.5-27.33 97.25-58.94 41.79-58.034 34.724-132.375 169.4-149.5 24.03-3.06 51.27-3.08 68.94 13.49 15.64 14.66 18.96 37.72 25.09 58.26 6.14 20.54 19.87 42.77 41.28 43.82 9.011.45 18.14-3.07 27-4.22z" fill="#6994ff"/></g><g><path d="m91.55 149.369c4.706-17.091 12.815-34.289 30.096-38.264 12.519-2.88 17.504 1.657 28.817-11.108 12.859-14.508 20.819-30.127 42.54-41.44 46.263-24.095 67.901 29.262 25.392 41.512-14.195 4.09-28.133 2.632-47.432 14.582-12.227 7.571-13.562 13.051-18.114 25.294-12.093 32.523-43.263 65.602-60.489 52.046-10.91-8.586-3.804-31.746-.81-42.622z" fill="#fff"/></g><g><path d="m487.179 207.296c-7.035 0-13.482-4.675-15.425-11.789-.151-.555-.309-1.102-.471-1.653-2.504-8.474 2.336-17.374 10.81-19.878 8.473-2.503 17.374 2.336 19.878 10.811.227.764.442 1.522.652 2.291 2.782 10.182-4.901 20.218-15.444 20.218z" fill="#4d0033"/></g><g><path d="m255.904 512.129c-110.056.003-213.519-71.899-246.003-185.881-31.16-109.336 13.536-221.346 101.654-281.517 126.225-86.19 297.043-42.88 368.865 87.931 4.253 7.746 1.421 17.473-6.325 21.725-7.744 4.254-17.473 1.421-21.726-6.325-83.619-152.303-305.646-156.099-392.008-.893-60.056 107.93-21.107 244.598 86.822 304.653 75.045 41.757 168.791 36.581 238.826-13.19 61.385-43.601 98.175-117.045 93.778-194.945-.498-8.823 6.25-16.378 15.073-16.876 8.811-.483 16.379 6.25 16.876 15.073 8.206 145.383-107.49 270.245-255.832 270.245z" fill="#4d0033"/></g><path d="m372.475 202.223c4.748-5.788 4.751-13.956.411-19.728-1.076-1.435 3.62 3.369-49.473-49.724-6.248-6.249-16.379-6.249-22.627 0-6.249 6.248-6.249 16.379 0 22.627l20.687 20.687h-9.373c-88.225 0-160 71.776-160 160 0 8.836 7.163 16 16 16s16-7.164 16-16c0-70.58 57.421-128 128-128h9.373l-20.687 20.687c-6.249 6.248-6.249 16.379 0 22.627 6.247 6.248 16.379 6.249 22.627 0 51.486-51.488 48.303-48.252 49.062-49.176z" fill="#4d0033"/></svg>