<svg id="Layer_1" enable-background="new 0 0 512.213 512.213" height="512" viewBox="0 0 512.213 512.213" width="512" xmlns="http://www.w3.org/2000/svg"><g><circle cx="256.116" cy="256.085" fill="#80aaff" r="240"/></g><g><path d="m256.116 496.085c-63.401 0-121.793-24.613-165.41-66.11 9.994-32.551 26.992-56.965 55.69-74 4.72 11.78 16.25 20.11 29.72 20.11h176c17.67 0 32-14.33 32-32 0-76.972-1.407-92.851 3.554-101.747 14.086-25.279 48.792-28.766 77.696-29.013 9.31-.07 18.9.1 27.54 3.43 24.277 146.467-88.837 279.33-236.79 279.33z" fill="#6994ff"/></g><g><path d="m91.567 149.37c4.706-17.091 12.815-34.289 30.096-38.264 12.519-2.88 17.504 1.657 28.817-11.108 12.859-14.508 20.819-30.127 42.54-41.44 46.263-24.095 67.901 29.262 25.392 41.512-14.195 4.09-28.133 2.632-47.432 14.582-12.227 7.571-13.562 13.051-18.114 25.294-12.093 32.523-43.263 65.602-60.489 52.046-10.911-8.586-3.805-31.745-.81-42.622z" fill="#fff"/></g><g><path d="m352.116 392.085h-176c-26.467 0-48-21.533-48-48v-176c0-26.467 21.533-48 48-48h80c8.836 0 16 7.164 16 16s-7.164 16-16 16h-80c-8.822 0-16 7.178-16 16v176c0 8.822 7.178 16 16 16h176c8.822 0 16-7.178 16-16v-80c0-8.836 7.164-16 16-16s16 7.164 16 16v80c0 26.468-21.533 48-48 48z" fill="#4d0033"/></g><g><path d="m479.84 185.203c-6.444 0-12.518-3.921-14.952-10.3-.207-.541-.416-1.073-.633-1.609-3.315-8.191.637-17.519 8.828-20.834s17.519.636 20.834 8.828c.298.735.585 1.465.868 2.207 4.018 10.526-3.82 21.708-14.945 21.708z" fill="#4d0033"/></g><g><path d="m256.051 512.144c-100.093.003-197.773-59.639-238.173-162.36-41.609-105.796-7.989-221.612 73.888-290.046 117.291-98.032 291.497-71.455 375.65 51.762 4.984 7.297 3.108 17.253-4.188 22.236-7.298 4.984-17.253 3.109-22.236-4.188-97.994-143.48-319.34-125.736-390.25 37.108-49.425 113.505 2.424 245.371 115.945 294.803 78.774 34.301 171.567 20.026 236.422-36.278 56.87-49.346 86.368-126.007 74.441-203.118-1.351-8.733 4.634-16.907 13.366-18.258 8.736-1.352 16.907 4.634 18.258 13.367 23.841 154.149-95.561 294.966-253.123 294.972z" fill="#4d0033"/></g><path d="m392.114 136.041c-.015-5.157-2.593-10.232-7.114-13.26-5.375-3.593-4.878-2.695-54.139-2.695-8.836 0-16 7.164-16 16s7.164 16 16 16h6.628l-76.687 76.687c-10.109 10.109-2.811 27.313 11.313 27.313 4.095 0 8.189-1.562 11.313-4.687l76.687-76.687v6.628c0 8.836 7.164 16 16 16s16-7.164 16-16c.001-69.144-.001-35.845-.001-45.299z" fill="#4d0033"/></svg>