<svg id="Layer_1" enable-background="new 0 0 512.393 512.393" height="512" viewBox="0 0 512.393 512.393" width="512" xmlns="http://www.w3.org/2000/svg"><g><path d="m496.335 256.22c0 179.67-190.01 294.38-348.4 214.18-160.256-81.24-178.118-304.696-30.7-409.79 38.76-27.75 87.15-44.39 139.1-44.39 132.587 0 240 107.473 240 240z" fill="#c0b3ff"/></g><g><path d="m147.935 470.4c-22.35-11.33-41.93-25.43-58.68-41.6 24.179-19.638 19.7-42.93 20.47-69.42 1.232-42.375 24.091-102.555 65.81-108.35 11.691-1.619 16.966 2.848 21.29 13.68 7.46 18.75 9.1 39.68 18.61 57.48s31.86 31.78 49.66 22.27c8.1-4.32 14.31-12.97 23.46-13.73 12.403-1.048 26.69 15.331 65.13-28.89 48.837-56.18 63.478-15.401 88.16-18.91 21.087-2.974 22.017-30.573 53.73-45.94 14.872 188.584-182.433 317.061-347.64 233.41z" fill="#b49ef2"/></g><g><path d="m91.706 149.585c4.706-17.091 12.815-34.289 30.096-38.264 12.519-2.88 17.504 1.657 28.817-11.108 12.859-14.508 20.819-30.127 42.54-41.44 46.263-24.095 67.901 29.262 25.392 41.512-14.195 4.09-28.133 2.632-47.432 14.582-12.227 7.571-13.562 13.051-18.114 25.294-12.093 32.523-43.263 65.602-60.489 52.046-10.911-8.587-3.805-31.746-.81-42.622z" fill="#fff"/></g><g><path d="m312.197 505.63c-7.269 0-13.846-4.986-15.568-12.37-2.007-8.605 3.343-17.208 11.949-19.215.564-.131 1.122-.268 1.683-.411 8.569-2.174 17.272 3 19.449 11.564 2.57 10.11-4.959 20.432-17.513 20.432z" fill="#4d0033"/></g><g><path d="m37.581 123.249c73.489-120.902 230.808-159.286 351.728-85.787 69.463 42.222 112.556 112.916 121.38 189.66 12.778 111.027-47.517 211.926-139.63 257.991-7.903 3.951-17.515.749-21.467-7.154s-.75-17.514 7.154-21.466c157.557-78.794 165.955-300.501 15.942-391.685-105.545-64.156-243.607-30.482-307.763 75.063-88.714 145.948 11.611 340.346 195.508 340.346 8.703 0 15.834 6.975 15.992 15.712.159 8.835-6.875 16.126-15.71 16.285-201.113 3.597-327.806-216.765-223.134-388.965z" fill="#4d0033"/></g><g fill="#4d0033"><path d="m355.652 300.906c-6.248-6.249-16.379-6.249-22.627 0l-4.687 4.687v-65.373c0-65.14-39.177-85.477-40.845-86.311-.19.38-2.376-1.609-7.239-1.609-17.188 0-22.236 23.578-6.516 30.604 4.248 2.808 22.599 17.26 22.599 57.316v65.373l-4.687-4.687c-6.248-6.249-16.379-6.249-22.627 0-6.249 6.248-6.249 16.379 0 22.627l31.996 31.996c5.101 5.107 13.176 6.2 19.505 2.418 2.495-1.49.515.196 35.126-34.415 6.25-6.247 6.25-16.378.002-22.626z"/><path d="m239.439 330.018c.067-.134-.002-.151.341.039-.957-.531-23.442-13.504-23.442-57.837v-65.373c4.959 4.959 8.332 9.373 16 9.373 14.126 0 21.421-17.206 11.313-27.313-35.095-35.095-32.275-32.324-33.173-33.061-5.717-4.697-13.873-4.801-19.718-.42-1.462 1.098 1.883-2.137-33.735 33.481-6.249 6.248-6.249 16.379 0 22.627 6.248 6.249 16.379 6.249 22.627 0l4.687-4.687v65.373c0 56.222 29.181 79.066 38.244 84.804 10.443 7.951 25.673.555 25.673-12.724-.001-6.25-3.593-11.649-8.817-14.282z"/></g></svg>