<svg id="Layer_1" enable-background="new 0 0 512.063 512.063" height="512" viewBox="0 0 512.063 512.063" width="512" xmlns="http://www.w3.org/2000/svg"><g><path d="m496.061 256.018c0 159.752-153.116 274.698-306.38 230.71-100.867-28.971-173.62-121.822-173.62-230.71 0-132.525 107.425-240 240-240 132.555 0 240 107.456 240 240z" fill="#ffec8f"/></g><g><path d="m490.411 308.038c-23.778 107.56-119.669 187.98-234.35 187.98-86.383 0-164.003-45.876-206.63-117.86 28.283-21.047 64.04-7.47 94.28-19.76 17.57-7.15 30.56-22.05 43.63-35.79 7.92-8.34 20.45-16.91 29.74-10.13 8.91 6.5 5.72 21.23 12.48 29.95 6.28 8.09 19.19 7.85 27.93 2.52 17.079-10.403 21.828-34.255 62.94-67.13 8.28-6.63 19.24-12.97 28.93-8.64 7.28 3.25 10.84 11.29 14.89 18.16 18.3 31.07 59.74 46.23 93.77 34.31 10.78-3.77 21.58-9.94 32.39-13.61z" fill="#fae26e"/></g><g><path d="m91.512 149.303c4.706-17.091 12.815-34.289 30.096-38.264 12.519-2.88 17.504 1.657 28.817-11.108 12.859-14.508 20.819-30.127 42.54-41.44 46.263-24.095 67.901 29.262 25.392 41.512-14.195 4.09-28.133 2.632-47.432 14.582-12.227 7.571-13.562 13.051-18.114 25.294-12.093 32.523-43.263 65.602-60.489 52.046-10.91-8.586-3.804-31.746-.81-42.622z" fill="#fff"/></g><g><path d="m272.059 344.019c-14.126 0-21.421-17.206-11.313-27.313l60.686-60.687-60.686-60.687c-6.249-6.248-6.249-16.379 0-22.627 6.248-6.249 16.379-6.249 22.627 0l72 72c6.249 6.248 6.249 16.379 0 22.627l-72 72c-3.125 3.125-7.22 4.687-11.314 4.687z" fill="#4d0033"/></g><g><path d="m184.058 344.019c-14.126 0-21.421-17.206-11.313-27.313l60.686-60.687-60.686-60.687c-6.249-6.248-6.249-16.379 0-22.627 6.248-6.249 16.379-6.249 22.627 0l72 72c6.249 6.248 6.249 16.379 0 22.627l-72 72c-3.124 3.125-7.219 4.687-11.314 4.687z" fill="#4d0033"/></g><g><path d="m496.061 273.044c-8.926 0-16.097-7.286-16.002-16.171.006-.571.006-1.137 0-1.708-.094-8.836 6.992-16.076 15.828-16.17 8.988-.076 16.077 7.121 16.17 15.828.009.8.009 1.592 0 2.392-.094 8.778-7.239 15.829-15.996 15.829z" fill="#4d0033"/></g><g><path d="m75.039 437.038c-100.045-100.044-100.059-261.979 0-362.038 57.734-57.735 136.734-82.547 213.02-72.981 110.894 13.895 194.631 96.38 217.557 196.786 1.967 8.615-3.422 17.193-12.037 19.16-8.614 1.966-17.193-3.422-19.16-12.037-39.215-171.742-252.618-232.435-376.753-108.301-87.337 87.338-87.337 229.447 0 316.785 86.017 86.016 228.139 88.643 316.784 0 30.057-30.057 50.849-67.75 60.129-109.007 1.94-8.621 10.502-14.038 19.121-12.099 8.621 1.939 14.038 10.5 12.099 19.121-43.778 194.627-287.447 267.926-430.76 124.611z" fill="#4d0033"/></g></svg>