<svg id="Layer_1" enable-background="new 0 0 512.025 512.025" height="512" viewBox="0 0 512.025 512.025" width="512" xmlns="http://www.w3.org/2000/svg"><g><circle cx="256.257" cy="256.002" fill="#80aaff" r="240"/></g><g><path d="m480.667 341.242c-72.059 189.678-335.489 210.391-434.66 30.59 36.285-4.712 71.991-22.244 96.68-50.2 30.817-34.873 40.981-77.106 127.69-91.72 7.35-1.24 15.45-2.05 21.75 1.92 7.95 5.02 10.01 16.01 8.13 25.22s-6.77 17.49-9.89 26.36c-5.31 15.07-2.74 35.91 12.29 41.31 9.92 3.56 21.16-1.52 28.44-9.13s11.71-17.43 17.15-26.45c9.04-15.01 32.275-43.621 49.57-41.43 8.48 1.08 14.96 8.53 17.85 16.58s2.98 16.78 3.79 25.29c4.884 51.698 37.996 41.854 61.21 51.66z" fill="#6994ff"/></g><g><path d="m91.708 149.287c4.706-17.091 12.815-34.289 30.096-38.264 12.519-2.88 17.504 1.657 28.817-11.108 12.859-14.508 20.819-30.127 42.54-41.44 46.263-24.095 67.901 29.262 25.392 41.512-14.195 4.09-28.133 2.632-47.432 14.582-12.227 7.571-13.562 13.051-18.114 25.294-12.093 32.523-43.263 65.602-60.489 52.046-10.91-8.586-3.804-31.746-.81-42.622z" fill="#fff"/></g><g><path d="m495.814 257.627c-8.44 0-15.501-6.606-15.963-15.135-.031-.57-.066-1.135-.109-1.705-.667-8.812 5.936-16.495 14.747-17.162 8.818-.657 16.494 5.937 17.161 14.748.061.798.111 1.588.154 2.388.496 9.167-6.798 16.866-15.99 16.866z" fill="#4d0033"/></g><g><path d="m87.226 448.263c-106.258-93.419-116.662-255.021-23.229-361.292 53.773-61.164 130.941-91.163 207.898-86.499 111.482 6.745 200.391 83.62 229.734 182.421 2.516 8.471-2.312 17.377-10.782 19.893-8.468 2.514-17.378-2.312-19.894-10.783-25.701-86.539-103.613-153.697-200.993-159.59-135.123-8.197-245.872 103.73-237.242 237.962 10.028 155.967 171.596 251.579 311.837 191.549 69.222-29.606 120.737-93.592 132.941-170.659 1.382-8.728 9.579-14.681 18.305-13.301 8.729 1.382 14.684 9.578 13.301 18.306-31.4 198.299-270.647 284.951-421.876 151.993z" fill="#4d0033"/></g><g><path d="m344.257 304.002c-14.125 0-21.424-17.205-11.313-27.313l36.687-36.687-36.687-36.687c-6.249-6.248-6.249-16.379 0-22.627 6.248-6.249 16.379-6.249 22.627 0l48 48c6.249 6.248 6.249 16.379 0 22.627l-48 48c-3.124 3.125-7.219 4.687-11.314 4.687z" fill="#4d0033"/></g><path d="m324.633 250.141c4.689-5.707 4.809-13.869.411-19.728-1.098-1.457 3.837 3.586-49.473-49.724-6.248-6.249-16.379-6.249-22.627 0-6.249 6.248-6.249 16.379 0 22.627l20.687 20.687c-60.037 0-107.341 32.158-130.669 78.815l-5.015 10.029c-5.356 10.712 2.54 23.159 14.299 23.159 5.869 0 11.52-3.242 14.323-8.848l5.015-10.029c17.871-35.742 53.531-61.126 102.047-61.126l-20.687 20.687c-6.249 6.248-6.249 16.379 0 22.627 6.247 6.248 16.379 6.249 22.627 0 51.254-51.255 48.297-48.243 49.062-49.176z" fill="#4d0033"/></svg>