<svg id="Layer_1" enable-background="new 0 0 512.49 512.49" height="512" viewBox="0 0 512.49 512.49" width="512" xmlns="http://www.w3.org/2000/svg"><g><circle cx="256.241" cy="256.49" fill="#ffbd7b" r="240"/></g><g><path d="m256.241 496.49c-63.401 0-121.793-24.613-165.41-66.11 5.72-18.63 14.28-36.09 27.14-50.64 11.134-12.6 28.905-15.156 42.44-7.435 4.669 2.663 10.072 4.185 15.83 4.185h176c17.673 0 32-14.327 32-32 0-76.972-1.407-92.851 3.554-101.747 14.086-25.279 48.792-28.766 77.696-29.013 9.31-.07 18.9.1 27.54 3.43 24.277 146.467-88.837 279.33-236.79 279.33z" fill="#ffaa64"/></g><g><path d="m91.692 149.775c4.706-17.091 12.815-34.289 30.096-38.264 12.519-2.88 17.504 1.657 28.817-11.108 12.859-14.508 20.819-30.127 42.54-41.44 46.263-24.095 67.901 29.262 25.392 41.512-14.195 4.09-28.133 2.632-47.432 14.582-12.227 7.571-13.562 13.051-18.114 25.294-12.093 32.523-43.263 65.602-60.489 52.046-10.911-8.586-3.805-31.746-.81-42.622z" fill="#fff"/></g><g><path d="m352.241 392.49h-80c-8.837 0-16-7.164-16-16s7.163-16 16-16h80c8.822 0 16-7.178 16-16v-176c0-8.822-7.178-16-16-16h-176c-8.822 0-16 7.178-16 16v80c0 8.836-7.163 16-16 16s-16-7.164-16-16v-80c0-26.467 21.532-48 48-48h176c26.468 0 48 21.533 48 48v176c0 26.468-21.533 48-48 48z" fill="#4d0033"/></g><g><path d="m426.224 103.06c-6.011 0-9.354-2.8-12.626-5.991-6.326-6.169-6.453-16.299-.284-22.625 6.17-6.327 16.299-6.454 22.626-.285.568.554 1.125 1.108 1.682 1.673 9.989 10.141 2.67 27.228-11.398 27.228z" fill="#4d0033"/></g><g><path d="m256.221 512.49c-141.212.004-255.606-114.103-255.979-255.322-.53-200.112 220.174-324.915 391.431-217.958 7.495 4.681 9.776 14.551 5.096 22.046-4.682 7.494-14.549 9.776-22.047 5.095-149.165-93.159-342.946 14.92-342.48 190.732.326 123.31 100.755 223.403 223.989 223.408 86.057 0 165.635-50.301 202.543-128.185 32.26-68.025 28.482-150.085-13.412-215.913-4.744-7.455-2.548-17.344 4.907-22.089 7.455-4.746 17.344-2.547 22.089 4.907 47.907 75.274 52.221 169.011 15.332 246.801-41.568 87.717-130.441 146.478-231.469 146.478z" fill="#4d0033"/></g><path d="m288.161 254.91c-.464-4.767-3.115-9.385-7.729-12.145-5.085-3.036-4.011-2.274-53.446-2.274-8.837 0-16 7.164-16 16s7.163 16 16 16h6.628l-84.687 84.687c-6.249 6.248-6.249 16.379 0 22.627 6.247 6.248 16.379 6.249 22.627 0l84.687-84.687v6.628c0 8.836 7.163 16 16 16s16-7.164 16-16c0-49.311.034-45.676-.08-46.836z" fill="#4d0033"/></svg>