<svg id="Layer_1" enable-background="new 0 0 512.137 512.137" height="512" viewBox="0 0 512.137 512.137" width="512" xmlns="http://www.w3.org/2000/svg"><g><path d="m470.275 364.434c-81.458 160.659-305.248 177.777-409.79 30.7-27.75-38.76-44.39-87.14-44.39-139.1 0-132.52 107.41-240 240-240 179.579 0 294.408 189.955 214.18 348.4z" fill="#ffec8f"/></g><g><path d="m470.275 364.434c-80.84 159.44-302.23 177.86-408 33.17 12.56-9.17 27.36-15.27 40.12-15.27 29.37-4.53 59.29 1.24 89 .71 21.97-.39 47.3-6.75 56.29-26.8 5.82-12.98 3-28.25 6.89-41.94 4.37-15.4 16.62-27.09 28.36-37.97 7.66-7.09 16-14.53 26.34-15.99 9.75-1.38 19.3 2.84 28.95 4.8 17.2 3.52 35.79-.44 50.08-10.65 14.48-10.34 24.35-26.48 39.7-35.49 11.43-6.72 24.92-8.89 38.12-10.16 8.31-.8 16.9-1.23 25.22-.4 10.41 50.31 4.85 104.8-21.07 155.99z" fill="#fae26e"/></g><g><path d="m91.545 149.319c4.706-17.091 12.815-34.289 30.096-38.264 12.519-2.88 17.504 1.657 28.817-11.108 12.859-14.508 20.819-30.127 42.54-41.44 46.263-24.095 67.901 29.262 25.392 41.512-14.195 4.09-28.133 2.632-47.432 14.582-12.227 7.571-13.562 13.051-18.114 25.294-12.093 32.523-43.263 65.602-60.489 52.046-10.91-8.587-3.804-31.746-.81-42.622z" fill="#fff"/></g><g><path d="m198.216 39.118c-7.142 0-13.648-4.815-15.493-12.054-2.182-8.563 2.991-17.273 11.555-19.455.771-.196 1.535-.382 2.309-.563 8.608-2.004 17.21 3.343 19.216 11.949 2.336 10.025-5.168 20.123-17.587 20.123z" fill="#4d0033"/></g><g><path d="m255.629 512.137c-84.943.001-168.364-43.468-216.281-119.777-81.293-129.454-31.432-298.476 102.025-365.217 7.903-3.952 17.515-.749 21.467 7.154s.749 17.514-7.154 21.466c-155.405 77.717-167.717 299.431-15.942 391.686 105.548 64.155 243.607 30.482 307.763-75.063 44.607-73.388 43.032-167.263-4.014-239.156-41.698-63.756-114.095-102.608-191.202-101.194-9.021.137-16.128-7.032-16.284-15.71-.159-8.835 6.874-16.126 15.71-16.285 137.728-2.473 256.631 106.258 260.328 249.616 3.639 141.166-109.426 262.48-256.416 262.48z" fill="#4d0033"/></g><path d="m355.406 188.721c-34.362-34.362-33.219-33.819-37.19-35.468-2.62-1.085-5.432-1.461-8.382-1.041-7.082 1-6.608 2.063-41.055 36.509-6.249 6.248-6.249 16.379 0 22.627 6.248 6.249 16.379 6.249 22.627 0l4.687-4.687v25.373c0 22.056-17.943 40-39.999 40-22.108 0-40.001-17.89-40.001-40v-25.371l4.687 4.687c6.247 6.248 16.379 6.249 22.627 0 6.249-6.248 6.249-16.379 0-22.627-34.032-34.032-33.951-35.5-41.055-36.509-3.005-.425-5.807-.024-8.381 1.042-4.126 1.713-3.199 1.476-37.19 35.468-6.249 6.248-6.249 16.379 0 22.627 6.248 6.249 16.379 6.249 22.627 0l4.687-4.687v25.371c0 34.823 24.458 63.08 56.001 70.205v49.796c0 8.836 7.163 16 16 16s16-7.164 16-16v-49.816c32.022-7.298 55.999-35.985 55.999-70.186v-25.373c4.959 4.959 8.332 9.373 16 9.373 14.122 0 21.421-17.205 11.311-27.313z" fill="#4d0033"/></svg>