<svg id="Layer_1" enable-background="new 0 0 512.063 512.063" height="512" viewBox="0 0 512.063 512.063" width="512" xmlns="http://www.w3.org/2000/svg"><g><path d="m496.061 256.019c0 159.15-152.587 274.847-306.38 230.71-101.098-29.047-173.62-122.008-173.62-230.71 0-132.527 107.427-240 240-240 132.555 0 240 107.455 240 240z" fill="#aaef68"/></g><g><path d="m482.661 335.289c-32.593 93.148-121.313 160.73-226.6 160.73-91.063 0-171.987-50.99-212.74-128.8 23.339-35.664 73.805-62.226 112.95-46.09 11.22 4.63 20.8 12.48 31.49 18.23 27.18 14.61 61.76 14.43 88.79-.46 22.36-12.32 38.66-33.23 59.38-48.14s50.87-22.88 70.95-7.11c16.25 12.77 20.97 37.39 39.09 47.31 10.98 6 24 5.01 36.69 4.33z" fill="#99d856"/></g><g><path d="m91.512 149.304c4.706-17.091 12.815-34.289 30.096-38.264 12.519-2.88 17.504 1.657 28.817-11.108 12.859-14.508 20.819-30.127 42.54-41.44 46.263-24.095 67.901 29.262 25.392 41.512-14.195 4.09-28.133 2.632-47.432 14.582-12.227 7.571-13.562 13.051-18.114 25.294-12.093 32.523-43.263 65.602-60.489 52.046-10.91-8.587-3.804-31.746-.81-42.622z" fill="#fff"/></g><g><path d="m288.061 272.019h-144c-8.836 0-16-7.164-16-16s7.164-16 16-16h144c8.836 0 16 7.164 16 16s-7.163 16-16 16z" fill="#4d0033"/></g><g><path d="m296.061 344.019c-14.126 0-21.421-17.206-11.313-27.313l60.686-60.687-60.686-60.687c-6.249-6.248-6.249-16.379 0-22.627 6.248-6.249 16.379-6.249 22.627 0l72 72c6.249 6.248 6.249 16.379 0 22.627l-72 72c-3.124 3.125-7.219 4.687-11.314 4.687z" fill="#4d0033"/></g><g><path d="m496.061 273.045c-8.926 0-16.097-7.286-16.002-16.171.006-.571.006-1.137 0-1.708-.094-8.836 6.992-16.076 15.828-16.17 8.829-.074 16.076 6.992 16.17 15.828.009.8.009 1.592 0 2.392-.094 8.777-7.239 15.829-15.996 15.829z" fill="#4d0033"/></g><g><path d="m75.039 437.039c-100.045-100.045-100.059-261.98 0-362.039 57.67-57.671 136.644-82.559 213.02-72.981 110.894 13.895 194.631 96.38 217.557 196.786 1.967 8.615-3.422 17.193-12.037 19.16-8.616 1.965-17.193-3.422-19.16-12.037-39.215-171.742-252.618-232.434-376.753-108.301-87.337 87.338-87.337 229.447 0 316.785 85.807 85.806 227.953 88.829 316.784 0 30.057-30.057 50.849-67.75 60.129-109.007 1.939-8.621 10.501-14.037 19.121-12.099 8.621 1.939 14.038 10.5 12.099 19.121-43.778 194.627-287.447 267.926-430.76 124.612z" fill="#4d0033"/></g></svg>