<svg id="Layer_1" enable-background="new 0 0 512.036 512.036" height="512" viewBox="0 0 512.036 512.036" width="512" xmlns="http://www.w3.org/2000/svg"><g><circle cx="256.058" cy="256.02" fill="#80aaff" r="240"/></g><g><path d="m256.058 496.02c-63.401 0-121.793-24.613-165.41-66.11 9.994-32.551 26.992-56.965 55.69-74 4.72 11.78 16.25 20.11 29.72 20.11h176c17.67 0 32-14.33 32-32 0-76.972-1.407-92.851 3.554-101.747 14.086-25.279 48.792-28.766 77.696-29.013 9.31-.07 18.9.1 27.54 3.43 24.277 146.467-88.837 279.33-236.79 279.33z" fill="#6994ff"/></g><g><path d="m91.509 149.305c4.706-17.091 12.815-34.289 30.096-38.264 12.519-2.88 17.504 1.657 28.817-11.108 12.859-14.508 20.819-30.127 42.54-41.44 46.263-24.095 67.901 29.262 25.392 41.512-14.195 4.09-28.133 2.632-47.432 14.582-12.227 7.571-13.562 13.051-18.114 25.294-12.093 32.523-43.263 65.602-60.489 52.046-10.911-8.587-3.805-31.746-.81-42.622z" fill="#fff"/></g><g><path d="m496.034 268.676c-8.778 0-15.928-7.081-15.997-15.874-.004-.576-.015-1.145-.031-1.72-.251-8.833 6.705-16.197 15.538-16.449 8.837-.246 16.198 6.706 16.449 15.538.022.796.037 1.584.043 2.38.069 8.872-7.101 16.125-16.002 16.125z" fill="#4d0033"/></g><g><path d="m78.364 440.305c-101.849-98.205-104.812-260.114-6.59-361.979 56.622-58.722 135.135-85.031 211.656-76.847 111.129 11.873 196.353 92.823 221.104 192.792 2.124 8.578-3.108 17.253-11.686 19.376-8.581 2.123-17.253-3.108-19.376-11.686-21.695-87.63-96.437-158.3-193.442-168.665-134.603-14.39-250.383 92.3-247.934 226.801 2.844 156.265 159.843 259.203 302.698 205.688 70.514-26.393 124.914-87.942 140.648-164.366 1.782-8.655 10.242-14.226 18.898-12.445 8.655 1.782 14.227 10.243 12.445 18.898-40.735 197.85-284.04 271.649-428.421 132.433z" fill="#4d0033"/></g><path d="m303.51 266.16c2.657-3.232 3.967-7.447 3.546-11.716-.745-7.62-2.509-7.639-36.607-41.737-6.248-6.249-16.379-6.249-22.627 0-6.249 6.248-6.249 16.379 0 22.627l4.686 4.687h-108.45c-8.836 0-16 7.164-16 16s7.164 16 16 16h108.451l-4.686 4.687c-10.109 10.109-2.811 27.313 11.313 27.313 4.095 0 8.189-1.562 11.313-4.687 34.866-34.866 32.325-32.275 33.061-33.174z" fill="#4d0033"/><g><path d="m352.058 392.02h-176c-26.467 0-48-21.533-48-48v-32c0-8.836 7.164-16 16-16s16 7.164 16 16v32c0 8.822 7.178 16 16 16h176c8.822 0 16-7.178 16-16v-176c0-8.822-7.178-16-16-16h-176c-8.822 0-16 7.178-16 16v32c0 8.836-7.164 16-16 16s-16-7.164-16-16v-32c0-26.467 21.533-48 48-48h176c26.467 0 48 21.533 48 48v176c0 26.467-21.533 48-48 48z" fill="#4d0033"/></g></svg>