<svg id="Layer_1" enable-background="new 0 0 512.21 512.21" height="512" viewBox="0 0 512.21 512.21" width="512" xmlns="http://www.w3.org/2000/svg"><g><circle cx="256.093" cy="256.097" fill="#ffa4b8" r="240"/></g><g><path d="m256.093 496.097c63.401 0 121.793-24.613 165.41-66.11-9.994-32.551-26.992-56.965-55.69-74-4.72 11.78-16.25 20.11-29.72 20.11h-176c-17.67 0-32-14.33-32-32 0-76.972 1.407-92.851-3.554-101.747-14.086-25.279-48.792-28.766-77.696-29.013-9.31-.07-18.9.1-27.54 3.43-24.277 146.467 88.837 279.33 236.79 279.33z" fill="#fe929f"/></g><g><path d="m91.544 149.382c4.706-17.091 12.815-34.289 30.096-38.264 12.519-2.88 17.504 1.657 28.817-11.108 12.859-14.508 20.819-30.127 42.54-41.44 46.263-24.095 67.901 29.262 25.392 41.512-14.195 4.09-28.133 2.632-47.432 14.582-12.227 7.571-13.562 13.051-18.114 25.294-12.093 32.523-43.263 65.602-60.489 52.046-10.91-8.586-3.805-31.746-.81-42.622z" fill="#fff"/></g><path d="m166.531 152.287 4.876-4.876c6.249-6.248 6.249-16.379 0-22.627-6.248-6.249-16.379-6.249-22.627 0l-31.994 31.994c-3.68 3.678-5.439 9.128-4.382 14.448 1.251 6.333 1.573 5.383 36.376 40.185 6.247 6.248 16.379 6.249 22.627 0 6.249-6.248 6.249-16.379 0-22.627l-4.366-4.366c40.869 3.535 73.052 37.909 73.052 79.679 0 8.836 7.163 16 16 16s16-7.164 16-16c0-59.595-46.79-108.462-105.562-111.81z" fill="#4d0033"/><g><path d="m336.093 392.097h-176c-26.468 0-48-21.533-48-48v-80c0-8.836 7.163-16 16-16s16 7.164 16 16v80c0 8.822 7.178 16 16 16h176c8.822 0 16-7.178 16-16v-176c0-8.822-7.178-16-16-16h-80c-8.837 0-16-7.164-16-16s7.163-16 16-16h80c26.468 0 48 21.533 48 48v176c0 26.468-21.532 48-48 48z" fill="#4d0033"/></g><g><path d="m32.368 185.215c-11.125 0-18.956-11.179-14.949-21.698.284-.749.575-1.485.876-2.227 3.321-8.189 12.649-12.136 20.84-8.814 8.189 3.321 12.136 12.651 8.814 20.84-.215.53-.422 1.056-.626 1.589-2.43 6.384-8.507 10.31-14.955 10.31z" fill="#4d0033"/></g><g><path d="m256.158 512.156c-157.875 0-276.918-141.126-253.122-294.972 1.35-8.732 9.533-14.715 18.257-13.366 8.733 1.351 14.718 9.525 13.366 18.258-11.927 77.111 17.577 153.778 74.438 203.115 64.619 56.099 157.375 70.702 236.425 36.281 113.505-49.425 165.376-181.281 115.943-294.803-70.965-162.974-292.354-180.448-390.247-37.109-4.985 7.296-14.942 9.171-22.236 4.188-7.298-4.983-9.173-14.939-4.189-22.236 83.962-122.936 258.049-150.053 375.65-51.762 81.81 68.38 115.529 184.168 73.888 290.045-40.392 102.705-138.055 162.359-238.173 162.361z" fill="#4d0033"/></g></svg>