<svg id="Layer_1" enable-background="new 0 0 512.122 512.122" height="512" viewBox="0 0 512.122 512.122" width="512" xmlns="http://www.w3.org/2000/svg"><g><path d="m470.267 364.485c-81.297 160.336-304.736 178.063-409.79 30.7-27.749-38.756-44.39-87.142-44.39-139.1 0-132.517 107.414-240 240-240 179.672 0 294.384 190.013 214.18 348.4z" fill="#c0b3ff"/></g><g><path d="m479.557 343.765c-57.147 145.672-236.202 197.971-362.61 107.9-24.18-17.241-44.992-39.019-60.01-61.61 35.756-71.65 55.742-79.266 114.48-78.33 114.951 1.866 120.932 2.816 136.78-1.31 12.61-3.28 24.76-10.53 31.05-21.94 4.61-8.37 5.79-18.34 10.72-26.53 13.008-21.635 54.804-30.433 75.07-10.25 12.62 12.57 13.86 32.15 16.78 49.73 2.93 17.57 11.03 37.48 28.37 41.58 3.08.72 6.21.88 9.37.76z" fill="#b49ef2"/></g><g><path d="m91.538 149.37c4.706-17.091 12.815-34.289 30.096-38.264 12.519-2.88 17.504 1.657 28.817-11.108 12.859-14.508 20.819-30.127 42.54-41.44 46.263-24.095 67.901 29.262 25.392 41.512-14.195 4.09-28.133 2.632-47.432 14.582-12.227 7.571-13.562 13.051-18.114 25.294-12.093 32.523-43.263 65.602-60.489 52.046-10.911-8.586-3.805-31.746-.81-42.622z" fill="#fff"/></g><g><path d="m489.48 216.216c-7.266 0-13.84-4.98-15.565-12.359-.132-.561-.266-1.115-.408-1.673-2.189-8.561 2.977-17.275 11.537-19.465 8.57-2.188 17.276 2.977 19.465 11.538.197.771.384 1.536.564 2.311 2.352 10.056-5.294 19.648-15.593 19.648z" fill="#4d0033"/></g><g><path d="m255.868 512.122c-113.105 0-219.421-76.183-248.491-195.376-26.94-110.451 22.022-220.662 112.385-277.406 129.438-81.281 298.467-31.449 365.218 102.025 3.952 7.904.749 17.515-7.154 21.467-7.903 3.954-17.515.75-21.467-7.153-77.716-155.403-299.432-167.718-391.684-15.943-64.156 105.546-30.483 243.607 75.062 307.762 73.39 44.609 167.264 43.033 239.156-4.013 63.012-41.211 102.593-113.186 101.193-191.202-.161-8.943 7.042-16.287 16.003-16.287 8.703 0 15.835 6.975 15.991 15.713 2.528 140.566-110.485 260.381-256.212 260.413z" fill="#4d0033"/></g><g fill="#4d0033"><path d="m379.4 268.772c-6.248-6.249-16.379-6.249-22.627 0l-4.687 4.687v-73.373c0-8.836-7.163-16-16-16h-88c-8.837 0-16 7.164-16 16s7.163 16 16 16h72v57.373l-4.687-4.687c-6.248-6.249-16.379-6.249-22.627 0-6.249 6.248-6.249 16.379 0 22.627 34.293 34.293 33.22 33.824 37.191 35.468 2.403.997 5.053 1.4 7.7 1.139 7.555-.739 7.432-2.304 41.735-36.607 6.251-6.248 6.251-16.379.002-22.627z"/><path d="m264.087 296.085h-72v-57.373c4.959 4.959 8.332 9.373 16 9.373 14.125 0 21.424-17.205 11.313-27.313-34.509-34.509-33.223-33.817-37.19-35.468-2.689-1.113-5.505-1.45-8.382-1.041-7.071.998-6.59 2.044-41.055 36.509-6.249 6.248-6.249 16.379 0 22.627 6.248 6.249 16.379 6.249 22.627 0l4.687-4.687v73.373c0 8.836 7.163 16 16 16h88c8.837 0 16-7.164 16-16s-7.163-16-16-16z"/></g></svg>