<svg id="Layer_1" enable-background="new 0 0 512.063 512.063" height="512" viewBox="0 0 512.063 512.063" width="512" xmlns="http://www.w3.org/2000/svg"><g><path d="m496.061 256.019c0 66.417-27.142 128.784-74.72 174.02-96.855 92.128-251.093 87.36-342.02-11.67-95.251-103.504-81.416-267.248 31.25-353.24 41.251-31.489 91.886-49.11 145.49-49.11 132.555 0 240 107.456 240 240z" fill="#ffec8f"/></g><g><path d="m489.311 312.749c-45.142 186.327-280.691 246.442-409.99 105.62 15.873-30.031 41.284-45.771 64.9-47.93 14.3-1.31 29.13 2.06 42.87-2.12 20.5-6.23 32.33-26.83 45.63-43.63 13.734-17.348 44.713-47.368 66.66-44.68 28.651 3.483 60.176 55.314 103.83 56.68 29.77.92 57.82-22.29 86.1-23.94z" fill="#fae26e"/></g><g><path d="m91.512 149.304c4.706-17.091 12.815-34.289 30.096-38.264 12.519-2.88 17.504 1.657 28.817-11.108 12.859-14.508 20.819-30.127 42.54-41.44 46.263-24.095 67.901 29.262 25.392 41.512-14.195 4.09-28.133 2.632-47.432 14.582-12.227 7.571-13.562 13.051-18.114 25.294-12.093 32.523-43.263 65.602-60.489 52.046-10.91-8.586-3.804-31.746-.81-42.622z" fill="#fff"/></g><g><path d="m232.061 344.02c-14.126 0-21.421-17.206-11.313-27.313l60.686-60.687-60.686-60.687c-6.249-6.248-6.249-16.379 0-22.627 6.248-6.248 16.379-6.248 22.627 0l72 72c6.249 6.248 6.249 16.379 0 22.627l-72 72c-3.124 3.125-7.219 4.687-11.314 4.687z" fill="#4d0033"/></g><g><path d="m496.061 273.046c-8.945 0-16.097-7.305-16.002-16.171.006-.572.006-1.138 0-1.709-.094-8.836 6.992-16.075 15.828-16.17 8.829-.121 16.076 6.992 16.17 15.828.009.8.009 1.592 0 2.393-.094 8.777-7.239 15.829-15.996 15.829z" fill="#4d0033"/></g><g><path d="m75.039 437.039c-100.045-100.044-100.06-261.979 0-362.038 57.67-57.672 136.644-82.558 213.02-72.982 110.897 13.896 194.632 96.384 217.557 196.787 1.967 8.615-3.422 17.193-12.037 19.16-8.616 1.964-17.193-3.422-19.16-12.037-20.095-88.01-93.538-160.029-190.34-172.159-134.311-16.84-252.021 87.721-252.021 222.25 0 156.285 155.097 262.073 298.904 211.162 70.981-25.102 126.494-85.653 143.618-161.778 1.939-8.62 10.501-14.035 19.121-12.099 8.621 1.939 14.038 10.5 12.099 19.122-43.901 195.167-287.752 267.623-430.761 124.612z" fill="#4d0033"/></g></svg>