<svg id="Layer_1" enable-background="new 0 0 512.185 512.185" height="512" viewBox="0 0 512.185 512.185" width="512" xmlns="http://www.w3.org/2000/svg"><g><path d="m496.071 256.099c0 79.88-39.096 151.536-100.86 195.58-85.662 60.969-201.054 58.965-284.38-4.5-106.057-80.704-125.716-231.679-45.65-336.57 44.04-57.701 113.37-94.51 190.89-94.51 132.201 0 240 107.033 240 240z" fill="#ffa4b8"/></g><g><path d="m395.211 451.679c-85.662 60.969-201.054 58.965-284.38-4.5 1.35-19.979 11.121-44.836 29.3-53.37 26.57-12.49 59.95 12.72 86.36-.11 36.282-17.634 20.165-82.627 56.99-99.67 13.43-6.22 29.17-2.7 43.87-4.47 27.86-3.36 49.38-25.05 73.92-38.65 28.481-15.77 62.878-20.865 94.22-11.5 5.897 83.286-31.948 163.542-100.28 212.27z" fill="#fe929f"/></g><g><path d="m91.522 149.384c4.706-17.091 12.815-34.289 30.096-38.264 12.519-2.88 17.504 1.657 28.817-11.108 12.859-14.508 20.819-30.127 42.54-41.44 46.263-24.095 67.901 29.262 25.392 41.512-14.195 4.09-28.133 2.632-47.432 14.582-12.227 7.571-13.562 13.051-18.114 25.294-12.093 32.523-43.263 65.602-60.489 52.046-10.911-8.587-3.805-31.746-.81-42.622z" fill="#fff"/></g><g><path d="m28.759 195.103c-10.899 0-18.626-10.693-15.187-21.047.251-.755.507-1.499.773-2.249 2.956-8.327 12.102-12.68 20.431-9.726 8.328 2.956 12.682 12.104 9.726 20.431-.193.543-.378 1.082-.56 1.63-2.23 6.712-8.478 10.961-15.183 10.961z" fill="#4d0033"/></g><g><path d="m256.203 512.153c-153.625 0-271.179-133.696-254.652-283.842.967-8.784 8.882-15.124 17.654-14.153 8.784.967 15.12 8.871 14.153 17.655-8.537 77.563 24.296 152.859 83.266 199.657 67.291 53.431 160.626 63.592 237.788 25.887 110.974-54.226 157.142-188.626 102.916-299.601-77.997-159.621-299.924-167.554-391.5-19.972-4.66 7.509-14.523 9.818-22.031 5.16-7.508-4.659-9.818-14.523-5.159-22.031 78.49-126.497 251.226-161.22 373.021-68.173 84.689 64.697 123.505 178.878 86.525 286.528-36.814 107.173-136.678 172.882-241.981 172.885z" fill="#4d0033"/></g><path d="m396.446 202.238c4.071-4.953 4.797-11.957 1.736-17.678-1.567-2.927.005-.972-34.798-35.774-6.248-6.248-16.379-6.248-22.627 0-6.249 6.248-6.249 16.379 0 22.627l4.686 4.687h-25.373c-26.142 0-49.393 12.605-64 32.056-14.607-19.45-37.858-32.056-64-32.056h-25.373l4.686-4.687c6.249-6.248 6.249-16.379 0-22.627-6.248-6.248-16.379-6.248-22.627 0-34.321 34.321-33.2 32.791-34.798 35.774-1.976 3.696-2.441 8.067-1.199 12.182 1.594 5.255 1.103 3.777 35.997 38.67 6.249 6.249 16.379 6.248 22.627 0 6.249-6.248 6.249-16.379 0-22.627l-4.686-4.687h25.373c26.467 0 48 21.532 48 48v96c0 8.837 7.164 16 16 16s16-7.163 16-16v-96c0-26.468 21.533-48 48-48h25.373l-4.686 4.687c-6.249 6.248-6.249 16.379 0 22.627 6.249 6.249 16.379 6.248 22.627 0 34.784-34.784 32.32-32.27 33.062-33.174z" fill="#4d0033"/></svg>