<svg id="Layer_1" enable-background="new 0 0 512.346 512.346" height="512" viewBox="0 0 512.346 512.346" width="512" xmlns="http://www.w3.org/2000/svg"><g><path d="m470.466 364.507c-69.65 137.36-243.62 170.05-358.1 83.94-58.403-43.885-96.08-114.084-96.08-192.34 0-132.52 107.41-240 240-240 179.292 0 294.529 189.656 214.18 348.4z" fill="#ffec8f"/></g><g><path d="m470.466 364.507c-83.158 164-313.798 178.118-415.65 22.12 4.695-17.728 11.945-33.886 23.4-48.02 25.24-31.16 72.3-46.14 107.51-26.94 10.32 5.63 19.21 13.77 29.92 18.63 31.14 14.12 67.97-2.74 101.54 3.83 11.48 2.24 22.72 7.25 34.37 6.16s23.59-12.13 19.73-23.17c-2.72-7.77-11.46-11.33-17.32-17.1-9.39-9.24-10.59-25.58-2.66-36.1 12.14-16.09 40.03-17.07 47.09-35.95 2.69-7.19 1.42-15.16 1.28-22.84-.61-34.9 27.25-67.32 60.92-74.59 42.489 69.28 49.101 156.463 9.87 233.97z" fill="#fae26e"/></g><g><path d="m91.737 149.392c4.706-17.091 12.815-34.289 30.096-38.264 12.519-2.88 17.504 1.657 28.817-11.108 12.859-14.508 20.819-30.127 42.54-41.44 46.263-24.095 67.901 29.262 25.392 41.512-14.195 4.09-28.133 2.632-47.432 14.582-12.227 7.571-13.562 13.051-18.114 25.294-12.093 32.523-43.263 65.602-60.489 52.046-10.91-8.586-3.805-31.746-.81-42.622z" fill="#fff"/></g><g><path d="m345.766 494.81c-6.376 0-12.4-3.835-14.886-10.125-3.247-8.218.783-17.513 9.002-20.76.539-.213 1.07-.429 1.605-.652 8.154-3.411 17.525.437 20.934 8.588 3.41 8.152-.436 17.524-8.588 20.934-2.731 1.143-4.795 2.015-8.067 2.015z" fill="#4d0033"/></g><g><path d="m20.404 156.63c54.979-130.365 204.975-191.392 335.359-136.404 92.847 39.156 151.851 127.511 156.313 224.231 3.989 86.002-36.194 170.805-109.444 221.734-7.254 5.045-17.226 3.253-22.271-4.003-5.045-7.255-3.252-17.226 4.003-22.271 64.067-44.544 99.234-118.78 95.746-193.981-3.958-85.832-57.647-162.853-136.781-196.227-113.803-47.991-245.444 5.549-293.439 119.356-69.036 163.696 70.849 336.163 242.267 308.184 8.713-1.427 16.945 4.491 18.369 13.213 1.424 8.721-4.492 16.945-13.213 18.369-199.755 32.612-354.488-168.246-276.909-352.201z" fill="#4d0033"/></g><g fill="#4d0033"><path d="m385.49 234.708c-6.153-6.342-16.283-6.496-22.625-.344l-4.114 3.991c-5.517-31.798-25.067-59.248-54.564-74.559-7.843-4.071-17.501-1.013-21.572 6.83-4.07 7.843-1.013 17.501 6.83 21.572 18.48 9.592 31.558 26.167 36.648 46.275l-4.595-4.737c-6.152-6.341-16.28-6.497-22.625-.344-6.343 6.152-6.496 16.282-.344 22.625l31.51 32.482c6.148 6.337 16.28 6.498 22.625.344l32.482-31.511c6.343-6.152 6.497-16.281.344-22.624z"/><path d="m184.36 259.346c-.936-20.859 6.923-40.452 21.752-54.877l-1.805 6.35c-2.417 8.5 2.515 17.349 11.015 19.766 8.51 2.415 17.351-2.523 19.765-11.016l12.375-43.53c2.417-8.5-2.515-17.349-11.015-19.766l-43.53-12.375c-8.499-2.413-17.349 2.516-19.765 11.016s2.515 17.349 11.015 19.766l5.512 1.567c-24.779 20.676-38.776 51.335-37.288 84.534.394 8.793 7.831 15.658 16.701 15.268 8.828-.399 15.664-7.875 15.268-16.703z"/><path d="m295.053 316.778c-17.504 11.181-38.4 14.26-58.399 8.601l6.4-1.611c8.569-2.157 13.768-10.853 11.61-19.422-2.158-8.568-10.85-13.771-19.422-11.609l-43.885 11.048c-8.564 2.156-13.767 10.853-11.61 19.422l11.048 43.885c1.828 7.259 8.345 12.098 15.504 12.098 10.393 0 18.079-9.776 15.528-19.91l-1.399-5.557c30.288 11.114 63.829 7.925 91.852-9.974 7.446-4.757 9.628-14.65 4.871-22.098-4.758-7.448-14.651-9.629-22.098-4.873z"/></g></svg>