<svg id="Layer_1" enable-background="new 0 0 512.257 512.257" height="512" viewBox="0 0 512.257 512.257" width="512" xmlns="http://www.w3.org/2000/svg"><g><path d="m496.161 256.128c0 138.574-117.229 248.808-256.2 239.46-125.403-8.374-223.8-112.723-223.8-239.46 0-132.555 107.456-240 240-240 132.562 0 240 107.445 240 240z" fill="#ffbd7b"/></g><g><path d="m141.101 466.798c30.134-43.94 71.466-39.937 95.33-70.84 21.026-27.225 13.826-65.962 28.83-96.15 7.52-15.12 22.13-28.06 39.01-28.1 8.31-.02 16.34 3.04 24.62 3.71 13.63 1.1 27.64-4.74 36.47-15.18 5.01-5.94 8.33-13.11 12.97-19.33 24.342-32.576 79.754-34.812 117.78 10.23 3.373 186.467-195.36 303.01-355.01 215.66z" fill="#ffaa64"/></g><g><path d="m91.612 149.413c4.706-17.091 12.815-34.289 30.096-38.264 12.519-2.88 17.504 1.657 28.817-11.108 12.859-14.508 20.819-30.127 42.54-41.44 46.263-24.095 67.901 29.262 25.392 41.512-14.195 4.09-28.133 2.632-47.432 14.582-12.227 7.571-13.562 13.051-18.114 25.294-12.093 32.523-43.263 65.602-60.489 52.046-10.91-8.586-3.805-31.746-.81-42.622z" fill="#fff"/></g><g><path d="m256.159 384.127c-8.837 0-16-7.163-16-16v-144c0-8.837 7.163-16 16-16s16 7.163 16 16v144c0 8.837-7.163 16-16 16z" fill="#4d0033"/></g><g><path d="m328.159 232.127c-4.095 0-8.189-1.563-11.313-4.687l-60.687-60.687-60.687 60.687c-6.248 6.248-16.379 6.248-22.627 0-6.249-6.248-6.249-16.379 0-22.627l72-72c6.248-6.248 16.379-6.248 22.627 0l72 72c10.11 10.109 2.813 27.314-11.313 27.314z" fill="#4d0033"/></g><g><path d="m257.187 32.131c-.26 0-.806-.012-1.895-.001-8.842.137-16.07-7.004-16.158-15.84s7.004-16.07 15.84-16.158c.791-.009 1.576-.009 2.369 0 8.837.088 15.928 7.322 15.84 16.158-.086 8.783-7.233 15.841-15.996 15.841z" fill="#4d0033"/></g><g><path d="m256.159 512.131c-113.688 0-209.16-73.684-242.875-174.919-48.406-145.343 40.462-297.486 185.66-330.639 8.611-1.963 17.193 3.421 19.16 12.037 1.967 8.614-3.422 17.193-12.037 19.16-169.389 38.675-233.892 251.159-108.299 376.752 87.541 87.541 229.233 87.551 316.784 0 85.806-85.807 88.826-227.954 0-316.784-30.057-30.056-67.751-50.849-109.008-60.128-8.621-1.939-14.037-10.5-12.099-19.122 1.94-8.62 10.502-14.032 19.122-12.099 134.395 30.23 224.143 164.047 193.766 304.194-24.564 113.322-125.402 201.548-250.174 201.548z" fill="#4d0033"/></g></svg>