<svg id="Layer_1" enable-background="new 0 0 512.122 512.122" height="512" viewBox="0 0 512.122 512.122" width="512" xmlns="http://www.w3.org/2000/svg"><g><path d="m470.267 364.474c-76 149.88-276.2 175.14-387.79 57.43-43.76-46.118-66.39-105.181-66.39-165.83 0-132.52 107.41-240 240-240 179.711 0 294.365 190.063 214.18 348.4z" fill="#ffec8f"/></g><g><path d="m493.437 293.104c-3.77 24.01-11.35 48.03-23.17 71.37-76 149.88-276.2 175.14-387.79 57.43 7.402-25.139 30.947-52.922 56.7-52.78 8.8.06 17.2 3.39 25.62 5.97 23.274 7.127 74.765 14.375 84.32-8.37 2.32-5.55 1.68-11.83 1.47-17.85-1.088-29.903 13.283-48.393 24.81-48.01 3.6.13 6.87 2.01 10.1 3.61 39.398 19.451 44.923-24.862 68.42-37.31 8.99-4.76 20.44-4.53 29.23.61 12.61 7.36 18.56 22.97 31.02 30.61 23.956 14.677 53.891-5.84 79.27-5.28z" fill="#fae26e"/></g><g><path d="m91.537 149.359c4.706-17.091 12.815-34.289 30.096-38.264 12.519-2.88 17.504 1.657 28.817-11.108 12.859-14.508 20.819-30.127 42.54-41.44 46.263-24.095 67.901 29.262 25.392 41.512-14.195 4.09-28.133 2.632-47.432 14.582-12.227 7.571-13.562 13.051-18.114 25.294-12.093 32.523-43.263 65.602-60.489 52.046-10.91-8.586-3.804-31.746-.81-42.622z" fill="#fff"/></g><g><path d="m489.48 216.205c-7.266 0-13.84-4.98-15.565-12.359-.131-.561-.266-1.113-.408-1.67-2.19-8.562 2.974-17.276 11.534-19.468 8.563-2.185 17.276 2.974 19.468 11.534.197.771.383 1.539.564 2.314 2.356 10.074-5.313 19.649-15.593 19.649z" fill="#4d0033"/></g><g><path d="m255.868 512.111c-113.101 0-219.42-76.178-248.491-195.376-26.935-110.432 22.003-220.652 112.385-277.407 129.193-81.122 298.357-31.669 365.218 102.026 3.952 7.903.749 17.514-7.154 21.467-7.904 3.95-17.515.748-21.467-7.154-77.717-155.401-299.432-167.717-391.685-15.942-64.155 105.545-30.482 243.607 75.063 307.761 73.388 44.609 167.263 43.033 239.156-4.012 63.013-41.212 102.593-113.186 101.193-191.202-.161-8.943 7.042-16.287 16.003-16.287 8.703 0 15.835 6.975 15.991 15.713 2.529 140.632-110.606 260.413-256.212 260.413z" fill="#4d0033"/></g><path d="m208.087 240.074h-25.373l4.687-4.687c6.249-6.248 6.249-16.379 0-22.627-6.248-6.248-16.379-6.248-22.627 0-34.783 34.783-33.85 33.291-35.468 37.191-1.074 2.591-1.465 5.404-1.041 8.381 1 7.082 2.063 6.608 36.509 41.055 3.124 3.124 7.219 4.687 11.313 4.687 14.125 0 21.424-17.205 11.313-27.313l-4.687-4.687h25.373c8.837 0 16-7.163 16-16 .001-8.837-7.163-16-15.999-16z" fill="#4d0033"/><path d="m380.462 266.212c3.102-3.782 4.409-8.912 3.124-14.045-1.444-5.743-1.229-4.45-36.186-39.407-6.248-6.248-16.379-6.248-22.627 0-6.249 6.248-6.249 16.379 0 22.627l4.687 4.687h-25.373c-8.837 0-16 7.163-16 16s7.163 16 16 16h25.373l-4.687 4.687c-6.249 6.248-6.249 16.379 0 22.627 6.249 6.249 16.379 6.248 22.627 0 35.023-35.023 32.327-32.279 33.062-33.176z" fill="#4d0033"/><g><path d="m256.086 360.074c-8.837 0-16-7.163-16-16v-176c0-8.837 7.163-16 16-16s16 7.163 16 16v176c0 8.837-7.163 16-16 16z" fill="#4d0033"/></g></svg>