<svg id="Layer_1" enable-background="new 0 0 512.073 512.073" height="512" viewBox="0 0 512.073 512.073" width="512" xmlns="http://www.w3.org/2000/svg"><g><path d="m470.15 364.35c-76 149.88-276.2 175.14-387.79 57.43-43.76-46.118-66.39-105.181-66.39-165.83 0-132.52 107.41-240 240-240 179.711 0 294.366 190.063 214.18 348.4z" fill="#ffa4b8"/></g><g><path d="m493.32 292.98c-3.77 24.01-11.35 48.03-23.17 71.37-76 149.88-276.2 175.14-387.79 57.43 7.402-25.139 30.947-52.922 56.7-52.78 8.8.06 17.2 3.39 25.62 5.97 23.274 7.127 74.765 14.375 84.32-8.37 2.32-5.55 1.68-11.83 1.47-17.85-1.088-29.903 13.283-48.393 24.81-48.01 3.6.13 6.87 2.01 10.1 3.61 39.398 19.451 44.923-24.862 68.42-37.31 8.99-4.76 20.44-4.53 29.23.61 12.61 7.36 18.56 22.97 31.02 30.61 23.957 14.677 53.892-5.84 79.27-5.28z" fill="#fe929f"/></g><g><path d="m91.481 149.225c4.706-17.091 12.815-34.289 30.096-38.264 12.519-2.88 17.504 1.657 28.817-11.108 12.859-14.508 20.819-30.127 42.54-41.44 46.263-24.095 67.901 29.262 25.392 41.512-14.195 4.09-28.133 2.632-47.432 14.582-12.227 7.571-13.562 13.051-18.114 25.294-12.093 32.523-43.263 65.602-60.489 52.046-10.91-8.586-3.805-31.746-.81-42.622z" fill="#fff"/></g><g><path d="m371.66 64.134c-7.597-4.515-10.094-14.333-5.579-21.929 4.515-7.597 14.332-10.094 21.929-5.579.681.404 1.351.812 2.023 1.229 16.853 10.474 3.192 39.108-18.373 26.279z" fill="#4d0033"/></g><g><path d="m7.344 316.657c-19.326-79.233.425-159.648 48.28-219.938 69.473-87.545 183.454-116.252 281.161-83.694 8.383 2.794 12.914 11.854 10.121 20.238-2.794 8.383-11.853 12.91-20.238 10.121-85.642-28.541-185.334-3.192-245.979 73.229-84.75 106.77-55.095 261.437 59.014 330.798 51.204 31.123 111.388 40.362 169.428 26.207 118.102-28.806 194.266-148.825 164.542-270.699-10.072-41.297-31.483-78.644-61.917-108.001-6.359-6.135-6.542-16.265-.407-22.624 6.135-6.36 16.263-6.542 22.624-.407 99.137 95.634 106.331 256.601 7.574 360.586-139.04 146.401-386.195 81.021-434.203-115.816z" fill="#4d0033"/></g><g fill="#4d0033"><path d="m276.717 235.254c6.249 6.249 16.379 6.248 22.627 0l20.687-20.687v6.628c0 8.837 7.163 16 16 16s16-7.163 16-16c0-49.31.035-45.675-.08-46.835-.468-4.774-3.107-9.365-7.698-12.127-5.111-3.068-4.066-2.292-53.477-2.292-8.837 0-16 7.163-16 16s7.163 16 16 16h6.628l-20.687 20.687c-6.249 6.247-6.249 16.378 0 22.626z"/><path d="m214.657 191.94h6.628c8.837 0 16-7.163 16-16s-7.163-16-16-16h-45.255c-4.782 0-9.572 2.144-12.777 6.398-4.306 5.718-3.223 6.117-3.223 54.857 0 8.837 7.163 16 16 16s16-7.163 16-16v-6.628l20.687 20.687c3.124 3.124 7.219 4.687 11.313 4.687 14.125 0 21.424-17.205 11.313-27.313z"/><path d="m235.344 276.627c-6.248-6.248-16.379-6.248-22.627 0l-20.687 20.687v-6.628c0-8.837-7.163-16-16-16s-16 7.163-16 16v45.25c-.002 5.114 2.537 10.245 7.12 13.313 5.369 3.592 4.936 2.692 54.135 2.692 8.837 0 16-7.163 16-16s-7.163-16-16-16h-6.628l20.687-20.687c6.249-6.248 6.249-16.379 0-22.627z"/><path d="m349.337 344.822c3.585-5.36 2.693-4.945 2.693-54.137 0-8.837-7.163-16-16-16s-16 7.163-16 16v6.628l-20.687-20.687c-6.248-6.248-16.379-6.248-22.627 0-6.249 6.248-6.249 16.379 0 22.627l20.687 20.687h-6.628c-8.837 0-16 7.163-16 16s7.163 16 16 16c49.252 0 48.763.897 54.135-2.692 1.627-1.088 3.162-2.538 4.427-4.426z"/></g></svg>