<svg id="Layer_1" enable-background="new 0 0 512.061 512.061" height="512" viewBox="0 0 512.061 512.061" width="512" xmlns="http://www.w3.org/2000/svg"><g><path d="m470.238 364.418c-76 149.88-276.2 175.14-387.79 57.43-43.76-46.118-66.39-105.181-66.39-165.83 0-132.52 107.41-240 240-240 179.712 0 294.366 190.062 214.18 348.4z" fill="#ffa4b8"/></g><g><path d="m493.408 293.048c-3.77 24.01-11.35 48.03-23.17 71.37-76 149.88-276.2 175.14-387.79 57.43 7.402-25.139 30.947-52.922 56.7-52.78 8.8.06 17.2 3.39 25.62 5.97 23.274 7.127 74.765 14.375 84.32-8.37 2.32-5.55 1.68-11.83 1.47-17.85-1.088-29.903 13.283-48.393 24.81-48.01 3.6.13 6.87 2.01 10.1 3.61 39.398 19.451 44.923-24.862 68.42-37.31 8.99-4.76 20.44-4.53 29.23.61 12.61 7.36 18.56 22.97 31.02 30.61 23.957 14.676 53.892-5.841 79.27-5.28z" fill="#fe929f"/></g><g><path d="m91.509 149.303c4.706-17.091 12.815-34.289 30.096-38.264 12.519-2.88 17.504 1.657 28.817-11.108 12.859-14.508 20.819-30.127 42.54-41.44 46.263-24.095 67.901 29.262 25.392 41.512-14.195 4.09-28.133 2.632-47.432 14.582-12.227 7.571-13.562 13.051-18.114 25.294-12.093 32.523-43.263 65.602-60.489 52.046-10.91-8.587-3.804-31.746-.81-42.622z" fill="#fff"/></g><g><path d="m496.061 271.726c-8.886 0-16.045-7.228-16.001-16.08.003-.575 0-1.145-.009-1.721-.138-8.835 6.912-16.109 15.748-16.248 8.998-.103 16.112 7.032 16.249 15.748.013.797.017 1.585.013 2.381-.046 8.809-7.202 15.92-16 15.92z" fill="#4d0033"/></g><g><path d="m76.035 438.029c-100.592-99.495-101.496-261.426-1.987-362.035 57.528-58.162 136.429-83.271 212.616-74.149 110.973 13.285 195.159 95.316 218.634 195.589 2.015 8.604-3.328 17.212-11.932 19.227-8.605 2.015-17.212-3.329-19.226-11.932-40.136-171.44-253.836-231.097-377.341-106.232-86.856 87.816-86.076 229.923 1.739 316.78 85.541 84.607 227.799 88.226 316.778-1.738 29.891-30.221 50.477-68.028 59.53-109.336 1.892-8.632 10.419-14.099 19.055-12.203 8.631 1.892 14.095 10.423 12.203 19.055-43.002 196.199-286.745 268.732-430.069 126.974z" fill="#4d0033"/></g><path d="m380.434 266.157c4.088-4.973 4.786-11.977 1.736-17.678-1.615-3.014-.228-1.205-34.798-35.774-6.248-6.248-16.379-6.248-22.627 0-6.249 6.248-6.249 16.379 0 22.627l4.686 4.687h-146.746l4.686-4.687c6.249-6.248 6.249-16.379 0-22.627-6.248-6.248-16.379-6.248-22.627 0-35.728 35.728-32.411 32.312-33.466 33.715-2.444 3.247-3.679 7.451-3.036 11.901 1.024 7.073 2.157 6.666 36.502 41.011 3.124 3.124 7.219 4.687 11.313 4.687 14.126 0 21.421-17.206 11.313-27.313l-4.686-4.687h146.746l-4.686 4.687c-6.249 6.248-6.249 16.379 0 22.627 6.249 6.249 16.379 6.248 22.627 0 34.785-34.786 32.321-32.272 33.063-33.176z" fill="#4d0033"/></svg>