<svg id="Layer_1" enable-background="new 0 0 512.024 512.024" height="512" viewBox="0 0 512.024 512.024" width="512" xmlns="http://www.w3.org/2000/svg"><g><path d="m470.113 364.376c-76 149.88-276.2 175.14-387.79 57.43-44.278-46.665-66.39-105.937-66.39-165.83 0-132.52 107.41-240 240-240 179.273 0 294.564 189.669 214.18 348.4z" fill="#ffa4b8"/></g><g><path d="m470.113 364.376c-82.515 162.728-311.209 178.445-414.23 24.27 35.168-45.913 97.608-57.981 151.44-39.22 20.2 7.04 42.03 18.19 61.73 9.86 18.09-7.64 25.96-28.37 33.29-46.59 7.33-18.21 19.03-38.29 38.52-40.69 18.45-2.26 35.83 12.86 54.24 10.31 22.26-3.07 32.92-28.87 51.37-41.69 12.902-8.962 31.153-11.902 48.66-5.64 4.083 44.484-4.48 88.831-25.02 129.39z" fill="#fe929f"/></g><g><path d="m91.444 149.251c4.706-17.091 12.815-34.289 30.096-38.264 12.519-2.88 17.504 1.657 28.817-11.108 12.859-14.508 20.819-30.127 42.54-41.44 46.263-24.095 67.901 29.262 25.392 41.512-14.195 4.09-28.133 2.632-47.432 14.582-12.227 7.571-13.562 13.051-18.114 25.294-12.093 32.523-43.263 65.602-60.489 52.046-10.91-8.587-3.805-31.746-.81-42.622z" fill="#fff"/></g><g><path d="m425.217 101.813c-5.988 0-9.319-2.781-12.578-5.934-6.354-6.141-6.528-16.27-.388-22.624 6.139-6.354 16.268-6.529 22.624-.388.571.552 1.13 1.104 1.689 1.666 10.041 10.101 2.776 27.28-11.347 27.28z" fill="#4d0033"/></g><g><path d="m255.964 512.024c-140.611.002-254.922-113.286-255.942-254.147-.588-81.287 36.905-155.105 97.555-202.946 87.721-69.212 205.26-70.968 292.871-16.809 7.517 4.646 9.843 14.506 5.196 22.022-4.645 7.515-14.505 9.846-22.022 5.196-147.795-91.361-342.887 14.696-341.601 192.305.894 123.428 102.004 223.25 225.617 222.372 121.652-.881 223.282-100.208 222.371-225.616-.307-42.506-12.558-83.774-35.427-119.344-4.779-7.434-2.628-17.333 4.805-22.111 7.435-4.778 17.332-2.629 22.111 4.805 74.498 115.87 44.485 274.177-75.531 352.668-40.289 26.35-88.492 41.605-140.003 41.605z" fill="#4d0033"/></g><path d="m351.966 175.431c-.285-8.483-7.167-15.395-15.85-15.458-.837-.01 5.404-.006-45.378-.006-8.837 0-16 7.163-16 16s7.163 16 16 16h5.66l-40.405 39.028-40.406-39.028h5.661c8.836 0 16-7.163 16-16s-7.164-16-16-16c-50.073 0-47.507-.425-51.5 1.266-3.507 1.485-6.546 4.299-8.271 8.037-1.993 4.31-1.483 2.656-1.483 51.952 0 8.837 7.164 16 16 16s16-7.163 16-16v-7.555l40.97 39.575c-29.618 28.609-20.411 19.657-22.225 21.471-25.012 25.011-25.015 65.496 0 90.51 25.011 25.011 65.495 25.014 90.509 0 25.707-25.706 24.233-66.993-.197-90.704l-22.027-21.276 40.97-39.574v7.555c0 8.837 7.163 16 16 16s16-7.163 16-16c-.001-36.652.014-44.518-.028-45.793zm-95.972 176.535c-28.413 0-42.629-34.472-22.718-54.537l22.717-21.943 22.715 21.94c19.869 20.018 5.794 54.54-22.714 54.54z" fill="#4d0033"/></svg>