<svg id="Layer_1" enable-background="new 0 0 512.138 512.138" height="512" viewBox="0 0 512.138 512.138" width="512" xmlns="http://www.w3.org/2000/svg"><g><path d="m470.276 364.436c-81.757 161.249-305.643 177.264-409.79 30.7-29.695-41.718-44.39-90.252-44.39-139.1 0-132.52 107.41-240 240-240 179.718 0 294.356 190.06 214.18 348.4z" fill="#ffec8f"/></g><g><path d="m470.276 364.436c-81.757 161.249-305.643 177.264-409.79 30.7-.196-.276-.199-.106.13-.69 32.396-55.442 90.363-76.045 136.02-63.56 23.856 6.514 57.061 28.27 83.81 12.54 18.53-10.89 23.2-35.01 34.01-53.59 10.04-17.25 27.75-31.02 47.69-32.01 19.49-.97 40.49 9.72 57.6.32 18.061-9.937 34.961-51.48 69.42-59.24 13.73 54.93 7.746 112.926-18.89 165.53z" fill="#fae26e"/></g><g><path d="m91.547 149.321c4.706-17.091 12.815-34.289 30.096-38.264 12.519-2.88 17.504 1.657 28.817-11.108 12.859-14.508 20.819-30.127 42.54-41.44 46.263-24.095 67.901 29.262 25.392 41.512-14.195 4.09-28.133 2.632-47.432 14.582-12.227 7.571-13.562 13.051-18.114 25.294-12.093 32.523-43.263 65.602-60.489 52.046-10.911-8.587-3.805-31.746-.81-42.622z" fill="#fff"/></g><g><path d="m198.217 39.121c-7.137 0-13.643-4.81-15.49-12.043-2.188-8.562 2.979-17.275 11.541-19.463.778-.199 1.549-.388 2.33-.568 8.614-2 17.208 3.354 19.208 11.961 2.337 10.058-5.219 20.113-17.589 20.113z" fill="#4d0033"/></g><g><path d="m255.63 512.138c-86.907 0-169.397-45.115-216.281-119.777-81.295-129.457-31.43-298.474 102.025-365.217 7.904-3.952 17.515-.749 21.467 7.154s.749 17.514-7.154 21.467c-155.405 77.717-167.717 299.428-15.942 391.686 105.791 64.302 243.448 30.74 307.763-75.064 63.115-103.836 32.178-242.572-75.064-307.763-36.323-22.078-77.85-33.313-120.15-32.586-8.836.141-16.126-6.874-16.285-15.709-.159-8.836 6.874-16.127 15.709-16.285 137.905-2.548 256.638 106.543 260.328 249.616 3.64 141.179-109.443 262.478-256.416 262.478z" fill="#4d0033"/></g><path d="m355.407 188.722c-34.854-34.854-33.332-33.874-37.197-35.47-3.831-1.586-8.25-1.649-12.234 0-4.045 1.67-3.053 1.326-37.197 35.47-6.249 6.248-6.249 16.379 0 22.627 6.248 6.248 16.379 6.248 22.627 0l4.687-4.687v89.372c0 35.415-43.154 53.412-68.284 28.285-7.555-7.556-11.716-17.601-11.716-28.285v-89.37c4.959 4.959 8.332 9.373 16 9.373 14.125 0 21.424-17.205 11.313-27.313-34.855-34.855-32.271-32.321-33.177-33.063-3.133-2.576-7.347-3.976-11.709-3.543-7.683.749-7.93 2.797-41.741 36.607-6.249 6.248-6.249 16.379 0 22.627 6.248 6.248 16.379 6.248 22.627 0l4.687-4.687v89.37c0 39.792 32.202 72.002 72.001 72 39.7 0 71.999-32.299 71.999-72v-89.372c4.959 4.959 8.332 9.373 16 9.373 14.125 0 21.424-17.205 11.314-27.314z" fill="#4d0033"/></svg>