<svg id="Layer_1" enable-background="new 0 0 512.452 512.452" height="512" viewBox="0 0 512.452 512.452" width="512" xmlns="http://www.w3.org/2000/svg"><g><path d="m496.37 258.594c-1.03 107.35-74.51 204.44-183.67 230.81-174.648 42.202-330.77-115.563-290.02-288.34 41.556-175.771 255.363-244.201 391.11-126.1 53.355 46.079 83.263 113.92 82.58 183.63z" fill="#ffec8f"/></g><g><path d="m496.37 258.594c-1.03 107.35-74.51 204.44-183.67 230.81-93.32 22.55-181.35-11.99-236.89-75.42 10.411-29.643 31.156-63.608 57.71-82.51 21.48-15.28 49.63-22.65 74.87-15.04 25.71 7.75 47.12 30.05 73.97 29.95 44.255-.161 72.94-60.827 118.07-51.12 6.5 1.4 12.65 4.4 19.271 5.07 20.33 2.05 35.41-17.18 51.83-29.35 7.489-5.56 15.939-9.7 24.839-12.39z" fill="#fae26e"/></g><g><path d="m91.621 149.419c4.706-17.091 12.815-34.289 30.096-38.264 12.519-2.88 17.504 1.657 28.817-11.108 12.859-14.508 20.819-30.127 42.54-41.44 46.263-24.095 67.901 29.262 25.392 41.512-14.195 4.09-28.133 2.632-47.432 14.582-12.227 7.571-13.562 13.051-18.114 25.294-12.093 32.523-43.263 65.602-60.489 52.046-10.911-8.587-3.805-31.746-.81-42.622z" fill="#fff"/></g><g><path d="m358.264 455.581c.521-.263 1.035-.527 1.551-.8 7.813-4.127 17.493-1.139 21.62 6.675s1.139 17.493-6.675 21.62c-22.56 11.912-34.579-18.38-16.496-27.495z" fill="#4d0033"/></g><g><path d="m12.459 178.25c43.035-134.78 186.933-209.045 321.738-166.005 77.693 24.808 136.025 83.579 162.533 155.844 38.473 104.852 3.648 217.109-75.125 283.57-6.755 5.698-16.85 4.841-22.546-1.912-5.698-6.754-4.843-16.849 1.911-22.547 68.996-58.211 99.324-156.503 65.718-248.09-46.617-127.086-193.522-183.739-313.068-122.059-138.876 71.655-161.794 257.982-50.601 362.454 54.968 51.673 134.261 73.103 209.621 53.45 8.551-2.228 17.29 2.895 19.52 11.445s-2.895 17.29-11.445 19.52c-194.225 50.648-369.646-133.401-308.256-325.67z" fill="#4d0033"/></g><path d="m411.483 268.819c-6.248-6.248-16.379-6.248-22.627 0l-4.687 4.687v-25.371c0-39.701-32.3-72-72.001-72-39.7 0-71.999 32.299-71.999 72v16c0 22.056-17.943 40-39.999 40-22.057 0-40.001-17.944-40.001-40v-25.371c4.959 4.959 8.332 9.373 16 9.373 14.125 0 21.424-17.205 11.313-27.313-34.348-34.348-33.235-33.834-37.196-35.47-3.91-1.617-8.32-1.619-12.234 0-3.85 1.59-2.304.578-37.196 35.47-6.249 6.248-6.249 16.379 0 22.627 6.248 6.248 16.379 6.248 22.627 0l4.687-4.687v25.371c0 39.701 32.3 72 72.001 72 39.7 0 71.999-32.299 71.999-72 0-5.596 0-10.404 0-16 0-22.056 17.943-40 39.999-40 22.057 0 40.001 17.944 40.001 40v25.371l-4.687-4.687c-6.248-6.248-16.379-6.248-22.627 0-6.249 6.248-6.249 16.379 0 22.627 35.023 35.023 32.28 32.328 33.176 33.063 3.661 3.005 8.539 4.256 13.262 3.313 6.319-1.243 5.451-1.639 40.188-36.376 6.25-6.249 6.25-16.379.001-22.627z" fill="#4d0033"/></svg>