<svg id="Layer_1" enable-background="new 0 0 511.91 511.91" height="512" viewBox="0 0 511.91 511.91" width="512" xmlns="http://www.w3.org/2000/svg"><g><path d="m470.659 364.418c-76 149.88-276.2 175.14-387.79 57.43-43.76-46.118-66.39-105.181-66.39-165.83 0-132.52 107.41-240 240-240 179.711 0 294.365 190.062 214.18 348.4z" fill="#80aaff"/></g><g><path d="m493.828 293.048c-3.77 24.01-11.35 48.03-23.17 71.37-76 149.88-276.2 175.14-387.79 57.43 7.402-25.139 30.947-52.922 56.7-52.78 8.8.06 17.2 3.39 25.62 5.97 23.274 7.127 74.765 14.375 84.32-8.37 2.32-5.55 1.68-11.83 1.47-17.85-1.088-29.903 13.283-48.393 24.81-48.01 3.6.13 6.87 2.01 10.1 3.61 39.398 19.451 44.923-24.862 68.42-37.31 8.99-4.76 20.44-4.53 29.23.61 12.61 7.36 18.56 22.97 31.02 30.61 23.957 14.676 53.892-5.841 79.27-5.28z" fill="#6994ff"/></g><g><path d="m91.929 149.303c4.706-17.091 12.815-34.289 30.096-38.264 12.519-2.88 17.504 1.657 28.817-11.108 12.859-14.508 20.819-30.127 42.54-41.44 46.263-24.095 67.901 29.262 25.392 41.512-14.195 4.09-28.133 2.632-47.432 14.582-12.227 7.571-13.562 13.051-18.114 25.294-12.093 32.523-43.263 65.602-60.489 52.046-10.91-8.586-3.804-31.746-.81-42.622z" fill="#fff"/></g><g><path d="m494.225 304.986c-9.797 0-17.246-8.674-15.855-18.292.083-.572.159-1.139.23-1.713 1.089-8.769 9.073-14.998 17.849-13.907 8.769 1.088 14.996 9.079 13.908 17.849-.098.787-.203 1.566-.316 2.352-1.153 7.968-7.994 13.711-15.816 13.711z" fill="#4d0033"/></g><g><path d="m52.972 411.328c-85.838-112.475-64.29-272.971 48.196-358.815 64.63-49.325 146.167-63.701 220.84-43.975 108.057 28.534 180.067 121.434 189.423 223.997.802 8.8-5.681 16.584-14.48 17.387-8.813.803-16.585-5.681-17.388-14.48-8.2-89.898-71.401-171.057-165.727-195.964-130.951-34.601-261.468 53.485-279.365 186.72-20.803 154.881 118.811 280.387 268.133 249.075 73.692-15.43 136.771-68.053 163.876-141.218 3.069-8.287 12.273-12.519 20.562-9.446 8.286 3.07 12.515 12.275 9.445 20.563-69.638 187.979-320.945 226.761-443.515 66.156z" fill="#4d0033"/></g><path d="m340.854 298.157c4.088-4.974 4.784-11.969 1.736-17.678-1.553-2.898.185-.792-34.798-35.774-6.248-6.248-16.379-6.248-22.627 0-6.249 6.248-6.249 16.379 0 22.627l4.686 4.687h-64.451l73.93-68.243c10.673-9.852 3.685-27.757-10.853-27.757h-72c-8.836 0-16 7.163-16 16s7.164 16 16 16h31.078l-73.93 68.243c-10.673 9.852-3.685 27.757 10.853 27.757h105.373l-4.686 4.687c-10.109 10.109-2.811 27.313 11.313 27.313 4.095 0 8.189-1.563 11.313-4.687 34.952-34.952 32.329-32.28 33.063-33.175z" fill="#4d0033"/></svg>