<svg id="Layer_1" enable-background="new 0 0 512.379 512.379" height="512" viewBox="0 0 512.379 512.379" width="512" xmlns="http://www.w3.org/2000/svg"><g><path d="m470.324 364.59c-76.168 150.205-276.45 174.877-387.79 57.43-43.76-46.118-66.39-105.181-66.39-165.83 0-132.52 107.41-240 240-240 179.466 0 294.448 189.818 214.18 348.4z" fill="#ffa4b8"/></g><g><path d="m488.304 317.68c-48.233 180.585-270.754 235.427-398.54 111.649 10.042-18.035 28.966-35.883 49.47-35.77 17.16.116 36.715 14.908 79.74 12.62 11.86-.641 25.6-4.07 30.2-15.021 2.32-5.55 1.68-11.83 1.47-17.85-1.077-29.602 13.112-48.398 24.81-48.01 7.74.279 18.032 11.048 33.1 7.93 20.5-4.23 26.92-31.83 45.42-41.63 8.99-4.76 20.44-4.53 29.23.609 21.889 12.776 21.02 46.047 72.73 32.69 10.71-2.747 21.48-6.438 32.37-7.217z" fill="#fe929f"/></g><g><path d="m91.595 149.475c4.706-17.091 12.815-34.289 30.096-38.264 12.519-2.88 17.504 1.657 28.817-11.108 12.859-14.508 20.819-30.127 42.54-41.44 46.263-24.095 67.901 29.262 25.392 41.512-14.195 4.09-28.133 2.632-47.432 14.582-12.227 7.571-13.562 13.051-18.114 25.294-12.093 32.523-43.263 65.602-60.489 52.046-10.911-8.587-3.805-31.746-.81-42.622z" fill="#fff"/></g><g><path d="m253.796 32.2c-8.72 0-15.856-6.999-15.993-15.749-.138-8.836 6.912-16.11 15.748-16.249.8-.013 1.59-.016 2.392-.013 8.836.051 15.959 7.255 15.908 16.091-.05 8.837-7.233 15.937-16.091 15.909-1.082-.008-1.598.011-1.964.011z" fill="#4d0033"/></g><g><path d="m256.104 512.191c-113.638.003-208.463-73.561-242.388-173.587-49.089-144.746 38.542-297.635 183.844-331.654 8.605-2.02 17.211 3.328 19.226 11.932s-3.328 17.212-11.932 19.227c-169.177 39.604-232.51 252.439-106.23 377.34 41.182 40.733 96.904 65.024 158.75 64.739 156.271-.86 261.219-156.515 209.52-300.06-25.494-70.842-86.346-126.02-162.564-142.728-8.632-1.892-14.095-10.423-12.203-19.055s10.419-14.093 19.055-12.203c87.16 19.105 156.669 82.139 185.821 163.146 60.212 167.186-63.96 342.903-240.899 342.903z" fill="#4d0033"/></g><path d="m380.519 306.328c4.088-4.974 4.784-11.969 1.736-17.678-1.613-3.012-.46-1.437-34.798-35.774-6.248-6.248-16.379-6.248-22.627 0-6.249 6.248-6.249 16.379 0 22.627l4.686 4.687h-57.373v-57.373l4.687 4.687c6.249 6.249 16.379 6.248 22.627 0 6.249-6.248 6.249-16.379 0-22.627-34.746-34.746-32.609-32.907-35.101-34.399-3.471-2.085-7.81-2.88-12.169-1.774-5.719 1.47-4.371 1.188-39.357 36.174-6.249 6.248-6.249 16.379 0 22.627 6.248 6.248 16.379 6.248 22.627 0l4.687-4.687v57.373h-57.373l4.686-4.687c6.249-6.248 6.249-16.379 0-22.627-6.248-6.248-16.379-6.248-22.627 0-34.939 34.939-34.735 33.662-36.18 39.384-1.112 4.399-.267 8.736 1.776 12.135 1.5 2.511-.123.581 34.404 35.108 3.124 3.124 7.219 4.687 11.313 4.687 14.126 0 21.421-17.206 11.313-27.313l-4.686-4.687h146.746l-4.686 4.687c-6.249 6.248-6.249 16.379 0 22.627 6.249 6.249 16.379 6.248 22.627 0 34.951-34.953 32.329-32.281 33.062-33.177z" fill="#4d0033"/></svg>