<svg id="Layer_1" enable-background="new 0 0 512.36 512.36" height="512" viewBox="0 0 512.36 512.36" width="512" xmlns="http://www.w3.org/2000/svg"><g><path d="m470.32 364.58c-69.65 137.36-243.62 170.05-358.1 83.94-58.224-43.747-96.08-113.875-96.08-192.341 0-132.52 107.41-240 240-240 179.5 0 294.443 189.822 214.18 348.401z" fill="#ffa4b8"/></g><g><path d="m470.32 364.58c-79.106 156.01-291.518 176.214-399.56 44.07 32.29-36.318 70.123-27.484 109.45-25.13 26.23 1.56 55.91-1.92 72.43-22.351 8.59-10.62 13-25.18 24.68-32.27 13.74-8.351 31.77-2.9 47.22-7.37 19.76-5.72 30.99-25.78 45.01-40.84 18.23-19.59 43-31.79 68.05-41.2 18.32-6.89 38.18-12.561 57.28-8.96 4.989 44.701-2.696 90.852-24.56 134.051z" fill="#fe929f"/></g><g><path d="m91.69 149.405c4.706-17.091 12.815-34.289 30.096-38.264 12.519-2.88 17.504 1.657 28.817-11.108 12.859-14.508 20.819-30.127 42.54-41.44 46.263-24.095 67.901 29.262 25.392 41.512-14.195 4.09-28.133 2.632-47.432 14.582-12.227 7.571-13.562 13.051-18.114 25.294-12.093 32.523-43.263 65.602-60.489 52.046-10.91-8.587-3.804-31.746-.81-42.622z" fill="#fff"/></g><g><path d="m313.483 505.297c-7.236 0-13.796-4.942-15.549-12.29-2.052-8.595 3.253-17.226 11.849-19.276.559-.134 1.111-.272 1.667-.417 8.547-2.229 17.29 2.895 19.519 11.446 2.647 10.157-4.931 20.537-17.486 20.537z" fill="#4d0033"/></g><g><path d="m36.821 124.458c72.812-121.311 229.916-160.576 351.244-87.753 86.395 51.855 132.353 147.653 123.131 244.033-8.179 85.705-59.92 163.996-139.617 204.086-7.894 3.976-17.512.791-21.483-7.103-3.972-7.895-.791-17.513 7.103-21.483 69.703-35.063 114.992-103.603 122.143-178.544 8.185-85.532-34.107-169.354-107.744-213.552-105.901-63.563-243.776-29.119-307.339 76.784-91.49 152.427 22.884 342.805 196.39 339.267 8.829-.145 16.143 6.837 16.322 15.672s-6.837 16.143-15.672 16.322c-201.3 4.097-327.764-215.646-224.478-387.729z" fill="#4d0033"/></g><path d="m355.553 300.806c-6.248-6.248-16.379-6.248-22.627 0l-4.687 4.687v-81.373c0-39.701-32.299-72-72-72s-72 32.299-72 72v31.917c0 8.837 7.164 16 16 16s16-7.163 16-16v-31.917c0-22.056 17.944-40 40-40s40 17.944 40 40v81.373l-4.687-4.687c-6.248-6.248-16.379-6.248-22.627 0-6.249 6.248-6.249 16.379 0 22.627 34.074 34.074 33.229 34.045 37.892 35.725 2.514.901 5.027 1.165 7.713.779 7.075-1.017 6.676-2.157 41.022-36.504 6.25-6.248 6.25-16.379.001-22.627z" fill="#4d0033"/></svg>