<svg id="Layer_1" enable-background="new 0 0 512.073 512.073" height="512" viewBox="0 0 512.073 512.073" width="512" xmlns="http://www.w3.org/2000/svg"><g><path d="m470.15 364.35c-76 149.88-276.2 175.14-387.79 57.43-43.76-46.118-66.39-105.181-66.39-165.83 0-132.52 107.41-240 240-240 179.711.001 294.366 190.063 214.18 348.4z" fill="#ffaa64"/></g><g><path d="m493.32 292.98c-3.77 24.01-11.35 48.03-23.17 71.37-76 149.88-276.2 175.14-387.79 57.43 7.402-25.139 30.947-52.922 56.7-52.78 8.8.06 17.2 3.39 25.62 5.97 23.274 7.127 74.765 14.375 84.32-8.37 2.32-5.55 1.68-11.83 1.47-17.85-1.088-29.902 13.283-48.393 24.81-48.01 3.6.13 6.87 2.01 10.1 3.61 39.398 19.451 44.923-24.862 68.42-37.31 8.99-4.76 20.44-4.53 29.23.61 12.61 7.36 18.56 22.97 31.02 30.61 23.957 14.677 53.892-5.84 79.27-5.28z" fill="#ffaa64"/></g><g><path d="m91.481 149.226c4.706-17.091 12.815-34.289 30.096-38.264 12.519-2.88 17.504 1.657 28.817-11.108 12.859-14.508 20.819-30.127 42.54-41.44 46.263-24.095 67.901 29.262 25.392 41.512-14.195 4.09-28.133 2.632-47.432 14.582-12.227 7.571-13.562 13.051-18.114 25.294-12.093 32.523-43.263 65.602-60.489 52.046-10.91-8.587-3.805-31.746-.81-42.622z" fill="#fff"/></g><g><path d="m371.66 64.134c-7.597-4.515-10.094-14.333-5.579-21.929 4.515-7.597 14.332-10.095 21.929-5.579.681.404 1.351.812 2.023 1.229 16.853 10.474 3.192 39.108-18.373 26.279z" fill="#4d0033"/></g><g><path d="m7.344 316.657c-19.326-79.233.425-159.648 48.28-219.938 69.476-87.548 183.456-116.251 281.161-83.694 8.383 2.794 12.914 11.854 10.121 20.238-2.794 8.383-11.853 12.91-20.238 10.121-85.642-28.541-185.334-3.192-245.979 73.229-84.75 106.77-55.095 261.437 59.014 330.798 51.204 31.123 111.388 40.362 169.428 26.207 118.102-28.806 194.266-148.825 164.542-270.699-10.072-41.297-31.483-78.644-61.917-108.001-6.359-6.135-6.542-16.265-.407-22.624s16.263-6.542 22.624-.407c99.137 95.634 106.331 256.601 7.574 360.586-139.04 146.401-386.195 81.021-434.203-115.816z" fill="#4d0033"/></g><g fill="#4d0033"><path d="m326.657 303.94h6.628c8.837 0 16-7.163 16-16s-7.163-16-16-16h-45.255c-4.801 0-9.597 2.166-12.777 6.398-4.307 5.696-3.223 6.156-3.223 54.856 0 8.837 7.163 16 16 16s16-7.163 16-16v-6.628l20.687 20.687c3.124 3.124 7.219 4.687 11.313 4.687 14.125 0 21.424-17.205 11.313-27.313z"/><path d="m272.11 225.522c.475 4.835 3.171 9.417 7.704 12.13 5.111 3.057 4.017 2.289 53.471 2.289 8.837 0 16-7.163 16-16s-7.163-16-16-16h-6.628l20.687-20.687c6.249-6.248 6.249-16.379 0-22.627-6.248-6.248-16.379-6.248-22.627 0l-20.687 20.687v-6.628c0-8.837-7.163-16-16-16s-16 7.163-16 16c0 49.31-.035 45.675.08 46.836z"/><path d="m240.03 178.686c0-8.837-7.163-16-16-16s-16 7.163-16 16v6.628l-20.687-20.687c-6.248-6.248-16.379-6.248-22.627 0-6.249 6.248-6.249 16.379 0 22.627l20.687 20.687h-6.628c-8.837 0-16 7.163-16 16s7.163 16 16 16c48.527 0 47.44.421 51.374-1.218 2.629-1.091 4.866-2.804 6.656-5.179 4.313-5.741 3.225-6.088 3.225-54.858z"/><path d="m239.95 286.359c-.472-4.802-3.139-9.393-7.698-12.126-5.072-3.066-4.18-2.293-53.477-2.293-8.837 0-16 7.163-16 16s7.163 16 16 16h6.628l-20.687 20.687c-10.109 10.108-2.812 27.313 11.313 27.313 4.095 0 8.189-1.563 11.313-4.687l20.687-20.687v6.628c0 8.837 7.163 16 16 16s16-7.163 16-16c.001-49.309.036-45.674-.079-46.835z"/></g></svg>