<svg id="Layer_1" enable-background="new 0 0 512.242 512.242" height="512" viewBox="0 0 512.242 512.242" width="512" xmlns="http://www.w3.org/2000/svg"><g><path d="m496.147 256.122c0 66.417-27.142 128.784-74.72 174.02-96.855 92.128-251.093 87.36-342.02-11.67-95.251-103.504-81.416-267.248 31.25-353.24 41.251-31.489 91.886-49.11 145.49-49.11 132.555 0 240 107.456 240 240z" fill="#ffec8f"/></g><g><path d="m489.397 312.852c-45.142 186.327-280.691 246.442-409.99 105.62 15.873-30.031 41.284-45.771 64.9-47.93 14.3-1.31 29.13 2.06 42.87-2.12 20.5-6.23 32.33-26.83 45.63-43.63 13.734-17.348 44.713-47.368 66.66-44.68 28.651 3.483 60.176 55.314 103.83 56.68 29.77.92 57.82-22.29 86.1-23.94z" fill="#fae26e"/></g><g><path d="m91.598 149.407c4.706-17.091 12.815-34.289 30.096-38.264 12.519-2.88 17.504 1.657 28.817-11.108 12.859-14.508 20.819-30.127 42.54-41.44 46.263-24.095 67.901 29.262 25.392 41.512-14.195 4.09-28.133 2.632-47.432 14.582-12.227 7.571-13.562 13.051-18.114 25.294-12.093 32.523-43.263 65.602-60.489 52.046-10.91-8.587-3.804-31.746-.81-42.622z" fill="#fff"/></g><g><path d="m328.148 392.122c-4.095 0-8.189-1.563-11.313-4.687l-60.687-60.687-60.687 60.687c-6.248 6.248-16.379 6.248-22.627 0-6.249-6.248-6.249-16.379 0-22.627l72-72c6.248-6.248 16.379-6.248 22.627 0l72 72c10.11 10.109 2.812 27.314-11.313 27.314z" fill="#4d0033"/></g><g><path d="m328.148 304.122c-4.095 0-8.189-1.563-11.313-4.687l-60.687-60.687-60.687 60.687c-6.248 6.248-16.379 6.248-22.627 0-6.249-6.248-6.249-16.379 0-22.627l72-72c6.248-6.248 16.379-6.248 22.627 0l72 72c10.11 10.109 2.812 27.314-11.313 27.314z" fill="#4d0033"/></g><g><path d="m328.148 216.122c-4.095 0-8.189-1.563-11.313-4.687l-60.687-60.687-60.687 60.687c-6.248 6.248-16.379 6.248-22.627 0-6.249-6.248-6.249-16.379 0-22.627l72-72c6.248-6.248 16.379-6.248 22.627 0l72 72c10.11 10.109 2.812 27.314-11.313 27.314z" fill="#4d0033"/></g><g><path d="m257.174 32.124c-.296 0-.861-.011-1.873-.001-8.739.138-16.08-6.922-16.181-15.816-.101-8.836 6.981-16.081 15.817-16.182.808-.01 1.607-.01 2.415 0 8.836.101 15.917 7.346 15.817 16.182-.1 8.773-7.245 15.816-15.995 15.817z" fill="#4d0033"/></g><g><path d="m256.144 512.124c-113.684 0-209.157-73.676-242.875-174.919-48.303-145.033 40.191-297.424 185.66-330.64 8.613-1.969 17.193 3.422 19.16 12.037 1.967 8.614-3.422 17.193-12.037 19.16-168.93 38.571-234.16 250.891-108.3 376.752 87.54 87.54 229.231 87.552 316.784 0 86.016-86.017 88.668-228.113 0-316.784-30.056-30.056-67.75-50.848-109.007-60.128-8.621-1.939-14.038-10.5-12.099-19.122 1.939-8.62 10.504-14.03 19.121-12.099 134.397 30.233 224.143 164.044 193.766 304.194-24.558 113.31-125.389 201.549-250.173 201.549z" fill="#4d0033"/></g></svg>