<svg id="Layer_1" enable-background="new 0 0 512.445 512.445" height="512" viewBox="0 0 512.445 512.445" width="512" xmlns="http://www.w3.org/2000/svg"><g><path d="m496.363 258.585c-1.03 107.35-74.51 204.44-183.67 230.81-174.648 42.202-330.77-115.563-290.021-288.34 41.556-175.771 255.363-244.201 391.11-126.1 53.355 46.079 83.263 113.919 82.581 183.63z" fill="#ffec8f"/></g><g><path d="m496.363 258.585c-1.03 107.35-74.51 204.44-183.67 230.81-93.32 22.55-181.35-11.99-236.89-75.42 10.411-29.643 31.156-63.608 57.71-82.51 21.48-15.28 49.63-22.65 74.87-15.04 25.71 7.75 47.12 30.05 73.97 29.95 44.255-.161 72.94-60.827 118.07-51.12 6.5 1.4 12.65 4.4 19.271 5.07 20.33 2.05 35.41-17.18 51.83-29.35 7.489-5.56 15.938-9.7 24.839-12.39z" fill="#fae26e"/></g><g><path d="m91.613 149.41c4.706-17.091 12.815-34.289 30.096-38.264 12.519-2.88 17.504 1.657 28.817-11.108 12.859-14.508 20.819-30.127 42.54-41.44 46.263-24.095 67.901 29.262 25.392 41.512-14.195 4.09-28.133 2.632-47.432 14.582-12.227 7.571-13.562 13.051-18.114 25.294-12.093 32.523-43.263 65.602-60.489 52.046-10.91-8.587-3.804-31.746-.81-42.622z" fill="#fff"/></g><g><path d="m358.256 455.572c.521-.263 1.035-.527 1.551-.8 7.813-4.129 17.493-1.139 21.62 6.675s1.139 17.493-6.675 21.62c-22.559 11.912-34.578-18.38-16.496-27.495z" fill="#4d0033"/></g><g><path d="m12.453 178.24c43.033-134.778 186.933-209.046 321.737-166.004 77.693 24.808 136.025 83.579 162.532 155.844 38.472 104.852 3.648 217.109-75.125 283.57-6.755 5.698-16.849 4.841-22.546-1.912-5.698-6.754-4.843-16.849 1.911-22.547 68.996-58.211 99.324-156.503 65.718-248.09-46.617-127.087-193.522-183.741-313.067-122.059-138.893 71.662-161.779 257.997-50.602 362.454 54.851 51.564 134.116 73.14 209.621 53.45 8.554-2.229 17.289 2.895 19.52 11.445 2.229 8.551-2.895 17.29-11.445 19.52-194.499 50.72-369.579-133.615-308.254-325.671z" fill="#4d0033"/></g><g fill="#4d0033"><path d="m411.476 268.809c-6.248-6.248-16.379-6.248-22.627 0l-4.687 4.687v-9.371c0-48.523-39.477-88-88-88s-88 39.477-88 88c0 8.837 7.164 16 16 16s16-7.163 16-16c0-30.879 25.121-56 56-56s56 25.121 56 56v9.371l-4.687-4.687c-6.248-6.248-16.379-6.248-22.627 0-6.249 6.248-6.249 16.379 0 22.627l31.992 31.992c4.986 4.995 13.03 6.302 19.536 2.406 2.522-1.517.359.341 35.098-34.398 6.251-6.248 6.251-16.379.002-22.627z"/><path d="m288.162 232.125c-8.837 0-16 7.163-16 16 0 30.879-25.122 56-56 56s-56-25.121-56-56v-9.371c4.959 4.959 8.332 9.373 16 9.373 14.126 0 21.421-17.206 11.313-27.313-34.34-34.34-33.219-33.818-37.196-35.47-3.92-1.617-8.311-1.62-12.236 0-4.173 1.734-3.321 1.595-37.196 35.47-6.249 6.248-6.249 16.379 0 22.627 6.248 6.248 16.379 6.248 22.627 0l4.687-4.687v9.371c0 48.523 39.477 88 88 88s88-39.477 88-88c.001-8.837-7.162-16-15.999-16z"/></g></svg>