<svg id="Layer_1" enable-background="new 0 0 512.162 512.162" height="512" viewBox="0 0 512.162 512.162" width="512" xmlns="http://www.w3.org/2000/svg"><g><path d="m462.407 378.658c-81.677 137.586-272.918 158.138-382.04 41.08-75.857-81.401-85.97-204.776-23.35-297.73 70.288-104.668 211.369-137.662 321.56-72.24 113.555 67.421 151.792 214.432 83.83 328.89z" fill="#80aaff"/></g><g><path d="m462.407 378.658c-81.677 137.586-272.918 158.138-382.04 41.08 9.042-33.759 29.341-73.212 61.93-86.25 22.23-8.88 47.2-4.91 71.1-6.12 28.11-1.42 57.29-11.38 74.75-33.45 11.84-14.96 17.92-34.81 33.25-46.16 1.74-1.29 3.79-2.5 5.94-2.2 4.239.582 14.404 11.817 19.81 22.25 5.14 9.91 8.62 21.96 18.5 27.17 10.71 5.65 24.42.101 32.53-8.899s12.3-20.74 17.77-31.55c14.715-29.041 40.997-52.894 73.16-55.67 14.749 59.385 6.366 124.11-26.7 179.799z" fill="#6994ff"/></g><g><path d="m91.498 149.413c4.706-17.091 12.815-34.289 30.096-38.264 12.519-2.88 17.504 1.657 28.817-11.108 12.859-14.508 20.819-30.127 42.54-41.44 46.263-24.095 67.901 29.262 25.392 41.512-14.195 4.09-28.133 2.632-47.432 14.582-12.227 7.571-13.562 13.051-18.114 25.294-12.093 32.523-43.263 65.602-60.489 52.046-10.91-8.587-3.804-31.746-.81-42.622z" fill="#fff"/></g><g><path d="m23.749 211.848c-10.461 0-18.083-9.855-15.52-19.943.196-.772.397-1.535.609-2.303 2.354-8.518 11.169-13.51 19.683-11.163 8.518 2.354 13.516 11.165 11.163 19.683-.153.555-.298 1.104-.439 1.662-1.839 7.242-8.35 12.064-15.496 12.064z" fill="#4d0033"/></g><g><path d="m256.483 512.162c-147.475 0-261.125-122.284-256.333-264.431.299-8.831 7.72-15.742 16.53-15.452 8.831.298 15.75 7.699 15.452 16.53-5.854 173.652 183.113 290.267 336.613 200.905 106.989-62.289 143.178-199.28 80.883-306.284-60.531-103.973-196.935-144.541-306.285-80.882-36.734 21.387-66.462 52.522-85.968 90.042-4.077 7.839-13.734 10.889-21.577 6.815-7.84-4.076-10.892-13.736-6.815-21.577 63.542-122.219 215.838-174.83 343.586-109.675 103.29 52.68 162.85 172.699 130.991 293.341-30.48 115.421-134.4 190.668-247.077 190.668z" fill="#4d0033"/></g><path d="m216.047 176.128h-9.373l20.687-20.687c6.249-6.248 6.249-16.379 0-22.627-6.248-6.248-16.379-6.248-22.627 0-51.524 51.524-49.736 49.014-51.468 53.19-1.073 2.594-1.465 5.403-1.041 8.382 1.013 7.161.858 5.404 52.509 57.055 3.124 3.124 7.219 4.687 11.313 4.687 14.125 0 21.424-17.205 11.313-27.313l-20.687-20.687h9.373c70.579 0 128 57.421 128 128 0 8.837 7.163 16 16 16s16-7.163 16-16c.001-88.225-71.774-160-159.999-160z" fill="#4d0033"/></svg>