<svg id="Layer_1" enable-background="new 0 0 512.239 512.239" height="512" viewBox="0 0 512.239 512.239" width="512" xmlns="http://www.w3.org/2000/svg"><g><path d="m364.544 41.94c149.88 76 175.14 276.2 57.43 387.79-46.118 43.76-105.181 66.39-165.83 66.39-132.52 0-240-107.41-240-240 0-179.711 190.062-294.366 348.4-214.18z" fill="#ffbd7b"/></g><g><path d="m493.398 293.052c-3.77 24.01-11.35 48.03-23.17 71.37-76 149.88-276.2 175.14-387.79 57.43 7.402-25.139 30.947-52.922 56.7-52.78 8.8.06 17.2 3.39 25.62 5.97 23.274 7.127 74.765 14.375 84.32-8.37 2.32-5.55 1.68-11.83 1.47-17.85-1.088-29.903 13.283-48.393 24.81-48.01 3.6.13 6.87 2.01 10.1 3.61 39.398 19.451 44.923-24.862 68.42-37.31 8.99-4.76 20.44-4.53 29.23.61 12.61 7.36 18.56 22.97 31.02 30.61 23.957 14.677 53.892-5.84 79.27-5.28z" fill="#ffaa64"/></g><g><path d="m91.499 149.307c4.706-17.091 12.815-34.289 30.096-38.264 12.519-2.88 17.504 1.657 28.817-11.108 12.859-14.508 20.819-30.127 42.54-41.44 46.263-24.095 67.901 29.262 25.392 41.512-14.195 4.09-28.133 2.632-47.432 14.582-12.227 7.571-13.562 13.051-18.114 25.294-12.093 32.523-43.263 65.602-60.489 52.046-10.91-8.586-3.804-31.746-.81-42.622z" fill="#fff"/></g><g><path d="m253.796 32.131c-8.72 0-15.856-6.999-15.993-15.75-.139-8.835 6.912-16.109 15.748-16.248.792-.013 1.574-.018 2.369-.014 8.837.038 15.97 7.231 15.932 16.068-.037 8.492-6.783 15.995-16.438 15.931-.627 0-1.596.013-1.618.013z" fill="#4d0033"/></g><g><path d="m256.104 512.121c-113.637.003-208.463-73.56-242.387-173.587-49.096-144.766 38.559-297.641 183.843-331.654 8.606-2.019 17.211 3.328 19.227 11.932 2.014 8.604-3.328 17.212-11.932 19.227-169.176 39.603-232.511 252.437-106.231 377.34 87.767 86.808 229.874 86.125 316.779-1.738 84.674-85.61 88.16-227.868-1.738-316.778-30.221-29.892-68.027-50.477-109.336-59.53-8.631-1.892-14.095-10.423-12.203-19.055 1.893-8.631 10.427-14.095 19.055-12.203 134.557 29.491 225.04 162.81 195.433 303.125-24.046 113.948-125.127 202.921-250.51 202.921z" fill="#4d0033"/></g><path d="m276.831 324.807-4.687 4.687v-146.747c4.959 4.959 8.332 9.373 16 9.373 14.125 0 21.424-17.205 11.313-27.313-34.704-34.704-33.264-33.838-37.196-35.47-3.824-1.573-8.187-1.665-12.234 0-3.882 1.61-2.328.602-37.196 35.47-6.249 6.248-6.249 16.379 0 22.627 6.248 6.248 16.379 6.248 22.627 0l4.687-4.687v146.746l-4.687-4.687c-6.248-6.248-16.379-6.248-22.627 0-6.249 6.248-6.249 16.379 0 22.627 34.006 34.007 33.22 34.04 37.892 35.725 2.668.956 5.139 1.149 7.713.779 7.058-1.015 6.554-2.035 41.022-36.504 6.249-6.248 6.249-16.379 0-22.627-6.248-6.247-16.379-6.247-22.627.001z" fill="#4d0033"/></svg>