<?xml version="1.0" standalone="no"?>
<!DOCTYPE svg PUBLIC "-//W3C//DTD SVG 20010904//EN"
 "http://www.w3.org/TR/2001/REC-SVG-20010904/DTD/svg10.dtd">
<svg version="1.0" xmlns="http://www.w3.org/2000/svg"
 width="250.000000pt" height="250.000000pt" viewBox="0 0 250.000000 250.000000"
 preserveAspectRatio="xMidYMid meet">

<g transform="translate(0.000000,250.000000) scale(0.100000,-0.100000)"
fill="#000000" stroke="none">
<path fill="#770000" d="M115 2133 c11 -11 52 -48 90 -83 173 -156 309 -296 328 -340 27 -61
26 -138 -4 -230 -21 -67 -24 -93 -24 -235 0 -188 11 -239 85 -390 112 -230
318 -398 568 -461 128 -33 292 -34 419 -4 103 24 269 103 331 157 l43 38 -83
63 -83 64 -5 -34 c-4 -27 -16 -40 -68 -74 -220 -145 -533 -116 -779 72 -197
151 -306 412 -273 654 12 91 48 201 87 269 21 36 23 45 12 56 -14 12 -550 416
-624 469 -22 16 -31 20 -20 9z"/>
<path fill="#FF0000" d="M1190 2101 c-107 -23 -212 -68 -304 -128 -74 -49 -206 -176 -206
-198 0 -7 33 -37 73 -68 70 -53 73 -54 69 -28 -8 57 177 194 333 247 108 36
268 44 379 20 200 -45 387 -191 478 -373 64 -127 82 -213 76 -366 -6 -137 -30
-222 -95 -330 -19 -32 -32 -64 -30 -71 3 -8 50 -47 104 -87 54 -40 161 -120
238 -178 153 -115 153 -118 1 59 -121 140 -142 230 -91 395 39 128 45 291 16
430 -55 267 -239 497 -493 614 -118 55 -194 72 -338 77 -97 3 -144 0 -210 -15z"/>
<path fill="#FF6666" d="M882 1638 c-10 -14 -32 3 518 -412 168 -127 355 -268 415 -314 100
-77 110 -82 113 -62 6 37 -7 86 -29 114 -12 15 -127 106 -258 203 -130 97
-321 240 -426 318 -104 78 -200 147 -212 154 -29 15 -108 14 -121 -1z"/>
<path fill="#FF6666" d="M1450 1094 c0 -74 31 -108 246 -269 325 -244 576 -429 598 -442 25
-15 105 -17 126 -3 8 5 12 11 10 13 -3 3 -34 27 -70 54 -36 27 -139 105 -230
174 -91 69 -275 208 -410 309 -135 101 -251 187 -257 193 -10 7 -13 0 -13 -29z"/>
</g>
</svg>
