<?xml version="1.0" encoding="UTF-8"?>
<!DOCTYPE svg PUBLIC "-//W3C//DTD SVG 1.1//EN" "http://www.w3.org/Graphics/SVG/1.1/DTD/svg11.dtd">
<svg xmlns="http://www.w3.org/2000/svg" version="1.1" width="175px" height="175px" style="shape-rendering:geometricPrecision; text-rendering:geometricPrecision; image-rendering:optimizeQuality; fill-rule:evenodd; clip-rule:evenodd" xmlns:xlink="http://www.w3.org/1999/xlink">
<g><path style="opacity:0.957" fill="#2bd1fe" d="M 79.5,5.5 C 87.9996,4.93402 96.333,5.76735 104.5,8C 118.946,14.8035 132.613,22.8035 145.5,32C 156.537,42.8523 160.37,55.6857 157,70.5C 154.333,71.8333 151.667,71.8333 149,70.5C 147.092,63.5167 145.092,56.5167 143,49.5C 140.55,44.7163 137.05,40.883 132.5,38C 122.157,31.4934 111.49,25.4934 100.5,20C 89.7889,16.6713 79.4556,17.6713 69.5,23C 61.7776,24.6135 58.9443,21.7802 61,14.5C 66.5456,10.0505 72.7123,7.05046 79.5,5.5 Z"/></g>
<g><path style="opacity:0.955" fill="#29d1fe" d="M 46.5,21.5 C 51.3194,21.1533 54.3194,23.32 55.5,28C 55.3569,30.151 54.3569,31.8176 52.5,33C 42.177,37.3229 35.3437,44.8229 32,55.5C 30.8943,66.2866 30.3943,77.1199 30.5,88C 30.3943,98.8801 30.8943,109.713 32,120.5C 33.802,125.929 36.9686,130.429 41.5,134C 54.2356,142.397 67.2356,150.397 80.5,158C 85.3232,161.402 85.6566,165.069 81.5,169C 77.8798,169.841 74.5464,169.174 71.5,167C 57.8303,159.167 44.497,150.834 31.5,142C 25.413,135.998 21.2463,128.832 19,120.5C 16.6702,97.1052 17.0035,73.7719 20,50.5C 21.8883,45.0552 24.555,40.0552 28,35.5C 33.9659,30.4485 40.1325,25.7818 46.5,21.5 Z"/></g>
<g><path style="opacity:0.957" fill="#2cd0fe" d="M 81.5,28.5 C 88.8773,27.6893 95.8773,28.856 102.5,32C 106.557,33.9473 108.057,37.114 107,41.5C 105.745,43.5938 103.912,44.5938 101.5,44.5C 97.2921,43.2639 93.1254,41.9306 89,40.5C 76.466,44.7043 65.1326,51.0376 55,59.5C 53.8212,66.1226 52.8212,72.7892 52,79.5C 48.3832,84.8148 44.7166,84.8148 41,79.5C 37.6527,64.3664 42.1527,52.1997 54.5,43C 63.6354,38.1038 72.6354,33.2705 81.5,28.5 Z"/></g>
<g><path style="opacity:0.952" fill="#2ad1fe" d="M 114.5,42.5 C 122.133,42.5693 127.966,45.9027 132,52.5C 133.608,55.3821 134.941,58.3821 136,61.5C 136.667,73.8333 136.667,86.1667 136,98.5C 133.042,107.789 127.042,114.122 118,117.5C 112.996,116.501 111.33,113.501 113,108.5C 117.384,105.783 120.718,102.116 123,97.5C 124.945,85.8309 124.945,74.1642 123,62.5C 120.718,57.8841 117.384,54.2174 113,51.5C 112.068,48.1769 112.568,45.1769 114.5,42.5 Z"/></g>
<g><path style="opacity:0.982" fill="#393c6b" d="M 81.5,52.5 C 98.4634,50.303 109.63,57.303 115,73.5C 115.667,78.8333 115.667,84.1667 115,89.5C 110.652,94.9863 106.986,94.653 104,88.5C 103.726,82.6989 102.726,77.0322 101,71.5C 94.7488,64.9893 87.5821,63.8227 79.5,68C 77.6217,69.5429 76.1217,71.3762 75,73.5C 72.8788,83.2552 73.2121,92.9218 76,102.5C 79.6443,105.464 82.4777,108.964 84.5,113C 82.5933,118.617 78.9266,119.95 73.5,117C 68.8535,113.358 65.3535,108.858 63,103.5C 61.4103,93.5745 61.0769,83.5745 62,73.5C 65.5998,63.736 72.0998,56.736 81.5,52.5 Z"/></g>
<g><path style="opacity:0.936" fill="#28d1fe" d="M 85.5,77.5 C 90.3521,76.2772 93.5188,77.9438 95,82.5C 95.6667,85.8333 95.6667,89.1667 95,92.5C 93.3357,97.0383 90.1691,98.5383 85.5,97C 81.693,90.519 81.693,84.019 85.5,77.5 Z"/></g>
<g><path style="opacity:0.955" fill="#363a68" d="M 150.5,78.5 C 155.058,77.3805 157.891,79.0471 159,83.5C 159.444,89.7227 156.611,92.556 150.5,92C 149.333,91.5 148.5,90.6667 148,89.5C 146.813,85.2169 147.647,81.5503 150.5,78.5 Z"/></g>
<g><path style="opacity:0.958" fill="#29d0fe" d="M 44.5,89.5 C 47.505,89.253 50.005,90.253 52,92.5C 52.887,99.1442 53.5537,105.811 54,112.5C 54.3459,114.848 55.5125,116.681 57.5,118C 69.3398,125.833 81.6731,132.833 94.5,139C 97.9283,139.701 101.262,139.368 104.5,138C 116.329,131.586 127.996,124.92 139.5,118C 144.581,114.112 147.414,108.946 148,102.5C 150.431,99.4817 153.431,98.8151 157,100.5C 159.907,109.124 158.24,116.791 152,123.5C 137.747,134.049 122.581,143.216 106.5,151C 96.744,153.647 87.744,151.98 79.5,146C 68.7486,139.876 58.2486,133.376 48,126.5C 40.8673,116.641 38.534,105.641 41,93.5C 42.3756,92.2949 43.5423,90.9616 44.5,89.5 Z"/></g>
<g><path style="opacity:0.924" fill="#2ad0fe" d="M 95.5,113.5 C 98.8499,113.335 102.183,113.502 105.5,114C 110.397,117.817 110.397,121.484 105.5,125C 99.6303,127.429 94.1303,126.929 89,123.5C 88.3333,121.167 88.3333,118.833 89,116.5C 91.166,115.269 93.3326,114.269 95.5,113.5 Z"/></g>
</svg>
