<svg id="Layer_1" height="512" viewBox="0 0 512 512" width="512" xmlns="http://www.w3.org/2000/svg" xmlns:xlink="http://www.w3.org/1999/xlink" data-name="Layer 1"><linearGradient id="linear-gradient" gradientUnits="userSpaceOnUse" x1="256" x2="256" y2="512"><stop offset="0" stop-color="#01f1fe"/><stop offset="1" stop-color="#4fadfe"/></linearGradient><path d="m256 157.271a98.729 98.729 0 1 0 98.729 98.729 98.841 98.841 0 0 0 -98.729-98.729zm0 133.458a34.729 34.729 0 1 1 34.729-34.729 34.769 34.769 0 0 1 -34.729 34.729zm240.415 4.542-32.4-24.321c.357-4.984.537-9.976.537-14.95s-.179-9.967-.536-14.95l32.4-24.322a32 32 0 0 0 8.5-41.592l-54.428-94.272a32 32 0 0 0 -40.27-13.434l-37.245 15.89a207.426 207.426 0 0 0 -25.918-14.985l-4.855-40.177a32 32 0 0 0 -31.772-28.158h-108.857a32 32 0 0 0 -31.771 28.158l-4.859 40.177a207.459 207.459 0 0 0 -25.915 14.985l-37.244-15.889a32 32 0 0 0 -40.27 13.433l-54.429 94.272a32 32 0 0 0 8.5 41.592l32.4 24.322c-.357 4.983-.537 9.975-.537 14.95s.179 9.967.536 14.95l-32.4 24.322a32 32 0 0 0 -8.5 41.592l54.429 94.272a32 32 0 0 0 40.27 13.434l37.245-15.89a207.426 207.426 0 0 0 25.918 14.985l4.858 40.177a32 32 0 0 0 31.77 28.158h108.857a32 32 0 0 0 31.771-28.158l4.859-40.177a207.388 207.388 0 0 0 25.918-14.985l37.244 15.889a32 32 0 0 0 40.27-13.433l54.429-94.273a32 32 0 0 0 -8.505-41.592zm-97.886-63.455a145.578 145.578 0 0 1 0 48.37 32 32 0 0 0 12.346 30.9l24.434 18.343-26.065 45.146-28.117-12a32 32 0 0 0 -32.976 4.8 144 144 0 0 1 -41.8 24.17 32 32 0 0 0 -20.621 26.155l-3.665 30.3h-52.13l-3.664-30.3a32 32 0 0 0 -20.621-26.153 144.059 144.059 0 0 1 -41.8-24.173 32 32 0 0 0 -32.973-4.792l-28.117 12-26.069-45.155 24.434-18.343a32 32 0 0 0 12.346-30.9 145.572 145.572 0 0 1 0-48.369 32 32 0 0 0 -12.346-30.9l-24.434-18.342 26.065-45.146 28.117 12a32 32 0 0 0 32.976-4.794 143.983 143.983 0 0 1 41.8-24.171 32 32 0 0 0 20.621-26.157l3.665-30.305h52.13l3.664 30.305a32 32 0 0 0 20.621 26.153 144.059 144.059 0 0 1 41.8 24.173 32 32 0 0 0 32.973 4.792l28.117-12 26.065 45.146-24.434 18.343a32 32 0 0 0 -12.342 30.904z" fill="url(#linear-gradient)"/></svg>