<svg id="Layer_1" height="512" viewBox="0 0 512 512" width="512" xmlns="http://www.w3.org/2000/svg" xmlns:xlink="http://www.w3.org/1999/xlink" data-name="Layer 1"><linearGradient id="linear-gradient" gradientUnits="userSpaceOnUse" x1="256" x2="256" y2="512"><stop offset="0" stop-color="#01f1fe"/><stop offset="1" stop-color="#4fadfe"/></linearGradient><path d="m437.019 74.981a256 256 0 1 0 -362.038 362.038 256 256 0 1 0 362.038-362.038zm8.3 149.019h-69.273c-2.913-48.8-12.458-94.206-27.608-130.293-1.126-2.684-2.271-5.271-3.427-7.785a192.551 192.551 0 0 1 100.308 138.078zm-189.319 212c-6.268 0-20.343-11.313-33.427-42.48-11.859-28.249-19.709-65.55-22.468-105.52h111.795c-2.759 39.97-10.609 77.271-22.468 105.52-13.089 31.167-27.164 42.48-33.432 42.48zm-55.9-212c2.759-39.97 10.609-77.271 22.468-105.52 13.089-31.167 27.164-42.48 33.432-42.48s20.343 11.313 33.427 42.48c11.859 28.249 19.709 65.55 22.473 105.52zm-33.111-138.078c-1.156 2.514-2.3 5.1-3.427 7.785-15.15 36.087-24.7 81.49-27.608 130.293h-69.273a192.551 192.551 0 0 1 100.308-138.078zm-100.308 202.078h69.273c2.913 48.8 12.458 94.206 27.608 130.293 1.127 2.684 2.271 5.271 3.427 7.785a192.551 192.551 0 0 1 -100.308-138.078zm278.33 138.078c1.156-2.514 2.3-5.1 3.427-7.785 15.15-36.087 24.695-81.49 27.608-130.293h69.273a192.551 192.551 0 0 1 -100.308 138.078z" fill="url(#linear-gradient)"/></svg>