<svg id="Layer_1" height="512" viewBox="0 0 512 512" width="512" xmlns="http://www.w3.org/2000/svg" xmlns:xlink="http://www.w3.org/1999/xlink" data-name="Layer 1"><linearGradient id="linear-gradient" gradientUnits="userSpaceOnUse" x1="256" x2="256" y2="512"><stop offset="0" stop-color="#01f1fe"/><stop offset="1" stop-color="#4fadfe"/></linearGradient><path d="m411.7 65.81c-39.166-41.823-95.917-65.81-155.7-65.81s-116.534 23.987-155.7 65.81c-36.128 38.578-54.094 89.236-50.587 142.644 7.7 117.274 73.7 197.166 185.108 295.533a32 32 0 0 0 42.36 0c111.4-98.367 177.408-178.26 185.108-295.533 3.511-53.408-14.46-104.066-50.589-142.644zm-13.274 138.45c-5.239 79.786-41.821 140.594-142.426 232.722-100.6-92.128-137.187-152.935-142.426-232.722-2.991-45.567 16.533-76.65 33.439-94.7 27.113-28.955 66.838-45.56 108.987-45.56s81.874 16.605 108.987 45.558c16.906 18.052 36.43 49.135 33.439 94.702zm-142.426-88.26a87 87 0 1 0 87 87 87.1 87.1 0 0 0 -87-87zm0 110a23 23 0 1 1 23-23 23.026 23.026 0 0 1 -23 23z" fill="url(#linear-gradient)"/></svg>