<svg id="Layer_1" height="512" viewBox="0 0 512 512" width="512" xmlns="http://www.w3.org/2000/svg" xmlns:xlink="http://www.w3.org/1999/xlink" data-name="Layer 1"><linearGradient id="linear-gradient" gradientUnits="userSpaceOnUse" x1="256" x2="256" y2="512"><stop offset="0" stop-color="#01f1fe"/><stop offset="1" stop-color="#4fadfe"/></linearGradient><path d="m412.8 234.154c-6.862-3.2-10.489-8.9-10.489-16.472v-36.476c0-69.685-48.974-128.139-114.309-142.774v-6.432a32 32 0 0 0 -64 0v6.432c-65.335 14.634-114.309 73.089-114.309 142.774v36.476c0 7.572-3.627 13.268-10.489 16.472a100.868 100.868 0 0 0 42.489 192.361h7a110.09 110.09 0 0 0 214.61 0h7a100.868 100.868 0 0 0 42.497-192.361zm-156.8 213.846a46.075 46.075 0 0 1 -38.936-21.485h77.872a46.075 46.075 0 0 1 -38.936 21.485zm114.309-85.485h-228.618a36.868 36.868 0 0 1 -15.411-70.371 81.425 81.425 0 0 0 47.411-74.462v-36.476a82.4 82.4 0 0 1 82.309-82.306 82.4 82.4 0 0 1 82.309 82.309v36.476a81.424 81.424 0 0 0 47.411 74.462 36.868 36.868 0 0 1 -15.411 70.371z" fill="url(#linear-gradient)"/></svg>