<svg id="Layer_1" height="512" viewBox="0 0 512 512" width="512" xmlns="http://www.w3.org/2000/svg" xmlns:xlink="http://www.w3.org/1999/xlink" data-name="Layer 1"><linearGradient id="linear-gradient" gradientUnits="userSpaceOnUse" x1="256" x2="256" y2="512"><stop offset="0" stop-color="#01f1fe"/><stop offset="1" stop-color="#4fadfe"/></linearGradient><path d="m400 256a32 32 0 0 1 -32 32h-80v80a32 32 0 0 1 -64 0v-80h-80a32 32 0 0 1 0-64h80v-80a32 32 0 0 1 64 0v80h80a32 32 0 0 1 32 32zm112 0c0 141.159-114.841 256-256 256s-256-114.841-256-256 114.841-256 256-256 256 114.841 256 256zm-64 0c0-105.869-86.131-192-192-192s-192 86.131-192 192 86.131 192 192 192 192-86.131 192-192z" fill="url(#linear-gradient)"/></svg>