<svg id="Layer_1" height="512" viewBox="0 0 512 512" width="512" xmlns="http://www.w3.org/2000/svg" xmlns:xlink="http://www.w3.org/1999/xlink" data-name="Layer 1"><linearGradient id="linear-gradient" gradientUnits="userSpaceOnUse" x1="256" x2="256" y1="36.788" y2="475.143"><stop offset="0" stop-color="#01f1fe"/><stop offset="1" stop-color="#4fadfe"/></linearGradient><path d="m424.73 48.194c-53.914-22.639-116.43-11.022-168.73 29.906-52.3-40.931-114.825-52.546-168.74-29.9-54.977 23.091-88.401 77.305-87.229 141.485 1 54.863 32.665 112.9 94.114 172.5 56.329 54.636 120.773 94.2 145.866 108.674a32 32 0 0 0 31.979 0c25.1-14.477 89.547-54.046 145.874-108.683 61.453-59.608 93.115-117.652 94.106-172.519 1.16-64.172-32.27-118.379-87.24-141.463zm23.25 140.306c-1.438 79.624-114.673 169.822-191.98 217.388-77.3-47.56-190.527-137.749-191.98-217.37-.693-37.994 17.259-68.391 48.024-81.313a82.546 82.546 0 0 1 32.145-6.35c29.8 0 61.793 14.876 89 42.537a32 32 0 0 0 45.631 0c37.375-38 83.791-51.871 121.135-36.189 30.757 12.917 48.712 43.31 48.025 81.297z" fill="url(#linear-gradient)"/></svg>