<svg id="Layer_1" height="512" viewBox="0 0 512 512" width="512" xmlns="http://www.w3.org/2000/svg" xmlns:xlink="http://www.w3.org/1999/xlink" data-name="Layer 1"><linearGradient id="linear-gradient" gradientUnits="userSpaceOnUse" x1="256" x2="256" y1="57.436" y2="454.564"><stop offset="0" stop-color="#01f1fe"/><stop offset="1" stop-color="#4fadfe"/></linearGradient><path d="m452 57.436h-392a60.068 60.068 0 0 0 -60 60v277.128a60.068 60.068 0 0 0 60 60h392a60.068 60.068 0 0 0 60-60v-277.128a60.068 60.068 0 0 0 -60-60zm-4 64v43.524h-384v-43.524zm-384 269.128v-161.604h384v161.6zm146.264-80.8a32 32 0 0 1 -32 32h-52a32 32 0 0 1 0-64h52a32 32 0 0 1 32 31.998z" fill="url(#linear-gradient)"/></svg>