<svg id="Layer_1" height="512" viewBox="0 0 512 512" width="512" xmlns="http://www.w3.org/2000/svg" xmlns:xlink="http://www.w3.org/1999/xlink" data-name="Layer 1"><linearGradient id="linear-gradient" gradientUnits="userSpaceOnUse" x1="256" x2="256" y2="512.001"><stop offset="0" stop-color="#01f1fe"/><stop offset="1" stop-color="#4fadfe"/></linearGradient><path d="m430.711 0h-349.422a60.068 60.068 0 0 0 -60 60v273.286a60.068 60.068 0 0 0 60 60h52v86.714a32 32 0 0 0 55.5 21.716l100.182-108.43h141.74a60.068 60.068 0 0 0 60-60v-273.286a60.068 60.068 0 0 0 -60-60zm-4 329.286h-151.736a32 32 0 0 0 -23.5 10.284l-54.18 58.641v-36.925a32 32 0 0 0 -32-32h-80v-265.286h341.416z" fill="url(#linear-gradient)"/></svg>