<svg id="Layer_1" height="512" viewBox="0 0 512 512" width="512" xmlns="http://www.w3.org/2000/svg" xmlns:xlink="http://www.w3.org/1999/xlink" data-name="Layer 1"><linearGradient id="linear-gradient" gradientUnits="userSpaceOnUse" x1="256" x2="256" y2="512.001"><stop offset="0" stop-color="#01f1fe"/><stop offset="1" stop-color="#4fadfe"/></linearGradient><path d="m439.005 73a249.263 249.263 0 0 0 -404.896 275.49l-33.018 123.228a32 32 0 0 0 39.191 39.192l123.229-33.019a249.258 249.258 0 0 0 275.494-404.891zm-45.255 307.2a185.121 185.121 0 0 1 -213.122 35.1 32 32 0 0 0 -22.474-2.228l-80.9 21.677 21.677-80.9a32 32 0 0 0 -2.231-22.477 185.255 185.255 0 0 1 297.049-213.122c72.218 72.219 72.218 189.727.001 261.95z" fill="url(#linear-gradient)"/></svg>