<svg id="Layer_1" height="512" viewBox="0 0 512 512" width="512" xmlns="http://www.w3.org/2000/svg" xmlns:xlink="http://www.w3.org/1999/xlink" data-name="Layer 1"><linearGradient id="linear-gradient" gradientUnits="userSpaceOnUse" x1="256" x2="256" y2="512"><stop offset="0" stop-color="#01f1fe"/><stop offset="1" stop-color="#4fadfe"/></linearGradient><path d="m419.088 116.894-98.859-88.926c-14.478-13.021-34.863-27.968-64.229-27.968s-49.756 14.948-64.231 27.97l-98.856 88.923a59.293 59.293 0 0 0 -19.875 44.607v290.5a60.068 60.068 0 0 0 60 60h245.924a60.068 60.068 0 0 0 60-60v-290.5a59.294 59.294 0 0 0 -19.874-44.606zm-44.126 331.106h-237.924v-284.716l97.532-87.732c10.658-9.588 16.275-11.552 21.43-11.552s10.771 1.965 21.431 11.552l97.531 87.732z" fill="url(#linear-gradient)"/></svg>