<svg id="Layer_1" height="512" viewBox="0 0 512 512" width="512" xmlns="http://www.w3.org/2000/svg" xmlns:xlink="http://www.w3.org/1999/xlink" data-name="Layer 1"><linearGradient id="linear-gradient" gradientUnits="userSpaceOnUse" x1="256" x2="256" y2="512"><stop offset="0" stop-color="#01f1fe"/><stop offset="1" stop-color="#4fadfe"/></linearGradient><path d="m256 139.761a116.239 116.239 0 1 0 116.239 116.239 116.37 116.37 0 0 0 -116.239-116.239zm0 168.478a52.239 52.239 0 1 1 52.239-52.239 52.3 52.3 0 0 1 -52.239 52.239zm-32-239.863v-36.376a32 32 0 0 1 64 0v36.376a32 32 0 0 1 -64 0zm166.774 109.812a32 32 0 0 1 11.713-43.713l31.5-18.188a32 32 0 1 1 32 55.426l-31.5 18.188a31.987 31.987 0 0 1 -43.713-11.713zm86.926 205.812a31.987 31.987 0 0 1 -43.713 11.713l-31.5-18.188a32 32 0 0 1 32-55.426l31.5 18.188a32 32 0 0 1 11.713 43.713zm-189.7 59.624v36.376a32 32 0 0 1 -64 0v-36.376a32 32 0 0 1 64 0zm-166.774-109.812a32 32 0 0 1 -11.713 43.713l-31.5 18.188a32 32 0 0 1 -32-55.426l31.5-18.188a32 32 0 0 1 43.713 11.713zm0-155.624a31.987 31.987 0 0 1 -43.713 11.712l-31.5-18.188a32 32 0 0 1 32-55.426l31.5 18.188a32 32 0 0 1 11.713 43.714z" fill="url(#linear-gradient)"/></svg>