<svg id="Layer_1" height="512" viewBox="0 0 512 512" width="512" xmlns="http://www.w3.org/2000/svg" xmlns:xlink="http://www.w3.org/1999/xlink" data-name="Layer 1"><linearGradient id="linear-gradient" gradientUnits="userSpaceOnUse" x1="256" x2="256" y1="-.002" y2="512"><stop offset="0" stop-color="#01f1fe"/><stop offset="1" stop-color="#4fadfe"/></linearGradient><path d="m485.334 376.891a32 32 0 0 0 -33.821-14.426 195.9 195.9 0 0 1 -40.539 4.239c-107.23 0-194.468-87.238-194.468-194.467a192.424 192.424 0 0 1 41.754-120.4 32 32 0 0 0 -31.747-51.137 258.483 258.483 0 1 0 256.748 412.9 32 32 0 0 0 2.073-36.709zm-205.014 71.109c-107.23 0-194.467-87.238-194.467-194.467 0-62.145 29.973-119.045 77.233-155.019a259.413 259.413 0 0 0 65.124 256.486 256.588 256.588 0 0 0 139.879 72.184 194 194 0 0 1 -87.769 20.816z" fill="url(#linear-gradient)"/></svg>