<svg id="Layer_1" height="512" viewBox="0 0 512 512" width="512" xmlns="http://www.w3.org/2000/svg" xmlns:xlink="http://www.w3.org/1999/xlink" data-name="Layer 1"><linearGradient id="linear-gradient" gradientUnits="userSpaceOnUse" x1="256" x2="256" y2="512"><stop offset="0" stop-color="#01f1fe"/><stop offset="1" stop-color="#4fadfe"/></linearGradient><path d="m448.771 91.848h-385.542a32 32 0 0 0 0 64h13.815v324.152a32 32 0 0 0 32 32h293.912a32 32 0 0 0 32-32v-324.152h13.815a32 32 0 0 0 0-64zm-77.815 356.152h-229.912v-292.152h229.912zm-195.443-416a32 32 0 0 1 32-32h96.974a32 32 0 0 1 0 64h-96.974a32 32 0 0 1 -32-32zm-2.513 316.6v-93.36a32 32 0 1 1 64 0v93.36a32 32 0 0 1 -64 0zm102 0v-93.36a32 32 0 1 1 64 0v93.36a32 32 0 0 1 -64 0z" fill="url(#linear-gradient)"/></svg>