<svg id="Layer_1" height="512" viewBox="0 0 512 512" width="512" xmlns="http://www.w3.org/2000/svg" xmlns:xlink="http://www.w3.org/1999/xlink" data-name="Layer 1"><linearGradient id="linear-gradient" gradientUnits="userSpaceOnUse" x1="256" x2="256" y2="512"><stop offset="0" stop-color="#01f1fe"/><stop offset="1" stop-color="#4fadfe"/></linearGradient><path d="m484.5 283.5a228.5 228.5 0 0 1 -390.072 161.575 228.519 228.519 0 0 1 36.8-353.014 32 32 0 0 1 34.988 53.589 164.147 164.147 0 0 0 -74.716 137.85c0 90.707 73.8 164.5 164.5 164.5s164.5-73.793 164.5-164.5a164.147 164.147 0 0 0 -74.711-137.85 32 32 0 0 1 34.988-53.589 227.938 227.938 0 0 1 103.723 191.439zm-228.5-81.08a32 32 0 0 0 32-32v-138.42a32 32 0 0 0 -64 0v138.42a32 32 0 0 0 32 32z" fill="url(#linear-gradient)"/></svg>