<svg id="Layer_1" height="512" viewBox="0 0 512 512" width="512" xmlns="http://www.w3.org/2000/svg" xmlns:xlink="http://www.w3.org/1999/xlink" data-name="Layer 1"><linearGradient id="linear-gradient" gradientUnits="userSpaceOnUse" x1="256" x2="256" y2="512.002"><stop offset="0" stop-color="#01f1fe"/><stop offset="1" stop-color="#4fadfe"/></linearGradient><path d="m433.967 189.629a32 32 0 0 0 -28.536-17.519h-43.618l63.714-125.636a32 32 0 0 0 -28.54-46.474h-195.282a32 32 0 0 0 -29.747 20.207l-95.137 239.969a32 32 0 0 0 29.748 43.794h94.26l-28.765 170.713a32 32 0 0 0 57.383 24.21l201.812-275.893a32 32 0 0 0 2.708-33.371zm-151.531 31.227a32 32 0 0 0 27.269 15.254h32.671l-84.727 115.828 12.579-74.651a32 32 0 0 0 -31.556-37.317h-84.994l69.764-175.97h121.437l-63.714 125.637a32 32 0 0 0 1.271 31.219z" fill="url(#linear-gradient)"/></svg>