<svg id="Layer_1" height="512" viewBox="0 0 512 512" width="512" xmlns="http://www.w3.org/2000/svg" xmlns:xlink="http://www.w3.org/1999/xlink" data-name="Layer 1"><linearGradient id="linear-gradient" gradientUnits="userSpaceOnUse" x1="256" x2="256" y2="512"><stop offset="0" stop-color="#01f1fe"/><stop offset="1" stop-color="#4fadfe"/></linearGradient><path d="m480 0h-318.293a32 32 0 0 0 -22.627 9.373l-129.707 129.706a32 32 0 0 0 -9.373 22.628v318.293a32 32 0 0 0 32 32h448a32 32 0 0 0 32-32v-448a32 32 0 0 0 -32-32zm-255.6 64h63.2v92.8h-63.2zm223.6 384h-384v-273.039l96.4-96.4v110.239a32 32 0 0 0 32 32h127.2a32 32 0 0 0 32-32v-124.8h96.4z" fill="url(#linear-gradient)"/></svg>