<svg id="Layer_1" height="512" viewBox="0 0 512 512" width="512" xmlns="http://www.w3.org/2000/svg" xmlns:xlink="http://www.w3.org/1999/xlink" data-name="Layer 1"><linearGradient id="linear-gradient" gradientUnits="userSpaceOnUse" x1="256" x2="256" y1="18.412" y2="493.588"><stop offset="0" stop-color="#01f1fe"/><stop offset="1" stop-color="#4fadfe"/></linearGradient><path d="m480 110.466h-193.785l-31.539-72.778a32 32 0 0 0 -29.362-19.276h-193.314a32 32 0 0 0 -32 32v411.176a32 32 0 0 0 32 32h448a32 32 0 0 0 32-32v-319.122a32 32 0 0 0 -32-32zm-275.694-28.054 12.157 28.054h-152.463v-28.054zm243.694 347.176h-384v-255.122h384z" fill="url(#linear-gradient)"/></svg>