<svg id="Layer_1" height="512" viewBox="0 0 512 512" width="512" xmlns="http://www.w3.org/2000/svg" xmlns:xlink="http://www.w3.org/1999/xlink" data-name="Layer 1"><linearGradient id="linear-gradient" gradientUnits="userSpaceOnUse" x1="256" x2="256" y2="512"><stop offset="0" stop-color="#01f1fe"/><stop offset="1" stop-color="#4fadfe"/></linearGradient><path d="m405.815 368.624a210.787 210.787 0 0 1 -117.815 59.863v51.513a32 32 0 0 1 -64 0v-51.513a212.824 212.824 0 0 1 -180.088-209.678 32 32 0 0 1 64 0c0 81.656 66.432 148.091 148.088 148.091s148.088-66.432 148.088-148.088a32 32 0 0 1 64 0 210.59 210.59 0 0 1 -62.273 149.812zm-250.357-149.814v-118.269a100.542 100.542 0 0 1 201.084 0v118.269a100.542 100.542 0 0 1 -201.084 0zm64 0a36.542 36.542 0 0 0 73.084 0v-118.269a36.583 36.583 0 0 0 -36.542-36.541 36.583 36.583 0 0 0 -36.542 36.541z" fill="url(#linear-gradient)"/></svg>