<svg id="Layer_1" height="512" viewBox="0 0 512 512" width="512" xmlns="http://www.w3.org/2000/svg" xmlns:xlink="http://www.w3.org/1999/xlink" data-name="Layer 1"><linearGradient id="linear-gradient" gradientUnits="userSpaceOnUse" x1="256" x2="256" y1="24.732" y2="487.268"><stop offset="0" stop-color="#01f1fe"/><stop offset="1" stop-color="#4fadfe"/></linearGradient><path d="m288 190.826v94.974a32 32 0 0 1 -64 0v-94.974a32 32 0 0 1 64 0zm-32 151.68a32 32 0 0 0 -32 32v6.67a32 32 0 0 0 64 0v-6.67a32 32 0 0 0 -32-32zm246.154 108.576a71.635 71.635 0 0 1 -62.675 36.186h-366.958a72.369 72.369 0 0 1 -62.675-108.554l183.48-317.8a72.369 72.369 0 0 1 125.348 0l183.48 317.8a71.634 71.634 0 0 1 0 72.368zm-55.425-40.37-183.481-317.795a8.368 8.368 0 0 0 -14.494 0l-183.483 317.796a8.37 8.37 0 0 0 7.25 12.555h366.958a8.371 8.371 0 0 0 7.25-12.556z" fill="url(#linear-gradient)"/></svg>