<svg id="Layer_1" height="512" viewBox="0 0 512 512" width="512" xmlns="http://www.w3.org/2000/svg" xmlns:xlink="http://www.w3.org/1999/xlink" data-name="Layer 1"><linearGradient id="linear-gradient" gradientUnits="userSpaceOnUse" x1="256" x2="256" y2="512"><stop offset="0" stop-color="#01f1fe"/><stop offset="1" stop-color="#4fadfe"/></linearGradient><path d="m502.628 158.167-148.794-148.794a32 32 0 0 0 -45.255 0l-268.479 268.476a32 32 0 0 0 -8.915 17.229l-30.726 179.522a32 32 0 0 0 36.941 36.942l179.524-30.73a32 32 0 0 0 17.228-8.914l268.476-268.477a32 32 0 0 0 0-45.254zm-413.954 180.403a178.3 178.3 0 0 1 49.443 35.312 178.273 178.273 0 0 1 35.312 49.444l-102.259 17.504zm138.7 49.6a245.157 245.157 0 0 0 -44-59.542 245.131 245.131 0 0 0 -59.542-44l207.374-207.373 103.539 103.539z" fill="url(#linear-gradient)"/></svg>