<svg id="Layer_1" height="512" viewBox="0 0 512 512" width="512" xmlns="http://www.w3.org/2000/svg" xmlns:xlink="http://www.w3.org/1999/xlink" data-name="Layer 1"><linearGradient id="linear-gradient" gradientUnits="userSpaceOnUse" x1="256" x2="256" y2="512"><stop offset="0" stop-color="#01f1fe"/><stop offset="1" stop-color="#4fadfe"/></linearGradient><path d="m446.892 179.984h-45.379v-34.471c0-80.236-65.277-145.513-145.513-145.513s-145.513 65.277-145.513 145.513v34.471h-45.379a32 32 0 0 0 -32 32v268.016a32 32 0 0 0 32 32h381.784a32 32 0 0 0 32-32v-268.016a32 32 0 0 0 -32-32zm-272.4-34.471a81.513 81.513 0 1 1 163.026 0v34.471h-163.031zm240.4 302.487h-317.784v-204.016h317.784z" fill="url(#linear-gradient)"/></svg>