<svg id="Layer_1" height="512" viewBox="0 0 512 512" width="512" xmlns="http://www.w3.org/2000/svg" xmlns:xlink="http://www.w3.org/1999/xlink" data-name="Layer 1"><linearGradient id="linear-gradient" gradientUnits="userSpaceOnUse" x1="256" x2="256" y2="512"><stop offset="0" stop-color="#01f1fe"/><stop offset="1" stop-color="#4fadfe"/></linearGradient><path d="m507.284 363.114a32 32 0 0 0 -17.56-23.477l-136.411-66.36a32 32 0 0 0 -36.626 6.149l-23.143 23.142a349.616 349.616 0 0 1 -86.544-90.227l21.3-21.3a32 32 0 0 0 6.147-36.626l-66.358-136.415a32 32 0 0 0 -51.4-8.63l-103.043 103.041a32 32 0 0 0 -9.318 24.489c5.4 92.732 44.764 182.02 110.831 251.417 65.927 69.249 153.079 113.1 245.4 123.483a32.009 32.009 0 0 0 26.2-9.172l111.595-111.589a32 32 0 0 0 8.93-27.925zm-154.565 83.05c-149.619-23.836-268.074-148.719-283.374-298.94l60.839-60.839 36.739 75.521-23 23a32 32 0 0 0 -5.233 38.37 413.309 413.309 0 0 0 142.07 147.711 32 32 0 0 0 39.463-4.587l25.6-25.6 75.522 36.739z" fill="url(#linear-gradient)"/></svg>