<svg id="Layer_1" height="512" viewBox="0 0 512 512" width="512" xmlns="http://www.w3.org/2000/svg" xmlns:xlink="http://www.w3.org/1999/xlink" data-name="Layer 1"><linearGradient id="linear-gradient" gradientUnits="userSpaceOnUse" x1="256" x2="256" y2="512"><stop offset="0" stop-color="#01f1fe"/><stop offset="1" stop-color="#4fadfe"/></linearGradient><path d="m323.789 0h-135.579a126.458 126.458 0 0 0 -126.31 126.315v191.585a193.909 193.909 0 0 0 331.214 137.109 192.739 192.739 0 0 0 56.991-137.109v-191.585a126.459 126.459 0 0 0 -126.316-126.315zm62.316 317.9a130.105 130.105 0 0 1 -260.21 0v-191.585a62.386 62.386 0 0 1 62.315-62.315h35.79v118.316a32 32 0 1 0 64 0v-118.316h35.789a62.387 62.387 0 0 1 62.316 62.315z" fill="url(#linear-gradient)"/></svg>