<svg id="Layer_1" height="512" viewBox="0 0 512 512" width="512" xmlns="http://www.w3.org/2000/svg" xmlns:xlink="http://www.w3.org/1999/xlink" data-name="Layer 1"><linearGradient id="linear-gradient" gradientUnits="userSpaceOnUse" x1="256" x2="256" y1="68.226" y2="443.774"><stop offset="0" stop-color="#01f1fe"/><stop offset="1" stop-color="#4fadfe"/></linearGradient><path d="m496 94.308a32 32 0 0 0 -32 0l-75.819 43.773v-37.855a32 32 0 0 0 -32-32h-324.181a32 32 0 0 0 -32 32v311.548a32 32 0 0 0 32 32h324.181a32 32 0 0 0 32-32v-37.855l75.819 43.773a32 32 0 0 0 48-27.713v-267.958a32 32 0 0 0 -16-27.713zm-171.819 285.466h-260.181v-247.548h260.181zm123.819-45.22-59.819-34.536v-88.036l59.819-34.536z" fill="url(#linear-gradient)"/></svg>