<svg id="Layer_1" height="512" viewBox="0 0 512 512" width="512" xmlns="http://www.w3.org/2000/svg" xmlns:xlink="http://www.w3.org/1999/xlink" data-name="Layer 1"><linearGradient id="linear-gradient" gradientUnits="userSpaceOnUse" x1="256" x2="256" y2="512"><stop offset="0" stop-color="#01f1fe"/><stop offset="1" stop-color="#4fadfe"/></linearGradient><path d="m502.627 220.929-211.556-211.556a32 32 0 0 0 -45.255 45.255l24.036 24.035-196.3 142.637-18.924-18.929a32 32 0 0 0 -45.256 45.256l104.873 104.873-102.652 102.651a32 32 0 0 0 45.256 45.256l102.651-102.652 104.873 104.873a32 32 0 0 0 45.256-45.256l-18.924-18.924 142.632-196.3 24.035 24.036a32 32 0 1 0 45.255-45.255zm-257.741 171.701-125.515-125.516 196.3-142.632 71.847 71.847z" fill="url(#linear-gradient)"/></svg>