<svg id="Layer_1" height="512" viewBox="0 0 512 512" width="512" xmlns="http://www.w3.org/2000/svg" xmlns:xlink="http://www.w3.org/1999/xlink" data-name="Layer 1"><linearGradient id="linear-gradient" gradientUnits="userSpaceOnUse" x1="256" x2="256" y1="47.281" y2="464.719"><stop offset="0" stop-color="#01f1fe"/><stop offset="1" stop-color="#4fadfe"/></linearGradient><path d="m502.627 194.693a32 32 0 0 1 -45.254 0 284.783 284.783 0 0 0 -402.746 0 32 32 0 0 1 -45.254-45.255 348.519 348.519 0 0 1 493.254 0 32 32 0 0 1 0 45.255zm-394.213 53.787a32 32 0 0 0 45.255 45.255c56.426-56.425 148.236-56.425 204.662 0a32 32 0 1 0 45.255-45.255c-81.379-81.38-213.793-81.38-295.172 0zm196.13 99.041a68.652 68.652 0 1 1 -97.088 0 68.2 68.2 0 0 1 97.088 0z" fill="url(#linear-gradient)"/></svg>