<svg id="Layer_1" height="512" viewBox="0 0 512 512" width="512" xmlns="http://www.w3.org/2000/svg" xmlns:xlink="http://www.w3.org/1999/xlink" data-name="Layer 1"><linearGradient id="linear-gradient" gradientUnits="userSpaceOnUse" x1="256" x2="256" y2="512"><stop offset="0" stop-color="#01f1fe"/><stop offset="1" stop-color="#4fadfe"/></linearGradient><path d="m512 32a32 32 0 0 0 -32-32h-448a32 32 0 0 0 -32 32v448a32 32 0 0 0 32 32h448a32 32 0 0 0 32-32zm-64 32v177.463l-81.723-73.985a32 32 0 0 0 -42.488-.414l-77.226 67.236-64.287-77.868a32 32 0 0 0 -45.54-3.891l-72.736 62.539v-151.08zm-384 384v-148.512l89.708-77.138 149.615 181.223a32 32 0 0 0 49.354-40.746l-65.354-79.161 57.062-49.677 103.615 93.811v120.2z" fill="url(#linear-gradient)"/></svg>