<svg id="Layer_1" height="512" viewBox="0 0 512 512" width="512" xmlns="http://www.w3.org/2000/svg" xmlns:xlink="http://www.w3.org/1999/xlink" data-name="Layer 1"><linearGradient id="linear-gradient" gradientUnits="userSpaceOnUse" x1="256" x2="256" y2="512"><stop offset="0" stop-color="#01f1fe"/><stop offset="1" stop-color="#4fadfe"/></linearGradient><path d="m411.416 64.376a219.792 219.792 0 0 0 -375.208 155.416c0 60.207 20.667 89.1 38.9 114.6 19.9 27.823 40.475 56.593 40.475 145.605a32 32 0 0 0 32 32h216.832a32 32 0 0 0 32-32c0-89.011 20.576-117.782 40.475-145.605 18.235-25.5 38.9-54.4 38.9-114.6a218.352 218.352 0 0 0 -64.374-155.416zm-26.583 232.789c-20.927 29.26-46.433 64.925-51.515 150.835h-45.318v-208.383a32 32 0 1 0 -64 0v208.383h-45.319c-5.077-85.911-30.588-121.575-51.514-150.836-16.234-22.7-26.959-37.695-26.959-77.372 0-85.904 69.892-155.792 155.792-155.792s155.792 69.888 155.792 155.792c0 39.677-10.725 54.673-26.959 77.373z" fill="url(#linear-gradient)"/></svg>