<svg id="Layer_1" height="512" viewBox="0 0 512 512" width="512" xmlns="http://www.w3.org/2000/svg" xmlns:xlink="http://www.w3.org/1999/xlink" data-name="Layer 1"><linearGradient id="linear-gradient" gradientUnits="userSpaceOnUse" x1="256" x2="256" y2="512"><stop offset="0" stop-color="#01f1fe"/><stop offset="1" stop-color="#4fadfe"/></linearGradient><path d="m387.765 79.328h-38.472v-47.328a32 32 0 0 0 -32-32h-122.586a32 32 0 0 0 -32 32v47.328h-38.472a32 32 0 0 0 -32 32v368.672a32 32 0 0 0 32 32h263.53a32 32 0 0 0 32-32v-368.672a32 32 0 0 0 -32-32zm-161.058-15.328h58.586v15.328h-58.586zm129.058 384h-199.53v-304.672h199.53zm-165.365-209.036a32 32 0 0 1 32-32h67.2a32 32 0 0 1 0 64h-67.2a32 32 0 0 1 -32-32zm0 113.4a32 32 0 0 1 32-32h67.2a32 32 0 0 1 0 64h-67.2a32 32 0 0 1 -32-32z" fill="url(#linear-gradient)"/></svg>