<svg id="Layer_1" height="512" viewBox="0 0 512 512" width="512" xmlns="http://www.w3.org/2000/svg" xmlns:xlink="http://www.w3.org/1999/xlink" data-name="Layer 1"><linearGradient id="linear-gradient" gradientUnits="userSpaceOnUse" x1="256" x2="256" y2="512"><stop offset="0" stop-color="#01f1fe"/><stop offset="1" stop-color="#4fadfe"/></linearGradient><path d="m497.036 145.792-224-140.88a32 32 0 0 0 -34.072 0l-224 140.88a32 32 0 0 0 -14.964 27.088v307.12a32 32 0 0 0 32 32h448a32 32 0 0 0 32-32v-307.12a32 32 0 0 0 -14.964-27.088zm-241.036-75.992 165.726 104.232-165.726 113.611-165.726-113.611zm-192 378.2v-214.385l173.906 119.219a32 32 0 0 0 36.188 0l173.906-119.219v214.385z" fill="url(#linear-gradient)"/></svg>