<svg id="Layer_1" height="512" viewBox="0 0 512 512" width="512" xmlns="http://www.w3.org/2000/svg" xmlns:xlink="http://www.w3.org/1999/xlink" data-name="Layer 1"><linearGradient id="linear-gradient" gradientUnits="userSpaceOnUse" x1="256" x2="256" y1="-.001" y2="512"><stop offset="0" stop-color="#01f1fe"/><stop offset="1" stop-color="#4fadfe"/></linearGradient><path d="m480 87.357h-154.624l29.514-34.585a32 32 0 1 0 -48.683-41.544l-50.207 58.833-50.207-58.833a32 32 0 1 0 -48.683 41.544l29.514 34.585h-154.624a32 32 0 0 0 -32 32v360.643a32 32 0 0 0 32 32h448a32 32 0 0 0 32-32v-360.643a32 32 0 0 0 -32-32zm-32 104.043h-160v-40.043h160zm-224-40.043v40.043h-160v-40.043zm-160 104.043h160v192.6h-160zm224 192.6v-192.6h160v192.6z" fill="url(#linear-gradient)"/></svg>