<svg id="Layer_1" height="512" viewBox="0 0 512 512" width="512" xmlns="http://www.w3.org/2000/svg" xmlns:xlink="http://www.w3.org/1999/xlink" data-name="Layer 1"><linearGradient id="linear-gradient" gradientUnits="userSpaceOnUse" x1="256" x2="256" y2="512"><stop offset="0" stop-color="#01f1fe"/><stop offset="1" stop-color="#4fadfe"/></linearGradient><path d="m469.45 476.529-33.927-310.99a32 32 0 0 0 -31.811-28.529h-34.812v-24.11a112.9 112.9 0 0 0 -225.8 0v24.11h-34.812a32 32 0 0 0 -31.811 28.529l-33.927 310.99a32 32 0 0 0 31.812 35.471h363.276a32 32 0 0 0 31.812-35.471zm-262.35-363.629a48.9 48.9 0 0 1 97.8 0v24.11h-97.8zm-97.058 335.1 26.945-246.99h238.026l26.945 246.99z" fill="url(#linear-gradient)"/></svg>