<svg id="Layer_1" height="512" viewBox="0 0 512 512" width="512" xmlns="http://www.w3.org/2000/svg" xmlns:xlink="http://www.w3.org/1999/xlink" data-name="Layer 1"><linearGradient id="linear-gradient" gradientUnits="userSpaceOnUse" x1="256" x2="256" y1="9.739" y2="502.261"><stop offset="0" stop-color="#01f1fe"/><stop offset="1" stop-color="#4fadfe"/></linearGradient><path d="m480 9.739h-448a32 32 0 0 0 -32 32v428.522a32 32 0 0 0 32 32h448a32 32 0 0 0 32-32v-428.522a32 32 0 0 0 -32-32zm-248 64h48v77.218h-48zm216 364.522h-384v-364.522h104v109.218a32 32 0 0 0 32 32h112a32 32 0 0 0 32-32v-109.218h104z" fill="url(#linear-gradient)"/></svg>