<svg id="Layer_1" height="512" viewBox="0 0 512 512" width="512" xmlns="http://www.w3.org/2000/svg" xmlns:xlink="http://www.w3.org/1999/xlink" data-name="Layer 1"><linearGradient id="linear-gradient" gradientUnits="userSpaceOnUse" x1="256" x2="256" y2="512.005"><stop offset="0" stop-color="#01f1fe"/><stop offset="1" stop-color="#4fadfe"/></linearGradient><path d="m495.992 256a238.547 238.547 0 0 0 -22-100.31 31.863 31.863 0 0 0 12.627-7.768 86.651 86.651 0 1 0 -122.542-122.542 31.847 31.847 0 0 0 -7.766 12.626 239.708 239.708 0 0 0 -200.622 0 31.847 31.847 0 0 0 -7.766-12.626 86.651 86.651 0 0 0 -122.544 122.542 31.845 31.845 0 0 0 12.626 7.767 239.615 239.615 0 0 0 50.543 272.051l-21.191 36.04a32 32 0 1 0 55.17 32.44l17.681-30.07a239.56 239.56 0 0 0 231.584 0l17.681 30.07a32 32 0 0 0 55.17-32.44l-21.192-36.04a239.277 239.277 0 0 0 72.541-171.74zm-86.659-185.366a22.651 22.651 0 1 1 32.032 32.034c-.162.162-.313.331-.47.495a242.162 242.162 0 0 0 -32.058-32.058c.163-.158.334-.305.496-.471zm-338.7 32.034a22.651 22.651 0 1 1 32.032-32.034c.162.162.331.313.5.471a242.162 242.162 0 0 0 -32.058 32.058c-.16-.163-.307-.333-.472-.495zm9.374 153.332c0-97.042 78.95-175.992 175.993-175.992s175.992 78.95 175.992 175.992-78.95 175.993-175.992 175.993-175.993-78.95-175.993-175.993zm207.993-81.065v81.065a32 32 0 0 1 -4.851 16.938l-34.872 55.893a32 32 0 1 1 -54.3-33.877l30.023-48.118v-71.9a32 32 0 0 1 64 0z" fill="url(#linear-gradient)"/></svg>