<?xml version="1.0" encoding="UTF-8"?>
<svg xmlns="http://www.w3.org/2000/svg" xmlns:xlink="http://www.w3.org/1999/xlink" id="Layer_1" data-name="Layer 1" viewBox="0 0 512 512" width="512" height="512"><defs><linearGradient id="linear-gradient" x1="256" x2="256" y2="512" gradientUnits="userSpaceOnUse"><stop offset="0" stop-color="#01f1fe"/><stop offset="1" stop-color="#4fadfe"/></linearGradient></defs><path d="M193.126,286.874H32a32,32,0,0,0-32,32V480a32,32,0,0,0,32,32H193.126a32,32,0,0,0,32-32V318.874A32,32,0,0,0,193.126,286.874ZM161.126,448H64V350.874h97.126ZM480,286.874H318.874a32,32,0,0,0-32,32V480a32,32,0,0,0,32,32H480a32,32,0,0,0,32-32V318.874A32,32,0,0,0,480,286.874ZM448,448H350.874V350.874H448ZM193.126,0H32A32,32,0,0,0,0,32V193.126a32,32,0,0,0,32,32H193.126a32,32,0,0,0,32-32V32A32,32,0,0,0,193.126,0Zm-32,161.126H64V64h97.126ZM480,0H318.874a32,32,0,0,0-32,32V193.126a32,32,0,0,0,32,32H480a32,32,0,0,0,32-32V32A32,32,0,0,0,480,0ZM448,161.126H350.874V64H448Z" style="fill:url(#linear-gradient)"/></svg>
