<svg id="Layer_1" height="512" viewBox="0 0 512 512" width="512" xmlns="http://www.w3.org/2000/svg" xmlns:xlink="http://www.w3.org/1999/xlink" data-name="Layer 1"><linearGradient id="linear-gradient" gradientUnits="userSpaceOnUse" x1="256" x2="256" y1="18.026" y2="493.974"><stop offset="0" stop-color="#01f1fe"/><stop offset="1" stop-color="#4fadfe"/></linearGradient><path d="m491.764 68.194a32 32 0 0 0 -36.975 10.051l-103.479 132.371-64.322-171.809a32 32 0 0 0 -59.937 0l-64.487 172.252-105.494-132.993a32 32 0 0 0 -56.925 22.921l34.67 364.021a32 32 0 0 0 31.856 28.966h380.7a32 32 0 0 0 31.872-29.143l32.632-364.02a32 32 0 0 0 -20.111-32.617zm-73.656 361.78h-322.34l-21.668-227.45 73.507 92.667a32 32 0 0 0 55.039-8.667l54.374-145.224 54.37 145.228a32 32 0 0 0 55.179 8.489l71.88-91.95z" fill="url(#linear-gradient)"/></svg>