<svg id="Layer_1" height="512" viewBox="0 0 512 512" width="512" xmlns="http://www.w3.org/2000/svg" xmlns:xlink="http://www.w3.org/1999/xlink" data-name="Layer 1"><linearGradient id="linear-gradient" gradientUnits="userSpaceOnUse" x1="256" x2="256" y2="512"><stop offset="0" stop-color="#01f1fe"/><stop offset="1" stop-color="#4fadfe"/></linearGradient><path d="m462.288 303.547c-7.7-117.274-73.7-197.166-185.108-295.534a32 32 0 0 0 -42.36 0c-111.4 98.368-177.408 178.26-185.108 295.534-3.507 53.407 14.459 104.065 50.588 142.642 39.166 41.824 95.917 65.811 155.7 65.811s116.534-23.987 155.7-65.811c36.129-38.577 54.1-89.235 50.588-142.642zm-97.3 98.895c-27.114 28.958-66.839 45.558-108.988 45.558s-81.874-16.6-108.988-45.558c-16.9-18.051-36.429-49.135-33.438-94.7 5.239-79.788 41.826-140.596 142.426-232.723 100.605 92.127 137.187 152.935 142.426 232.721 2.991 45.567-16.533 76.651-33.438 94.702z" fill="url(#linear-gradient)"/></svg>