<svg id="Layer_1" height="512" viewBox="0 0 512 512" width="512" xmlns="http://www.w3.org/2000/svg" xmlns:xlink="http://www.w3.org/1999/xlink" data-name="Layer 1"><linearGradient id="linear-gradient" gradientUnits="userSpaceOnUse" x1="256" x2="256" y1="-.006" y2="512"><stop offset="0" stop-color="#01f1fe"/><stop offset="1" stop-color="#4fadfe"/></linearGradient><path d="m470.754 193.559h-107.6l79.966-46.168a32 32 0 0 0 11.713-43.713l-50.621-87.678a32 32 0 0 0 -43.712-11.713l-335.254 193.559a32 32 0 0 0 -16 27.713v254.441a32 32 0 0 0 32 32h429.508a32 32 0 0 0 32-32v-254.441a32 32 0 0 0 -32-32zm-105.968-117.846 18.621 32.252-148.253 85.594h-74.482zm73.968 372.287h-365.508v-190.441h365.508z" fill="url(#linear-gradient)"/></svg>