<svg id="Layer_1" height="512" viewBox="0 0 512 512" width="512" xmlns="http://www.w3.org/2000/svg" xmlns:xlink="http://www.w3.org/1999/xlink" data-name="Layer 1"><linearGradient id="linear-gradient" gradientUnits="userSpaceOnUse" x1="256" x2="256" y2="512.001"><stop offset="0" stop-color="#01f1fe"/><stop offset="1" stop-color="#4fadfe"/></linearGradient><path d="m200.211 32v448a32 32 0 0 1 -64 0v-370.745l-77.3 77.153a32 32 0 0 1 -45.254-45.256l131.927-131.78a32 32 0 0 1 54.627 22.628zm298.135 290.167a32 32 0 0 0 -45.255 0l-80.583 80.578v-370.745a32 32 0 0 0 -64 0v448a32 32 0 0 0 54.627 22.628l135.21-135.206a32 32 0 0 0 .001-45.255z" fill="url(#linear-gradient)"/></svg>