<svg id="Layer_1" height="512" viewBox="0 0 512 512" width="512" xmlns="http://www.w3.org/2000/svg" xmlns:xlink="http://www.w3.org/1999/xlink" data-name="Layer 1"><linearGradient id="linear-gradient" gradientUnits="userSpaceOnUse" x1="256" x2="256" y2="512"><stop offset="0" stop-color="#01f1fe"/><stop offset="1" stop-color="#4fadfe"/></linearGradient><path d="m64 205.335v274.665a32 32 0 0 1 -64 0v-274.665a32 32 0 0 1 64 0zm117.333 56.8a32 32 0 0 0 -32 32v185.865a32 32 0 0 0 64 0v-185.864a32 32 0 0 0 -32-32zm149.334-262.135a32 32 0 0 0 -32 32v448a32 32 0 0 0 64 0v-448a32 32 0 0 0 -32-32zm149.333 146.936a32 32 0 0 0 -32 32v301.064a32 32 0 0 0 64 0v-301.064a32 32 0 0 0 -32-32z" fill="url(#linear-gradient)"/></svg>