<svg id="Layer_1" height="512" viewBox="0 0 512 512" width="512" xmlns="http://www.w3.org/2000/svg" xmlns:xlink="http://www.w3.org/1999/xlink" data-name="Layer 1"><linearGradient id="linear-gradient" gradientUnits="userSpaceOnUse" x1="256" x2="256" y2="512"><stop offset="0" stop-color="#01f1fe"/><stop offset="1" stop-color="#4fadfe"/></linearGradient><path d="m482.626 11.348a32 32 0 0 0 -24.443-11.348h-404.366a32 32 0 0 0 -31.55 37.343 237.32 237.32 0 0 0 79.957 140.62q8.849 7.548 18.349 14.14v287.897a32 32 0 0 0 32 32h206.854a32 32 0 0 0 32-32v-287.9q9.481-6.6 18.35-14.141a237.318 237.318 0 0 0 79.956-140.62 32 32 0 0 0 -7.107-25.991zm-155.199 436.652h-142.854v-224.426a237.108 237.108 0 0 0 71.427 11.026 237.108 237.108 0 0 0 71.427-11.028zm-71.427-277.4a172.543 172.543 0 0 1 -159.934-106.6h319.868a172.542 172.542 0 0 1 -159.934 106.6z" fill="url(#linear-gradient)"/></svg>