<svg id="Layer_1" height="512" viewBox="0 0 512 512" width="512" xmlns="http://www.w3.org/2000/svg" xmlns:xlink="http://www.w3.org/1999/xlink" data-name="Layer 1"><linearGradient id="linear-gradient" gradientUnits="userSpaceOnUse" x1="256" x2="256" y2="512"><stop offset="0" stop-color="#01f1fe"/><stop offset="1" stop-color="#4fadfe"/></linearGradient><path d="m502.627 349.064-52.821-52.82a122.233 122.233 0 0 0 -8.692-162.95l-123.922-123.921a32 32 0 0 0 -45.255 0l-262.564 262.564a32 32 0 0 0 0 45.255l123.921 123.92a122.382 122.382 0 0 0 162.95 8.694l52.82 52.821a32 32 0 0 0 45.256 0l108.307-108.307a32 32 0 0 0 0-45.256zm-326.3-86.708-33.427-33.434 20.385-20.384 33.434 33.434zm65.641-65.64-33.434-33.434 20.388-20.382 33.435 33.435zm86.032-86.027-20.386 20.387-33.436-33.435 20.386-20.386zm-230.359 163.489 33.434 33.434-20.386 20.388-33.434-33.436zm121.959 138.577a57.625 57.625 0 0 1 -41.055-16.9l-22.605-22.6 217.313-217.31 22.605 22.605a58.125 58.125 0 0 1 0 82.109l-135.2 135.2a57.624 57.624 0 0 1 -41.058 16.896zm152.088 21.99-29.7-29.7 63.053-63.053 29.7 29.7z" fill="url(#linear-gradient)"/></svg>