<svg id="Layer_1" height="512" viewBox="0 0 512 512" width="512" xmlns="http://www.w3.org/2000/svg" xmlns:xlink="http://www.w3.org/1999/xlink" data-name="Layer 1"><linearGradient id="linear-gradient" gradientUnits="userSpaceOnUse" x1="256" x2="256" y2="512"><stop offset="0" stop-color="#01f1fe"/><stop offset="1" stop-color="#4fadfe"/></linearGradient><path d="m414.786 194.984v-65.77a32 32 0 0 0 -32-32h-65.771a110.414 110.414 0 0 0 -219.244 0h-65.771a32 32 0 0 0 -32 32v105.986a32 32 0 0 0 32 32h18.809a37.406 37.406 0 0 1 0 74.812h-18.809a32 32 0 0 0 -32 32v105.988a32 32 0 0 0 32 32h350.786a32 32 0 0 0 32-32v-65.771a110.414 110.414 0 0 0 0-219.245zm-13.192 156.028h-18.808a32 32 0 0 0 -32 32v64.988h-286.786v-42.842a101.414 101.414 0 0 0 0-201.1v-42.844h64.988a32 32 0 0 0 32-32v-18.809a46.406 46.406 0 0 1 92.811 0v18.809a32 32 0 0 0 32 32h64.987v64.986a32 32 0 0 0 32 32h18.808a46.406 46.406 0 1 1 0 92.811z" fill="url(#linear-gradient)"/></svg>