<svg id="Layer_1" height="512" viewBox="0 0 512 512" width="512" xmlns="http://www.w3.org/2000/svg" xmlns:xlink="http://www.w3.org/1999/xlink" data-name="Layer 1"><linearGradient id="linear-gradient" gradientUnits="userSpaceOnUse" x1="256" x2="256" y2="512"><stop offset="0" stop-color="#01f1fe"/><stop offset="1" stop-color="#4fadfe"/></linearGradient><path d="m480 88.618h-79.2v-56.618a32 32 0 0 0 -32-32h-225.6a32 32 0 0 0 -32 32v56.618h-79.2a32 32 0 0 0 -32 32v166.691a32 32 0 0 0 24.254 31.048l10.146 2.532v159.111a32 32 0 0 0 32 32h379.2a32 32 0 0 0 32-32v-159.111l10.146-2.532a32 32 0 0 0 24.254-31.048v-166.691a32 32 0 0 0 -32-32zm-304.8-24.618h161.6v24.618h-161.6zm-111.2 88.618h384v109.693l-192 47.9-192-47.9zm349.6 295.382h-315.2v-111.145l149.854 37.385a32.022 32.022 0 0 0 15.492 0l149.854-37.385z" fill="url(#linear-gradient)"/></svg>