<svg id="Layer_1" height="512" viewBox="0 0 512 512" width="512" xmlns="http://www.w3.org/2000/svg" xmlns:xlink="http://www.w3.org/1999/xlink" data-name="Layer 1"><linearGradient id="linear-gradient" gradientUnits="userSpaceOnUse" x1="256" x2="256" y2="512"><stop offset="0" stop-color="#01f1fe"/><stop offset="1" stop-color="#4fadfe"/></linearGradient><path d="m430.734 164.952 12.672-12.672a32 32 0 0 0 -45.255-45.255l-12.672 12.675a216.466 216.466 0 0 0 -97.479-40.477v-15.337a32 32 0 0 0 -2.6-63.886h-58.8a32 32 0 0 0 -2.6 63.886v15.337a216.468 216.468 0 0 0 -97.48 40.477l-12.672-12.673a32 32 0 0 0 -45.255 45.253l12.672 12.673a216.421 216.421 0 0 0 -42.832 129.48c0 119.967 97.6 217.567 217.567 217.567s217.567-97.6 217.567-217.567a216.418 216.418 0 0 0 -42.833-129.481zm-174.734 283.048c-84.678 0-153.567-68.89-153.567-153.567s68.889-153.569 153.567-153.569 153.567 68.891 153.567 153.569-68.889 153.567-153.567 153.567zm50.486-153.567a50.486 50.486 0 1 1 -82.486-39.018v-62.87a32 32 0 1 1 64 0v62.87a50.4 50.4 0 0 1 18.486 39.018z" fill="url(#linear-gradient)"/></svg>