<svg id="Layer_1" height="512" viewBox="0 0 512 512" width="512" xmlns="http://www.w3.org/2000/svg" xmlns:xlink="http://www.w3.org/1999/xlink" data-name="Layer 1"><linearGradient id="linear-gradient" gradientUnits="userSpaceOnUse" x1="256" x2="256" y2="512"><stop offset="0" stop-color="#01f1fe"/><stop offset="1" stop-color="#4fadfe"/></linearGradient><path d="m126.563 32a32 32 0 0 1 32-32h321.437a32 32 0 0 1 0 64h-321.437a32 32 0 0 1 -32-32zm32 256h242.437a32 32 0 0 0 0-64h-242.437a32 32 0 1 0 0 64zm321.437 160h-321.437a32 32 0 1 0 0 64h321.437a32 32 0 0 0 0-64zm-423.437-448h-24.563a32 32 0 0 0 0 64h24.563a32 32 0 0 0 0-64zm0 224h-24.563a32 32 0 0 0 0 64h24.563a32 32 0 0 0 0-64zm0 224h-24.563a32 32 0 0 0 0 64h24.563a32 32 0 0 0 0-64z" fill="url(#linear-gradient)"/></svg>