<svg id="Layer_1" height="512" viewBox="0 0 512 512" width="512" xmlns="http://www.w3.org/2000/svg" xmlns:xlink="http://www.w3.org/1999/xlink" data-name="Layer 1"><linearGradient id="linear-gradient" gradientUnits="userSpaceOnUse" x1="256" x2="256" y1="70.44" y2="441.56"><stop offset="0" stop-color="#01f1fe"/><stop offset="1" stop-color="#4fadfe"/></linearGradient><path d="m480 70.44h-448a32 32 0 0 0 -32 32v307.12a32 32 0 0 0 32 32h448a32 32 0 0 0 32-32v-307.12a32 32 0 0 0 -32-32zm-103.273 64-120.727 82.76-120.727-82.76zm-312.727 243.12v-214.385l173.906 119.219a32 32 0 0 0 36.188 0l173.906-119.219v214.385z" fill="url(#linear-gradient)"/></svg>