<svg id="Layer_1" height="512" viewBox="0 0 512 512" width="512" xmlns="http://www.w3.org/2000/svg" xmlns:xlink="http://www.w3.org/1999/xlink" data-name="Layer 1"><linearGradient id="linear-gradient" gradientUnits="userSpaceOnUse" x1="256" x2="256" y2="512"><stop offset="0" stop-color="#01f1fe"/><stop offset="1" stop-color="#4fadfe"/></linearGradient><path d="m509.989 453a254.15 254.15 0 0 0 -147.083-219.221 140.769 140.769 0 0 0 34.467-92.408c0-77.953-63.418-141.371-141.373-141.371s-141.368 63.418-141.368 141.371a140.765 140.765 0 0 0 34.468 92.406 254.147 254.147 0 0 0 -147.089 219.223 32 32 0 0 0 24.455 32.523c72.746 17.568 149.972 26.477 229.534 26.477s156.788-8.909 229.534-26.481a32 32 0 0 0 24.455-32.519zm-253.989-389a77.371 77.371 0 1 1 -77.371 77.371 77.458 77.458 0 0 1 77.371-77.371zm0 384c-64.533 0-127.314-6.232-187.041-18.547a189.92 189.92 0 0 1 147.841-151.223l-.229-1.092a141.561 141.561 0 0 0 78.862 0l-.229 1.092a189.919 189.919 0 0 1 147.837 151.223c-59.727 12.315-122.508 18.547-187.041 18.547z" fill="url(#linear-gradient)"/></svg>