<svg id="Layer_1" height="512" viewBox="0 0 512 512" width="512" xmlns="http://www.w3.org/2000/svg" xmlns:xlink="http://www.w3.org/1999/xlink" data-name="Layer 1"><linearGradient id="linear-gradient" gradientUnits="userSpaceOnUse" x1="256" x2="256" y1="10.963" y2="501.037"><stop offset="0" stop-color="#01f1fe"/><stop offset="1" stop-color="#4fadfe"/></linearGradient><path d="m510.434 195.82a32 32 0 0 0 -26.5-21.868l-139.426-17.281-59.522-127.264a32 32 0 0 0 -57.972 0l-59.522 127.264-139.429 17.281a32 32 0 0 0 -17.914 55.135l102.644 95.935-26.651 137.944a32 32 0 0 0 46.9 34.076l122.958-67.974 122.956 67.974a32 32 0 0 0 46.9-34.075l-26.65-137.946 102.643-95.934a32 32 0 0 0 8.585-33.267zm-167.851 94.524a32 32 0 0 0 -9.568 29.448l17.027 88.136-78.559-43.428a32 32 0 0 0 -30.964 0l-78.56 43.429 17.027-88.135a32 32 0 0 0 -9.568-29.448l-65.581-61.3 89.084-11.041a32 32 0 0 0 25.05-18.2l38.029-81.305 38.029 81.312a32 32 0 0 0 25.05 18.2l89.084 11.041z" fill="url(#linear-gradient)"/></svg>