<svg id="Layer_1" height="512" viewBox="0 0 512 512" width="512" xmlns="http://www.w3.org/2000/svg" xmlns:xlink="http://www.w3.org/1999/xlink" data-name="Layer 1"><linearGradient id="linear-gradient" gradientUnits="userSpaceOnUse" x1="256" x2="256" y1="40.513" y2="471.487"><stop offset="0" stop-color="#01f1fe"/><stop offset="1" stop-color="#4fadfe"/></linearGradient><path d="m407.436 200.048c-4.451-88.726-78.036-159.535-167.846-159.535-92.669 0-168.061 75.391-168.061 168.06q0 2.245.06 4.494a139.829 139.829 0 0 0 -44.389 38.694 136.376 136.376 0 0 0 -27.2 81.988c0 75.951 61.789 137.738 137.738 137.738h236.524c75.949 0 137.738-61.787 137.738-137.738 0-64.518-44.584-118.816-104.564-133.701zm-33.174 207.439h-236.524a73.822 73.822 0 0 1 -73.738-73.738c0-31.671 21.168-60.568 51.478-70.27a32 32 0 0 0 21.73-36.184 105.235 105.235 0 0 1 -1.679-18.722 104.06 104.06 0 1 1 208.12 0 105.606 105.606 0 0 1 -1.065 14.906 32 32 0 0 0 31.678 36.531 73.739 73.739 0 0 1 0 147.477z" fill="url(#linear-gradient)"/></svg>