<svg id="Layer_1" height="512" viewBox="0 0 512 512" width="512" xmlns="http://www.w3.org/2000/svg" xmlns:xlink="http://www.w3.org/1999/xlink" data-name="Layer 1"><linearGradient id="linear-gradient" gradientUnits="userSpaceOnUse" x1="256" x2="256" y2="512"><stop offset="0" stop-color="#01f1fe"/><stop offset="1" stop-color="#4fadfe"/></linearGradient><path d="m256 0c-141.159 0-256 114.841-256 256s114.841 256 256 256 256-114.841 256-256-114.841-256-256-256zm0 448c-105.869 0-192-86.131-192-192s86.131-192 192-192 192 86.131 192 192-86.131 192-192 192zm98.127-244.872-52.872 52.872 52.872 52.873a32 32 0 0 1 -45.254 45.255l-52.873-52.873-52.873 52.873a32 32 0 1 1 -45.254-45.255l52.872-52.873-52.872-52.872a32 32 0 1 1 45.254-45.255l52.873 52.873 52.873-52.873a32 32 0 0 1 45.254 45.255z" fill="url(#linear-gradient)"/></svg>