<svg id="Layer_1" height="512" viewBox="0 0 512 512" width="512" xmlns="http://www.w3.org/2000/svg" xmlns:xlink="http://www.w3.org/1999/xlink" data-name="Layer 1"><linearGradient id="linear-gradient" gradientUnits="userSpaceOnUse" x1="256" x2="256" y2="512"><stop offset="0" stop-color="#01f1fe"/><stop offset="1" stop-color="#4fadfe"/></linearGradient><path d="m480 63.507h-71.5v-31.507a32 32 0 0 0 -64 0v31.507h-177v-31.507a32 32 0 0 0 -64 0v31.507h-71.5a32 32 0 0 0 -32 32v384.493a32 32 0 0 0 32 32h448a32 32 0 0 0 32-32v-384.493a32 32 0 0 0 -32-32zm-32 64v50.493h-384v-50.493zm-384 320.493v-206h384v206z" fill="url(#linear-gradient)"/></svg>