<svg id="Layer_1" height="512" viewBox="0 0 512 512" width="512" xmlns="http://www.w3.org/2000/svg" xmlns:xlink="http://www.w3.org/1999/xlink" data-name="Layer 1"><linearGradient id="linear-gradient" gradientUnits="userSpaceOnUse" x1="256" x2="256" y1="42.323" y2="469.677"><stop offset="0" stop-color="#01f1fe"/><stop offset="1" stop-color="#4fadfe"/></linearGradient><path d="m512 356.977v-.049l-2.066-282.839a32 32 0 0 0 -32-31.766h-284.9a32 32 0 0 0 -32 32v181.331a112.509 112.509 0 1 0 64 101.507v-250.838h221.133l1.088 148.983a112.506 112.506 0 1 0 64.745 101.855c0-.061 0-.123 0-.184zm-399.482 48.7a48.516 48.516 0 1 1 48.516-48.516 48.571 48.571 0 0 1 -48.518 48.516zm286.967 0a48.516 48.516 0 1 1 48.515-48.583v.1a48.571 48.571 0 0 1 -48.517 48.483z" fill="url(#linear-gradient)"/></svg>