<svg id="Layer_1" height="512" viewBox="0 0 512 512" width="512" xmlns="http://www.w3.org/2000/svg" xmlns:xlink="http://www.w3.org/1999/xlink" data-name="Layer 1"><linearGradient id="linear-gradient" gradientUnits="userSpaceOnUse" x1="256" x2="256" y2="512"><stop offset="0" stop-color="#01f1fe"/><stop offset="1" stop-color="#4fadfe"/></linearGradient><path d="m406 300a105.815 105.815 0 0 0 -81.244 38l-118.147-48.617a106.181 106.181 0 0 0 3.8-51.7l119.006-58.465a105.665 105.665 0 1 0 -28.241-57.432l-120.406 59.149a106 106 0 1 0 -13.453 161.486l133.056 54.749c-.242 2.912-.371 5.856-.371 8.83a106 106 0 1 0 106-106zm0-236a42 42 0 1 1 -42 42 42.047 42.047 0 0 1 42-42zm-342 192a42 42 0 1 1 42 42 42.047 42.047 0 0 1 -42-42zm342 192a42 42 0 1 1 42-42 42.047 42.047 0 0 1 -42 42z" fill="url(#linear-gradient)"/></svg>