<svg id="Layer_1" height="512" viewBox="0 0 512 512" width="512" xmlns="http://www.w3.org/2000/svg" xmlns:xlink="http://www.w3.org/1999/xlink" data-name="Layer 1"><linearGradient id="linear-gradient" gradientUnits="userSpaceOnUse" x1="256" x2="256" y1="-.002" y2="512"><stop offset="0" stop-color="#01f1fe"/><stop offset="1" stop-color="#4fadfe"/></linearGradient><path d="m502.628 9.373a32 32 0 0 0 -32.805-7.712l-448 150.272a32 32 0 0 0 -4.453 58.8l187.509 96.39 96.39 187.509a32 32 0 0 0 28.451 17.368q1.206 0 2.426-.091a32 32 0 0 0 27.921-21.733l150.272-448a32 32 0 0 0 -7.711-32.803zm-179.117 388.538-66.411-129.184a32 32 0 0 0 -13.831-13.83l-129.18-66.408 315.123-105.7z" fill="url(#linear-gradient)"/></svg>