<svg id="Layer_1" height="512" viewBox="0 0 512 512" width="512" xmlns="http://www.w3.org/2000/svg" xmlns:xlink="http://www.w3.org/1999/xlink" data-name="Layer 1"><linearGradient id="linear-gradient" gradientUnits="userSpaceOnUse" x1="256" x2="256" y2="512"><stop offset="0" stop-color="#01f1fe"/><stop offset="1" stop-color="#4fadfe"/></linearGradient><path d="m502.628 457.373-165.91-165.91a184.143 184.143 0 0 0 33.63-106.289c0-102.106-83.069-185.174-185.174-185.174s-185.174 83.068-185.174 185.174 83.068 185.174 185.174 185.174a184.143 184.143 0 0 0 106.289-33.63l165.909 165.909a32 32 0 1 0 45.256-45.254zm-438.628-272.199a121.174 121.174 0 1 1 121.174 121.174 121.311 121.311 0 0 1 -121.174-121.174z" fill="url(#linear-gradient)"/></svg>