<svg id="Layer_1" height="512" viewBox="0 0 512 512" width="512" xmlns="http://www.w3.org/2000/svg" xmlns:xlink="http://www.w3.org/1999/xlink" data-name="Layer 1"><linearGradient id="linear-gradient" gradientUnits="userSpaceOnUse" x1="256" x2="256" y1="18.6" y2="493.4"><stop offset="0" stop-color="#01f1fe"/><stop offset="1" stop-color="#4fadfe"/></linearGradient><path d="m434.925 87.847h-66.779l-6.063-41.837a32 32 0 0 0 -31.67-27.41h-148.826a32 32 0 0 0 -31.67 27.41l-6.063 41.837h-66.779a77.163 77.163 0 0 0 -77.075 77.075v251.4a77.163 77.163 0 0 0 77.075 77.078h357.85a77.163 77.163 0 0 0 77.075-77.075v-251.4a77.163 77.163 0 0 0 -77.075-77.078zm13.075 328.478a13.251 13.251 0 0 1 -13.075 13.075h-357.85a13.251 13.251 0 0 1 -13.075-13.075v-251.4a13.251 13.251 0 0 1 13.075-13.075h94.476a32 32 0 0 0 31.67-27.41l6.063-41.84h93.432l6.063 41.837a32 32 0 0 0 31.67 27.41h94.476a13.251 13.251 0 0 1 13.075 13.075zm-192-253.5a120.8 120.8 0 1 0 120.8 120.8 120.938 120.938 0 0 0 -120.8-120.802zm0 177.6a56.8 56.8 0 1 1 56.8-56.8 56.865 56.865 0 0 1 -56.8 56.799z" fill="url(#linear-gradient)"/></svg>