<svg id="Layer_1" height="512" viewBox="0 0 512 512" width="512" xmlns="http://www.w3.org/2000/svg" xmlns:xlink="http://www.w3.org/1999/xlink" data-name="Layer 1"><linearGradient id="linear-gradient" gradientUnits="userSpaceOnUse" x1="256" x2="256" y2="512"><stop offset="0" stop-color="#01f1fe"/><stop offset="1" stop-color="#4fadfe"/></linearGradient><path d="m449.071 101.222h-93.59v-69.222a32 32 0 0 0 -32-32h-260.552a32 32 0 0 0 -32 32v346.778a32 32 0 0 0 32 32h93.59v69.222a32 32 0 0 0 32 32h260.552a32 32 0 0 0 32-32v-346.778a32 32 0 0 0 -32-32zm-292.552 32v213.556h-61.59v-282.778h196.552v37.222h-102.962a32 32 0 0 0 -32 32zm260.552 314.778h-196.552v-282.778h196.552zm-159.971-193.889a32 32 0 0 1 32-32h59.4a32 32 0 0 1 0 64h-59.4a32 32 0 0 1 -32-32zm0 105a32 32 0 0 1 32-32h59.4a32 32 0 0 1 0 64h-59.4a32 32 0 0 1 -32-32z" fill="url(#linear-gradient)"/></svg>