<svg id="Layer_1" height="512" viewBox="0 0 512 512" width="512" xmlns="http://www.w3.org/2000/svg" xmlns:xlink="http://www.w3.org/1999/xlink" data-name="Layer 1"><linearGradient id="linear-gradient" gradientUnits="userSpaceOnUse" x1="256" x2="256" y1="18.613" y2="493.387"><stop offset="0" stop-color="#01f1fe"/><stop offset="1" stop-color="#4fadfe"/></linearGradient><path d="m480.765 311.336a106.788 106.788 0 0 0 -124.665-19.229l-54.993-55.355 162.517-163.586a32 32 0 1 0 -45.4-45.106l-162.224 163.289-162.222-163.289a32 32 0 1 0 -45.4 45.106l162.515 163.586-54.993 55.355a106.516 106.516 0 1 0 45.3 45.215l54.8-55.166 54.833 55.194a106.647 106.647 0 1 0 169.932-26.014zm-343.965 105.564a42.646 42.646 0 1 1 12.489-30.153 42.365 42.365 0 0 1 -12.489 30.153zm298.711 0a42.644 42.644 0 1 1 0-60.307 42.359 42.359 0 0 1 -.002 60.307z" fill="url(#linear-gradient)"/></svg>