<svg id="Layer_1" height="512" viewBox="0 0 512 512" width="512" xmlns="http://www.w3.org/2000/svg" xmlns:xlink="http://www.w3.org/1999/xlink" data-name="Layer 1"><linearGradient id="linear-gradient" gradientUnits="userSpaceOnUse" x1="256" x2="256" y2="512"><stop offset="0" stop-color="#01f1fe"/><stop offset="1" stop-color="#4fadfe"/></linearGradient><path d="m512 377.2v102.8a32 32 0 0 1 -32 32h-117.2a32 32 0 1 1 0-64h85.2v-70.8a32 32 0 0 1 64 0zm-480-210.4a32 32 0 0 0 32-32v-70.8h85.2a32 32 0 0 0 0-64h-117.2a32 32 0 0 0 -32 32v102.8a32 32 0 0 0 32 32zm117.2 281.2h-85.2v-70.8a32 32 0 0 0 -64 0v102.8a32 32 0 0 0 32 32h117.2a32 32 0 1 0 0-64zm330.8-448h-117.2a32 32 0 0 0 0 64h85.2v70.8a32 32 0 0 0 64 0v-102.8a32 32 0 0 0 -32-32zm0 224h-448a32 32 0 0 0 0 64h448a32 32 0 0 0 0-64z" fill="url(#linear-gradient)"/></svg>