<svg id="Layer_1" height="512" viewBox="0 0 512 512" width="512" xmlns="http://www.w3.org/2000/svg" xmlns:xlink="http://www.w3.org/1999/xlink" data-name="Layer 1"><linearGradient id="linear-gradient" gradientUnits="userSpaceOnUse" x1="256" x2="256" y2="512"><stop offset="0" stop-color="#01f1fe"/><stop offset="1" stop-color="#4fadfe"/></linearGradient><path d="m512 256a32 32 0 0 1 -32 32h-307.242v19.8a32 32 0 1 1 -64 0v-19.8h-76.758a32 32 0 0 1 0-64h76.758v-19.8a32 32 0 1 1 64 0v19.8h307.242a32 32 0 0 1 32 32zm-480-140.2h278.357v19.8a32 32 0 0 0 64 0v-19.8h105.643a32 32 0 0 0 0-64h-105.643v-19.8a32 32 0 0 0 -64 0v19.8h-278.357a32 32 0 0 0 0 64zm448 280.4h-216.682v-19.8a32 32 0 1 0 -64 0v19.8h-167.318a32 32 0 0 0 0 64h167.318v19.8a32 32 0 1 0 64 0v-19.8h216.682a32 32 0 0 0 0-64z" fill="url(#linear-gradient)"/></svg>