<svg id="Layer_1" height="512" viewBox="0 0 512 512" width="512" xmlns="http://www.w3.org/2000/svg" xmlns:xlink="http://www.w3.org/1999/xlink" data-name="Layer 1"><linearGradient id="linear-gradient" gradientUnits="userSpaceOnUse" x1="256" x2="256" y1="79.557" y2="432.443"><stop offset="0" stop-color="#01f1fe"/><stop offset="1" stop-color="#4fadfe"/></linearGradient><path d="m507.73 240.03c-27.7-48.092-64.53-88.135-106.518-115.8-44.348-29.23-94.562-44.673-145.212-44.673s-100.864 15.443-145.212 44.67c-41.988 27.673-78.822 67.711-106.518 115.803a32 32 0 0 0 0 31.94c27.7 48.092 64.53 88.135 106.518 115.8 44.348 29.23 94.562 44.673 145.212 44.673s100.864-15.443 145.212-44.67c41.988-27.668 78.821-67.711 106.518-115.8a32 32 0 0 0 0-31.943zm-251.73 128.413c-71.373 0-139.954-41.693-186.441-112.443 46.487-70.75 115.068-112.443 186.441-112.443s139.954 41.693 186.441 112.443c-46.487 70.75-115.069 112.443-186.441 112.443zm0-192.735a80.292 80.292 0 1 0 80.293 80.292 80.383 80.383 0 0 0 -80.293-80.292zm0 96.584a16.292 16.292 0 1 1 16.293-16.292 16.31 16.31 0 0 1 -16.293 16.292z" fill="url(#linear-gradient)"/></svg>