<svg id="Layer_1" height="512" viewBox="0 0 512 512" width="512" xmlns="http://www.w3.org/2000/svg" xmlns:xlink="http://www.w3.org/1999/xlink" data-name="Layer 1"><linearGradient id="linear-gradient" gradientUnits="userSpaceOnUse" x1="256" x2="256" y1="6.417" y2="505.591"><stop offset="0" stop-color="#01f1fe"/><stop offset="1" stop-color="#4fadfe"/></linearGradient><path d="m480 6.417h-448a32 32 0 0 0 -32 32v337.534a32 32 0 0 0 32 32h100.779a160.82 160.82 0 0 0 -40.5 51.516 32 32 0 1 0 57.438 28.233c17.841-36.3 59.559-59.749 106.283-59.749s88.442 23.449 106.283 59.749a32 32 0 1 0 57.436-28.233 160.82 160.82 0 0 0 -40.5-51.516h100.781a32 32 0 0 0 32-32v-337.534a32 32 0 0 0 -32-32zm-32 337.534h-384v-273.534h384z" fill="url(#linear-gradient)"/></svg>