<svg id="Layer_1" height="512" viewBox="0 0 512 512" width="512" xmlns="http://www.w3.org/2000/svg" xmlns:xlink="http://www.w3.org/1999/xlink" data-name="Layer 1"><linearGradient id="linear-gradient" gradientUnits="userSpaceOnUse" x1="256" x2="256" y2="512"><stop offset="0" stop-color="#01f1fe"/><stop offset="1" stop-color="#4fadfe"/></linearGradient><path d="m446.892 179.983h-272.4v-34.47a81.421 81.421 0 0 1 148.088-46.828 32 32 0 1 0 52.234-36.985 145.912 145.912 0 0 0 -118.814-61.7c-80.236 0-145.513 65.276-145.513 145.513v34.47h-45.379a32 32 0 0 0 -32 32v268.017a32 32 0 0 0 32 32h381.784a32 32 0 0 0 32-32v-268.017a32 32 0 0 0 -32-32zm-32 268.017h-317.784v-204.017h317.784z" fill="url(#linear-gradient)"/></svg>