<svg id="Layer_1" height="512" viewBox="0 0 512 512" width="512" xmlns="http://www.w3.org/2000/svg" xmlns:xlink="http://www.w3.org/1999/xlink" data-name="Layer 1"><linearGradient id="linear-gradient" gradientUnits="userSpaceOnUse" x1="256.002" x2="256.002" y1="-.002" y2="512"><stop offset="0" stop-color="#01f1fe"/><stop offset="1" stop-color="#4fadfe"/></linearGradient><path d="m507.284 363.114a32 32 0 0 0 -17.56-23.477l-136.411-66.359a32 32 0 0 0 -36.626 6.148l-23.143 23.142a349.616 349.616 0 0 1 -86.544-90.227l21.3-21.3a32 32 0 0 0 6.148-36.625l-66.358-136.416a32 32 0 0 0 -51.4-8.629l-103.043 103.042a31.993 31.993 0 0 0 -9.318 24.487c5.4 92.731 44.762 182.02 110.83 251.417 65.926 69.248 153.079 113.1 245.4 123.482a32.006 32.006 0 0 0 26.2-9.172l111.594-111.588a32 32 0 0 0 8.931-27.925zm-154.565 83.05c-149.619-23.836-268.074-148.719-283.374-298.939l60.84-60.84 36.737 75.521-23 23a32 32 0 0 0 -5.233 38.369 413.308 413.308 0 0 0 142.071 147.712 32 32 0 0 0 39.462-4.586l25.6-25.6 75.522 36.738zm-73.919-418.331a32.008 32.008 0 0 1 35.893-27.561 223.982 223.982 0 0 1 192.76 192.761 32 32 0 0 1 -27.56 35.9 32.431 32.431 0 0 1 -4.208.276 32.006 32.006 0 0 1 -31.685-27.842 159.978 159.978 0 0 0 -137.642-137.639 32 32 0 0 1 -27.558-35.895zm.895 95.771a32 32 0 0 1 39.4-22.265 125.683 125.683 0 0 1 87.294 87.294 32 32 0 1 1 -61.664 17.135 61.687 61.687 0 0 0 -42.767-42.768 32 32 0 0 1 -22.265-39.4z" fill="url(#linear-gradient)"/></svg>