<svg id="Layer_1" height="512" viewBox="0 0 512 512" width="512" xmlns="http://www.w3.org/2000/svg" xmlns:xlink="http://www.w3.org/1999/xlink" data-name="Layer 1"><linearGradient id="linear-gradient" gradientUnits="userSpaceOnUse" x1="256" x2="256" y1="109.05" y2="402.95"><stop offset="0" stop-color="#01f1fe"/><stop offset="1" stop-color="#4fadfe"/></linearGradient><path d="m480 205.75h-226.628a128.7 128.7 0 1 0 0 64h75.628v59.2a32 32 0 1 0 64 0v-59.2h55v101.2a32 32 0 1 0 64 0v-133.2a32 32 0 0 0 -32-32zm-351.3 96.7a64.7 64.7 0 1 1 64.7-64.71v.02a64.773 64.773 0 0 1 -64.7 64.69z" fill="url(#linear-gradient)"/></svg>