<svg id="Layer_1" height="512" viewBox="0 0 512 512" width="512" xmlns="http://www.w3.org/2000/svg" xmlns:xlink="http://www.w3.org/1999/xlink" data-name="Layer 1"><linearGradient id="linear-gradient" gradientUnits="userSpaceOnUse" x1="256.004" x2="256.004" y1="-.008" y2="512"><stop offset="0" stop-color="#01f1fe"/><stop offset="1" stop-color="#4fadfe"/></linearGradient><path d="m281.976 24.44a32 32 0 0 1 38.654-23.535 259.57 259.57 0 0 1 190.47 190.466 32 32 0 1 1 -62.19 15.117c-17.037-70.072-73.323-126.357-143.399-143.388a32 32 0 0 1 -23.535-38.66zm205.582 251.1a32 32 0 0 0 -38.653 23.536 194.622 194.622 0 0 1 -189.686 148.924c-107.644 0-195.219-87.575-195.219-195.219a194.62 194.62 0 0 1 148.925-189.681 32 32 0 1 0 -15.116-62.195 258.986 258.986 0 0 0 -197.809 251.876 259.123 259.123 0 0 0 420.576 202.876 260.5 260.5 0 0 0 90.524-141.466 32 32 0 0 0 -23.542-38.653z" fill="url(#linear-gradient)"/></svg>