<svg id="Layer_1" height="512" viewBox="0 0 512 512" width="512" xmlns="http://www.w3.org/2000/svg" xmlns:xlink="http://www.w3.org/1999/xlink" data-name="Layer 1"><linearGradient id="linear-gradient" gradientUnits="userSpaceOnUse" x1="256" x2="256" y2="512"><stop offset="0" stop-color="#01f1fe"/><stop offset="1" stop-color="#4fadfe"/></linearGradient><path d="m436.827 75.173c-48.475-48.473-112.694-75.173-180.827-75.173s-132.352 26.7-180.827 75.173-75.173 112.694-75.173 180.827v224a32 32 0 0 0 32 32c79.843 0 144.8-64.957 144.8-144.8a144.85 144.85 0 0 0 -110.536-140.711c14.241-91.906 93.902-162.489 189.736-162.489 96.4 0 176.438 71.408 189.98 164.113a31.862 31.862 0 0 0 -11.479 1.6 144.561 144.561 0 0 0 -99.301 137.487c0 79.843 64.957 144.8 144.8 144.8a32 32 0 0 0 32-32v-224c0-68.133-26.7-132.352-75.173-180.827zm-324.027 292.027a80.922 80.922 0 0 1 -48.8 74.193v-148.414a81.112 81.112 0 0 1 48.8 74.221zm335.2 74.193a80.823 80.823 0 0 1 0-148.417z" fill="url(#linear-gradient)"/></svg>