<svg id="Layer_1" height="512" viewBox="0 0 512 512" width="512" xmlns="http://www.w3.org/2000/svg" xmlns:xlink="http://www.w3.org/1999/xlink" data-name="Layer 1"><linearGradient id="linear-gradient" gradientUnits="userSpaceOnUse" x1="256" x2="256" y2="512"><stop offset="0" stop-color="#01f1fe"/><stop offset="1" stop-color="#4fadfe"/></linearGradient><path d="m497.462 151.055-224-145.87a32 32 0 0 0 -34.924 0l-224 145.87a32 32 0 0 0 17.462 58.815h22.952v270.13a32 32 0 0 0 32 32h338.1a32 32 0 0 0 32-32v-270.13h22.948a32 32 0 0 0 17.462-58.815zm-104.414 26.815v270.13h-274.1v-270.13a31.841 31.841 0 0 0 -4.135-15.744l141.187-91.938 141.183 91.938a31.841 31.841 0 0 0 -4.135 15.744z" fill="url(#linear-gradient)"/></svg>