<svg id="Layer_1" height="512" viewBox="0 0 512 512" width="512" xmlns="http://www.w3.org/2000/svg" xmlns:xlink="http://www.w3.org/1999/xlink" data-name="Layer 1"><linearGradient id="linear-gradient" gradientUnits="userSpaceOnUse" x1="256" x2="256" y2="512"><stop offset="0" stop-color="#01f1fe"/><stop offset="1" stop-color="#4fadfe"/></linearGradient><path d="m480 448h-279.646a32.365 32.365 0 1 1 0-64.729h247.246a32 32 0 0 0 31.487-26.293l32.4-178.8a32 32 0 0 0 -31.487-37.707h-298.181l-28.34-116.062a32 32 0 0 0 -31.086-24.409h-90.393a32 32 0 0 0 0 64h65.267l64.322 263.422a96.358 96.358 0 0 0 38.765 184.578h279.646a32 32 0 0 0 0-64zm-38.32-243.529-20.8 114.8h-195.4l-28.032-114.8z" fill="url(#linear-gradient)"/></svg>