<svg id="Layer_1" height="512" viewBox="0 0 512 512" width="512" xmlns="http://www.w3.org/2000/svg" xmlns:xlink="http://www.w3.org/1999/xlink" data-name="Layer 1"><linearGradient id="linear-gradient" gradientUnits="userSpaceOnUse" x1="256" x2="256" y2="512"><stop offset="0" stop-color="#01f1fe"/><stop offset="1" stop-color="#4fadfe"/></linearGradient><path d="m505.158 286.857a32 32 0 0 0 -25.158-12.224h-220.781a21.877 21.877 0 0 1 -21.852-21.852v-220.781a32 32 0 0 0 -39.558-31.095 258.988 258.988 0 0 0 -197.809 251.876 259.124 259.124 0 0 0 420.576 202.876 260.5 260.5 0 0 0 90.524-141.466 32 32 0 0 0 -5.942-27.334zm-245.939 161.143c-107.644 0-195.219-87.575-195.219-195.219a194.662 194.662 0 0 1 109.367-175.458v175.458a85.949 85.949 0 0 0 85.852 85.852h175.458a194.662 194.662 0 0 1 -175.458 109.367zm53.851-217.07h166.93a32 32 0 0 0 31.1-39.559 259.57 259.57 0 0 0 -190.47-190.466 32 32 0 0 0 -39.56 31.095v166.93a32 32 0 0 0 32 32zm32-153.419a198.3 198.3 0 0 1 89.42 89.419h-89.42z" fill="url(#linear-gradient)"/></svg>