<svg id="Layer_1" height="512" viewBox="0 0 512 512" width="512" xmlns="http://www.w3.org/2000/svg" xmlns:xlink="http://www.w3.org/1999/xlink" data-name="Layer 1"><linearGradient id="linear-gradient" gradientUnits="userSpaceOnUse" x1="256" x2="256" y1="-.034" y2="512.033"><stop offset="0" stop-color="#01f1fe"/><stop offset="1" stop-color="#4fadfe"/></linearGradient><path d="m120.236 120.235a192.476 192.476 0 0 0 -37.889 217.779 32 32 0 1 1 -57.872 27.328 256.071 256.071 0 0 1 340.867-340.867 32 32 0 1 1 -27.328 57.871 192.48 192.48 0 0 0 -217.778 37.889zm367.289 26.423a32 32 0 0 0 -57.872 27.328 192.132 192.132 0 0 1 -255.667 255.668 32 32 0 1 0 -27.328 57.871 254.749 254.749 0 0 0 109.042 24.508 259.134 259.134 0 0 0 42.269-3.486 256.071 256.071 0 0 0 189.556-361.889z" fill="url(#linear-gradient)"/></svg>