<svg id="Layer_1" height="512" viewBox="0 0 512 512" width="512" xmlns="http://www.w3.org/2000/svg" xmlns:xlink="http://www.w3.org/1999/xlink" data-name="Layer 1"><linearGradient id="linear-gradient" gradientUnits="userSpaceOnUse" x1="256" x2="256" y1="73.038" y2="438.962"><stop offset="0" stop-color="#01f1fe"/><stop offset="1" stop-color="#4fadfe"/></linearGradient><path d="m484.029 191.769-88.922-98.856a59.293 59.293 0 0 0 -44.607-19.875h-290.5a60.068 60.068 0 0 0 -60 60v245.924a60.068 60.068 0 0 0 60 60h290.5a59.294 59.294 0 0 0 44.608-19.874l88.926-98.859c13.019-14.479 27.966-34.865 27.966-64.229s-14.949-49.757-27.971-64.231zm-47.58 85.662-87.731 97.531h-284.718v-237.924h284.716l87.732 97.533c9.588 10.657 11.552 16.274 11.552 21.429s-1.965 10.77-11.553 21.431zm-75.249-21.431a37.5 37.5 0 0 1 -37.5 37.5h-.676a37.5 37.5 0 1 1 0-75h.676a37.5 37.5 0 0 1 37.5 37.5z" fill="url(#linear-gradient)"/></svg>