<svg id="Layer_1" height="512" viewBox="0 0 512 512" width="512" xmlns="http://www.w3.org/2000/svg" xmlns:xlink="http://www.w3.org/1999/xlink" data-name="Layer 1"><linearGradient id="linear-gradient" gradientUnits="userSpaceOnUse" x1="256" x2="256" y1="44.767" y2="467.18"><stop offset="0" stop-color="#01f1fe"/><stop offset="1" stop-color="#4fadfe"/></linearGradient><path d="m510.058 360.268-22.858-108.168a132.447 132.447 0 0 0 -132.035-125.759h-67.165v-49.574a32 32 0 0 0 -64 0v49.574h-67.165a132.447 132.447 0 0 0 -132.035 125.759l-22.858 108.167a88.528 88.528 0 0 0 145.819 84.189l59.825-53.742h96.828l59.826 53.742a88.554 88.554 0 0 0 145.818-84.188zm-74.364 39.575a24.193 24.193 0 0 1 -28.685-3l-68.948-61.937a32 32 0 0 0 -21.385-8.194h-121.353a32.007 32.007 0 0 0 -21.385 8.194l-68.946 61.937a24.554 24.554 0 0 1 -40.432-23.343l23.428-110.852a31.983 31.983 0 0 0 .681-5.826c.906-36.658 31.485-66.481 68.166-66.481h198.33c36.681 0 67.26 29.823 68.166 66.479a31.994 31.994 0 0 0 .681 5.827l23.428 110.853a24.191 24.191 0 0 1 -11.746 26.343z" fill="url(#linear-gradient)"/></svg>