<svg id="Layer_1" height="512" viewBox="0 0 512 512" width="512" xmlns="http://www.w3.org/2000/svg" xmlns:xlink="http://www.w3.org/1999/xlink" data-name="Layer 1"><linearGradient id="linear-gradient" gradientUnits="userSpaceOnUse" x1="256" x2="256" y1="-.006" y2="512"><stop offset="0" stop-color="#01f1fe"/><stop offset="1" stop-color="#4fadfe"/></linearGradient><path d="m480 116.869h-70.576l-58.236-100.869a32 32 0 0 0 -43.713-11.713l-195 112.582h-80.475a32 32 0 0 0 -32 32v331.131a32 32 0 0 0 32 32h448a32 32 0 0 0 32-32v-331.131a32 32 0 0 0 -32-32zm-168.238-41.156 23.761 41.156h-95.046zm-247.762 372.287v-267.131h384v48.813h-82.436a84.753 84.753 0 0 0 0 169.506h82.436v48.812zm384-112.812h-82.436a20.753 20.753 0 0 1 0-41.506h82.436z" fill="url(#linear-gradient)"/></svg>