<svg id="Layer_1" height="512" viewBox="0 0 512 512" width="512" xmlns="http://www.w3.org/2000/svg" xmlns:xlink="http://www.w3.org/1999/xlink" data-name="Layer 1"><linearGradient id="linear-gradient" gradientUnits="userSpaceOnUse" x1="256" x2="256" y2="512"><stop offset="0" stop-color="#01f1fe"/><stop offset="1" stop-color="#4fadfe"/></linearGradient><path d="m447.439 84.507-178.111-81.6a32 32 0 0 0 -26.656 0l-178.111 81.6a32 32 0 0 0 -18.672 29.093v157.8c0 55.893 24.33 104.4 70.361 140.267l120.081 93.575a32 32 0 0 0 39.338 0l120.081-93.576c46.031-35.871 70.361-84.374 70.361-140.267v-157.799a32 32 0 0 0 -18.672-29.093zm-45.328 186.893c0 35.946-15.376 66.154-45.7 89.785l-100.411 78.246-100.41-78.247c-30.325-23.631-45.7-53.839-45.7-89.785v-137.261l146.11-66.938 146.111 66.94z" fill="url(#linear-gradient)"/></svg>