<svg id="Layer_1" height="512" viewBox="0 0 512 512" width="512" xmlns="http://www.w3.org/2000/svg" xmlns:xlink="http://www.w3.org/1999/xlink" data-name="Layer 1"><linearGradient id="linear-gradient" gradientUnits="userSpaceOnUse" x1="256" x2="256" y1="13.744" y2="498.207"><stop offset="0" stop-color="#01f1fe"/><stop offset="1" stop-color="#4fadfe"/></linearGradient><path d="m512 178.807a163.979 163.979 0 0 1 -48.207 116.771l-173.8 173.805a98.571 98.571 0 0 1 -139.4-139.4l162.938-162.942a32 32 0 0 1 45.255 45.259l-162.942 162.938a34.57 34.57 0 0 0 48.889 48.889l173.805-173.8a101.14 101.14 0 0 0 -143.038-143.037l-220.873 220.877a32 32 0 0 1 -45.254-45.256l220.877-220.876c64.387-64.389 169.154-64.388 233.543 0a163.982 163.982 0 0 1 48.207 116.772z" fill="url(#linear-gradient)"/></svg>