<svg id="Layer_1" height="512" viewBox="0 0 512 512" width="512" xmlns="http://www.w3.org/2000/svg" xmlns:xlink="http://www.w3.org/1999/xlink" data-name="Layer 1"><linearGradient id="linear-gradient" gradientUnits="userSpaceOnUse" x1="256" x2="256" y1="48.798" y2="463.2"><stop offset="0" stop-color="#01f1fe"/><stop offset="1" stop-color="#4fadfe"/></linearGradient><path d="m499.921 55.757a31.994 31.994 0 0 0 -27.121-6.138l-413.677 95.481c-34.811 8.033-59.123 44.107-59.123 87.721v9.158c0 43.621 24.313 79.689 59.124 87.721l89.691 20.7v80.8a32 32 0 0 0 64 0v-66.025l259.985 60.006a32 32 0 0 0 39.2-31.181v-313.2a32 32 0 0 0 -12.079-25.043zm-426.399 211.586c-2.3-.638-9.522-9.482-9.522-25.364v-9.158c0-15.885 7.228-24.727 9.517-25.363l75.3-17.379v94.642zm374.478 86.429-235.185-54.28v-124.184l235.185-54.281z" fill="url(#linear-gradient)"/></svg>