<svg id="Layer_1" height="512" viewBox="0 0 512 512" width="512" xmlns="http://www.w3.org/2000/svg" xmlns:xlink="http://www.w3.org/1999/xlink" data-name="Layer 1"><linearGradient id="linear-gradient" gradientUnits="userSpaceOnUse" x1="256" x2="256" y2="512"><stop offset="0" stop-color="#01f1fe"/><stop offset="1" stop-color="#4fadfe"/></linearGradient><path d="m509.117 143.579-56.917-124.852a32 32 0 0 0 -29.118-18.727h-334.164a32 32 0 0 0 -29.118 18.727l-56.917 124.852a31.993 31.993 0 0 0 -2.883 13.274v323.147a32 32 0 0 0 32 32h448a32 32 0 0 0 32-32v-323.147a31.993 31.993 0 0 0 -2.883-13.274zm-399.617-79.579h293l27.741 60.853h-348.484zm-45.5 384v-259.147h384v259.147zm266.065-146.829a32 32 0 0 1 0 45.255l-51.438 51.438a32 32 0 0 1 -45.254 0l-51.438-51.438a32 32 0 0 1 42.065-48.039v-51.587a32 32 0 0 1 64 0v51.586a32 32 0 0 1 42.065 2.785z" fill="url(#linear-gradient)"/></svg>