<svg id="Layer_1" height="512" viewBox="0 0 512 512" width="512" xmlns="http://www.w3.org/2000/svg" xmlns:xlink="http://www.w3.org/1999/xlink" data-name="Layer 1"><linearGradient id="linear-gradient" gradientUnits="userSpaceOnUse" x1="256" x2="256" y1="40.591" y2="471.409"><stop offset="0" stop-color="#01f1fe"/><stop offset="1" stop-color="#4fadfe"/></linearGradient><path d="m480 124.778h-115.329v-52.187a32 32 0 0 0 -32-32h-300.671a32 32 0 0 0 -32 32v366.818a32 32 0 0 0 32 32h300.671a32 32 0 0 0 32-32v-49.18h14.6c73.189 0 132.729-59.541 132.729-132.729v-100.722a32 32 0 0 0 -32-32zm-179.329 282.631h-236.671v-302.818h236.671zm147.329-149.909a68.8 68.8 0 0 1 -68.725 68.725h-14.6v-137.447h83.325z" fill="url(#linear-gradient)"/></svg>